<svg xmlns="http://www.w3.org/2000/svg" viewBox="0 0 310 34.4"><defs><style>.cls-1{fill:#4caf50;}.cls-2{fill:#fafafa;}.cls-3{fill:#673ab7;}.cls-4{fill:#5b22b1;}.cls-5{fill:#602eb3;}.cls-6{fill:#683ab7;}.cls-7{fill:#048a3e;}.cls-8{fill:#fc7a0a;}.cls-9{fill:#01baf1;}.cls-10{fill:#063070;}.cls-11{fill:#073070;}.cls-12{fill:#052f6f;}.cls-13{fill:#01b9f1;}.cls-14,.cls-20{fill:#fff;}.cls-14{stroke:#f2f2f2;stroke-width:0.2px;}.cls-15{fill:#fbbb00;}.cls-16{fill:#518ef8;}.cls-17{fill:#28b446;}.cls-18{fill:#f14336;}.cls-19{fill:#5792f1;}.cls-21{fill:#4c8cec;}</style></defs><title>app icons up</title><g id="Layer_2" data-name="Layer 2"><g id="new"><g id="Group_321" data-name="Group 321"><g id="whatsapp"><path id="Path_2173" data-name="Path 2173" class="cls-1" d="M227.23,2.71h0A14.59,14.59,0,0,0,215.4,25.87l-1.82,5.43,5.61-1.79a14.61,14.61,0,1,0,8-26.8Z"/><path id="Path_2174" data-name="Path 2174" class="cls-2" d="M233.74,22.81a3.21,3.21,0,0,1-2.16,1.87c-.58.15-1.33.27-3.86-1a15.25,15.25,0,0,1-5.49-5.84,8.4,8.4,0,0,1-1.31-4,4.62,4.62,0,0,1,1.13-3.23,1.45,1.45,0,0,1,1.12-.48l.37,0c.33,0,.49,0,.7.65.27.77.92,2.68,1,2.87a.9.9,0,0,1,.05.72,2.34,2.34,0,0,1-.36.61c-.16.23-.32.4-.48.64a.71.71,0,0,0-.13.83,12,12,0,0,0,1.78,2.68,7.92,7.92,0,0,0,2.59,1.92.61.61,0,0,0,.78-.15c.31-.44.59-.9.86-1.37a.56.56,0,0,1,.72-.32l.07,0c.29.12,1.87,1.06,2.19,1.26s.54.29.62.45A3.88,3.88,0,0,1,233.74,22.81Z"/></g><g id="Ponepe"><g id="Layer_1-2" data-name="Layer 1"><path id="Path_2152" data-name="Path 2152" class="cls-3" d="M293.8,0a16.23,16.23,0,1,1-16.26,16.2c0-.18,0-.37,0-.55A16.26,16.26,0,0,1,293.8,0Zm5,13.07.11-.13c.31,0,.61-.07.91-.07,1.55,0,1.36.16,1.4-1.41,0-.5-.2-.68-.68-.67-1,0-2,0-3,0h-.1a3.37,3.37,0,0,1-.7-.61c-1.17-1.85-2.31-3.72-3.49-5.57a1.27,1.27,0,0,0-.74-.53,8.59,8.59,0,0,0-1.52,0c-.41,0-.5.25-.41.58a1.23,1.23,0,0,0,.25.48c1.36,1.84,2.74,3.68,4.12,5.52l0,.15-1.62,0c-1.87,0-3.73,0-5.61,0-.2,0-.58.26-.57.38,0,.55-.3,1.17.23,1.63.08.07.24,0,.37,0a7.85,7.85,0,0,0,1,0c.46,0,.6.13.6.59,0,1.83,0,3.67,0,5.51a3.43,3.43,0,0,0,2.78,3.6,4.15,4.15,0,0,0,4.38-.94v4.22c0,1.13.12,1.25,1.25,1.17.12,0,.24-.1.35-.09.72.05.75-.41.75-1q0-6.12,0-12.24c0-.21,0-.43.05-.65Z"/><path id="Path_2153" data-name="Path 2153" class="cls-4" d="M294.89,10.62l.1.1-.12.06Z"/><path id="Path_2154" data-name="Path 2154" class="cls-4" d="M297.49,10.77h-.06l-.05,0Z"/><path id="Path_2155" data-name="Path 2155" class="cls-5" d="M298.79,13.07l.12-.14Z"/><path id="Path_2156" data-name="Path 2156" class="cls-6" d="M291.52,16c0-.91,0-1.83,0-2.74,0-.42.15-.55.56-.55,1.28,0,2.57,0,3.85,0,.39,0,.54.14.54.54,0,1.78,0,3.58,0,5.37a1.92,1.92,0,0,1-1.77,2h-.27c-.38,0-.75,0-1.12,0A1.73,1.73,0,0,1,291.54,19V16Z"/></g></g><g id="Bhim"><g id="Layer_1-2-2" data-name="Layer 1-2"><path id="Path_2171" data-name="Path 2171" class="cls-7" d="M13.9,2,21.83,18.2,5.41,34.4Z"/><path id="Path_2172" data-name="Path 2172" class="cls-8" d="M8.49,1.18l7.93,16.19L0,33.57Z"/></g></g><g id="Paytm"><g id="Layer_1-3" data-name="Layer 1-3"><path id="Path_2146" data-name="Path 2146" class="cls-9" d="M97.84,12.19a3.61,3.61,0,0,1,4.72.24,3.86,3.86,0,0,1,2.29-1,3.42,3.42,0,0,1,3.63,3.18v9.79c0,.54-.14.68-.69.68H105.9c-.61,0-.76-.15-.76-.76V15.79c0-.7-.31-1-1-1s-1,.3-1,1v8.57c0,.59-.13.71-.73.72h-1.93c-.52,0-.67-.14-.68-.65q0-3,0-6.07V15.73c0-.63-.31-.92-1-.92s-1,.28-1,.93v8.57c0,.63-.13.76-.74.76H95.12c-.49,0-.66-.16-.66-.63V12.16c0-.45.18-.62.63-.62h2C97.64,11.54,97.73,11.61,97.84,12.19Z"/><path id="Path_2147" data-name="Path 2147" class="cls-10" d="M75.05,19.29v4.26a1.36,1.36,0,0,1-1.18,1.51,1.3,1.3,0,0,1-.34,0h-4a3,3,0,0,1-3.2-2.76c0-.1,0-.21,0-.31,0-1,0-1.95,0-2.92a3,3,0,0,1,2.79-3C69.68,16,70.3,16,70.92,16s.71-.11.71-.6-.16-.62-.74-.62H68.3c-.52,0-.68-.16-.69-.7v-1.9a.51.51,0,0,1,.42-.57h.13c1.29,0,2.59-.05,3.87.06a3,3,0,0,1,3,3c0,.13,0,.26,0,.39C75.06,16.42,75.05,17.86,75.05,19.29Zm-5.4,1.3v.13c-.05,1.48.12,1.35,1.44,1.34a.55.55,0,0,0,.61-.62c0-.34,0-.68,0-1,0-1.38,0-1.34-1.46-1.32h0a.54.54,0,0,0-.54.54v.95Z"/><path id="Path_2148" data-name="Path 2148" class="cls-11" d="M85,17.05v4.56a3.3,3.3,0,0,1-3,3.51H78c-.57,0-.72-.14-.72-.72v-2c0-.48.16-.63.65-.64h2.84c.65,0,.89-.18.87-.57s-.24-.51-.87-.51A10.68,10.68,0,0,1,79,20.64a3.2,3.2,0,0,1-2.72-3.36c0-1.68,0-3.36,0-5,0-.52.18-.69.71-.69h1.89c.6,0,.76.16.76.77v4.22c0,.7.12.82.83.82,1.18,0,1.19,0,1.19-1.16v-4c0-.52.16-.68.7-.69h2c.49,0,.67.19.67.68C85,13.84,85,15.45,85,17.05Z"/><path id="Path_2149" data-name="Path 2149" class="cls-12" d="M60.15,21.09v3.25c0,.6-.14.74-.72.74h-2c-.46,0-.6-.14-.6-.58V12.16c0-.43.16-.61.59-.61,1.69,0,3.39,0,5.08,0a2.83,2.83,0,0,1,3,2.7h0a25.73,25.73,0,0,1,0,4.21,2.84,2.84,0,0,1-3,2.61C61.71,21.1,61,21.09,60.15,21.09Zm0-6.18v2.82h1.39a.53.53,0,0,0,.56-.49v-.08c0-.56,0-1.12,0-1.67a.54.54,0,0,0-.5-.58h-.06c-.46,0-.91,0-1.39,0Z"/><path id="Path_2150" data-name="Path 2150" class="cls-13" d="M91.42,11.55h1.15c.48,0,.66.18.67.65v2.06c0,.46-.18.64-.65.65H91.44v9.45c0,.72-.1.81-.83.81H88.93c-.67,0-.78-.11-.78-.76v-9.5H86.91c-.49,0-.65-.17-.65-.64V12.16c0-.43.18-.61.6-.61a3.17,3.17,0,0,0,2.74-1.49,3.92,3.92,0,0,1,1-1c.43-.29.78,0,.79.48Z"/></g></g><g id="google_pay_2" data-name="google pay 2"><g id="Layer_1-4" data-name="Layer 1-4"><path id="Path_2184" data-name="Path 2184" class="cls-14" d="M160.28,1.08a15.83,15.83,0,1,1-15.83,15.83A15.82,15.82,0,0,1,160.28,1.08Z"/><path id="Path_2175" data-name="Path 2175" class="cls-15" d="M149.57,17.7l-.25,1h-.94a3.71,3.71,0,0,1,0-3.43h0l.84.15.36.83a2.27,2.27,0,0,0,0,1.48Z"/><path id="Path_2176" data-name="Path 2176" class="cls-16" d="M155.23,16.25a3.08,3.08,0,0,1,.07.68,3.94,3.94,0,0,1-.08.77,3.7,3.7,0,0,1-1.3,2.1h0l-1-.05-.15-.93a2.21,2.21,0,0,0,.95-1.12h-2V16.24h3.53Z"/><path id="Path_2177" data-name="Path 2177" class="cls-17" d="M153.92,19.8h0a3.68,3.68,0,0,1-5.17-.56,4.28,4.28,0,0,1-.37-.57l1.19-1A2.19,2.19,0,0,0,152.39,19a2.11,2.11,0,0,0,.34-.16Z"/><path id="Path_2178" data-name="Path 2178" class="cls-18" d="M154,14.1l-1.19,1a2.21,2.21,0,0,0-3,.7,2.31,2.31,0,0,0-.21.45l-1.2-1h0a3.68,3.68,0,0,1,5-1.58,4.73,4.73,0,0,1,.66.44Z"/><path id="Path_2179" data-name="Path 2179" class="cls-19" d="M153.29,31.11a15.83,15.83,0,1,0,14-28.4,15.56,15.56,0,0,0-4.15-1.37Z"/><path id="Path_2180" data-name="Path 2180" class="cls-20" d="M161,13.77a8.39,8.39,0,0,1,1.59-.12,2.62,2.62,0,0,1,1.79.53,1.7,1.7,0,0,1,.56,1.34,1.92,1.92,0,0,1-.48,1.37,2.67,2.67,0,0,1-2,.7,2.5,2.5,0,0,1-.67-.06V20.1H161Zm.82,3.08a2.7,2.7,0,0,0,.69.07c1,0,1.61-.49,1.61-1.37s-.6-1.26-1.51-1.26a4,4,0,0,0-.78.07Z"/><path id="Path_2181" data-name="Path 2181" class="cls-20" d="M168.33,20.1l-.07-.58h0a1.72,1.72,0,0,1-1.4.69A1.32,1.32,0,0,1,165.42,19v-.11c0-1.11,1-1.72,2.76-1.71v-.09a1,1,0,0,0-.81-1.06h-.24a2.28,2.28,0,0,0-1.19.34l-.19-.55a2.83,2.83,0,0,1,1.51-.41c1.4,0,1.75,1,1.75,1.88V19a6.9,6.9,0,0,0,.07,1.11Zm-.12-2.35c-.92,0-2,.14-2,1a.74.74,0,0,0,.68.79h.11a1.14,1.14,0,0,0,1.11-.77,1.28,1.28,0,0,0,.05-.27Z"/><path id="Path_2182" data-name="Path 2182" class="cls-20" d="M170.59,15.5l1,2.72c.1.3.22.66.29.94h0c.09-.28.18-.63.3-1l.91-2.7H174l-1.25,3.28a7.08,7.08,0,0,1-1.58,2.88,2.38,2.38,0,0,1-1,.54l-.21-.7a2.19,2.19,0,0,0,.73-.41,2.49,2.49,0,0,0,.71-.93.76.76,0,0,0,.06-.2.54.54,0,0,0-.05-.22l-1.7-4.24Z"/><path id="Path_2183" data-name="Path 2183" class="cls-21" d="M153,31c.34.17.68.33,1,.48l9.81-30c-.37-.08-.75-.16-1.14-.22Z"/></g></g></g></g></g></svg>