<svg id="Auto_Mobile" data-name="Auto Mobile" xmlns="http://www.w3.org/2000/svg" width="100" height="100" viewBox="0 0 100 100">
  <g id="Layer_2" data-name="Layer 2">
    <g id="Auto_Mobile-2" data-name="Auto Mobile">
      <rect id="Rectangle_1878" data-name="Rectangle 1878" width="100" height="100" fill="none"/>
      <path id="Path_2315" data-name="Path 2315" d="M69.33,40.44H66.11a1.51,1.51,0,0,0,0,3h3.22a1.51,1.51,0,1,0,0-3Z" fill="#0054ad"/>
      <path id="Path_2316" data-name="Path 2316" d="M67.27,51.71H32.73a3.11,3.11,0,0,0-3,3.88l.8,3.22a3.11,3.11,0,0,0,3,2.36H66.46a3.11,3.11,0,0,0,3-2.36l.8-3.22a3.11,3.11,0,0,0-3-3.88Zm.09,3.15-.8,3.22a.1.1,0,0,1-.1.07H33.54a.1.1,0,0,1-.1-.07l-.8-3.22a.08.08,0,0,1,0-.09.11.11,0,0,1,.08,0H67.27a.11.11,0,0,1,.08,0A.08.08,0,0,1,67.36,54.86Z" fill="#0054ad"/>
      <path id="Path_2317" data-name="Path 2317" d="M90.27,43.46a4.74,4.74,0,0,0,0-9.47H88.66A4.74,4.74,0,0,0,84,38L80,26.89a6.37,6.37,0,0,0-6-4.17H62.51l-.85-4.25A4.74,4.74,0,0,0,57,14.66H43a4.74,4.74,0,0,0-4.64,3.81l-.85,4.25H26a6.37,6.37,0,0,0-6,4.17L16,38a4.74,4.74,0,0,0-4.67-4H9.73a4.74,4.74,0,0,0,0,9.47h1.61A4.82,4.82,0,0,0,13.42,43L10,47.29a8,8,0,0,0-1.74,5V82.21a3.13,3.13,0,0,0,3.12,3.13h4.83a3.13,3.13,0,0,0,3.13-3.13V75.67H80.7v6.54a3.13,3.13,0,0,0,3.13,3.13h4.83a3.13,3.13,0,0,0,3.12-3.13V52.26a8,8,0,0,0-1.74-5L86.58,43a4.82,4.82,0,0,0,2.08.48Zm-49-24.4A1.71,1.71,0,0,1,43,17.68H57a1.71,1.71,0,0,1,1.68,1.38l.73,3.66H40.57Zm-30,21.38H9.73a1.72,1.72,0,0,1,0-3.43h1.61a1.72,1.72,0,0,1,0,3.43Zm4.94,41.77a.11.11,0,0,1-.11.11H11.34a.11.11,0,0,1-.1-.11V74.73a6.29,6.29,0,0,0,3.32.94h1.72Zm51.54-9.56H32.18V69.33a.1.1,0,0,1,.1-.1H67.72a.1.1,0,0,1,.1.1Zm20.84,9.67H83.83a.11.11,0,0,1-.11-.11V75.67h1.72a6.29,6.29,0,0,0,3.32-.94v7.48a.11.11,0,0,1-.1.11Zm.1-30.06V69.33a3.32,3.32,0,0,1-3.32,3.32H70.84V69.33a3.12,3.12,0,0,0-3.12-3.12H32.28a3.12,3.12,0,0,0-3.12,3.12v3.32H14.56a3.32,3.32,0,0,1-3.32-3.32V52.26a5,5,0,0,1,1.08-3.08l4.58-5.72H59.66a1.51,1.51,0,1,0,0-3H18.33l4.55-12.51A3.34,3.34,0,0,1,26,25.74H74a3.34,3.34,0,0,1,3.12,2.19l4.55,12.51h-5.9a1.51,1.51,0,1,0,0,3H83.1l4.58,5.72a5,5,0,0,1,1.08,3.1ZM87,38.72A1.71,1.71,0,0,1,88.66,37h1.61a1.72,1.72,0,0,1,0,3.43H88.66A1.71,1.71,0,0,1,87,38.72Z" fill="#0054ad"/>
      <path id="Path_2318" data-name="Path 2318" d="M21,63a3.12,3.12,0,1,0,3.12,3.12A3.12,3.12,0,0,0,21,63Z" fill="#029abe"/>
      <path id="Path_2319" data-name="Path 2319" d="M79,63a3.12,3.12,0,1,0,3.12,3.12A3.12,3.12,0,0,0,79,63Z" fill="#029abe"/>
      <path id="Path_2320" data-name="Path 2320" d="M20.2,50.1a5.54,5.54,0,1,0,5.54,5.54A5.54,5.54,0,0,0,20.2,50.1Zm0,8a1.045,1.045,0,1,1,0,.05Z" fill="#029abe"/>
      <path id="Path_2321" data-name="Path 2321" d="M79.8,50.1a5.54,5.54,0,1,0,5.54,5.54A5.54,5.54,0,0,0,79.8,50.1Zm0,8a1.045,1.045,0,1,1,0,.05Z" fill="#029abe"/>
    </g>
  </g>
</svg>
