<svg id="Beauty_Parlour" data-name="Beauty Parlour" xmlns="http://www.w3.org/2000/svg" width="100" height="100" viewBox="0 0 100 100">
  <g id="Layer_2" data-name="Layer 2">
    <g id="Beauty_Parlour-2" data-name="Beauty Parlour">
      <rect id="Rectangle_1879" data-name="Rectangle 1879" width="100" height="100" fill="none"/>
      <path id="Path_2322" data-name="Path 2322" d="M47.69,60a1.63,1.63,0,0,0,.71.16,1.68,1.68,0,0,0,1.52-1l.27-.59a1.67,1.67,0,1,0-3-1.43l-.28.58A1.68,1.68,0,0,0,47.69,60Z" fill="#0054ad"/>
      <path id="Path_2323" data-name="Path 2323" d="M30.64,46.64a1.67,1.67,0,0,0-2.36,0,3.57,3.57,0,0,1-5,0A1.683,1.683,0,0,0,20.88,49a6.9,6.9,0,0,0,9.76,0,1.67,1.67,0,0,0,0-2.36Z" fill="#0054ad"/>
      <path id="Path_2324" data-name="Path 2324" d="M87.06,11.59a15.19,15.19,0,0,0-21.4-.06,40.14,40.14,0,0,0-5.87-2.35A43.14,43.14,0,0,0,47,7.14c-9.08,0-17,3.82-20.68,10a15.64,15.64,0,0,0-1.21,2.51c-1.73,1.65-9.54,9.72-9.54,21.16,0,7.62-3.66,11.6-5.85,13.29a3.09,3.09,0,0,0,.38,5.12c.82.46,1.75.91,2.64,1.33a26.443,26.443,0,0,1,2.47,1.28v3A3.22,3.22,0,0,1,15,65.94l-.42,1a4.31,4.31,0,0,0,.55,4.21v.37a3.63,3.63,0,0,0,1.27,2.77v2A7.65,7.65,0,0,0,24,83.91h4.94a1.68,1.68,0,0,0,0-3.35H24a4.29,4.29,0,0,1-4.29-4.29V73.39a1.67,1.67,0,0,0-1-1.54h-.07a.32.32,0,0,1-.19-.28v-1a1.64,1.64,0,0,0-.35-1l-.3-.38a1,1,0,0,1-.14-1l.42-1a6.39,6.39,0,0,0,.48-2.44V61.19c0-1.61-1.65-2.4-4.37-3.7-.71-.35-1.45-.7-2.1-1.05,2.69-2.19,6.83-7,6.83-15.68a25.87,25.87,0,0,1,5.23-14.9,21.17,21.17,0,0,0,2.65,9c4.29,8,11.77,11.4,17.78,14.11,5.72,2.57,9,4.19,9,7.56,0,2.47-.55,4.29-1.7,5.41a4.61,4.61,0,0,1-3.07,1.25,1.64,1.64,0,0,0-1.43.66,1.67,1.67,0,0,0-.24,1.56,24.34,24.34,0,0,0,3.95,6.78A16.11,16.11,0,0,0,63.5,78.52L68,91.7a1.67,1.67,0,0,0,1.58,1.13,1.46,1.46,0,0,0,.54-.09,1.67,1.67,0,0,0,1-2.12l-4.43-13a34.51,34.51,0,0,0,17-20.16,40.64,40.64,0,0,0,.45-22.19A15,15,0,0,0,87.06,33a15.17,15.17,0,0,0,0-21.41ZM80.57,56.46a31.39,31.39,0,0,1-16.32,18.7c-4.07.18-7.62-1.5-10.56-5a21.39,21.39,0,0,1-2.6-4,7.8,7.8,0,0,0,3-1.77C56,62.63,56.91,60,56.88,56.52c0-5.68-5.34-8.06-11-10.59-5.84-2.62-12.45-5.6-16.21-12.63-2.34-4.37-2.88-8.52-1.64-12.16h0a12.85,12.85,0,0,1,1.07-2.29c3.08-5.13,9.91-8.32,17.83-8.32h0a40.18,40.18,0,0,1,11.75,1.88C67.33,15.05,73.63,20,77.5,27.2a38.26,38.26,0,0,1,3.07,29.26Zm2.64-24.52a41.86,41.86,0,0,0-2.77-6.33A32.93,32.93,0,0,0,68.75,13.25a11.83,11.83,0,0,1,16,17.43,13.611,13.611,0,0,1-1.54,1.26Z" fill="#0054ad"/>
      <path id="Path_2325" data-name="Path 2325" d="M51.44,85.54l-5.25-9.08L46,70.26a10.15,10.15,0,0,0-9.34-9.85,9.28,9.28,0,0,0-9.1,5.26l-.08.17a10.2,10.2,0,0,0,3.64,12.88l5.22,3.4L42.05,92A1.7,1.7,0,0,0,45,90.32l-5.07-8.77,2-1.17,2-1.16,4.62,8a1.68,1.68,0,0,0,2.9-1.68ZM30.51,67.27l.09-.17a5.91,5.91,0,0,1,5.33-3.37,3.769,3.769,0,0,1,.47,0,6.82,6.82,0,0,1,6.27,6.61L42.83,76l-5.18,3L33,75.91A6.86,6.86,0,0,1,30.51,67.27Z" fill="#029abe"/>
      <path id="Path_2326" data-name="Path 2326" d="M52.76,89.51a1.68,1.68,0,0,0-1.18.49,1.71,1.71,0,0,0-.49,1.19,1.67,1.67,0,0,0,3.34,0A1.71,1.71,0,0,0,53.94,90a1.68,1.68,0,0,0-1.18-.49Z" fill="#029abe"/>
      <path id="Path_2327" data-name="Path 2327" d="M38,16.07a10.44,10.44,0,0,0-6,6,10.36,10.36,0,0,0,1,8.46,1.67,1.67,0,0,0,1.48.89,1.78,1.78,0,0,0,.79-.2A1.68,1.68,0,0,0,36,28.94a7.08,7.08,0,0,1-.79-5.77,7.2,7.2,0,0,1,4.16-4A1.695,1.695,0,0,0,38,16.07Z" fill="#029abe"/>
      <path id="Path_2328" data-name="Path 2328" d="M44.31,14.84h-.09a1.68,1.68,0,1,0,0,3.35h.08a1.68,1.68,0,0,0,0-3.35Z" fill="#029abe"/>
    </g>
  </g>
</svg>
