<svg id="Cafe" xmlns="http://www.w3.org/2000/svg" width="100" height="100" viewBox="0 0 100 100">
  <g id="Layer_2" data-name="Layer 2">
    <g id="Cafe-2" data-name="Cafe">
      <rect id="Rectangle_1880" data-name="Rectangle 1880" width="100" height="100" fill="none"/>
      <path id="Path_2329" data-name="Path 2329" d="M59.08,92.15H35a4.18,4.18,0,0,1-3.78-2.32,1.1,1.1,0,0,0-1-.73L11.7,87.79c-2-.43-3.2-1.74-3.2-3.49a3.74,3.74,0,0,1,3.78-3.77H83.07a3.75,3.75,0,0,1,3.78,3.77c0,1.75-1.16,3.06-3.2,3.49h-.14L63.74,89.1a1.08,1.08,0,0,0-1,.73,3.84,3.84,0,0,1-3.66,2.32ZM12.13,84.89l18.17,1.3a4.52,4.52,0,0,1,3.49,2.33,1.48,1.48,0,0,0,1.17.73H59.23a1.47,1.47,0,0,0,1.16-.73,4.56,4.56,0,0,1,3.49-2.33l19.48-1.3c.73-.15.73-.44.73-.59a1,1,0,0,0-.88-.87H12.28a.94.94,0,0,0-.87.87C11.41,84.45,11.41,84.74,12.13,84.89Z" fill="#0054ad"/>
      <path id="Path_2330" data-name="Path 2330" d="M47.75,34a1.29,1.29,0,0,1-1-.44c-2.18-2.32-3.34-4.65-3.34-7s1.16-4.51,3.34-6.69a6.46,6.46,0,0,0,2.47-4.65c0-1.6-.87-3.2-2.47-4.94a1.44,1.44,0,0,1,2-2,9.57,9.57,0,0,1,3.35,7A9.34,9.34,0,0,1,48.76,22a6.5,6.5,0,0,0-2.47,4.65c0,1.6.88,3.2,2.47,4.94a1.39,1.39,0,0,1,0,2,1.28,1.28,0,0,1-1.01.41Z" fill="#029abe"/>
      <path id="Path_2331" data-name="Path 2331" d="M63.74,34a1.29,1.29,0,0,1-1-.44c-2.18-2.32-3.34-4.65-3.34-7s1.16-4.51,3.34-6.69c1.6-1.6,2.47-3.05,2.47-4.65s-.87-3.2-2.47-4.94a1.44,1.44,0,0,1,2-2,9.35,9.35,0,0,1,3.35,7c0,2.32-1.17,4.65-3.49,6.69a6.46,6.46,0,0,0-2.47,4.65c0,1.6.87,3.2,2.47,4.94a1.4,1.4,0,0,1,0,2A1,1,0,0,1,63.74,34Z" fill="#029abe"/>
      <path id="Path_2332" data-name="Path 2332" d="M33.21,34a1.29,1.29,0,0,1-1-.44c-2.18-2.32-3.34-4.65-3.34-7s1.16-4.51,3.34-6.69c1.6-1.6,2.47-3.05,2.47-4.65s-.87-3.2-2.47-4.94a1.44,1.44,0,1,1,2-2,9.37,9.37,0,0,1,3.34,7c0,2.32-1.16,4.65-3.49,6.69a6.46,6.46,0,0,0-2.47,4.65c0,1.6.87,3.2,2.47,4.94a1.4,1.4,0,0,1,0,2,1,1,0,0,1-.85.44Z" fill="#029abe"/>
      <path id="Path_2333" data-name="Path 2333" d="M47.75,83.43c-31.69,0-36.2-20.49-36.34-40.7a3,3,0,0,1,2.9-2.91H81.18a3,3,0,0,1,2.91,2.91C83.94,62.94,79.44,83.43,47.75,83.43ZM14.31,42.73c.15,19.63,4.37,37.8,33.44,37.8S81,62.36,81.18,42.73Z" fill="#0054ad"/>
      <path id="Path_2334" data-name="Path 2334" d="M71.88,73.55l2.32-2.76c6-7.42,7-18,7.12-26.6v-1l1.17-.44h.29c4.8,0,8.72,5.23,8.72,11.63,0,8.29-4.94,17.3-16,18.75ZM84.09,45.93c-.29,7.56-1.17,16.28-5.53,23.4,7.27-2.47,9.89-9.3,9.89-15C88.45,50.29,86.56,46.8,84.09,45.93Z" fill="#0054ad"/>
      <path id="Path_2335" data-name="Path 2335" d="M39,76.16h-.3c-11.48-2-17.73-8.57-20-21.51a1.48,1.48,0,1,1,2.9-.58C23.76,65.7,29,71.51,39.32,73.26A1.51,1.51,0,0,1,40.48,75,1.41,1.41,0,0,1,39,76.16Z" fill="#029abe"/>
    </g>
  </g>
</svg>
