<svg xmlns="http://www.w3.org/2000/svg" xmlns:xlink="http://www.w3.org/1999/xlink" viewBox="0 0 154.5 303.18"><defs><style>.cls-1,.cls-2,.cls-4,.cls-41,.cls-44,.cls-46,.cls-49,.cls-51,.cls-8,.cls-9{fill:none;}.cls-1{stroke:#1b75bc;stroke-width:0.99px;}.cls-1,.cls-2,.cls-4,.cls-41,.cls-44,.cls-46,.cls-49,.cls-51{stroke-miterlimit:10;}.cls-2{stroke:#3187dd;}.cls-2,.cls-4{stroke-width:2px;}.cls-11,.cls-12,.cls-14,.cls-16,.cls-3{fill:#fff;}.cls-4{stroke:#2e3192;opacity:0.2;}.cls-5{clip-path:url(#clip-path);}.cls-6{fill:#f5faff;}.cls-7{fill:url(#linear-gradient);}.cls-41,.cls-9{stroke:#fff;}.cls-9{stroke-width:1px;}.cls-10,.cls-11,.cls-12,.cls-14,.cls-16,.cls-18,.cls-19,.cls-21,.cls-22,.cls-42{isolation:isolate;}.cls-11,.cls-16,.cls-20,.cls-21,.cls-42{font-size:4.19px;}.cls-11,.cls-12,.cls-14,.cls-18,.cls-22,.cls-42{font-family:Poppins-Regular, Poppins;}.cls-12{font-size:7.69px;}.cls-13,.cls-21{fill:#ef6666;}.cls-14{font-size:3.15px;}.cls-15{fill:#023d9b;}.cls-16{font-family:Poppins-Bold, Poppins;font-weight:700;}.cls-17{opacity:0.4;}.cls-18{font-size:4.54px;}.cls-18,.cls-42{fill:#040b2d;}.cls-19{font-size:4.89px;fill:#025ab0;}.cls-19,.cls-20,.cls-21{font-family:Poppins-Medium, Poppins Medium;}.cls-20{fill:#66d39c;}.cls-22{font-size:3.84px;fill:#9caec5;}.cls-23{fill:#174191;}.cls-24{fill:#01baf1;}.cls-25{fill:#063070;}.cls-26{fill:#073070;}.cls-27{fill:#052f6f;}.cls-28{fill:#01b9f1;}.cls-29{fill:#01c2c0;}.cls-30{fill:#07b0ae;}.cls-31{fill:#32cecc;}.cls-32{fill:#58d7d6;}.cls-33{fill:#02aeac;}.cls-34{fill:#03afad;}.cls-35{fill:#0bb0ae;}.cls-36{fill:#04c3c1;}.cls-37{fill:#fc9b07;}.cls-38{fill:#3a434d;}.cls-39{fill:#3a444e;}.cls-40{fill:#fb9c0b;}.cls-41{stroke-width:0.7px;}.cls-43{fill:#3fc6a8;}.cls-43,.cls-45,.cls-48{opacity:0.1;}.cls-44{stroke:#3fc6a8;}.cls-44,.cls-46,.cls-49,.cls-51{stroke-width:0.5px;}.cls-45,.cls-47{fill:#a53ab7;}.cls-46{stroke:#a53ab7;}.cls-48,.cls-50{fill:#eb992e;}.cls-49,.cls-51{stroke:#eb992e;}.cls-51{stroke-linecap:round;}</style><clipPath id="clip-path"><rect class="cls-1" x="10.06" y="32.95" width="134.22" height="233.1"/></clipPath><linearGradient id="linear-gradient" x1="-4833.15" y1="3338.75" x2="-4833.15" y2="3338.4" gradientTransform="matrix(375, 0, 0, -189, 1812510, 631056.47)" gradientUnits="userSpaceOnUse"><stop offset="0" stop-color="#29abe2"/><stop offset="1" stop-color="#0054ad"/></linearGradient></defs><title>Dashboard update</title><g id="Layer_2" data-name="Layer 2"><g id="New_test" data-name="New test"><path class="cls-2" d="M76.61,302.18H31.5A30.5,30.5,0,0,1,1,271.69V31.5A30.51,30.51,0,0,1,31.5,1H76.61"/><path class="cls-2" d="M76.61,1H123a30.51,30.51,0,0,1,30.5,30.5V271.69A30.5,30.5,0,0,1,123,302.18H76.61"/><rect class="cls-3" x="9.89" y="34.04" width="134.07" height="217.31"/><path class="cls-4" d="M89.84,282a12.23,12.23,0,1,1-12.22-11.95A12.09,12.09,0,0,1,89.84,282Z"/><path class="cls-4" d="M108.37,22a2.23,2.23,0,0,1-2.24,2.23H52.18A2.23,2.23,0,0,1,49.94,22h0a2.24,2.24,0,0,1,2.24-2.24h54A2.24,2.24,0,0,1,108.37,22Z"/><g class="cls-5"><g id="Dashboard_1" data-name="Dashboard 1"><rect id="Rectangle_18" data-name="Rectangle 18" class="cls-6" x="10.06" y="32.95" width="134.22" height="223.8"/><path id="Rectangle_24-2" data-name="Rectangle 24-2" class="cls-7" d="M10.06,33H144.28v64.3A1.77,1.77,0,0,1,142.49,99H11.85a1.77,1.77,0,0,1-1.79-1.75V33Z"/><rect id="Rectangle_313" data-name="Rectangle 313" class="cls-8" x="10.06" y="32.95" width="134.58" height="5.59"/><rect id="Rectangle_1446" data-name="Rectangle 1446" class="cls-8" x="13.99" y="41.33" width="3.22" height="3.15"/><line id="Line_2" data-name="Line 2" class="cls-9" x1="77.53" y1="57.93" x2="77.17" y2="80.65"/><g id="Group_295" data-name="Group 295"><g id="Today_s_Transaction" data-name="Today s Transaction" class="cls-10"><text class="cls-11" transform="translate(25.09 65.1) scale(1.02 1)">Today&apos;s Transaction</text></g><g id="_4500.00" data-name=" 4500.00" class="cls-10"><text class="cls-12" transform="translate(29.03 76.98) scale(1.02 1)">₹ 4500.00</text></g></g><g id="Group_296" data-name="Group 296"><g id="No._of_Transactions" data-name="No. of Transactions" class="cls-10"><text class="cls-11" transform="translate(88.09 65.1) scale(1.02 1)">No. of Transactions</text></g><g id="_30" data-name=" 30" class="cls-10"><text class="cls-12" transform="translate(102.4 76.98) scale(1.02 1)">30</text></g></g><g id="Group_15" data-name="Group 15"><g id="Group_14" data-name="Group 14"><g id="Asset_1w" data-name="Asset 1w"><g id="Capa_1" data-name="Capa 1"><path id="Path_4" data-name="Path 4" class="cls-3" d="M139,48.83l-.41-.67a2,2,0,0,1-.28-1v-.58A1.64,1.64,0,0,0,137.11,45V44.6a.47.47,0,0,0-.49-.45.46.46,0,0,0-.46.45V45A1.63,1.63,0,0,0,135,46.57v.58a1.89,1.89,0,0,1-.29,1l-.4.67a.08.08,0,0,0,0,.11.12.12,0,0,0,.1.07h1.67a.37.37,0,0,0,0,.11.59.59,0,0,0,.58.6.6.6,0,0,0,.61-.57v0a.36.36,0,0,0,0-.11h1.68a.12.12,0,0,0,.1-.07A.11.11,0,0,0,139,48.83ZM136.4,44.6a.23.23,0,0,1,.23-.23.23.23,0,0,1,.24.23V45a1.85,1.85,0,0,0-.47,0Zm.59,4.52a.36.36,0,0,1-.71.07v-.07a.25.25,0,0,1,0-.12H137A.5.5,0,0,1,137,49.12Zm-2.4-.35.3-.49a2.15,2.15,0,0,0,.32-1.13v-.58a1.43,1.43,0,0,1,2.85,0v.58a2.15,2.15,0,0,0,.32,1.13l.3.49Z"/></g></g><ellipse id="Ellipse_169" data-name="Ellipse 169" class="cls-13" cx="139.12" cy="45.57" rx="2" ry="1.95"/></g><g id="_3" data-name=" 3" class="cls-10"><text class="cls-14" transform="translate(138.09 46.58) scale(1.02 1)">3</text></g></g><g id="Status_Bar" data-name="Status Bar"><path id="boundary" class="cls-15" d="M10.06,33H144.28v7H10.06Z"/><g id="Charge"><g id="_Group_" data-name="&lt;Group&gt;" class="cls-10"><text class="cls-16" transform="translate(121.49 37.84) scale(1.02 1)">100%</text></g></g><path id="Bluetooth-Icon" class="cls-3" d="M118.3,38V36.72l.6.65Zm.63-2.45-.63.63V35Zm-.48.93.94-.93L118,34.17h0V36l-1-1-.27.28,1.15,1.11-1.15,1.11.27.28,1-1v1.86H118l1.4-1.34Z"/><g id="_9:41_AM" data-name=" 9:41 AM" class="cls-10"><text class="cls-16" transform="translate(69.3 37.84) scale(1.02 1)">9:41 AM</text></g><g id="Left-Detail"><path id="Wifi" class="cls-3" d="M21.33,35.4a2.76,2.76,0,0,1,1.81.66l.34-.36a3.2,3.2,0,0,0-4.3,0l.34.37A2.78,2.78,0,0,1,21.33,35.4Zm0,1.05a1.71,1.71,0,0,1,1.09.39l.36-.39a2.23,2.23,0,0,0-2.89,0l.36.39a1.68,1.68,0,0,1,1.08-.39Zm.74.77a1.14,1.14,0,0,0-1.47,0l.73.79.74-.79Z"/><path id="Mobile-Signal" class="cls-3" d="M16.86,34.87a.18.18,0,0,1,.18-.18h.53a.18.18,0,0,1,.18.18h0v3a.17.17,0,0,1-.18.17H17a.17.17,0,0,1-.18-.17h0Zm-1.43.87a.18.18,0,0,1,.18-.17h.53a.18.18,0,0,1,.18.17v2.1a.17.17,0,0,1-.18.17h-.53a.17.17,0,0,1-.18-.17Zm-1.44.7a.17.17,0,0,1,.18-.17h.54a.17.17,0,0,1,.18.17h0v1.4a.17.17,0,0,1-.18.17h-.53a.19.19,0,0,1-.19-.17h0Zm-1.43.7a.18.18,0,0,1,.18-.18h.54a.18.18,0,0,1,.18.18h0v.7a.17.17,0,0,1-.18.17h-.54a.18.18,0,0,1-.18-.17h0Z"/></g><g id="Battery"><path id="Tip" d="M141.78,35.92a.69.69,0,0,1,.51.85.7.7,0,0,1-.51.5Z"/><path id="Fill" class="cls-3" d="M134.62,35.39h5.72a.36.36,0,0,1,.36.35v1.57a.35.35,0,0,1-.36.35h-5.72a.35.35,0,0,1-.36-.35V35.74A.36.36,0,0,1,134.62,35.39Z"/><g id="Outline" class="cls-17"><path class="cls-3" d="M134.44,34.69h6.08a.89.89,0,0,1,.9.88v1.92a.88.88,0,0,1-.9.87h-6.08a.88.88,0,0,1-.9-.87V35.57A.89.89,0,0,1,134.44,34.69Z"/><path class="cls-9" d="M134.44,34.87h6.08a.71.71,0,0,1,.72.7v1.92a.71.71,0,0,1-.72.7h-6.08a.71.71,0,0,1-.72-.7V35.57A.71.71,0,0,1,134.44,34.87Z"/></g></g></g><path id="Rectangle_21-2" data-name="Rectangle 21-2" class="cls-3" d="M14,147.92H140.7a1.06,1.06,0,0,1,1.08,1.05V172a1.06,1.06,0,0,1-1.08,1.05H14A1.06,1.06,0,0,1,12.92,172V149A1.06,1.06,0,0,1,14,147.92Z"/><path id="Rectangle_22-2" data-name="Rectangle 22-2" class="cls-3" d="M14,175.88H140.7a1.06,1.06,0,0,1,1.08,1.05V200a1.05,1.05,0,0,1-1.08,1H14a1.05,1.05,0,0,1-1.07-1V176.93A1.06,1.06,0,0,1,14,175.88Z"/><path id="Rectangle_23-2" data-name="Rectangle 23-2" class="cls-3" d="M14,203.84H140.7a1.06,1.06,0,0,1,1.08,1V228A1.06,1.06,0,0,1,140.7,229H14A1.06,1.06,0,0,1,12.92,228V204.89A1.06,1.06,0,0,1,14,203.84Z"/><path id="Rectangle_1564-2" data-name="Rectangle 1564-2" class="cls-3" d="M14,231.8H140.7a1.06,1.06,0,0,1,1.08,1v23.06a1.06,1.06,0,0,1-1.08,1H14a1.06,1.06,0,0,1-1.07-1V232.85A1.06,1.06,0,0,1,14,231.8Z"/><rect id="Rectangle_252" data-name="Rectangle 252" class="cls-8" x="49.43" y="242.63" width="6.44" height="6.29"/><g id="Rohit_Sanghvi" data-name="Rohit Sanghvi" class="cls-10"><text class="cls-18" transform="translate(35.29 158.41) scale(1.02 1)">Rohit Sanghvi</text></g><g id="Anurag_Bose" data-name="Anurag Bose" class="cls-10"><text class="cls-18" transform="translate(35.29 186.02) scale(1.02 1)">Anurag Bose</text></g><g id="Manan_Dihora" data-name="Manan Dihora" class="cls-10"><text class="cls-18" transform="translate(35.29 213.97) scale(1.02 1)">Manan Dihora</text></g><g id="Manan_Dihora-2" data-name="Manan Dihora-2" class="cls-10"><text class="cls-18" transform="translate(35.29 242.98) scale(1.02 1)">Manan Dihora</text></g><g id="_400.00" data-name=" 400.00" class="cls-10"><text class="cls-19" transform="translate(35.65 166.8) scale(1.02 1)">₹ 400.00</text></g><g id="_800.00" data-name=" 800.00" class="cls-10"><text class="cls-19" transform="translate(35.67 194.4) scale(1.02 1)">₹ 800.00</text></g><g id="_275.00" data-name=" 275.00" class="cls-10"><text class="cls-19" transform="translate(36.56 222.36) scale(1.02 1)">₹ 275.00</text></g><g id="_275.00-2" data-name=" 275.00-2" class="cls-10"><text class="cls-19" transform="translate(37.1 251.72) scale(1.02 1)">₹ 275.00</text></g><g id="Success-2" class="cls-10"><text class="cls-20" transform="translate(119.94 158.06) scale(1.02 1)">Success</text></g><g id="Success-3" class="cls-10"><text class="cls-20" transform="translate(119.94 185.67) scale(1.02 1)">Success</text></g><g id="Failed" class="cls-10"><text class="cls-21" transform="translate(124.6 213.63) scale(1.02 1)">Failed</text></g><g id="Refunded" class="cls-10"><text class="cls-21" transform="translate(117.08 242.63) scale(1.02 1)">Refunded</text></g><g id="_12_Dec_2018_12:18_pm-2" data-name=" 12 Dec 2018 12:18 pm-2" class="cls-10"><text class="cls-22" transform="translate(98.88 166.45) scale(1.02 1)"><tspan xml:space="preserve">12 Dec 2018  12:18 pm</tspan></text></g><g id="_12_Dec_2018_12:18_pm-3" data-name=" 12 Dec 2018 12:18 pm-3" class="cls-10"><text class="cls-22" transform="translate(98.88 194.06) scale(1.02 1)"><tspan xml:space="preserve">12 Dec 2018  12:18 pm</tspan></text></g><g id="_12_Dec_2018_12:18_pm-4" data-name=" 12 Dec 2018 12:18 pm-4" class="cls-10"><text class="cls-22" transform="translate(98.88 222.01) scale(1.02 1)"><tspan xml:space="preserve">12 Dec 2018  12:18 pm</tspan></text></g><g id="_12_Dec_2018_12:18_pm-5" data-name=" 12 Dec 2018 12:18 pm-5" class="cls-10"><text class="cls-22" transform="translate(98.88 249.62) scale(1.02 1)"><tspan xml:space="preserve">12 Dec 2018  12:18 pm</tspan></text></g><g id="Jio_money" data-name="Jio money"><ellipse id="Ellipse_322" data-name="Ellipse 322" class="cls-23" cx="23.49" cy="160.02" rx="4.73" ry="4.62"/><path id="Path_185" data-name="Path 185" class="cls-3" d="M25.82,157.38c-.25,0-.51-.08-.76-.1a19.39,19.39,0,0,0-2.64,0c-.44,0-.86.09-1.3.14a.6.6,0,0,0-.39.29v0h0l0,.08h0c0,.13,0,.26-.05.39,0,.29,0,.59,0,.88v.89a1,1,0,0,1,0,.17l0,.15c0,.05,0,.11.05.17v0s0,0,0,.05l0-.05s0,0,0,.05h0l0,.08,0-.08,0,.08c0,.14.11.29.17.42a4.94,4.94,0,0,0,2.19,2.05.9.9,0,0,0,.46.06,2.13,2.13,0,0,0,.83-.4l-1.29-1.19,0,0,0,0-.2-.18h0l-.37-.34-.05-.05-.14-.26v-.06a.44.44,0,0,1,.49-.24,1.53,1.53,0,0,0,.37,0h0a.57.57,0,0,0,.37-.2l0,0,.13-.19H22.13l-.16-.14v0a.31.31,0,0,1,.15-.38,1.46,1.46,0,0,1,.22,0h1.38a.72.72,0,0,0-.67-.44h-.8a.29.29,0,0,1-.3-.26.27.27,0,0,1,.22-.3l.13,0H24.6l.13,0h0a.27.27,0,0,1,.21.32.26.26,0,0,1-.28.22l-.48,0,.18.43h.27a.3.3,0,1,1,0,.59h-.29a1.36,1.36,0,0,1-1,1l1.58,1.47.56-.56a3.85,3.85,0,0,0,.63-1,2.52,2.52,0,0,0,.24-1.11v-1.55A.69.69,0,0,0,25.82,157.38Z"/></g><g id="Paytm"><g id="Layer_1-2" data-name="Layer 1-2"><path id="Path_2146" data-name="Path 2146" class="cls-24" d="M27.06,187.42a.77.77,0,0,1,1,.05.87.87,0,0,1,.46-.2.69.69,0,0,1,.74.63v1.93c0,.11,0,.14-.14.14H28.7c-.13,0-.16,0-.16-.15v-1.69c0-.13-.06-.19-.2-.19s-.2.06-.2.2v1.69c0,.12,0,.14-.15.14H27.6c-.11,0-.14,0-.14-.13v-1.72c0-.12-.06-.18-.2-.18s-.2.06-.2.19v1.69c0,.12,0,.15-.15.15h-.4c-.1,0-.13,0-.13-.13v-2.42c0-.09,0-.12.13-.12h.4C27,187.29,27,187.31,27.06,187.42Z"/><path id="Path_2147" data-name="Path 2147" class="cls-25" d="M22.45,188.83v.84a.27.27,0,0,1-.24.3h-.89a.6.6,0,0,1-.64-.55s0,0,0-.06a5.61,5.61,0,0,1,0-.58.61.61,0,0,1,.56-.6h.37c.13,0,.15,0,.15-.12s0-.12-.15-.12h-.52c-.11,0-.14,0-.14-.14v-.38a.1.1,0,0,1,.08-.11h0c.26,0,.52,0,.78,0a.6.6,0,0,1,.61.59.22.22,0,0,1,0,.08Zm-1.09.25v0c0,.29,0,.27.29.26a.11.11,0,0,0,.12-.12,1.34,1.34,0,0,0,0-.2c0-.27,0-.27-.29-.26h0a.1.1,0,0,0-.11.1h0Z"/><path id="Path_2148" data-name="Path 2148" class="cls-26" d="M24.46,188.38v.91a.66.66,0,0,1-.62.69H23c-.11,0-.14,0-.14-.14v-.39c0-.1,0-.13.13-.13h.57c.13,0,.18,0,.18-.11s-.05-.1-.18-.11a1.45,1.45,0,0,1-.36,0,.63.63,0,0,1-.55-.66c0-.33,0-.66,0-1,0-.1,0-.13.14-.13h.38c.12,0,.16,0,.16.15v.83c0,.14,0,.17.17.17s.24,0,.24-.23v-.79c0-.1,0-.13.14-.13h.4c.1,0,.13,0,.13.13C24.46,187.75,24.46,188.07,24.46,188.38Z"/><path id="Path_2149" data-name="Path 2149" class="cls-27" d="M19.44,189.18v.65c0,.12,0,.14-.15.14h-.41c-.09,0-.12,0-.12-.11v-2.44c0-.09,0-.12.12-.12.34,0,.68,0,1,0a.56.56,0,0,1,.59.53h0a4.71,4.71,0,0,1,0,.84.56.56,0,0,1-.6.51Zm0-1.22v.56h.28a.12.12,0,0,0,.12-.1h0v-.33a.12.12,0,0,0-.1-.12h-.3Z"/><path id="Path_2150" data-name="Path 2150" class="cls-28" d="M25.76,187.3H26c.09,0,.13,0,.13.12v.41c0,.09,0,.13-.13.13h-.23v1.87c0,.14,0,.16-.17.16h-.34c-.14,0-.16,0-.16-.15V188h-.25c-.1,0-.13,0-.13-.13v-.41c0-.09,0-.12.12-.12a.65.65,0,0,0,.55-.3,1,1,0,0,1,.21-.19c.09-.06.16,0,.16.09Z"/></g></g><g id="mobiquik"><g id="Layer_1-3" data-name="Layer 1-3"><rect id="Rectangle_1463" data-name="Rectangle 1463" class="cls-8" x="18.76" y="211.7" width="9.52" height="9.3"/><path id="Path_186" data-name="Path 186" class="cls-29" d="M23.18,216l-.4.81h0a3.4,3.4,0,0,1,.07-.34,1.54,1.54,0,0,0,.09-.6c0-.78,0-1.56,0-2.33,0-.09,0-.12.11-.14l2.87-.47a.31.31,0,0,1,.38.2.22.22,0,0,1,0,.14v.1h.31a.42.42,0,0,1,.46.38,1.51,1.51,0,0,1,0,.3c0,.29,0,.59-.07.88,0,.07,0,.08.08.07l.43-.1.23-.05a.43.43,0,0,1,.53.32.38.38,0,0,1,0,.15.81.81,0,0,1-.41.72,2.34,2.34,0,0,1-.76.25l-.07,0c-.21,0-.21,0-.23.25l-.18,1.73c0,.17,0,.34-.06.51a.42.42,0,0,1-.44.42h-.41l0,.11a.44.44,0,0,1-.46.34H19.17a.38.38,0,0,1-.41-.25v-.13s0-.07,0-.1v-4.84a.5.5,0,0,1,.41-.33l1-.15,1.43-.23-.19.36-.75,1.37-.74,1.39c-.24.43-.47.87-.7,1.31l-.24.43a.51.51,0,0,0-.06.52.46.46,0,0,0,.62.19h0a.52.52,0,0,0,.35-.31l2-3.7a.35.35,0,0,1,.05-.08v3.16a.45.45,0,0,0,.16.38.42.42,0,0,0,.5,0h0a.76.76,0,0,0,.32-.37l1-2a.35.35,0,0,0,.05-.08c0,.6,0,1.19,0,1.79a.46.46,0,0,0,.43.5h.11a.38.38,0,0,0,.31-.21h0l0,0h0a.73.73,0,0,0,.09-.35v-3.6a.46.46,0,0,0-.39-.51.41.41,0,0,0-.22,0l-.11,0h0l0,0h0c-.1,0-.13.09-.16.15l-.66,1.23c0,.09-.07.19-.1.28h0l0,0h0l0,0h0l0,0h0l0,0h0l0,0h0l0,0h0v0h0l0,0h0l0,.07h0Zm2.58,2.74c.2,0,.32,0,.34-.2.06-.46.11-.91.16-1.37l.12-1.16.12-1.19c0-.33.06-.66.1-1a.37.37,0,0,0-.3-.39l-.54,5.3Zm1.5-3.29a.35.35,0,0,0,.35.35.35.35,0,1,0,0-.7.35.35,0,0,0-.36.34Z"/><path id="Path_187" data-name="Path 187" class="cls-30" d="M21.6,213.61l.42-.77a.56.56,0,0,1,.31-.23h.17l.2.11v0a.46.46,0,0,0-.62.19v0l-3,5.54a.45.45,0,0,0,.17.61.43.43,0,0,0,.27.06h0a.47.47,0,0,1-.63-.17h0a.54.54,0,0,1,.06-.52l.24-.43c.23-.44.46-.88.7-1.31l.74-1.39L21.4,214C21.47,213.85,21.54,213.73,21.6,213.61Z"/><path id="Path_188" data-name="Path 188" class="cls-31" d="M18.77,215.32v3.84a.34.34,0,0,1,0,.1v-3.94Z"/><path id="Path_189" data-name="Path 189" class="cls-32" d="M18.77,215.32h0v-1h0C18.78,214.65,18.78,215,18.77,215.32Z"/><path id="Path_190" data-name="Path 190" class="cls-33" d="M22.63,218.66a.42.42,0,0,1-.5,0,.45.45,0,0,1-.17-.38v-3.16L22,215h0v3.26a.43.43,0,0,0,.4.46Z"/><path id="Path_191" data-name="Path 191" class="cls-34" d="M24.93,218.31a.41.41,0,0,1-.31.21.49.49,0,0,1-.54-.4v-1.9a.67.67,0,0,1,.06-.12h0V218a.43.43,0,0,0,.43.45.33.33,0,0,0,.22-.05Z"/><path id="Path_192" data-name="Path 192" class="cls-35" d="M23.39,215.58a2.33,2.33,0,0,1,.11-.28l.65-1.24c0-.06.06-.14.16-.14a1.43,1.43,0,0,0-.14.2l-.75,1.41Z"/><path id="Path_193" data-name="Path 193" class="cls-35" d="M24.34,213.89l.11-.06Z"/><path id="Path_194" data-name="Path 194" class="cls-35" d="M23.2,215.94l0-.07Z"/><path id="Path_195" data-name="Path 195" class="cls-30" d="M22.7,212.72l0,0h0Z"/><path id="Path_196" data-name="Path 196" class="cls-35" d="M24.31,213.91l0,0Z"/><path id="Path_197" data-name="Path 197" class="cls-35" d="M23.28,215.79l0,0Z"/><path id="Path_198" data-name="Path 198" class="cls-35" d="M23.26,215.83l0,0Z"/><path id="Path_199" data-name="Path 199" class="cls-35" d="M23.24,215.87l0,0Z"/><path id="Path_200" data-name="Path 200" class="cls-35" d="M23.18,216l0,0Z"/><path id="Path_201" data-name="Path 201" class="cls-35" d="M23.32,215.72v0Z"/><path id="Path_202" data-name="Path 202" class="cls-35" d="M23.33,215.69l0,0Z"/><path id="Path_203" data-name="Path 203" class="cls-35" d="M23.35,215.65l0,0Z"/><path id="Path_204" data-name="Path 204" class="cls-35" d="M23.37,215.61l0,0Z"/><path id="Path_205" data-name="Path 205" class="cls-34" d="M25,218.29l0,0Z"/><path id="Path_206" data-name="Path 206" class="cls-33" d="M22.66,218.64l0,0Z"/><path id="Path_207" data-name="Path 207" class="cls-35" d="M23.3,215.76l0,0Z"/><path id="Path_208" data-name="Path 208" class="cls-29" d="M22.78,216.77h0Z"/><path id="Path_209" data-name="Path 209" class="cls-34" d="M25,218.26l0,0Z"/><path id="Path_210" data-name="Path 210" class="cls-36" d="M27.61,215.61a.19.19,0,0,1-.19-.2.2.2,0,0,1,.39,0,.18.18,0,0,1-.06.13A.24.24,0,0,1,27.61,215.61Z"/></g></g><g id="amazon_pay" data-name="amazon pay"><g id="Layer_1-4" data-name="Layer 1-4"><path id="Path_2205" data-name="Path 2205" class="cls-37" d="M23.55,248.27a8,8,0,0,1-1.1-.1c-.25,0-.5-.07-.75-.13a7.64,7.64,0,0,1-1.48-.52,7.53,7.53,0,0,1-1.25-.75l-.51-.4a.17.17,0,0,1-.06-.12c0-.07.07-.1.14-.06l.4.21a8.13,8.13,0,0,0,1,.44l.81.27.6.15.52.11a1.35,1.35,0,0,0,.28,0l.59.06a9.52,9.52,0,0,0,1.51,0c.22,0,.43,0,.65-.07l.42-.05.54-.11a2,2,0,0,0,.26-.06l.67-.19.82-.28a.16.16,0,0,1,.2.07.15.15,0,0,1-.07.19c-.17.12-.35.23-.53.34a6.54,6.54,0,0,1-1,.44l-.6.18-.85.2a2.33,2.33,0,0,1-.38,0Z"/><path id="Path_2206" data-name="Path 2206" class="cls-38" d="M20.7,243l.12-.08a1.1,1.1,0,0,1,1.08-.12.86.86,0,0,1,.46.51,1.73,1.73,0,0,1-.05,1.32,1,1,0,0,1-1,.52,1.18,1.18,0,0,1-.53-.25.57.57,0,0,0,0,.12v.89c0,.12,0,.14-.15.14h-.19c-.1,0-.13,0-.13-.12v-3c0-.08,0-.1.12-.11h.09c.17,0,.17,0,.21.17l0,0Zm0,.93h0v.56a.11.11,0,0,0,.06.12,1,1,0,0,0,.63.17.53.53,0,0,0,.5-.36A1.17,1.17,0,0,0,22,244a1.29,1.29,0,0,0-.07-.51.51.51,0,0,0-.43-.35,1,1,0,0,0-.7.15.11.11,0,0,0-.06.12v.56Z"/><path id="Path_2207" data-name="Path 2207" class="cls-39" d="M24.25,243.83a1.67,1.67,0,0,0,0-.5.32.32,0,0,0-.31-.23,2.09,2.09,0,0,0-.79.08c-.2,0-.21,0-.21-.16a.14.14,0,0,1,.09-.15,2,2,0,0,1,1.23-.09.56.56,0,0,1,.45.54c0,.24,0,.48,0,.71s0,.62,0,.93c0,.14,0,.16-.16.16h0l-.19,0c-.07,0,0-.11-.06-.17l0,0-.1.07a1.2,1.2,0,0,1-.76.2.66.66,0,0,1-.64-.67v-.08a.7.7,0,0,1,.58-.62,1.85,1.85,0,0,1,.81,0Zm0,.3-.19,0a1.26,1.26,0,0,0-.58,0,.34.34,0,0,0-.26.28.34.34,0,0,0,.24.42h.07a1,1,0,0,0,.68-.21.06.06,0,0,0,0-.06c0-.13,0-.27,0-.42Z"/><path id="Path_2208" data-name="Path 2208" class="cls-38" d="M26.21,244.64l0-.09c.19-.52.37-1,.55-1.54.08-.22.08-.22.31-.22h.09c.13,0,.15,0,.1.15l-.09.23-.95,2.34a1.55,1.55,0,0,1-.21.38.62.62,0,0,1-.52.23.85.85,0,0,1-.23,0,.13.13,0,0,1-.14-.13v0c0-.16,0-.21.19-.19a.42.42,0,0,0,.5-.28v0a1.17,1.17,0,0,0,.1-.26.2.2,0,0,0,0-.11l-.84-2-.06-.16c0-.08,0-.11.08-.12h.24a.17.17,0,0,1,.18.13l.24.65.37,1a.08.08,0,0,1,0,0Z"/><path id="Path_2209" data-name="Path 2209" class="cls-40" d="M27.9,247.82a1.66,1.66,0,0,1,.06-.21,3.69,3.69,0,0,0,.27-.79.78.78,0,0,0,0-.22c0-.1-.05-.15-.16-.18a1.64,1.64,0,0,0-.54,0l-.51,0-.09,0a.11.11,0,0,1-.14,0c0-.05,0-.08.05-.11a2.69,2.69,0,0,1,.29-.16,2.54,2.54,0,0,1,1.28-.12l.18.05a.16.16,0,0,1,.12.15,1.7,1.7,0,0,1,0,.22,1.52,1.52,0,0,1-.12.52,2,2,0,0,1-.51.82C28,247.84,28,247.84,27.9,247.82Z"/></g></g><g id="paykun_qr_white_1" data-name="paykun qr white 1"><g id="new"><g id="_Group_2" data-name=" Group 2"><path id="_Path_" data-name=" Path " class="cls-3" d="M77.15,45.35l-.52,2.37h.61l.15-.66.28-.27.43.93h.68l-.6-1.27,1.11-1.1h-.71l-1,1h0l.22-1Z"/><path id="_Path_2" data-name=" Path 2" class="cls-3" d="M83.18,45.35l-.31,1.45h0l-.71-1.45h-.49l-.52,2.37h.6L82,46.27h0l.72,1.45h.48l.52-2.37Z"/><path id="_Path_3" data-name=" Path 3" class="cls-3" d="M81,45.38a3.36,3.36,0,0,0-4.36-1.65,3.9,3.9,0,0,0-1.73,1.17A4,4,0,0,1,76.37,44c1.76-.61,3.58,0,4.08,1.4a2,2,0,0,1,.1,1.09l-.07.3a.46.46,0,0,1-.47.41.35.35,0,0,1-.39-.3.06.06,0,0,1,0,0,.77.77,0,0,1,0-.15l.31-1.41h-.62L79,46.76a.65.65,0,0,0,0,.2c0,.46.37.79,1,.79A1,1,0,0,0,81.07,47l.08-.44A2.47,2.47,0,0,0,81,45.38Z"/></g><g id="_Group_3" data-name=" Group 3"><path id="_Compound_Path_" data-name=" Compound Path " class="cls-3" d="M72.83,46.06c0-.43-.31-.71-.84-.71h-.91l-.51,2.37h.62l.15-.7h.4a1,1,0,0,0,1.09-.84Zm-1.09.51h-.31l.17-.76h.26c.22,0,.35.1.35.31a.43.43,0,0,1-.42.45Z"/><path id="_Path_4" data-name=" Path 4" class="cls-3" d="M75.73,46.34h0l-.28-1H74.8l.5,1.55-.12.56-.06.26h.62l.17-.81,1.18-1.56h-.67Z"/><path id="_Compound_Path_2" data-name=" Compound Path 2" class="cls-3" d="M74.9,47.63a2.18,2.18,0,0,1-.11-.44l-.4-1.84h-.75l-1.36,2.37h.66l.27-.53h1a2.07,2.07,0,0,0,.12.49,3.35,3.35,0,0,0,4.36,1.65,3.82,3.82,0,0,0,1.75-1.14A3.93,3.93,0,0,1,79,49C77.19,49.63,75.4,49,74.9,47.63Zm-1.47-.87.46-.88.18.88Z"/></g><path id="Path_400" data-name="Path 400" class="cls-41" d="M68.67,44.55V42.91h1.68"/><path id="Path_401" data-name="Path 401" class="cls-41" d="M85.67,44.55V42.91H84"/><path id="Path_402" data-name="Path 402" class="cls-41" d="M68.67,48.52v1.64h1.68"/><path id="Path_403" data-name="Path 403" class="cls-41" d="M85.67,48.52v1.64H84"/></g></g><g id="Group_413" data-name="Group 413"><g id="Group_399" data-name="Group 399"><path id="Path_2213-2" data-name="Path 2213-2" class="cls-3" d="M18.65,89.56H51.94a2.12,2.12,0,0,1,2.14,2.1v23.06a2.12,2.12,0,0,1-2.14,2.1H18.65a2.12,2.12,0,0,1-2.15-2.1V91.66A2.12,2.12,0,0,1,18.65,89.56Z"/><g id="Transactions" class="cls-10"><text class="cls-42" transform="translate(22.23 110.88) scale(1.02 1)">Transactions</text></g></g><g id="Group_400" data-name="Group 400"><path id="Rectangle_1616-2" data-name="Rectangle 1616-2" class="cls-3" d="M60.31,89.56H93.6a2.12,2.12,0,0,1,2.15,2.1v23.06a2.12,2.12,0,0,1-2.15,2.1H60.31a2.13,2.13,0,0,1-2.15-2.1V91.66A2.13,2.13,0,0,1,60.31,89.56Z"/><g id="Settlement" class="cls-10"><text class="cls-42" transform="translate(65.51 110.88) scale(1.02 1)">Settlement</text></g></g><g id="Group_401" data-name="Group 401"><path id="Path_417-2" data-name="Path 417-2" class="cls-3" d="M102.15,89.56h33.61a2.05,2.05,0,0,1,2,2.1v23.06a2,2,0,0,1-2,2.1H102.15a2,2,0,0,1-2-2.1V91.66A2,2,0,0,1,102.15,89.56Z"/><g id="Payment_Link" data-name="Payment Link" class="cls-10"><text class="cls-42" transform="translate(106.25 110.88) scale(1.02 1)">Payment Link</text></g></g><g id="Settlement-2"><path id="Path_415" data-name="Path 415" class="cls-43" d="M82.14,101.44c-.3.23-.7,4.12-2.19,4.67s-3.65-3.74-5.42-3.57-4.69,1.44-5-.05,4.65-11.66,7-10,1.82,3.33,3.24,3.72,7.64-.82,7.1.92S82.45,101.21,82.14,101.44Z"/><g id="Group_457" data-name="Group 457"><path id="Path_2212" data-name="Path 2212" class="cls-44" d="M77.76,94.54l-4.47,2.78h8.93Z"/><rect id="Rectangle_1642" data-name="Rectangle 1642" class="cls-44" x="74.65" y="97.39" width="1.04" height="4.34"/><rect id="Rectangle_1643" data-name="Rectangle 1643" class="cls-44" x="77.23" y="97.39" width="1.04" height="4.34"/><rect id="Rectangle_1644" data-name="Rectangle 1644" class="cls-44" x="79.53" y="97.39" width="1.04" height="4.34"/><rect id="Rectangle_1645" data-name="Rectangle 1645" class="cls-44" x="73.83" y="101.72" width="7.86" height="1.02"/></g></g><g id="Transaction_Management" data-name="Transaction Management"><path id="Path_414" data-name="Path 414" class="cls-45" d="M40.1,101.44c-.3.23-.7,4.12-2.2,4.67s-3.64-3.74-5.42-3.57-4.69,1.44-4.95-.05,4.65-11.66,7-10,1.82,3.33,3.23,3.72,7.65-.82,7.11.92S40.41,101.21,40.1,101.44Z"/><g id="Transaction_manage" data-name="Transaction manage"><g id="Layer_1-5" data-name="Layer 1-5"><ellipse id="Ellipse_342" data-name="Ellipse 342" class="cls-46" cx="35.53" cy="99.12" rx="3.08" ry="3.01"/><path id="Path_2264" data-name="Path 2264" class="cls-47" d="M36.38,98.13h-.67a.57.57,0,0,1,.23.41h.44v.2h-.44c0,.4-.36.66-.88.67.31.32.66.72,1,1.13h-.39c-.31-.37-.61-.72-1-1.11v-.24h.22c.43,0,.67-.18.7-.45h-.93v-.2h.91c-.06-.23-.27-.34-.62-.34h-.29v-.27h1.7Z"/><path id="Path_2265" data-name="Path 2265" class="cls-46" d="M33.76,103.21a4.4,4.4,0,0,1-2.41-5.82,4.5,4.5,0,0,1,3.24-2.61"/><path id="Path_2266" data-name="Path 2266" class="cls-47" d="M35.53,94.68a4.94,4.94,0,0,0-1.26.91l.18-.78-.36-.7a4.71,4.71,0,0,0,1.44.57Z"/><path id="Path_2267" data-name="Path 2267" class="cls-46" d="M38,95.4a4.36,4.36,0,0,1,1.34,6.13,4.5,4.5,0,0,1-2.82,1.92"/><path id="Path_2268" data-name="Path 2268" class="cls-47" d="M35.53,103.56a5.22,5.22,0,0,0,1.32-1l-.18.8.38.74a4.86,4.86,0,0,0-1.52-.59Z"/><ellipse id="Ellipse_343" data-name="Ellipse 343" class="cls-46" cx="35.53" cy="99.12" rx="2.24" ry="2.19"/></g></g></g><g id="Group_471" data-name="Group 471"><path id="Path_416" data-name="Path 416" class="cls-48" d="M124.12,101.09c-.3.23-.7,4.12-2.19,4.67s-3.65-3.74-5.42-3.57-4.69,1.44-5,0,4.65-11.66,7-10,1.83,3.33,3.24,3.72,7.64-.82,7.1.92S124.43,100.86,124.12,101.09Z"/><g id="Payment_Link_qr" data-name="Payment Link qr"><g id="Layer_1-6" data-name="Layer 1-6"><path id="Path_2269" data-name="Path 2269" class="cls-49" d="M121.93,98.24a3.67,3.67,0,0,1-1.59,5,3.85,3.85,0,0,1-5.13-1.55,3.67,3.67,0,0,1,1.59-5,3.8,3.8,0,0,1,1.75-.43,3.76,3.76,0,0,1,1.48.29"/><path id="Path_2270" data-name="Path 2270" class="cls-50" d="M119.69,98.94h-.78a.65.65,0,0,1,.26.49h.51v.2h-.51c0,.49-.42.77-1,.79.36.37.77.84,1.16,1.32h-.46c-.37-.43-.71-.84-1.16-1.3v-.29H118c.51,0,.79-.21.82-.52H117.7V99.4h1.07c-.07-.27-.32-.4-.73-.4h-.34v-.31h2Z"/><path id="Path_2271" data-name="Path 2271" class="cls-51" d="M122.57,96.21a.5.5,0,0,1-.67.08l-1.58-1.2a.46.46,0,0,1-.08-.65l.28-.35a.52.52,0,0,1,.67-.08l1.57,1.2"/><path id="Path_2272" data-name="Path 2272" class="cls-51" d="M122.35,95.86a.5.5,0,0,1,.67-.09L124.6,97a.45.45,0,0,1,.07.64h0l-.28.36a.48.48,0,0,1-.67.07l-1.57-1.19"/><line id="Line_190" data-name="Line 190" class="cls-51" x1="120.42" y1="96.12" x2="120.42" y2="96.61"/><line id="Line_191" data-name="Line 191" class="cls-51" x1="120.97" y1="97.38" x2="121.48" y2="96.88"/><line id="Line_192" data-name="Line 192" class="cls-51" x1="121.86" y1="97.88" x2="122.37" y2="97.88"/></g><ellipse id="Ellipse_344" data-name="Ellipse 344" class="cls-49" cx="118.64" cy="100" rx="2.89" ry="2.82"/></g></g></g></g></g><rect class="cls-1" x="10.06" y="32.95" width="134.22" height="233.1"/></g></g></svg>