<svg id="Education" xmlns="http://www.w3.org/2000/svg" width="100" height="100" viewBox="0 0 100 100">
  <g id="Layer_2" data-name="Layer 2">
    <g id="Education-2" data-name="Education">
      <rect id="Rectangle_1881" data-name="Rectangle 1881" width="100" height="100" fill="none"/>
      <path id="Path_2336" data-name="Path 2336" d="M68.36,84a1.5,1.5,0,0,0-1.82,1.1l-1.5,6a1.5,1.5,0,0,0,1.1,1.9,1.12,1.12,0,0,0,.36,0A1.5,1.5,0,0,0,68,91.86l1.51-6A1.51,1.51,0,0,0,68.36,84Z" fill="#029abe"/>
      <path id="Path_2337" data-name="Path 2337" d="M50,54a1.6,1.6,0,0,0,.57-.11l16.5-6.83a1.5,1.5,0,0,0-1.15-2.77L50,50.88,8,33.5V33a1.5,1.5,0,0,0-3,0v1.5a1.51,1.51,0,0,0,.93,1.39l43.5,18A1.6,1.6,0,0,0,50,54Z" fill="#029abe"/>
      <path id="Path_2338" data-name="Path 2338" d="M67.84,69.37a1.48,1.48,0,0,0-2-.68A35.07,35.07,0,0,1,51.5,72V58.5a1.5,1.5,0,1,0-3,0V71.94C29.87,71.35,23.86,60.07,23,58.19V48a1.5,1.5,0,0,0-3,0V58.5a1.55,1.55,0,0,0,.11.56C20.37,59.71,26.75,75,50,75a38.55,38.55,0,0,0,17.16-3.62,1.49,1.49,0,0,0,.68-2Z" fill="#0054ad"/>
      <path id="Path_2339" data-name="Path 2339" d="M72.5,85.5A1.5,1.5,0,0,0,71,87v4.5a1.5,1.5,0,0,0,3,0V87A1.5,1.5,0,0,0,72.5,85.5Z" fill="#029abe"/>
      <path id="Path_2340" data-name="Path 2340" d="M78.45,85.14a1.5,1.5,0,1,0-2.91.72l1.51,6A1.5,1.5,0,0,0,78.5,93a1.12,1.12,0,0,0,.36,0A1.49,1.49,0,0,0,80,91.13Z" fill="#029abe"/>
      <path id="Path_2341" data-name="Path 2341" d="M93.5,31.5A1.5,1.5,0,0,0,92,33v.49l-14.32,5.9a1.5,1.5,0,0,0-.93,1.39h0a1.5,1.5,0,0,0,2.07,1.38l15.25-6.27A1.5,1.5,0,0,0,95,34.5V33A1.5,1.5,0,0,0,93.5,31.5Z" fill="#029abe"/>
      <path id="Path_2342" data-name="Path 2342" d="M78.5,44.5A1.5,1.5,0,0,0,77,46V56.06a.81.81,0,0,1-.06.31,15.619,15.619,0,0,1-1,1.84.83.83,0,0,0-.13.43v2.43a.8.8,0,0,0,1.42.5A17.6,17.6,0,0,0,79.92,57a1.62,1.62,0,0,0,.08-.5V46A1.5,1.5,0,0,0,78.5,44.5Z" fill="#0054ad"/>
      <path id="Path_2343" data-name="Path 2343" d="M94.07,25.11l-43.5-18a1.5,1.5,0,0,0-1.14,0l-43.5,18a1.5,1.5,0,0,0,0,2.78l43.5,18a1.53,1.53,0,0,0,1.14,0L66.3,39.38a1.5,1.5,0,1,0-1.14-2.77L50,42.88,10.42,26.5,50,10.12,89.58,26.5,72.36,33.63l-16.5-6.16a3.55,3.55,0,0,0,.14-1C56,24,53.36,22,50,22s-6,2-6,4.5S46.64,31,50,31a7.24,7.24,0,0,0,3.88-1.07L71,36.32v37a4.5,4.5,0,1,0,3,0V36.19l20.07-8.3a1.5,1.5,0,0,0,0-2.78ZM50,28c-1.83,0-3-.89-3-1.5S48.17,25,50,25s3,.89,3,1.5S51.83,28,50,28ZM72.5,79A1.5,1.5,0,1,1,74,77.5,1.5,1.5,0,0,1,72.5,79Z" fill="#0054ad"/>
    </g>
  </g>
</svg>
