<svg id="Fuel" xmlns="http://www.w3.org/2000/svg" width="100" height="100" viewBox="0 0 100 100">
  <g id="Layer_2" data-name="Layer 2">
    <g id="Fuel-2" data-name="Fuel">
      <rect id="Rectangle_1882" data-name="Rectangle 1882" width="100" height="100" fill="none"/>
      <path id="Path_2344" data-name="Path 2344" d="M57.14,80.17a3,3,0,0,0,4.21,2.31L74.1,76.85a1.34,1.34,0,0,0,.73-1.65l-6.4-19a6.45,6.45,0,0,0-7.2-4.27l-2,.36A6.38,6.38,0,0,0,54,59.55ZM60.28,80a.35.35,0,0,1-.5-.28l-3.12-20.6a3.77,3.77,0,0,1,0-1.34L59,59.61a6.89,6.89,0,0,1,2.33,3.31l4.89,14.52Zm-.59-25.12,2-.36a3.66,3.66,0,0,1,.65-.06A3.77,3.77,0,0,1,65.9,57l6,17.87-3.29,1.45-4.8-14.28a9.66,9.66,0,0,0-3.21-4.56l-2.45-1.94a3.8,3.8,0,0,1,1.53-.66Z" fill="#0054ad"/>
      <path id="Path_2345" data-name="Path 2345" d="M13.42,22.59l19.9,5.87a2.11,2.11,0,0,1,.74.39l7,5.85,1.13.95,9.18,47.68a8.09,8.09,0,0,0,11.22,5.88L75.4,83.55a4.45,4.45,0,0,0,5.09,1.25L87.24,82a4.44,4.44,0,0,0,2.43-5.79l-12.29-30,.91-1.05a4.72,4.72,0,0,0-.48-6.65L63.76,26.36a4.72,4.72,0,0,0-6.66.48l-2.27,2.63-5.11-4.26h0l-9.47-7.7a4.61,4.61,0,0,0-1.64-.86L17,10.29a4.73,4.73,0,0,0-5.85,3.19l-.95,3.25a4.72,4.72,0,0,0,3.19,5.86ZM56,32.21l3.13-3.62a2.05,2.05,0,0,1,1.4-.71,2.08,2.08,0,0,1,1.49.5L76.07,40.56a2.05,2.05,0,0,1,.21,2.89l-1.45,1.67a1.34,1.34,0,0,0-.23,1.38L87.2,77.24a1.78,1.78,0,0,1-1,2.32l-6.75,2.77a1.83,1.83,0,0,1-1.36,0,1.76,1.76,0,0,1-1-1,1.33,1.33,0,0,0-.74-.73,1.27,1.27,0,0,0-1,0L61.53,86.76a5.43,5.43,0,0,1-7.52-4l-9.27-48.1a1.38,1.38,0,0,0-.45-.77l-.42-.35L49,28.07l5.15,4.29A1.34,1.34,0,0,0,56,32.2ZM12.78,17.48l1-3.24a2,2,0,0,1,1-1.22,2.07,2.07,0,0,1,1.56-.17L37.83,19.2a2,2,0,0,1,.72.37l8.36,6.8-5.09,5.47-6.06-5.05a4.63,4.63,0,0,0-1.68-.9L14.17,20a2.05,2.05,0,0,1-1.39-2.55Z" fill="#0054ad"/>
      <path id="Path_2346" data-name="Path 2346" d="M19.33,55.92a9.14,9.14,0,0,0,9.34-9.33c0-4.25-5.17-11.93-7.32-14.41a2.75,2.75,0,0,0-4,0C15.17,34.66,10,42.34,10,46.59a9.12,9.12,0,0,0,9.33,9.33Zm0-22C21.69,36.63,26,43.5,26,46.59a6.45,6.45,0,0,1-6.67,6.66,6.43,6.43,0,0,1-6.66-6.66C12.67,43.5,16.98,36.59,19.33,33.92Z" fill="#029abe"/>
      <path id="Path_2347" data-name="Path 2347" d="M48.22,35a1.35,1.35,0,0,0-.82.62,1.31,1.31,0,0,0-.14,1l.66,2.61a1.35,1.35,0,0,0,1.3,1,1.24,1.24,0,0,0,.33,0,1.34,1.34,0,0,0,1-1.62L49.88,36a1.27,1.27,0,0,0-.61-.82,1.37,1.37,0,0,0-1-.15Z" fill="#029abe"/>
      <path id="Path_2348" data-name="Path 2348" d="M49.36,43.56l1.89,8a1.33,1.33,0,0,0,1.3,1,1,1,0,0,0,.3,0,1.34,1.34,0,0,0,1-1.6L52,43a1.371,1.371,0,0,0-2.68.58Z" fill="#029abe"/>
    </g>
  </g>
</svg>
