<svg xmlns="http://www.w3.org/2000/svg" viewBox="0 0 589.51 820.02"><defs><style>.cls-1{fill:#0d7bff;opacity:0.04;isolation:isolate;}</style></defs><title>Grey2</title><g id="Layer_2" data-name="Layer 2"><g id="new"><path class="cls-1" d="M167.59,122.35c33.32,10,79.5,38.09,108.56,31.92,44.73-9.5,37.05-105.51,83.25-137.73C427-30.61,557.85,30.78,583.85,103.3c26.43,73.75-107.42,126.12-89.5,232.35,12.4,73.47,82.09,82,93.66,163.79,11.74,83-49.12,151.61-60.36,163.78-114.19,123.69-361,256.11-403.77,47.61-28.47-138.9,117.87-141.17,85.33-240-31-94.05-188.42-82.64-207.08-169.5C-14.74,222.88,71.41,93.52,167.59,122.35Z"/></g></g></svg>