<svg id="Grocery" xmlns="http://www.w3.org/2000/svg" width="100" height="100" viewBox="0 0 100 100">
  <g id="Layer_2" data-name="Layer 2">
    <g id="Grocery-2" data-name="Grocery">
      <rect id="Rectangle_1883" data-name="Rectangle 1883" width="100" height="100" fill="none"/>
      <path id="Path_2349" data-name="Path 2349" d="M86.4,21.4a10.4,10.4,0,0,0-20.8,0v13h-.68a22.58,22.58,0,0,1-2-3.1,63.121,63.121,0,0,1-2.27-9.9H61.7A1.3,1.3,0,0,0,63,20.1V12.3A1.3,1.3,0,0,0,61.7,11H46.1a1.3,1.3,0,0,0-1.3,1.3v7.8a1.3,1.3,0,0,0,1.3,1.3h1.07a63.12,63.12,0,0,1-2.27,9.9,22,22,0,0,1-2,3.1H31.8V44.8H17.5a1.3,1.3,0,0,0-1.3,1.3v4.81l-5,7.47a2.1,2.1,0,0,0-.13.26,3.4,3.4,0,0,0-.09.46V87.7A1.3,1.3,0,0,0,12.3,89H89V34.4H86.4Zm-18.2,0a7.8,7.8,0,1,1,15.6,0v13H68.2ZM79.9,78.34l5.37,8.06H74.53Zm-1.3-2.73-5.2,7.8V37h5.2ZM13.6,60.4H37V76.26a4.81,4.81,0,0,0-1.86,1.51c-.52.63-.73.84-1.17.84s-.65-.21-1.17-.84a3.72,3.72,0,0,0-6.34,0c-.52.63-.73.83-1.17.83s-.64-.2-1.17-.83A3.92,3.92,0,0,0,21,76a3.92,3.92,0,0,0-3.16,1.77c-.52.63-.74.83-1.17.83s-.62-.17-1.18-.83a4.71,4.71,0,0,0-1.85-1.52Zm28.6-6.19L44,57.8H40.4ZM57.8,60.4a6.51,6.51,0,0,1-6.37-5.2H52.6A6.51,6.51,0,0,1,59,60.4ZM59.1,63A11.7,11.7,0,1,1,47.4,74.7,11.7,11.7,0,0,1,59.1,63ZM47.4,13.6H50v2.6h2.6V13.6h2.6v2.6h2.6V13.6h2.6v5.2h-13Zm-.1,18.7a69.139,69.139,0,0,0,2.51-10.9H58a69.119,69.119,0,0,0,2.5,10.9,17,17,0,0,0,1.23,2.1H46.07a14.77,14.77,0,0,0,1.23-2.1ZM34.4,37H70.8v2.6H59.1v2.6H70.8v2.6H65.6v2.6h5.2V66.51a14.29,14.29,0,0,0-9-5.85c.26-2.13,1.39-6.76,6.42-6.76V51.3a8.31,8.31,0,0,0-8,5.35,9.07,9.07,0,0,0-7.56-4H50a1.3,1.3,0,0,0-1.3,1.3,9.12,9.12,0,0,0,4.45,7.81,14.4,14.4,0,0,0-5.75,4.8V59.1a3.579,3.579,0,0,0-.09-.45.89.89,0,0,0-.05-.13L43.5,51V46.1a1.3,1.3,0,0,0-1.3-1.3H34.4ZM18.8,47.4H40.9V50H18.8Zm-.6,5.2H40.1l-2.6,5.2H14.73ZM13.6,86.4V79.59a3.79,3.79,0,0,0,3,1.61,3.92,3.92,0,0,0,3.16-1.77c.52-.63.73-.83,1.17-.83s.65.2,1.17.83a4,4,0,0,0,3.2,1.77,4,4,0,0,0,3.17-1.77c.52-.63.73-.83,1.17-.83s.65.2,1.17.83A3.92,3.92,0,0,0,34,81.2a3.79,3.79,0,0,0,3-1.61V86.4Zm26,0v-26h5.2v26Zm7.8,0V82.9a14.58,14.58,0,0,0,3.51,3.5Zm19.9,0a14.54,14.54,0,0,0,3.5-3.5v3.5Zm19.1-3-5.2-7.8V37h5.2Z" fill="#0054ad"/>
      <path id="Path_2350" data-name="Path 2350" d="M71.69,24.07l7.8-2.61.82,2.47-7.8,2.6Z" fill="#029abe"/>
      <path id="Path_2351" data-name="Path 2351" d="M71.69,30.57,79.49,28l.82,2.47L72.51,33Z" fill="#029abe"/>
      <path id="Path_2352" data-name="Path 2352" d="M17.07,67.77c0,3.64,3.42,6.5,7.8,6.5s7.8-2.86,7.8-6.5-3.43-6.5-7.8-6.5S17.07,64.13,17.07,67.77Zm7.8-3.9c3,0,5.57,1.78,5.57,3.9s-2.55,3.9-5.57,3.9-5.57-1.79-5.57-3.9S21.85,63.87,24.87,63.87Z" fill="#029abe"/>
      <path id="Path_2353" data-name="Path 2353" d="M50,74.77c.17,3.12,2.57,9,10.4,9V81.2c-7.17,0-7.76-5.9-7.8-6.58Z" fill="#029abe"/>
      <rect id="Rectangle_1884" data-name="Rectangle 1884" width="2.6" height="2.6" transform="translate(51.3 69.5)" fill="#029abe"/>
      <rect id="Rectangle_1885" data-name="Rectangle 1885" width="2.6" height="2.6" transform="translate(55.2 65.6)" fill="#029abe"/>
      <rect id="Rectangle_1886" data-name="Rectangle 1886" width="2.6" height="2.6" transform="translate(50 42.2)" fill="#029abe"/>
    </g>
  </g>
</svg>
