<svg xmlns="http://www.w3.org/2000/svg" width="260.749" height="29.31" viewBox="0 0 260.749 29.31">
  <g id="Group_1" data-name="Group 1" transform="translate(-50.016 -466)">
    <g id="Ponepe" transform="translate(228.652 467)">
      <g id="Layer_1" data-name="Layer 1" transform="translate(0 0)">
        <path id="Path_2152" data-name="Path 2152" d="M14.2.625A13.663,13.663,0,1,1,.524,13.8,13.694,13.694,0,0,1,14.2.625Zm4.2,11,.1-.11c.255-.019.509-.054.764-.057,1.305-.013,1.147.135,1.173-1.188.009-.422-.167-.568-.57-.563-.853.009-1.708-.009-2.562-.015h-.088a2.808,2.808,0,0,1-.587-.513c-.991-1.557-1.949-3.134-2.945-4.693a1.049,1.049,0,0,0-.625-.44,7.3,7.3,0,0,0-1.28-.021c-.342,0-.418.213-.345.493a1.233,1.233,0,0,0,.21.4q1.729,2.327,3.468,4.649l-.01.126c-.458,0-.915.015-1.373.015-1.572,0-3.146-.009-4.718.016-.172,0-.49.217-.484.32.025.46-.249.981.192,1.373.065.057.207.034.312.035a8.128,8.128,0,0,0,.824,0c.381-.034.5.113.5.5q-.026,2.311,0,4.625a2.884,2.884,0,0,0,2.336,3.03c1.279.246,2.609.427,3.69-.787v3.555c0,.947.1,1.047,1.05.98.1-.007.2-.081.293-.075.613.041.635-.346.634-.8q-.012-5.152,0-10.3c0-.18.028-.362.041-.543Z" transform="translate(-0.516 -0.625)" fill="#673ab7"/>
        <path id="Path_2153" data-name="Path 2153" d="M100,61.6l.09.081-.1.048Z" transform="translate(-85.404 -52.659)" fill="#5b22b1"/>
        <path id="Path_2154" data-name="Path 2154" d="M114.49,62.415l-.045.009-.045-.014Z" transform="translate(-97.701 -53.35)" fill="#5b22b1"/>
        <path id="Path_2155" data-name="Path 2155" d="M122.48,74.983l.1-.113Z" transform="translate(-104.596 -63.984)" fill="#602eb3"/>
        <path id="Path_2156" data-name="Path 2156" d="M81.168,77.19c0-.769.014-1.538,0-2.307-.009-.353.124-.466.466-.463,1.083.015,2.165.012,3.248,0,.323,0,.452.121.452.452-.009,1.508.015,3.016-.011,4.524a1.605,1.605,0,0,1-1.717,1.713c-.314.009-.629.015-.941,0A1.452,1.452,0,0,1,81.186,79.6V77.2Z" transform="translate(-69.398 -63.694)" fill="#683ab7"/>
      </g>
    </g>
    <g id="Bhim" transform="translate(50.016 467)">
      <g id="Layer_1-2" data-name="Layer 1">
        <path id="Path_2171" data-name="Path 2171" d="M42.109,5.38l6.675,13.626L34.96,32.639Z" transform="translate(-30.405 -4.679)" fill="#048a3e"/>
        <path id="Path_2172" data-name="Path 2172" d="M7.149,0l6.675,13.626L0,27.259Z" fill="#fc7a0a"/>
      </g>
    </g>
    <g id="Paytm" transform="translate(97.836 474)">
      <g id="Layer_1-3" data-name="Layer 1" transform="translate(0 0)">
        <path id="Path_2146" data-name="Path 2146" d="M212.72,14.431a3.033,3.033,0,0,1,3.975.205,3.181,3.181,0,0,1,1.93-.852,2.874,2.874,0,0,1,3.054,2.758V24.7c0,.453-.116.572-.58.574h-1.6c-.514,0-.64-.125-.64-.639V17.457c0-.588-.26-.841-.838-.84s-.838.257-.838.843v7.212c0,.5-.109.6-.615.613h-1.631c-.434,0-.565-.119-.568-.554-.009-1.7-.011-3.406-.014-5.11V17.41c0-.533-.26-.773-.819-.775-.586,0-.847.234-.847.782v7.214c0,.53-.11.642-.628.642h-1.631c-.406,0-.554-.139-.554-.536V14.406c0-.384.151-.521.526-.524h1.661C212.55,13.88,212.627,13.943,212.72,14.431Z" transform="translate(-178.18 -11.694)" fill="#01baf1"/>
        <path id="Path_2147" data-name="Path 2147" d="M60.079,21.1V24.69A1.139,1.139,0,0,1,58.8,25.956H55.394a2.516,2.516,0,0,1-2.7-2.586c-.026-.82-.024-1.643,0-2.463a2.568,2.568,0,0,1,2.349-2.551c.515-.057,1.036-.05,1.554-.06s.6-.091.6-.5-.14-.527-.628-.527H54.4c-.444,0-.578-.137-.582-.588V15.087a.424.424,0,0,1,.461-.485c1.086,0,2.176-.039,3.256.051a2.53,2.53,0,0,1,2.542,2.826C60.087,18.688,60.079,19.895,60.079,21.1Zm-4.545,1.087V22.3c-.045,1.249.094,1.134,1.208,1.128.34,0,.5-.178.512-.52.009-.288,0-.578,0-.868.033-1.163-.02-1.127-1.223-1.11H56a.453.453,0,0,0-.453.5C55.533,21.685,55.534,21.937,55.534,22.191Z" transform="translate(-44.72 -12.39)" fill="#063070"/>
        <path id="Path_2148" data-name="Path 2148" d="M115.533,19.2v3.841a2.763,2.763,0,0,1-2.947,2.947h-2.935c-.482,0-.6-.115-.6-.6V23.72c0-.415.13-.536.545-.538h2.391c.545,0,.748-.151.736-.48s-.207-.43-.737-.437a8.958,8.958,0,0,1-1.51-.048,2.689,2.689,0,0,1-2.285-2.827c-.021-1.412-.008-2.826,0-4.24,0-.437.151-.577.6-.58h1.595c.5,0,.636.131.639.649V18.77c0,.588.1.69.7.692.994,0,1,0,1-.977V15.152c0-.441.139-.578.586-.58h1.661c.409,0,.562.159.562.574Q115.536,17.169,115.533,19.2Z" transform="translate(-91.836 -12.369)" fill="#073070"/>
        <path id="Path_2149" data-name="Path 2149" d="M2.815,22.536V25.27c0,.5-.119.624-.6.624H.509C.122,25.9,0,25.779,0,25.406V15.011c0-.358.142-.507.5-.509,1.424,0,2.85-.024,4.273.009a2.382,2.382,0,0,1,2.488,2.281,22.165,22.165,0,0,1-.011,3.54,2.392,2.392,0,0,1-2.483,2.2C4.125,22.544,3.489,22.536,2.815,22.536Zm.023-5.208v2.377c.4,0,.787.008,1.171,0a.444.444,0,0,0,.471-.482c.012-.468.011-.938,0-1.408a.453.453,0,0,0-.473-.485c-.382-.014-.764,0-1.169,0Z" transform="translate(0 -12.305)" fill="#052f6f"/>
        <path id="Path_2150" data-name="Path 2150" d="M168.44,2.194h.974c.4,0,.554.151.557.542V4.475c0,.391-.151.539-.553.545h-.968v7.96c0,.6-.083.68-.7.681h-1.412c-.566,0-.657-.091-.657-.645V5.022H164.64c-.409,0-.547-.137-.55-.539V2.708c0-.355.151-.512.5-.509A2.666,2.666,0,0,0,166.905.945,3.333,3.333,0,0,1,167.769.1c.361-.239.66-.029.668.412C168.446,1.057,168.44,1.6,168.44,2.194Z" transform="translate(-139.306 0.001)" fill="#01b9f1"/>
      </g>
    </g>
    <g id="google_pay_2" data-name="google pay_2" transform="translate(171.616 467)">
      <g id="Layer_1-4" data-name="Layer 1">
        <path id="Path_2184" data-name="Path 2184" d="M13.321,0A13.321,13.321,0,1,1,0,13.321,13.321,13.321,0,0,1,13.321,0Z" fill="#fff" stroke="#f2f2f2" stroke-width="0.2"/>
        <path id="Path_2175" data-name="Path 2175" d="M46.932,186.83l-.215.8-.788.017a3.1,3.1,0,0,1-.023-2.891h0l.7.129.307.7a1.848,1.848,0,0,0,.017,1.244Z" transform="translate(-42.621 -172.842)" fill="#fbbb00"/>
        <path id="Path_2176" data-name="Path 2176" d="M97.584,197.861a3.1,3.1,0,0,1,.054.581,3.145,3.145,0,0,1-.068.645,3.1,3.1,0,0,1-1.09,1.768h0l-.883-.045-.124-.781a1.847,1.847,0,0,0,.794-.942H94.61V197.86h2.974Z" transform="translate(-88.507 -185.097)" fill="#518ef8"/>
        <path id="Path_2177" data-name="Path 2177" d="M55.936,218.619h0a3.1,3.1,0,0,1-4.666-.948l1-.821a1.842,1.842,0,0,0,2.656.943Z" transform="translate(-47.963 -202.862)" fill="#28b446"/>
        <path id="Path_2178" data-name="Path 2178" d="M55.646,159.546l-1,.821a1.84,1.84,0,0,0-2.714.964l-1.009-.826h0a3.1,3.1,0,0,1,4.726-.959Z" transform="translate(-47.635 -148.587)" fill="#f14336"/>
        <path id="Path_2179" data-name="Path 2179" d="M115.29,28.4A13.322,13.322,0,1,0,123.57,3.34Z" transform="translate(-107.853 -3.125)" fill="#5792f1"/>
        <path id="Path_2180" data-name="Path 2180" d="M215.93,164.042a8.06,8.06,0,0,1,1.337-.1,2.217,2.217,0,0,1,1.512.448,1.454,1.454,0,0,1,.472,1.129,1.6,1.6,0,0,1-.416,1.152,2.234,2.234,0,0,1-1.649.592,2.4,2.4,0,0,1-.56-.048v2.16h-.7Zm.7,2.6a2.333,2.333,0,0,0,.576.056c.839,0,1.355-.408,1.355-1.153,0-.71-.5-1.056-1.273-1.056a2.953,2.953,0,0,0-.656.055Z" transform="translate(-202.001 -153.363)" fill="#fff"/>
        <path id="Path_2181" data-name="Path 2181" d="M276.087,190.721l-.056-.488h-.025a1.442,1.442,0,0,1-1.182.576,1.1,1.1,0,0,1-1.184-1.112c0-.936.832-1.448,2.329-1.44v-.08a.8.8,0,0,0-.88-.9,1.926,1.926,0,0,0-1.008.288l-.159-.464a2.406,2.406,0,0,1,1.272-.344c1.184,0,1.473.808,1.473,1.585v1.448a5.42,5.42,0,0,0,.065.928Zm-.1-1.977c-.768-.016-1.64.12-1.64.872a.623.623,0,0,0,.664.672.964.964,0,0,0,.936-.648.736.736,0,0,0,.04-.221Z" transform="translate(-255.988 -174.713)" fill="#fff"/>
        <path id="Path_2182" data-name="Path 2182" d="M329.958,188.13l.848,2.289c.088.258.184.56.248.792h.016c.072-.232.152-.528.248-.808l.768-2.273h.744l-1.056,2.761a5.9,5.9,0,0,1-1.328,2.424,1.911,1.911,0,0,1-.864.457l-.176-.592a1.86,1.86,0,0,0,.616-.344,2.129,2.129,0,0,0,.592-.784.5.5,0,0,0,.056-.168.607.607,0,0,0-.048-.184l-1.432-3.569Z" transform="translate(-307.955 -175.994)" fill="#fff"/>
        <path id="Path_2183" data-name="Path 2183" d="M111.8,27.5q.43.221.877.413l8.257-25.229q-.47-.108-.951-.184Z" transform="translate(-104.588 -2.339)" fill="#4c8cec"/>
      </g>
    </g>
    <g id="freecharge" transform="translate(281.454 466)">
      <g id="Layer_1-5" data-name="Layer 1">
        <circle id="Ellipse_321" data-name="Ellipse 321" cx="14.655" cy="14.655" r="14.655" fill="#e0714d"/>
        <path id="Path_184" data-name="Path 184" d="M89.11,59.616c-.477,1.627-.477,1.627-2.162,1.979-.081.644-.162,1.3-.254,2.041h2.027c-.91,1.834-1.768,3.563-2.671,5.38l1.905.1c-.626,1.243-1.188,2.361-1.759,3.488,1.926-1.825,3.831-3.634,5.735-5.438l-.087-.218h-2.11c1.237-1.2,2.233-2.246,3.312-3.2a2.893,2.893,0,0,0,.905-2.3H91.387c.345-.909.419-1.884.938-2.267a8.439,8.439,0,0,1,2.713-.8c.095-.454.234-1.145.383-1.827C92.442,55.623,89.913,56.88,89.11,59.616Z" transform="translate(-75.961 -49.658)" fill="#fff"/>
      </g>
    </g>
  </g>
</svg>
