<svg xmlns="http://www.w3.org/2000/svg" viewBox="0 0 27.64 33.94"><defs><style>.cls-1{fill:#fff;}</style></defs><title>IOS 2</title><g id="Layer_2" data-name="Layer 2"><g id="new"><path class="cls-1" d="M23.08,18a7.69,7.69,0,0,1,3.67-6.46,7.9,7.9,0,0,0-6.21-3.36C17.9,7.94,15.38,9.76,14,9.76s-3.41-1.51-5.6-1.47a8.29,8.29,0,0,0-7,4.25c-3,5.2-.77,12.89,2.15,17.1C5,31.71,6.7,34,8.93,33.94s3-1.39,5.56-1.39,3.33,1.39,5.6,1.35,3.78-2.11,5.2-4.17a19.09,19.09,0,0,0,2.35-4.83A7.5,7.5,0,0,1,23.08,18ZM18.81,5.42A7.49,7.49,0,0,0,20.57,0a7.61,7.61,0,0,0-5,2.57,7.14,7.14,0,0,0-1.81,5.25,6.31,6.31,0,0,0,5-2.4Z"/></g></g></svg>