<svg xmlns="http://www.w3.org/2000/svg" viewBox="0 0 17.1 21"><defs><style>.cls-1{fill:#fff;}</style></defs><title>IOS 1</title><g id="Layer_2" data-name="Layer 2"><g id="new"><path class="cls-1" d="M14.28,11.16a4.76,4.76,0,0,1,2.27-4,4.89,4.89,0,0,0-3.84-2.08c-1.64-.17-3.19,1-4,1S6.58,5.1,5.22,5.13A5.11,5.11,0,0,0,.88,7.76C-1,11,.4,15.73,2.21,18.34c.88,1.28,1.93,2.71,3.31,2.66s1.84-.86,3.44-.86S11,21,12.43,21s2.34-1.3,3.22-2.58a11.88,11.88,0,0,0,1.45-3,4.67,4.67,0,0,1-2.82-4.25ZM11.64,3.35A4.61,4.61,0,0,0,12.73,0,4.65,4.65,0,0,0,9.64,1.59,4.4,4.4,0,0,0,8.52,4.84a3.91,3.91,0,0,0,3.12-1.49Z"/></g></g></svg>