<svg id="Many_More" data-name="Many More" xmlns="http://www.w3.org/2000/svg" width="100" height="100" viewBox="0 0 100 100">
  <g id="Layer_2" data-name="Layer 2">
    <g id="Many_More-2" data-name="Many More">
      <rect id="Rectangle_1887" data-name="Rectangle 1887" width="100" height="100" fill="none"/>
      <path id="Path_2354" data-name="Path 2354" d="M67.38,43.2a6.8,6.8,0,1,0,6.8,6.8,6.8,6.8,0,0,0-6.8-6.8Zm0,10.89A4.09,4.09,0,1,1,71.47,50a4.09,4.09,0,0,1-4.09,4.09Z" fill="#029abe"/>
      <path id="Path_2355" data-name="Path 2355" d="M50,43.2A6.8,6.8,0,1,0,56.8,50,6.8,6.8,0,0,0,50,43.2Zm0,10.89A4.09,4.09,0,1,1,54.09,50,4.09,4.09,0,0,1,50,54.09Z" fill="#029abe"/>
      <path id="Path_2356" data-name="Path 2356" d="M32.62,43.2A6.8,6.8,0,1,0,39.41,50a6.8,6.8,0,0,0-6.79-6.8Zm0,10.89A4.09,4.09,0,1,1,36.7,50a4.09,4.09,0,0,1-4.08,4.09Z" fill="#029abe"/>
      <path id="Path_2357" data-name="Path 2357" d="M50,87.34A37.34,37.34,0,1,1,87.34,50,37.34,37.34,0,0,1,50,87.34Zm0-71.18A33.84,33.84,0,1,0,83.84,50,33.84,33.84,0,0,0,50,16.16Z" fill="#0054ad"/>
    </g>
  </g>
</svg>
