<svg id="Medical_store" data-name="Medical store" xmlns="http://www.w3.org/2000/svg" width="100" height="100" viewBox="0 0 100 100">
  <g id="Layer_2" data-name="Layer 2">
    <g id="Medical_store-2" data-name="Medical store">
      <rect id="Rectangle_1888" data-name="Rectangle 1888" width="100" height="100" fill="none"/>
      <path id="Path_2358" data-name="Path 2358" d="M89,23.8a4.58,4.58,0,0,0-4.57-4.58H71.71a1.53,1.53,0,0,0,0,3.05H84.43A1.53,1.53,0,0,1,86,23.8V33H14.05V23.8a1.53,1.53,0,0,1,1.52-1.53h19a1.53,1.53,0,0,0,0-3.05h-19A4.58,4.58,0,0,0,11,23.8V39.91a7.37,7.37,0,0,0,3.38,6.2,1.73,1.73,0,0,0,0,.32V86H12.52a1.53,1.53,0,0,0,0,3h75a1.53,1.53,0,0,0,0-3H85.65V46.43a1.73,1.73,0,0,0,0-.32A7.37,7.37,0,0,0,89,39.91ZM26.54,36H36v3.92a4.34,4.34,0,0,1-4.34,4.34H30.9a4.35,4.35,0,0,1-4.34-4.34V36ZM39,36h9.45v3.92a4.35,4.35,0,0,1-4.34,4.34h-.77A4.35,4.35,0,0,1,39,39.91Zm12.49,0H61v3.92a4.35,4.35,0,0,1-4.34,4.34h-.77a4.35,4.35,0,0,1-4.34-4.34V36ZM64,36h9.44v3.92a4.35,4.35,0,0,1-4.34,4.34h-.76A4.34,4.34,0,0,1,64,39.91ZM14,36h9.44v3.92a4.34,4.34,0,0,1-4.34,4.34h-.76A4.34,4.34,0,0,1,14,39.92ZM25.62,86V56.09H46.34V86Zm57-11H58.53V56.09H82.6Zm0-21.93H57a1.53,1.53,0,0,0-1.53,1.52V76.51A1.53,1.53,0,0,0,57,78H82.6v8H49.39V54.57a1.52,1.52,0,0,0-1.52-1.52H24.1a1.52,1.52,0,0,0-1.52,1.52V86H17.4V47.23a8,8,0,0,0,1,.07h.76A7.4,7.4,0,0,0,25,44.4a7.37,7.37,0,0,0,5.86,2.9h.76a7.39,7.39,0,0,0,5.87-2.9,7.37,7.37,0,0,0,5.86,2.9h.77A7.38,7.38,0,0,0,50,44.4a7.38,7.38,0,0,0,5.86,2.9h.77a7.37,7.37,0,0,0,5.86-2.9,7.39,7.39,0,0,0,5.87,2.9h.76A7.4,7.4,0,0,0,75,44.4a7.37,7.37,0,0,0,5.86,2.9h.76a8,8,0,0,0,1-.07v5.82Zm-1-8.8h-.76a4.34,4.34,0,0,1-4.34-4.34V36H86v3.92a4.34,4.34,0,0,1-4.39,4.33Z" fill="#0054ad"/>
      <path id="Path_2359" data-name="Path 2359" d="M75.19,63.54h-3.2V60.33H68.95v3.21h-3.2v3.03h3.2v3.21h3.04V66.57h3.2Z" fill="#029abe"/>
      <path id="Path_2360" data-name="Path 2360" d="M46.58,29.89a6,6,0,0,0,4.25-1.76l3.43-3.43h0l3.42-3.42a6.021,6.021,0,0,0-8.51-8.52l-6.85,6.85a6,6,0,0,0,4.26,10.28Zm4.74-15a3,3,0,1,1,4.21,4.2l-2.35,2.35L49,17.26Zm-6.85,6.85,2.35-2.35L51,23.62,48.68,26a3,3,0,0,1-5.08-2.1,2.94,2.94,0,0,1,.87-2.13Z" fill="#029abe"/>
    </g>
  </g>
</svg>
