<svg xmlns="http://www.w3.org/2000/svg" xmlns:xlink="http://www.w3.org/1999/xlink" viewBox="0 0 410.1 302.08"><defs><style>.cls-1,.cls-2{isolation:isolate;}.cls-2{fill:#0d7bff;opacity:0.1;}.cls-3{fill:#4d87db;}.cls-20,.cls-4{fill:#fff;}.cls-39,.cls-5{fill:#262262;}.cls-45,.cls-6{fill:none;stroke-miterlimit:10;}.cls-6{stroke:#00b1f7;stroke-width:0.37px;}.cls-7{fill:#4caf50;}.cls-8{fill:#fafafa;}.cls-9{fill:#673ab7;}.cls-10{fill:#5b22b1;}.cls-11{fill:#602eb3;}.cls-12{fill:#683ab7;}.cls-13{fill:#048a3e;}.cls-14{fill:#fc7a0a;}.cls-15{fill:#01baf1;}.cls-16{fill:#063070;}.cls-17{fill:#073070;}.cls-18{fill:#052f6f;}.cls-19{fill:#01b9f1;}.cls-20{stroke:#f2f2f2;stroke-width:0.07px;}.cls-21{fill:#fbbb00;}.cls-22{fill:#518ef8;}.cls-23{fill:#28b446;}.cls-24{fill:#f14336;}.cls-25{fill:#5792f1;}.cls-26{fill:#4c8cec;}.cls-27{fill:#e89487;}.cls-28{fill:#f7af9f;}.cls-29{fill:#f9ddc5;}.cls-30{fill:#27547c;}.cls-31{fill:#f9d0b2;}.cls-32{fill:#464353;}.cls-33{fill:#33323f;}.cls-34{fill:#ce847c;}.cls-35{fill:#13133f;}.cls-36{fill:#002d56;}.cls-37{fill:#b3e2f4;}.cls-38{fill:#3357bc;}.cls-39{opacity:0.19;}.cls-40{fill:#74a0d6;}.cls-41{opacity:0.23;fill:url(#linear-gradient);}.cls-41,.cls-47,.cls-50,.cls-66{mix-blend-mode:multiply;}.cls-42{fill:#587ac6;}.cls-43{fill:#75d1b7;}.cls-44{fill:#098c5d;}.cls-45{stroke:#fff;stroke-width:0.84px;opacity:0.6;}.cls-46{fill:#7dd38d;}.cls-47,.cls-50,.cls-66{opacity:0.47;}.cls-47{fill:url(#linear-gradient-2);}.cls-48{fill:#0a0a35;}.cls-49{fill:#9be0aa;}.cls-50{fill:url(#linear-gradient-3);}.cls-51{fill:#72af7e;}.cls-52{opacity:0.2;}.cls-53{fill:#ed927a;}.cls-54{fill:#eb1300;opacity:0.28;}.cls-55,.cls-58{fill:#e2eeec;}.cls-56{fill:#edcc66;}.cls-57{fill:#f7941d;opacity:0.34;}.cls-58{mix-blend-mode:soft-light;}.cls-59{fill:#131316;}.cls-60{fill:#097c50;}.cls-61{fill:#2b3990;}.cls-62{fill:#cedee0;}.cls-63{fill:#2c50c4;}.cls-64{fill:#9fa1a4;}.cls-65{fill:#c0c2c4;}.cls-66{fill:url(#linear-gradient-4);}.cls-67{fill:#9d9cb5;}</style><linearGradient id="linear-gradient" x1="149.56" y1="261.26" x2="223.83" y2="117.84" gradientUnits="userSpaceOnUse"><stop offset="0" stop-color="#fff"/><stop offset="1" stop-color="#0300d4"/></linearGradient><linearGradient id="linear-gradient-2" x1="318.31" y1="105.09" x2="365.53" y2="80.62" gradientUnits="userSpaceOnUse"><stop offset="0.11" stop-color="#fff"/><stop offset="1" stop-color="#10a"/></linearGradient><linearGradient id="linear-gradient-3" x1="-2140.5" y1="1551.63" x2="-2470.8" y2="1464.71" gradientTransform="matrix(-0.37, 0.35, 0.3, 0.32, -932.17, 364.07)" gradientUnits="userSpaceOnUse"><stop offset="0.21" stop-color="#fff"/><stop offset="0.64" stop-color="#10a"/></linearGradient><linearGradient id="linear-gradient-4" x1="351.95" y1="163.16" x2="364.73" y2="95.01" gradientTransform="matrix(1, 0, 0, 1, 0, 0)" xlink:href="#linear-gradient-3"/></defs><title>Middle graphics</title><g class="cls-1"><g id="Layer_2" data-name="Layer 2"><g id="first"><path class="cls-2" d="M253.52,63C235.87,76.41,213,75.54,192.91,68.59s-38.49-19.36-58-28.16A177,177,0,0,0,83.9,26C54.76,22.43,21.74,29.91,7.53,58.19-4.71,82.55-2.33,117.66,16.87,138c10.63,11.25,24.56,16.76,36.7,25.54S77,186.85,75.92,203.79c-1,15.69-12.09,27.73-23.6,35.28-8.91,5.84-19.88,12.21-20.95,24.3-1,11.7,8.18,20.86,17,26.08a90,90,0,0,0,92.72-.43c10.21-6.17,19.59-14.36,30.3-19.16,28.11-12.61,59.08.08,88.84,4.73a164.7,164.7,0,0,0,75.56-6c24.74-7.89,39.67-22.34,50.9-45.6a269.14,269.14,0,0,0,20.67-60.3c4.67-21.73,4-39.8-6.78-59.78-16.45-30.5-44.14-51.95-74.11-57.4s-61.7,5.2-85,28.48"/><rect class="cls-3" x="67.85" y="111.99" width="37.51" height="49.11"/><rect class="cls-4" x="69.43" y="113.56" width="34.35" height="45.96"/><rect class="cls-5" x="64.18" y="158.2" width="45.05" height="5.51"/><rect class="cls-4" x="95.42" y="144.67" width="0.85" height="0.85"/><rect class="cls-4" x="95.42" y="143.82" width="0.85" height="0.85"/><rect class="cls-4" x="95.42" y="142.96" width="0.85" height="0.86"/><rect class="cls-4" x="95.42" y="142.11" width="0.85" height="0.85"/><rect class="cls-4" x="95.42" y="141.26" width="0.85" height="0.85"/><rect class="cls-4" x="95.42" y="140.4" width="0.85" height="0.85"/><rect class="cls-4" x="95.42" y="139.55" width="0.85" height="0.85"/><rect class="cls-4" x="95.42" y="138.7" width="0.85" height="0.85"/><rect class="cls-4" x="95.42" y="137.84" width="0.85" height="0.86"/><rect class="cls-4" x="95.42" y="136.99" width="0.85" height="0.85"/><rect class="cls-4" x="95.42" y="136.14" width="0.85" height="0.85"/><rect class="cls-4" x="95.42" y="135.28" width="0.85" height="0.85"/><rect class="cls-4" x="95.42" y="134.43" width="0.85" height="0.85"/><rect class="cls-4" x="95.42" y="133.57" width="0.85" height="0.86"/><rect class="cls-4" x="95.42" y="132.72" width="0.85" height="0.85"/><rect class="cls-4" x="95.42" y="131.87" width="0.85" height="0.85"/><rect class="cls-4" x="95.42" y="131.01" width="0.85" height="0.85"/><rect class="cls-4" x="95.42" y="130.16" width="0.85" height="0.85"/><rect class="cls-4" x="95.42" y="129.31" width="0.85" height="0.85"/><rect class="cls-4" x="95.42" y="128.45" width="0.85" height="0.86"/><rect class="cls-4" x="95.42" y="127.6" width="0.85" height="0.85"/><rect class="cls-4" x="95.42" y="126.75" width="0.85" height="0.85"/><rect class="cls-4" x="94.57" y="144.67" width="0.85" height="0.85"/><rect x="94.57" y="143.82" width="0.85" height="0.85"/><rect x="94.57" y="142.96" width="0.85" height="0.86"/><rect x="94.57" y="142.11" width="0.85" height="0.85"/><rect class="cls-4" x="94.57" y="141.26" width="0.85" height="0.85"/><rect x="94.57" y="140.4" width="0.85" height="0.85"/><rect x="94.57" y="139.55" width="0.85" height="0.85"/><rect x="94.57" y="138.7" width="0.85" height="0.85"/><rect x="94.57" y="137.84" width="0.85" height="0.86"/><rect class="cls-4" x="94.57" y="136.99" width="0.85" height="0.85"/><rect x="94.57" y="136.14" width="0.85" height="0.85"/><rect x="94.57" y="135.28" width="0.85" height="0.85"/><rect class="cls-4" x="94.57" y="134.43" width="0.85" height="0.85"/><rect x="94.57" y="133.57" width="0.85" height="0.86"/><rect x="94.57" y="132.72" width="0.85" height="0.85"/><rect class="cls-4" x="94.57" y="131.87" width="0.85" height="0.85"/><rect x="94.57" y="131.01" width="0.85" height="0.85"/><rect x="94.57" y="130.16" width="0.85" height="0.85"/><rect x="94.57" y="129.31" width="0.85" height="0.85"/><rect x="94.57" y="128.45" width="0.85" height="0.86"/><rect x="94.57" y="127.6" width="0.85" height="0.85"/><rect class="cls-4" x="94.57" y="126.75" width="0.85" height="0.85"/><rect class="cls-4" x="93.71" y="144.67" width="0.86" height="0.85"/><rect class="cls-4" x="93.71" y="143.82" width="0.86" height="0.85"/><rect class="cls-4" x="93.71" y="142.96" width="0.86" height="0.86"/><rect class="cls-4" x="93.71" y="142.11" width="0.86" height="0.85"/><rect x="93.71" y="141.26" width="0.86" height="0.85"/><rect class="cls-4" x="93.71" y="140.4" width="0.86" height="0.85"/><rect class="cls-4" x="93.71" y="139.55" width="0.86" height="0.85"/><rect class="cls-4" x="93.71" y="138.7" width="0.86" height="0.85"/><rect x="93.71" y="137.84" width="0.86" height="0.86"/><rect class="cls-4" x="93.71" y="136.99" width="0.86" height="0.85"/><rect class="cls-4" x="93.71" y="136.14" width="0.86" height="0.85"/><rect x="93.71" y="135.28" width="0.86" height="0.85"/><rect class="cls-4" x="93.71" y="134.43" width="0.86" height="0.85"/><rect x="93.71" y="133.57" width="0.86" height="0.86"/><rect class="cls-4" x="93.71" y="132.72" width="0.86" height="0.85"/><rect class="cls-4" x="93.71" y="131.87" width="0.86" height="0.85"/><rect x="93.71" y="131.01" width="0.86" height="0.85"/><rect class="cls-4" x="93.71" y="130.16" width="0.86" height="0.85"/><rect class="cls-4" x="93.71" y="129.31" width="0.86" height="0.85"/><rect class="cls-4" x="93.71" y="128.45" width="0.86" height="0.86"/><rect x="93.71" y="127.6" width="0.86" height="0.85"/><rect class="cls-4" x="93.71" y="126.75" width="0.86" height="0.85"/><rect class="cls-4" x="92.86" y="144.67" width="0.85" height="0.85"/><rect x="92.86" y="143.82" width="0.85" height="0.85"/><rect class="cls-4" x="92.86" y="142.96" width="0.85" height="0.86"/><rect x="92.86" y="142.11" width="0.85" height="0.85"/><rect class="cls-4" x="92.86" y="141.26" width="0.85" height="0.85"/><rect x="92.86" y="140.4" width="0.85" height="0.85"/><rect class="cls-4" x="92.86" y="139.55" width="0.85" height="0.85"/><rect class="cls-4" x="92.86" y="138.7" width="0.85" height="0.85"/><rect x="92.86" y="137.84" width="0.85" height="0.86"/><rect x="92.86" y="136.99" width="0.85" height="0.85"/><rect x="92.86" y="136.14" width="0.85" height="0.85"/><rect x="92.86" y="135.28" width="0.85" height="0.85"/><rect x="92.86" y="134.43" width="0.85" height="0.85"/><rect x="92.86" y="133.57" width="0.85" height="0.86"/><rect class="cls-4" x="92.86" y="132.72" width="0.85" height="0.85"/><rect class="cls-4" x="92.86" y="131.87" width="0.85" height="0.85"/><rect x="92.86" y="131.01" width="0.85" height="0.85"/><rect class="cls-4" x="92.86" y="130.16" width="0.85" height="0.85"/><rect x="92.86" y="129.31" width="0.85" height="0.85"/><rect class="cls-4" x="92.86" y="128.45" width="0.85" height="0.86"/><rect x="92.86" y="127.6" width="0.85" height="0.85"/><rect class="cls-4" x="92.86" y="126.75" width="0.85" height="0.85"/><rect class="cls-4" x="92.01" y="144.67" width="0.85" height="0.85"/><rect x="92.01" y="143.82" width="0.85" height="0.85"/><rect class="cls-4" x="92.01" y="142.96" width="0.85" height="0.86"/><rect class="cls-4" x="92.01" y="142.11" width="0.85" height="0.85"/><rect class="cls-4" x="92.01" y="141.26" width="0.85" height="0.85"/><rect class="cls-4" x="92.01" y="140.4" width="0.85" height="0.85"/><rect class="cls-4" x="92.01" y="139.55" width="0.85" height="0.85"/><rect class="cls-4" x="92.01" y="138.7" width="0.85" height="0.85"/><rect class="cls-4" x="92.01" y="137.84" width="0.85" height="0.86"/><rect class="cls-4" x="92.01" y="136.99" width="0.85" height="0.85"/><rect class="cls-4" x="92.01" y="136.14" width="0.85" height="0.85"/><rect class="cls-4" x="92.01" y="135.28" width="0.85" height="0.85"/><rect class="cls-4" x="92.01" y="134.43" width="0.85" height="0.85"/><rect x="92.01" y="133.57" width="0.85" height="0.86"/><rect class="cls-4" x="92.01" y="132.72" width="0.85" height="0.85"/><rect class="cls-4" x="92.01" y="131.87" width="0.85" height="0.85"/><rect x="92.01" y="131.01" width="0.85" height="0.85"/><rect class="cls-4" x="92.01" y="130.16" width="0.85" height="0.85"/><rect class="cls-4" x="92.01" y="129.31" width="0.85" height="0.85"/><rect class="cls-4" x="92.01" y="128.45" width="0.85" height="0.86"/><rect x="92.01" y="127.6" width="0.85" height="0.85"/><rect class="cls-4" x="92.01" y="126.75" width="0.85" height="0.85"/><rect class="cls-4" x="91.15" y="144.67" width="0.85" height="0.85"/><rect x="91.15" y="143.82" width="0.85" height="0.85"/><rect class="cls-4" x="91.15" y="142.96" width="0.85" height="0.86"/><rect x="91.15" y="142.11" width="0.85" height="0.85"/><rect class="cls-4" x="91.15" y="141.26" width="0.85" height="0.85"/><rect class="cls-4" x="91.15" y="140.4" width="0.85" height="0.85"/><rect class="cls-4" x="91.15" y="139.55" width="0.85" height="0.85"/><rect class="cls-4" x="91.15" y="138.7" width="0.85" height="0.85"/><rect class="cls-4" x="91.15" y="137.84" width="0.85" height="0.86"/><rect class="cls-4" x="91.15" y="136.99" width="0.85" height="0.85"/><rect x="91.15" y="136.14" width="0.85" height="0.85"/><rect x="91.15" y="135.28" width="0.85" height="0.85"/><rect class="cls-4" x="91.15" y="134.43" width="0.85" height="0.85"/><rect x="91.15" y="133.57" width="0.85" height="0.86"/><rect x="91.15" y="132.72" width="0.85" height="0.85"/><rect class="cls-4" x="91.15" y="131.87" width="0.85" height="0.85"/><rect x="91.15" y="131.01" width="0.85" height="0.85"/><rect x="91.15" y="130.16" width="0.85" height="0.85"/><rect x="91.15" y="129.31" width="0.85" height="0.85"/><rect x="91.15" y="128.45" width="0.85" height="0.86"/><rect x="91.15" y="127.6" width="0.85" height="0.85"/><rect class="cls-4" x="91.15" y="126.75" width="0.85" height="0.85"/><rect class="cls-4" x="90.3" y="144.67" width="0.85" height="0.85"/><rect x="90.3" y="143.82" width="0.85" height="0.85"/><rect class="cls-4" x="90.3" y="142.96" width="0.85" height="0.86"/><rect x="90.3" y="142.11" width="0.85" height="0.85"/><rect class="cls-4" x="90.3" y="141.26" width="0.85" height="0.85"/><rect class="cls-4" x="90.3" y="140.4" width="0.85" height="0.85"/><rect x="90.3" y="139.55" width="0.85" height="0.85"/><rect x="90.3" y="138.7" width="0.85" height="0.85"/><rect class="cls-4" x="90.3" y="137.84" width="0.85" height="0.86"/><rect class="cls-4" x="90.3" y="136.99" width="0.85" height="0.85"/><rect x="90.3" y="136.14" width="0.85" height="0.85"/><rect class="cls-4" x="90.3" y="135.28" width="0.85" height="0.85"/><rect class="cls-4" x="90.3" y="134.43" width="0.85" height="0.85"/><rect class="cls-4" x="90.3" y="133.57" width="0.85" height="0.86"/><rect class="cls-4" x="90.3" y="132.72" width="0.85" height="0.85"/><rect class="cls-4" x="90.3" y="131.87" width="0.85" height="0.85"/><rect class="cls-4" x="90.3" y="131.01" width="0.85" height="0.85"/><rect class="cls-4" x="90.3" y="130.16" width="0.85" height="0.85"/><rect class="cls-4" x="90.3" y="129.31" width="0.85" height="0.85"/><rect class="cls-4" x="90.3" y="128.45" width="0.85" height="0.86"/><rect class="cls-4" x="90.3" y="127.6" width="0.85" height="0.85"/><rect class="cls-4" x="90.3" y="126.75" width="0.85" height="0.85"/><rect class="cls-4" x="89.45" y="144.67" width="0.85" height="0.85"/><rect x="89.45" y="143.82" width="0.85" height="0.85"/><rect class="cls-4" x="89.45" y="142.96" width="0.85" height="0.86"/><rect x="89.45" y="142.11" width="0.85" height="0.85"/><rect class="cls-4" x="89.45" y="141.26" width="0.85" height="0.85"/><rect x="89.45" y="140.4" width="0.85" height="0.85"/><rect x="89.45" y="139.55" width="0.85" height="0.85"/><rect x="89.45" y="138.7" width="0.85" height="0.85"/><rect x="89.45" y="137.84" width="0.85" height="0.86"/><rect class="cls-4" x="89.45" y="136.99" width="0.85" height="0.85"/><rect x="89.45" y="136.14" width="0.85" height="0.85"/><rect x="89.45" y="135.28" width="0.85" height="0.85"/><rect class="cls-4" x="89.45" y="134.43" width="0.85" height="0.85"/><rect class="cls-4" x="89.45" y="133.57" width="0.85" height="0.86"/><rect x="89.45" y="132.72" width="0.85" height="0.85"/><rect class="cls-4" x="89.45" y="131.87" width="0.85" height="0.85"/><rect class="cls-4" x="89.45" y="131.01" width="0.85" height="0.85"/><rect x="89.45" y="130.16" width="0.85" height="0.85"/><rect class="cls-4" x="89.45" y="129.31" width="0.85" height="0.85"/><rect class="cls-4" x="89.45" y="128.45" width="0.85" height="0.86"/><rect x="89.45" y="127.6" width="0.85" height="0.85"/><rect class="cls-4" x="89.45" y="126.75" width="0.85" height="0.85"/><rect class="cls-4" x="88.59" y="144.67" width="0.86" height="0.85"/><rect class="cls-4" x="88.59" y="143.82" width="0.86" height="0.85"/><rect class="cls-4" x="88.59" y="142.96" width="0.86" height="0.86"/><rect x="88.59" y="142.11" width="0.86" height="0.85"/><rect class="cls-4" x="88.59" y="141.26" width="0.86" height="0.85"/><rect x="88.59" y="140.4" width="0.86" height="0.85"/><rect class="cls-4" x="88.59" y="139.55" width="0.86" height="0.85"/><rect class="cls-4" x="88.59" y="138.7" width="0.86" height="0.85"/><rect x="88.59" y="137.84" width="0.86" height="0.86"/><rect class="cls-4" x="88.59" y="136.99" width="0.86" height="0.85"/><rect class="cls-4" x="88.59" y="136.14" width="0.86" height="0.85"/><rect class="cls-4" x="88.59" y="135.28" width="0.86" height="0.85"/><rect class="cls-4" x="88.59" y="134.43" width="0.86" height="0.85"/><rect class="cls-4" x="88.59" y="133.57" width="0.86" height="0.86"/><rect x="88.59" y="132.72" width="0.86" height="0.85"/><rect x="88.59" y="131.87" width="0.86" height="0.85"/><rect class="cls-4" x="88.59" y="131.01" width="0.86" height="0.85"/><rect class="cls-4" x="88.59" y="130.16" width="0.86" height="0.85"/><rect x="88.59" y="129.31" width="0.86" height="0.85"/><rect x="88.59" y="128.45" width="0.86" height="0.86"/><rect x="88.59" y="127.6" width="0.86" height="0.85"/><rect class="cls-4" x="88.59" y="126.75" width="0.86" height="0.85"/><rect class="cls-4" x="87.74" y="144.67" width="0.85" height="0.85"/><rect x="87.74" y="143.82" width="0.85" height="0.85"/><rect class="cls-4" x="87.74" y="142.96" width="0.85" height="0.86"/><rect class="cls-4" x="87.74" y="142.11" width="0.85" height="0.85"/><rect class="cls-4" x="87.74" y="141.26" width="0.85" height="0.85"/><rect class="cls-4" x="87.74" y="140.4" width="0.85" height="0.85"/><rect x="87.74" y="139.55" width="0.85" height="0.85"/><rect class="cls-4" x="87.74" y="138.7" width="0.85" height="0.85"/><rect class="cls-4" x="87.74" y="137.84" width="0.85" height="0.86"/><rect x="87.74" y="136.99" width="0.85" height="0.85"/><rect x="87.74" y="136.14" width="0.85" height="0.85"/><rect x="87.74" y="135.28" width="0.85" height="0.85"/><rect x="87.74" y="134.43" width="0.85" height="0.85"/><rect class="cls-4" x="87.74" y="133.57" width="0.85" height="0.86"/><rect x="87.74" y="132.72" width="0.85" height="0.85"/><rect class="cls-4" x="87.74" y="131.87" width="0.85" height="0.85"/><rect x="87.74" y="131.01" width="0.85" height="0.85"/><rect class="cls-4" x="87.74" y="130.16" width="0.85" height="0.85"/><rect x="87.74" y="129.31" width="0.85" height="0.85"/><rect class="cls-4" x="87.74" y="128.45" width="0.85" height="0.86"/><rect x="87.74" y="127.6" width="0.85" height="0.85"/><rect class="cls-4" x="87.74" y="126.75" width="0.85" height="0.85"/><rect class="cls-4" x="86.88" y="144.67" width="0.85" height="0.85"/><rect class="cls-4" x="86.88" y="143.82" width="0.85" height="0.85"/><rect x="86.88" y="142.96" width="0.85" height="0.86"/><rect x="86.88" y="142.11" width="0.85" height="0.85"/><rect x="86.88" y="141.26" width="0.85" height="0.85"/><rect x="86.88" y="140.4" width="0.85" height="0.85"/><rect x="86.88" y="139.55" width="0.85" height="0.85"/><rect class="cls-4" x="86.88" y="138.7" width="0.85" height="0.85"/><rect class="cls-4" x="86.88" y="137.84" width="0.85" height="0.86"/><rect class="cls-4" x="86.88" y="136.99" width="0.85" height="0.85"/><rect class="cls-4" x="86.88" y="136.14" width="0.85" height="0.85"/><rect class="cls-4" x="86.88" y="135.28" width="0.85" height="0.85"/><rect class="cls-4" x="86.88" y="134.43" width="0.85" height="0.85"/><rect class="cls-4" x="86.88" y="133.57" width="0.85" height="0.86"/><rect class="cls-4" x="86.88" y="132.72" width="0.85" height="0.85"/><rect class="cls-4" x="86.88" y="131.87" width="0.85" height="0.85"/><rect class="cls-4" x="86.88" y="131.01" width="0.85" height="0.85"/><rect class="cls-4" x="86.88" y="130.16" width="0.85" height="0.85"/><rect class="cls-4" x="86.88" y="129.31" width="0.85" height="0.85"/><rect class="cls-4" x="86.88" y="128.45" width="0.85" height="0.86"/><rect x="86.88" y="127.6" width="0.85" height="0.85"/><rect class="cls-4" x="86.88" y="126.75" width="0.85" height="0.85"/><rect class="cls-4" x="86.03" y="144.67" width="0.85" height="0.85"/><rect x="86.03" y="143.82" width="0.85" height="0.85"/><rect class="cls-4" x="86.03" y="142.96" width="0.85" height="0.86"/><rect class="cls-4" x="86.03" y="142.11" width="0.85" height="0.85"/><rect class="cls-4" x="86.03" y="141.26" width="0.85" height="0.85"/><rect class="cls-4" x="86.03" y="140.4" width="0.85" height="0.85"/><rect class="cls-4" x="86.03" y="139.55" width="0.85" height="0.85"/><rect class="cls-4" x="86.03" y="138.7" width="0.85" height="0.85"/><rect class="cls-4" x="86.03" y="137.84" width="0.85" height="0.86"/><rect class="cls-4" x="86.03" y="136.99" width="0.85" height="0.85"/><rect class="cls-4" x="86.03" y="136.14" width="0.85" height="0.85"/><rect class="cls-4" x="86.03" y="135.28" width="0.85" height="0.85"/><rect x="86.03" y="134.43" width="0.85" height="0.85"/><rect class="cls-4" x="86.03" y="133.57" width="0.85" height="0.86"/><rect class="cls-4" x="86.03" y="132.72" width="0.85" height="0.85"/><rect x="86.03" y="131.87" width="0.85" height="0.85"/><rect x="86.03" y="131.01" width="0.85" height="0.85"/><rect class="cls-4" x="86.03" y="130.16" width="0.85" height="0.85"/><rect class="cls-4" x="86.03" y="129.31" width="0.85" height="0.85"/><rect x="86.03" y="128.45" width="0.85" height="0.86"/><rect class="cls-4" x="86.03" y="127.6" width="0.85" height="0.85"/><rect class="cls-4" x="86.03" y="126.75" width="0.85" height="0.85"/><rect class="cls-4" x="85.18" y="144.67" width="0.85" height="0.85"/><rect x="85.18" y="143.82" width="0.85" height="0.85"/><rect class="cls-4" x="85.18" y="142.96" width="0.85" height="0.86"/><rect class="cls-4" x="85.18" y="142.11" width="0.85" height="0.85"/><rect class="cls-4" x="85.18" y="141.26" width="0.85" height="0.85"/><rect x="85.18" y="140.4" width="0.85" height="0.85"/><rect class="cls-4" x="85.18" y="139.55" width="0.85" height="0.85"/><rect class="cls-4" x="85.18" y="138.7" width="0.85" height="0.85"/><rect class="cls-4" x="85.18" y="137.84" width="0.85" height="0.86"/><rect x="85.18" y="136.99" width="0.85" height="0.85"/><rect class="cls-4" x="85.18" y="136.14" width="0.85" height="0.85"/><rect x="85.18" y="135.28" width="0.85" height="0.85"/><rect class="cls-4" x="85.18" y="134.43" width="0.85" height="0.85"/><rect class="cls-4" x="85.18" y="133.57" width="0.85" height="0.86"/><rect x="85.18" y="132.72" width="0.85" height="0.85"/><rect x="85.18" y="131.87" width="0.85" height="0.85"/><rect x="85.18" y="131.01" width="0.85" height="0.85"/><rect x="85.18" y="130.16" width="0.85" height="0.85"/><rect x="85.18" y="129.31" width="0.85" height="0.85"/><rect x="85.18" y="128.45" width="0.85" height="0.86"/><rect x="85.18" y="127.6" width="0.85" height="0.85"/><rect class="cls-4" x="85.18" y="126.75" width="0.85" height="0.85"/><rect class="cls-4" x="84.32" y="144.67" width="0.86" height="0.85"/><rect class="cls-4" x="84.32" y="143.82" width="0.86" height="0.85"/><rect class="cls-4" x="84.32" y="142.96" width="0.86" height="0.86"/><rect class="cls-4" x="84.32" y="142.11" width="0.86" height="0.85"/><rect class="cls-4" x="84.32" y="141.26" width="0.86" height="0.85"/><rect x="84.32" y="140.4" width="0.86" height="0.85"/><rect x="84.32" y="139.55" width="0.86" height="0.85"/><rect x="84.32" y="138.7" width="0.86" height="0.85"/><rect x="84.32" y="137.84" width="0.86" height="0.86"/><rect class="cls-4" x="84.32" y="136.99" width="0.86" height="0.85"/><rect x="84.32" y="136.14" width="0.86" height="0.85"/><rect x="84.32" y="135.28" width="0.86" height="0.85"/><rect x="84.32" y="134.43" width="0.86" height="0.85"/><rect class="cls-4" x="84.32" y="133.57" width="0.86" height="0.86"/><rect x="84.32" y="132.72" width="0.86" height="0.85"/><rect class="cls-4" x="84.32" y="131.87" width="0.86" height="0.85"/><rect x="84.32" y="131.01" width="0.86" height="0.85"/><rect class="cls-4" x="84.32" y="130.16" width="0.86" height="0.85"/><rect class="cls-4" x="84.32" y="129.31" width="0.86" height="0.85"/><rect x="84.32" y="128.45" width="0.86" height="0.86"/><rect class="cls-4" x="84.32" y="127.6" width="0.86" height="0.85"/><rect class="cls-4" x="84.32" y="126.75" width="0.86" height="0.85"/><rect class="cls-4" x="83.47" y="144.67" width="0.85" height="0.85"/><rect x="83.47" y="143.82" width="0.85" height="0.85"/><rect x="83.47" y="142.96" width="0.85" height="0.86"/><rect x="83.47" y="142.11" width="0.85" height="0.85"/><rect x="83.47" y="141.26" width="0.85" height="0.85"/><rect x="83.47" y="140.4" width="0.85" height="0.85"/><rect class="cls-4" x="83.47" y="139.55" width="0.85" height="0.85"/><rect class="cls-4" x="83.47" y="138.7" width="0.85" height="0.85"/><rect class="cls-4" x="83.47" y="137.84" width="0.85" height="0.86"/><rect class="cls-4" x="83.47" y="136.99" width="0.85" height="0.85"/><rect class="cls-4" x="83.47" y="136.14" width="0.85" height="0.85"/><rect class="cls-4" x="83.47" y="135.28" width="0.85" height="0.85"/><rect class="cls-4" x="83.47" y="134.43" width="0.85" height="0.85"/><rect class="cls-4" x="83.47" y="133.57" width="0.85" height="0.86"/><rect x="83.47" y="132.72" width="0.85" height="0.85"/><rect class="cls-4" x="83.47" y="131.87" width="0.85" height="0.85"/><rect class="cls-4" x="83.47" y="131.01" width="0.85" height="0.85"/><rect x="83.47" y="130.16" width="0.85" height="0.85"/><rect class="cls-4" x="83.47" y="129.31" width="0.85" height="0.85"/><rect x="83.47" y="128.45" width="0.85" height="0.86"/><rect class="cls-4" x="83.47" y="127.6" width="0.85" height="0.85"/><rect class="cls-4" x="83.47" y="126.75" width="0.85" height="0.85"/><rect class="cls-4" x="82.61" y="144.67" width="0.85" height="0.85"/><rect class="cls-4" x="82.61" y="143.82" width="0.85" height="0.85"/><rect class="cls-4" x="82.61" y="142.96" width="0.85" height="0.86"/><rect class="cls-4" x="82.61" y="142.11" width="0.85" height="0.85"/><rect class="cls-4" x="82.61" y="141.26" width="0.85" height="0.85"/><rect class="cls-4" x="82.61" y="140.4" width="0.85" height="0.85"/><rect class="cls-4" x="82.61" y="139.55" width="0.85" height="0.85"/><rect x="82.61" y="138.7" width="0.85" height="0.85"/><rect x="82.61" y="137.84" width="0.85" height="0.86"/><rect x="82.61" y="136.99" width="0.85" height="0.85"/><rect class="cls-4" x="82.61" y="136.14" width="0.85" height="0.85"/><rect class="cls-4" x="82.61" y="135.28" width="0.85" height="0.85"/><rect x="82.61" y="134.43" width="0.85" height="0.85"/><rect x="82.61" y="133.57" width="0.85" height="0.86"/><rect x="82.61" y="132.72" width="0.85" height="0.85"/><rect class="cls-4" x="82.61" y="131.87" width="0.85" height="0.85"/><rect class="cls-4" x="82.61" y="131.01" width="0.85" height="0.85"/><rect class="cls-4" x="82.61" y="130.16" width="0.85" height="0.85"/><rect class="cls-4" x="82.61" y="129.31" width="0.85" height="0.85"/><rect class="cls-4" x="82.61" y="128.45" width="0.85" height="0.86"/><rect class="cls-4" x="82.61" y="127.6" width="0.85" height="0.85"/><rect class="cls-4" x="82.61" y="126.75" width="0.85" height="0.85"/><rect class="cls-4" x="81.76" y="144.67" width="0.85" height="0.85"/><rect x="81.76" y="143.82" width="0.85" height="0.85"/><rect x="81.76" y="142.96" width="0.85" height="0.86"/><rect x="81.76" y="142.11" width="0.85" height="0.85"/><rect x="81.76" y="141.26" width="0.85" height="0.85"/><rect x="81.76" y="140.4" width="0.85" height="0.85"/><rect class="cls-4" x="81.76" y="139.55" width="0.85" height="0.85"/><rect class="cls-4" x="81.76" y="138.7" width="0.85" height="0.85"/><rect class="cls-4" x="81.76" y="137.84" width="0.85" height="0.86"/><rect x="81.76" y="136.99" width="0.85" height="0.85"/><rect class="cls-4" x="81.76" y="136.14" width="0.85" height="0.85"/><rect class="cls-4" x="81.76" y="135.28" width="0.85" height="0.85"/><rect class="cls-4" x="81.76" y="134.43" width="0.85" height="0.85"/><rect class="cls-4" x="81.76" y="133.57" width="0.85" height="0.86"/><rect x="81.76" y="132.72" width="0.85" height="0.85"/><rect class="cls-4" x="81.76" y="131.87" width="0.85" height="0.85"/><rect x="81.76" y="131.01" width="0.85" height="0.85"/><rect x="81.76" y="130.16" width="0.85" height="0.85"/><rect x="81.76" y="129.31" width="0.85" height="0.85"/><rect x="81.76" y="128.45" width="0.85" height="0.86"/><rect x="81.76" y="127.6" width="0.85" height="0.85"/><rect class="cls-4" x="81.76" y="126.75" width="0.85" height="0.85"/><rect class="cls-4" x="80.91" y="144.67" width="0.85" height="0.85"/><rect x="80.91" y="143.82" width="0.85" height="0.85"/><rect class="cls-4" x="80.91" y="142.96" width="0.85" height="0.86"/><rect class="cls-4" x="80.91" y="142.11" width="0.85" height="0.85"/><rect class="cls-4" x="80.91" y="141.26" width="0.85" height="0.85"/><rect x="80.91" y="140.4" width="0.85" height="0.85"/><rect class="cls-4" x="80.91" y="139.55" width="0.85" height="0.85"/><rect class="cls-4" x="80.91" y="138.7" width="0.85" height="0.85"/><rect class="cls-4" x="80.91" y="137.84" width="0.85" height="0.86"/><rect x="80.91" y="136.99" width="0.85" height="0.85"/><rect class="cls-4" x="80.91" y="136.14" width="0.85" height="0.85"/><rect x="80.91" y="135.28" width="0.85" height="0.85"/><rect class="cls-4" x="80.91" y="134.43" width="0.85" height="0.85"/><rect class="cls-4" x="80.91" y="133.57" width="0.85" height="0.86"/><rect x="80.91" y="132.72" width="0.85" height="0.85"/><rect class="cls-4" x="80.91" y="131.87" width="0.85" height="0.85"/><rect x="80.91" y="131.01" width="0.85" height="0.85"/><rect class="cls-4" x="80.91" y="130.16" width="0.85" height="0.85"/><rect class="cls-4" x="80.91" y="129.31" width="0.85" height="0.85"/><rect class="cls-4" x="80.91" y="128.45" width="0.85" height="0.86"/><rect x="80.91" y="127.6" width="0.85" height="0.85"/><rect class="cls-4" x="80.91" y="126.75" width="0.85" height="0.85"/><rect class="cls-4" x="80.06" y="144.67" width="0.85" height="0.85"/><rect x="80.06" y="143.82" width="0.85" height="0.85"/><rect class="cls-4" x="80.06" y="142.96" width="0.85" height="0.86"/><rect x="80.06" y="142.11" width="0.85" height="0.85"/><rect class="cls-4" x="80.06" y="141.26" width="0.85" height="0.85"/><rect x="80.06" y="140.4" width="0.85" height="0.85"/><rect class="cls-4" x="80.06" y="139.55" width="0.85" height="0.85"/><rect x="80.06" y="138.7" width="0.85" height="0.85"/><rect class="cls-4" x="80.06" y="137.84" width="0.85" height="0.86"/><rect x="80.06" y="136.99" width="0.85" height="0.85"/><rect class="cls-4" x="80.06" y="136.14" width="0.85" height="0.85"/><rect x="80.06" y="135.28" width="0.85" height="0.85"/><rect class="cls-4" x="80.06" y="134.43" width="0.85" height="0.85"/><rect class="cls-4" x="80.06" y="133.57" width="0.85" height="0.86"/><rect class="cls-4" x="80.06" y="132.72" width="0.85" height="0.85"/><rect class="cls-4" x="80.06" y="131.87" width="0.85" height="0.85"/><rect x="80.06" y="131.01" width="0.85" height="0.85"/><rect class="cls-4" x="80.06" y="130.16" width="0.85" height="0.85"/><rect x="80.06" y="129.31" width="0.85" height="0.85"/><rect class="cls-4" x="80.06" y="128.45" width="0.85" height="0.86"/><rect x="80.06" y="127.6" width="0.85" height="0.85"/><rect class="cls-4" x="80.06" y="126.75" width="0.85" height="0.85"/><rect class="cls-4" x="79.2" y="144.67" width="0.86" height="0.85"/><rect x="79.2" y="143.82" width="0.86" height="0.85"/><rect class="cls-4" x="79.2" y="142.96" width="0.86" height="0.86"/><rect class="cls-4" x="79.2" y="142.11" width="0.86" height="0.85"/><rect class="cls-4" x="79.2" y="141.26" width="0.86" height="0.85"/><rect x="79.2" y="140.4" width="0.86" height="0.85"/><rect class="cls-4" x="79.2" y="139.55" width="0.86" height="0.85"/><rect class="cls-4" x="79.2" y="138.7" width="0.86" height="0.85"/><rect x="79.2" y="137.84" width="0.86" height="0.86"/><rect x="79.2" y="136.99" width="0.86" height="0.85"/><rect class="cls-4" x="79.2" y="136.14" width="0.86" height="0.85"/><rect x="79.2" y="135.28" width="0.86" height="0.85"/><rect class="cls-4" x="79.2" y="134.43" width="0.86" height="0.85"/><rect x="79.2" y="133.57" width="0.86" height="0.86"/><rect x="79.2" y="132.72" width="0.86" height="0.85"/><rect class="cls-4" x="79.2" y="131.87" width="0.86" height="0.85"/><rect x="79.2" y="131.01" width="0.86" height="0.85"/><rect class="cls-4" x="79.2" y="130.16" width="0.86" height="0.85"/><rect class="cls-4" x="79.2" y="129.31" width="0.86" height="0.85"/><rect class="cls-4" x="79.2" y="128.45" width="0.86" height="0.86"/><rect x="79.2" y="127.6" width="0.86" height="0.85"/><rect class="cls-4" x="79.2" y="126.75" width="0.86" height="0.85"/><rect class="cls-4" x="78.35" y="144.67" width="0.85" height="0.85"/><rect x="78.35" y="143.82" width="0.85" height="0.85"/><rect x="78.35" y="142.96" width="0.85" height="0.86"/><rect x="78.35" y="142.11" width="0.85" height="0.85"/><rect x="78.35" y="141.26" width="0.85" height="0.85"/><rect x="78.35" y="140.4" width="0.85" height="0.85"/><rect class="cls-4" x="78.35" y="139.55" width="0.85" height="0.85"/><rect x="78.35" y="138.7" width="0.85" height="0.85"/><rect class="cls-4" x="78.35" y="137.84" width="0.85" height="0.86"/><rect class="cls-4" x="78.35" y="136.99" width="0.85" height="0.85"/><rect x="78.35" y="136.14" width="0.85" height="0.85"/><rect x="78.35" y="135.28" width="0.85" height="0.85"/><rect class="cls-4" x="78.35" y="134.43" width="0.85" height="0.85"/><rect x="78.35" y="133.57" width="0.85" height="0.86"/><rect x="78.35" y="132.72" width="0.85" height="0.85"/><rect class="cls-4" x="78.35" y="131.87" width="0.85" height="0.85"/><rect x="78.35" y="131.01" width="0.85" height="0.85"/><rect x="78.35" y="130.16" width="0.85" height="0.85"/><rect x="78.35" y="129.31" width="0.85" height="0.85"/><rect x="78.35" y="128.45" width="0.85" height="0.86"/><rect x="78.35" y="127.6" width="0.85" height="0.85"/><rect class="cls-4" x="78.35" y="126.75" width="0.85" height="0.85"/><rect class="cls-4" x="77.49" y="144.67" width="0.85" height="0.85"/><rect class="cls-4" x="77.49" y="143.82" width="0.85" height="0.85"/><rect class="cls-4" x="77.49" y="142.96" width="0.85" height="0.86"/><rect class="cls-4" x="77.49" y="142.11" width="0.85" height="0.85"/><rect class="cls-4" x="77.49" y="141.26" width="0.85" height="0.85"/><rect class="cls-4" x="77.49" y="140.4" width="0.85" height="0.85"/><rect class="cls-4" x="77.49" y="139.55" width="0.85" height="0.85"/><rect class="cls-4" x="77.49" y="138.7" width="0.85" height="0.85"/><rect class="cls-4" x="77.49" y="137.84" width="0.85" height="0.86"/><rect class="cls-4" x="77.49" y="136.99" width="0.85" height="0.85"/><rect class="cls-4" x="77.49" y="136.14" width="0.85" height="0.85"/><rect class="cls-4" x="77.49" y="135.28" width="0.85" height="0.85"/><rect class="cls-4" x="77.49" y="134.43" width="0.85" height="0.85"/><rect class="cls-4" x="77.49" y="133.57" width="0.85" height="0.86"/><rect class="cls-4" x="77.49" y="132.72" width="0.85" height="0.85"/><rect class="cls-4" x="77.49" y="131.87" width="0.85" height="0.85"/><rect class="cls-4" x="77.49" y="131.01" width="0.85" height="0.85"/><rect class="cls-4" x="77.49" y="130.16" width="0.85" height="0.85"/><rect class="cls-4" x="77.49" y="129.31" width="0.85" height="0.85"/><rect class="cls-4" x="77.49" y="128.45" width="0.85" height="0.86"/><rect class="cls-4" x="77.49" y="127.6" width="0.85" height="0.85"/><rect class="cls-4" x="77.49" y="126.75" width="0.85" height="0.85"/><polyline class="cls-6" points="75.61 128.78 75.61 124.87 79.48 124.87"/><polyline class="cls-6" points="98.15 128.7 98.15 124.79 94.28 124.79"/><polyline class="cls-6" points="75.61 143.53 75.61 147.44 79.48 147.44"/><polyline class="cls-6" points="98.15 143.61 98.15 147.52 94.28 147.52"/><path d="M77.91,120.87v1h-.84v-3h1.25a1.15,1.15,0,0,1,.83.27.94.94,0,0,1,.29.73,1.07,1.07,0,0,1-.12.51,1,1,0,0,1-.39.36,1.25,1.25,0,0,1-.61.13Zm.69-1c0-.22-.13-.33-.37-.33h-.32v.67h.32C78.47,120.21,78.6,120.1,78.6,119.87Z"/><path d="M81.09,119.57a.61.61,0,0,1,.27.3v-.38h.84v2.39h-.84v-.38a.61.61,0,0,1-.27.3.87.87,0,0,1-.44.11.9.9,0,0,1-.51-.15,1.06,1.06,0,0,1-.36-.42,1.53,1.53,0,0,1-.13-.66,1.48,1.48,0,0,1,.13-.65,1.06,1.06,0,0,1,.36-.42.9.9,0,0,1,.51-.15A.87.87,0,0,1,81.09,119.57Zm-.48.75a.52.52,0,0,0-.12.36.53.53,0,0,0,.12.37.44.44,0,0,0,.32.13.4.4,0,0,0,.31-.14.49.49,0,0,0,.12-.36.52.52,0,0,0-.12-.36.42.42,0,0,0-.31-.13A.44.44,0,0,0,80.61,120.32Z"/><path d="M83.33,119.49l.51,1.34.48-1.34h.92L83.73,123h-.91l.58-1.25-1-2.28Z"/><path d="M89,121.88h-.83l-1.11-1.68v1.68h-.84v-3h.84l1.11,1.7v-1.7H89Z"/><path d="M91.24,119.61a1.14,1.14,0,0,1,.45.42,1.28,1.28,0,0,1,.16.65,1.23,1.23,0,0,1-.16.65,1.1,1.1,0,0,1-.45.43,1.32,1.32,0,0,1-.64.15,1.37,1.37,0,0,1-.64-.15,1.1,1.1,0,0,1-.45-.43,1.33,1.33,0,0,1-.16-.65,1.36,1.36,0,0,1,.16-.65,1.14,1.14,0,0,1,.45-.42,1.37,1.37,0,0,1,.64-.15A1.32,1.32,0,0,1,91.24,119.61Zm-.93.7a.58.58,0,0,0-.11.37.59.59,0,0,0,.11.38.4.4,0,0,0,.29.12.36.36,0,0,0,.29-.13.51.51,0,0,0,.11-.37.53.53,0,0,0-.11-.37.39.39,0,0,0-.29-.13A.41.41,0,0,0,90.31,120.31Z"/><path d="M95.75,119.49l-.6,2.39h-.93l-.36-1.49-.37,1.49h-.94L92,119.49h.83l.26,1.6.38-1.6h.89l.39,1.61.26-1.61Z"/><g id="Group_321" data-name="Group 321"><g id="whatsapp"><path id="Path_2173" data-name="Path 2173" class="cls-7" d="M92.41,151.83h0a1,1,0,0,0-1,1,1,1,0,0,0,.2.61l-.13.39.4-.13A1,1,0,1,0,93,152,1.06,1.06,0,0,0,92.41,151.83Z"/><path id="Path_2174" data-name="Path 2174" class="cls-8" d="M92.87,153.26a.22.22,0,0,1-.15.13s-.09,0-.27-.07a1.05,1.05,0,0,1-.39-.42.56.56,0,0,1-.1-.28.36.36,0,0,1,.08-.23.12.12,0,0,1,.08,0h0s0,0,0,0l.07.21a0,0,0,0,1,0,0,.08.08,0,0,1,0,0l0,.05s0,0,0,.05a1.37,1.37,0,0,0,.13.2.59.59,0,0,0,.18.13s0,0,.06,0l.06-.1a0,0,0,0,1,.05,0h0l.15.09,0,0A.34.34,0,0,1,92.87,153.26Z"/></g><g id="Ponepe"><g id="Layer_1-2" data-name="Layer 1"><path id="Path_2152" data-name="Path 2152" class="cls-9" d="M97.14,151.64A1.15,1.15,0,1,1,96,152.79v0A1.15,1.15,0,0,1,97.14,151.64Zm.36.92h.07c.11,0,.1,0,.1-.1s0,0,0,0H97.4l-.05,0c-.09-.13-.17-.27-.25-.4a.1.1,0,0,0,0,0h-.11s0,0,0,0a.05.05,0,0,0,0,0l.29.39H96.7s0,0,0,0,0,.08,0,.12h.09s0,0,0,0V153a.25.25,0,0,0,.19.26.32.32,0,0,0,.32-.07v.3c0,.08,0,.09.08.08h0s0,0,0-.07v-.87a.09.09,0,0,1,0-.05Z"/><path id="Path_2153" data-name="Path 2153" class="cls-10" d="M97.22,152.39h0Z"/><path id="Path_2154" data-name="Path 2154" class="cls-10" d="M97.4,152.4Z"/><path id="Path_2155" data-name="Path 2155" class="cls-11" d="M97.5,152.56h0Z"/><path id="Path_2156" data-name="Path 2156" class="cls-12" d="M97,152.77v-.19s0,0,0,0h.27s0,0,0,0V153a.14.14,0,0,1-.13.15h-.09A.13.13,0,0,1,97,153h0v-.2Z"/></g></g><g id="Bhim"><g id="Layer_1-2-2" data-name="Layer 1-2"><path id="Path_2171" data-name="Path 2171" class="cls-13" d="M77.25,151.78l.56,1.15-1.16,1.15Z"/><path id="Path_2172" data-name="Path 2172" class="cls-14" d="M76.87,151.72l.56,1.15L76.26,154Z"/></g></g><g id="Paytm"><g id="Layer_1-3" data-name="Layer 1-3"><path id="Path_2146" data-name="Path 2146" class="cls-15" d="M83.22,152.5a.25.25,0,0,1,.33,0,.26.26,0,0,1,.16-.07.24.24,0,0,1,.26.22h0v.69s0,0,0,0h-.13c-.05,0-.06,0-.06-.06v-.6s0-.07-.07-.07-.07,0-.07.07v.61s0,0,0,0H83.4s0,0-.05,0v-.62s0-.06-.07-.06-.07,0-.07.06v.61s0,.06,0,.06H83s0,0,0,0v-.87s0,0,0,0h.14S83.21,152.46,83.22,152.5Z"/><path id="Path_2147" data-name="Path 2147" class="cls-16" d="M81.6,153v.3a.12.12,0,0,1-.09.11H81.2a.22.22,0,0,1-.23-.2V153a.23.23,0,0,1,.2-.22h.13s0,0,0,0,0,0,0,0h-.18s-.05,0-.05-.05v-.13s0,0,0,0h0a2.43,2.43,0,0,1,.27,0,.21.21,0,0,1,.22.21V153Zm-.39.09h0c0,.1,0,.09.1.09s0,0,0,0v-.07c0-.1,0-.1-.11-.1h0a0,0,0,0,0,0,0h0v.07Z"/><path id="Path_2148" data-name="Path 2148" class="cls-17" d="M82.3,152.85v.32a.24.24,0,0,1-.22.25H81.8s0,0,0,0v-.14s0,0,0,0H82s.06,0,.06,0,0,0-.06,0h-.13a.23.23,0,0,1-.19-.24v-.35s0,0,0,0h.13s.06,0,.06,0v.3c0,.05,0,.06.06.06s.08,0,.08-.08v-.28s0,0,0,0h.14s0,0,0,0Z"/><path id="Path_2149" data-name="Path 2149" class="cls-18" d="M80.54,153.13v.23s0,.06-.05.06h-.15s0,0,0,0v-.88s0,0,0,0,.24,0,.36,0a.19.19,0,0,1,.21.19h0a1.5,1.5,0,0,1,0,.3.19.19,0,0,1-.21.18Zm0-.44v.21h.1a0,0,0,0,0,0,0h0v-.11s0,0,0-.05h-.1Z"/><path id="Path_2150" data-name="Path 2150" class="cls-19" d="M82.76,152.46h.08s0,0,0,0v.15s0,0,0,0h-.08v.68s0,0-.06,0h-.12s0,0,0,0v-.68h-.09s0,0,0,0v-.15a0,0,0,0,1,0,0,.23.23,0,0,0,.2-.11l.07-.07a0,0,0,0,1,.06,0Z"/></g></g><g id="google_pay_2" data-name="google pay 2"><g id="Layer_1-4" data-name="Layer 1-4"><path id="Path_2184" data-name="Path 2184" class="cls-20" d="M87.65,151.71a1.13,1.13,0,1,1,0,2.25,1.13,1.13,0,0,1,0-2.25Z"/><path id="Path_2175" data-name="Path 2175" class="cls-21" d="M86.89,152.89l0,.07h-.06a.25.25,0,0,1,0-.24h0l0,.06a.17.17,0,0,0,0,.1Z"/><path id="Path_2176" data-name="Path 2176" class="cls-22" d="M87.29,152.79a.09.09,0,0,1,0,.05.07.07,0,0,1,0,0,.24.24,0,0,1-.09.15h-.07V153a.12.12,0,0,0,.06-.08H87v-.1Z"/><path id="Path_2177" data-name="Path 2177" class="cls-23" d="M87.2,153h0a.27.27,0,0,1-.37,0,.05.05,0,0,1,0,0l.08-.07a.16.16,0,0,0,.2.09h0Z"/><path id="Path_2178" data-name="Path 2178" class="cls-24" d="M87.2,152.64l-.08.07a.14.14,0,0,0-.21,0l0,0-.08-.07h0a.25.25,0,0,1,.35-.11l0,0Z"/><path id="Path_2179" data-name="Path 2179" class="cls-25" d="M87.16,153.85a1.12,1.12,0,0,0,1.5-.52,1.11,1.11,0,0,0-.51-1.5,1,1,0,0,0-.3-.1Z"/><path id="Path_2180" data-name="Path 2180" class="cls-4" d="M87.7,152.61h.12a.17.17,0,0,1,.12,0,.1.1,0,0,1,0,.1.13.13,0,0,1,0,.1.24.24,0,0,1-.14,0h0v.18H87.7Zm.06.22h0c.07,0,.12,0,.12-.1s-.05-.09-.11-.09h-.06Z"/><path id="Path_2181" data-name="Path 2181" class="cls-4" d="M88.22,153.06v0h0a.14.14,0,0,1-.1,0A.09.09,0,0,1,88,153h0c0-.08.07-.13.19-.12h0a.07.07,0,0,0,0-.08h0a.16.16,0,0,0-.09,0v0a.2.2,0,0,1,.11,0c.1,0,.12.07.12.13V153a.17.17,0,0,0,0,.07Zm0-.16c-.07,0-.14,0-.14.07a.06.06,0,0,0,0,.06h0a.08.08,0,0,0,.08-.06v-.07Z"/><path id="Path_2182" data-name="Path 2182" class="cls-4" d="M88.39,152.74l.07.19a.19.19,0,0,0,0,.07h0s0-.05,0-.07l.07-.19h.06l-.09.23a.43.43,0,0,1-.11.2.12.12,0,0,1-.08,0v-.05a.05.05,0,0,0,0,0,.15.15,0,0,0,0-.06v0h0l-.12-.3Z"/><path id="Path_2183" data-name="Path 2183" class="cls-26" d="M87.14,153.84l.07,0,.7-2.13h-.08Z"/></g></g></g><rect class="cls-27" x="144.7" y="59.34" width="36.51" height="64.86"/><path class="cls-28" d="M148.78,47.74c-3.6-1.21-10,9-13.71,21-6.5,20.77-12.9,24.19-5.83,28,8.75,4.7,9-4.55,16.88-21.49C152.31,62,156.23,50.25,148.78,47.74Z"/><path class="cls-29" d="M136.84,93.32c1,3.63-3.57,8.24-14.62,11.05-12.73,3.25-30.91,8.22-31.65,4.94-1-4.48,14.36-9.89,26.08-16.21S134.78,85.79,136.84,93.32Z"/><path class="cls-29" d="M145.07,129.54c-2.64,4.81-2.52,13.48-1.2,24.76,1.79,15.38,6.83,39.86,7.46,42,2.84,10,12.66,9.54,14.16,1.62.41-2.18,3.76-46.36,3.22-51.28s-3.23-13.91-6.78-19.37C159.29,123.26,149,122.36,145.07,129.54Z"/><path class="cls-29" d="M167.94,207.54c-.41-15.28-4.64-18.28-10.1-18.28-8.74,0-7.28,16.32-7.15,21.28s6.74,44.23,8.44,50.49h7.66C167.8,250.34,168.27,220.05,167.94,207.54Z"/><path class="cls-29" d="M213.25,261.73c-.33-5-8.6-44.19-10.26-48.88s-5.54-22.56-17.32-18c-5.09,2-5.87,5.63-.76,20,4.16,11.73,15.9,39.2,21,48.9C208.31,263.4,213.27,262.05,213.25,261.73Z"/><path class="cls-29" d="M190,129.89c3.54,4.2,5.13,12.73,6.06,24,1.27,15.43.66,38.63.48,40.89-.83,10.33-12.42,12.06-15.45,4.59-.84-2-11.19-44.61-11.62-49.53s-1.67-13.86.73-19.91C172,125.47,184.71,123.63,190,129.89Z"/><path class="cls-30" d="M146.62,122.41c-1.78,4.64-3.13,9-2.51,11.36,1.8,7,22.46,12.92,22.46,12.92h1.37V124C160,124,154.58,122.41,146.62,122.41Z"/><path class="cls-28" d="M193.49,53.22c-1.41-3.17-8.71-4.58-12.05-5.58s-13.5-1.36-13.5-1.36-16,1.6-19.43,1.47C147,47.69,146,53,145.4,54.46c-3.16,8.43-6.92,18.24,1,25.08,1.81,1.56,3.39,19.35,3.39,27.59a44,44,0,0,1-3.17,15.28c8,0,13.35,1.6,21.32,1.6h23.88c-2.47-6.42-5.12-13.51-5.74-16.88C181.44,81.78,195.62,58,193.49,53.22Z"/><path class="cls-30" d="M167.94,124v22.68h1.36s23.23-4.32,25-11.32c.62-2.4-.74-6.72-2.51-11.36Z"/><path class="cls-29" d="M175.23,41.1c-1-2.67-.92-12.69-.92-12.69H161.56s.1,10-.92,12.69S155.55,47,155.55,47l9.38,4.35,13.54-5A20.55,20.55,0,0,1,175.23,41.1Z"/><path class="cls-28" d="M191,52c3.55-1.36,10.35,8.62,14.58,20.4,7.35,20.49,12.74,26.07,6.69,29.05-5.5,2.7-8.85-5.51-17.47-22.11C188,66.38,183.61,54.83,191,52Z"/><path class="cls-29" d="M206.6,100.07c-2.3-2.51.87-10.47,8.39-17.32,8.66-7.9,20.89-19.44,22.84-17.11,2.65,3.18-7.18,13.92-13.76,23.86S211.36,105.26,206.6,100.07Z"/><path class="cls-31" d="M174.38,33.37c-.09-2.68-.07-5-.07-5H161.56s.1,10-.92,12.69-6.21,6.54-6.21,6.54l19.95-14.27Z"/><path class="cls-27" d="M174.69,81.77c-2.12-1-6.75-.57-17.68-1.13s-12.44-6.08-14-8.48-.09-10.18,0-10.62c-1.88,6.45-2.32,13,3.45,18,1.81,1.56,3.39,19.35,3.39,27.59a44,44,0,0,1-3.17,15.28A112.67,112.67,0,0,1,160,123.52s-.7-6-1.41-9.06,0-12,2.61-17.14,14.35-9,15.62-10.74S176.8,82.76,174.69,81.77Z"/><path class="cls-29" d="M158.68,23.76c2.28,9.76,12.5,15.71,17.49,14.55s9.55-10.65,8.17-20.72S175.62,2.7,168.25,4.43,156.4,14,158.68,23.76Z"/><path class="cls-31" d="M176.17,38.31a5.06,5.06,0,0,0,1-.37c-10.79-7.27-10.13-22.4-7.71-33.73-.4.06-.81.12-1.21.22-7.38,1.72-11.85,9.57-9.57,19.33S171.18,39.47,176.17,38.31Z"/><path class="cls-32" d="M173.58,8.61s.29,4.14,3.87,4.71a19.6,19.6,0,0,1,7.2,3.27s0-9.86-7.11-11.43S173.58,8.61,173.58,8.61Z"/><path class="cls-33" d="M163.53,8.43s-1.84-8-8.11-6.23-9.21,9.91-7.87,13.37.83,16.05,0,15.91S147,33.61,148.82,34s7.59.24,8.05-5.92a18.87,18.87,0,0,1,3.56-9.91Z"/><path class="cls-32" d="M176.2,10.73c-.88,2.85-3.5,4.72-9.47,5.64-4.28.65-6.63,6.82-6.41,9.18.09.9,1.43,5.17,1.43,5.17s-9.87-8.23-2.41-20.2,18.06-6.24,18.2-5.36S176.63,9.37,176.2,10.73Z"/><polygon class="cls-34" points="163.8 47.98 164.93 51.32 158.94 48.83 163.8 47.98"/><polygon class="cls-34" points="164.93 51.32 166.16 47.98 169.7 49.65 164.93 51.32"/><path class="cls-5" d="M146.62,122.41s-4.94,5.83-5.65,16.45,8.34,59.39,8.34,59.39l21.07,1.19,27.93-2.18s-.65-44.59-1.93-57.92-5-16.61-5-16.61l-25.34,1Z"/><path class="cls-35" d="M164.83,167.62c-1.49,1.7-.83,15-3.11,17.6-2.44,2.76-6,2.33-8.09-2.33s-7.52-37.71-3.11-49.29c3.11-8.17,9.46-10.08,9.46-10.08l-.8-.24-12.56-.87s-4.94,5.83-5.65,16.45,8.34,59.39,8.34,59.39l21.07,1.19,4.5-.25s-5-1-5.74-5.63C167.59,184.36,166.1,166.16,164.83,167.62Z"/><path class="cls-29" d="M94.27,104.19s-9.3-1.34-9.67-1.71-15,7.88-14.2,8.4,2.83.45,5.13-.59,12.61,2.12,16.86.54S94.27,104.19,94.27,104.19Z"/><path class="cls-29" d="M232.17,68.66s-.09-5.69,3.32-7,7.51.56,8.54.75c4.28.74,8.52-2.8,11.15-2.8s2.93,1.62,2,1.93c-5.15,1.74-7.76,4.41-10.13,4.89s-10.52,4.69-10.52,4.69Z"/><path class="cls-29" d="M232.79,64.89s1.76-3.69,3.88-4.81,5,.17,6.92-.53,1.56.53,1.45.87-2.46,1.16-3.46,1.7S237.27,67,232.79,64.89Z"/><path class="cls-36" d="M157.16,45.9l-3.22,1.9s-.43,16,0,21.32c.6,7.59,4.85,30.06,4.85,30.06h1.42s-4-22.36-4.3-29.9C155.65,63.43,157.16,45.9,157.16,45.9Z"/><polygon class="cls-36" points="158.79 99.18 175.31 45.68 178.09 47.55 160.21 99.18 158.79 99.18"/><polygon class="cls-37" points="165.2 106.85 151.25 104.53 152.38 96.44 166.34 98.77 165.2 106.85"/><path class="cls-38" d="M176.94,46.85S172,58.8,171.8,70s6.67,70.09,6.67,70.09h19.84s-7.12-36.45-7.12-44.39-.47-16.82-.47-16.82-5.83-2.86-7.94-11,4.37-18.58,4.37-18.58Z"/><path class="cls-38" d="M148.51,47.75s-5.37,8.48-7.08,14.66,1.19,15.88,1.53,20.06-4.8,56.67-4.8,56.67l7.79.93s2.49-59.5,1.71-62.46a37.42,37.42,0,0,1-1.09-12.14c.47-3.9,7.86-17.83,7.86-17.83Z"/><path class="cls-39" d="M186.08,107.13c-7.18-29.49-6.35-47.64-2.9-58.8l-6.24-1.48S172,58.8,171.8,70s6.67,70.09,6.67,70.09H190C190.48,131.61,189.42,120.84,186.08,107.13Z"/><polygon class="cls-27" points="166.16 47.98 170.02 53.76 181.44 47.64 177.31 42.2 166.16 47.98"/><polygon class="cls-27" points="152.74 47.64 157.82 43.05 163.8 47.98 159.5 53.26 152.74 47.64"/><path class="cls-40" d="M318.49,271.05H52.57a4.78,4.78,0,0,1-4.78-4.78V190.35H323.27v75.92A4.78,4.78,0,0,1,318.49,271.05Z"/><polygon class="cls-41" points="324.56 191.07 212.57 223.83 47.33 223.83 47.33 190.93 324.56 191.07"/><rect class="cls-42" x="20.21" y="163.84" width="324.58" height="27.51" rx="5.98" ry="5.98"/><path class="cls-43" d="M277,130.4c0-.9-5.09-12.05-5.09-12.05l4.51,3.17-1.6-10,2.74,9-1.06-12.63,6.11.15L281,121.63l2.48-8.8,3,1.61-2.94,19Z"/><path class="cls-44" d="M272.67,128.36c-1.09-7.27-8.8-6.83-14.22-9.46-.68-.33,5.51,8.86,11.13,12S272.67,128.36,272.67,128.36Z"/><path class="cls-44" d="M268.07,122.69c-.72-2.66-4.07-9.49.4-13.78,4.19,3.69,4.6,10.21,2.88,14.28S268.07,122.69,268.07,122.69Z"/><polygon class="cls-5" points="251.74 164.22 255.28 127.18 295.39 127.22 299.04 164.69 251.74 164.22"/><path class="cls-45" d="M263.31,133.43c-1.19,8.86,11.71,14.35,13.31,0"/><circle cx="276.62" cy="133.38" r="0.93"/><circle cx="263.31" cy="133.43" r="0.93"/><path class="cls-31" d="M309,97.52c2,1.51,10.92,5.67,12.53,6.63s6.75-.36,6.75-.36L329.87,114l-7.95-.28s-9.75.85-16.94-3.69C303.05,108.82,309,97.52,309,97.52Z"/><path class="cls-42" d="M310,109.13c-.48,4-4.18,9.63-8.36,12.58-3.52,2.48-8.37,15,3.45,17.24s26.5.05,21.41-11.82c-3.32-7.76-8.86-5.54-11.78-20.57-.58-3,14.94-27.92,14.94-27.92l-19.81-1.76Z"/><path class="cls-38" d="M309.75,109c-.49,4-4.15,9.68-8.37,12.58-4.7,3.23-8.37,15,3.45,17.23a43.92,43.92,0,0,0,7.41.76,3.64,3.64,0,0,0-.76-.76c-12.13-7.26-1.3-18.62.06-20.56,2.86-4.06,1.48-7.2,1.48-12,0-4.24,3-18.16,6.5-28.5L307.63,76Z"/><path class="cls-31" d="M307,97.63c3.33,1,6.37,3.13,5.19,4.31s-5.88,0-6.86-1.54S307,97.63,307,97.63Z"/><path class="cls-31" d="M306.45,100.72a1.37,1.37,0,0,0-1,2,13.67,13.67,0,0,0,3.87,3.75c.83.39,5.68,2.13,6.27,1.54s.95-1.57-.89-3a26,26,0,0,0-4.08-2.81Z"/><path class="cls-31" d="M305.48,102.72c-.84.79-.81,2.7-.6,3.54-.83.79-1.29,1.94-.49,2.77a23.57,23.57,0,0,0,2.26,1.94s3,1.32,3.59.87l.63-.45s2-.06,2.45-.16a1.36,1.36,0,0,0,.12-2.53c-1.73-1-4.81-2.79-5.2-3.13S305.48,102.72,305.48,102.72Z"/><path class="cls-46" d="M356.28,61.8c-4.67,4.92-12.3,30.89-14.76,32.62s-18.18,8.8-18.18,8.8,5.54,16.68,4.55,19.88c3.2-.24,25.36-13,27.83-14.77s-1.28-23.64-1.28-23.64Z"/><path class="cls-47" d="M356.28,61.8c-4.67,4.92-12.3,30.89-14.76,32.62s-18.18,8.8-18.18,8.8,5.54,16.68,4.55,19.88c3.2-.24,25.36-13,27.83-14.77s-1.28-23.64-1.28-23.64Z"/><path class="cls-29" d="M380.29,34c-1,3.38-2.93,7.32-1.65,12.52l1.27,5.2-18,.19s2.38-7.6.68-11.26S380.29,34,380.29,34Z"/><path class="cls-29" d="M358.08,7.49c6.56-7.38,29.63-5.08,27.53,9.82-3.8,27.13-21.05,25.84-21.05,25.84-5.43-1.73-7-1.52-10.49-4.25-1.71-1.31-2.64-15.59-1.87-16.66C353.12,16.16,355,11,358.08,7.49Z"/><path class="cls-31" d="M363.09,42.89c-4.29-1.26-5.87-1.33-9-3.79-1.71-1.32-2.64-15.6-1.87-16.67.93-6.07,2.78-11.29,5.88-14.75a7.72,7.72,0,0,1,1.11-1l2.67,1.46c-3.37,10-8.15,24.8,5,31.69l2.37,12.25-7.29.08S363.56,46.77,363.09,42.89Z"/><path class="cls-32" d="M386,9.27c-1.22-3.06-5.1-7.37-12.13-8.71C367-.75,364.39.18,359,4c-2.75,1.91-3.65,7-3.65,7a12,12,0,0,1,4.26.77c1.54.76,3.94.27,5.49,3.74a15.48,15.48,0,0,1,1.25,6s6.45,3.93,6.12,6.23,6.1,10.17,6.1,10.17,7.11-7.76,9.35-12.67C393.2,13.75,386.26,10,386,9.27Z"/><path class="cls-33" d="M365,15.42c-1.56-3.46-4-3-5.5-3.73s-6.1.3-6.1.3-1.65-5.11,1.12-7A25.6,25.6,0,0,1,373.73.5a18.79,18.79,0,0,1,6.84,2.7c-3.51.53-10.5,2.88-13.15,18.89-1.65-1.35-1.19-.68-1.19-.68A15.39,15.39,0,0,0,365,15.42Z"/><path class="cls-29" d="M368.53,23.84c1.43-.6,4.31-2.7,5.19-.95s.12,8.64-3.17,9.65S368.53,23.84,368.53,23.84Z"/><path class="cls-38" d="M382.65,260.87c-1.35,4.06-.22,8.35.46,13.76s2,9.47-3.4,10.82-32.23,1.35-32.23,1.35-5-6.31,7.21-8.12c9.46-1.39,14.2-9.92,13.75-17.81C368.34,258.84,382.65,260.87,382.65,260.87Z"/><path class="cls-48" d="M349.51,140.09c.84,18.45,5.18,69.29,6.41,71.65,5.86,11.31,7.38,59.82,7.38,59.82l16.57.36s5-42.77-.84-60.37c-1.77-5.34,5-58.29,5-58.29Z"/><path class="cls-3" d="M391.16,265.91c-1.37,4-.23,8.34.45,13.75s2,9.47-3.38,10.82S356,291.83,356,291.83s-5-6.31,7.21-8.11c9.47-1.4,14.21-9.92,13.76-17.81C376.83,263.87,391.16,265.91,391.16,265.91Z"/><path class="cls-5" d="M356.65,141.2c.85,18.44,6.9,71.88,8.13,74.23,5.86,11.32,5.9,62.41,5.9,62.41l21.43-.37s3.66-46.65-2.22-64.26c-1.12-3.35,1.32-33.08,2.58-56.87a66.57,66.57,0,0,0-4.06-25.85Z"/><path class="cls-49" d="M390.38,123.84c0-4.42,3-9.62,2-22.15-.63-7.55-1.63-10-1.63-29.29s-5.3-20.18-11.9-26.47c0,0-11.37,3.82-15.56,8-1.16,1.16-3.81,2.8-5,4.4-3.19,4.16-7.3,10-9.11,22.09-2.52,16.77-.84,63.59-.84,63.59,29.55,3.94,18.42,1.14,40.87-1C396.56,142.35,390.38,123.84,390.38,123.84Z"/><polygon class="cls-50" points="349.24 78.59 347.42 118.49 384.4 66.73 381.1 58.34 370.75 47.99 353.67 62.76 349.24 78.59"/><path class="cls-51" d="M380,46.1l-1.17-5.49s-10.25,5.9-11.47,6.83c-3.26,2.46-7.82,5.81-8.15,6.48s4.49,2.32,4.49,2.32,7-6.15,10.48-7.81A42.33,42.33,0,0,1,380,46.1Z"/><path class="cls-51" d="M360.91,54.91a37.91,37.91,0,0,1-5.65.84s-3.89,12.15-4.06,14S365.8,54,365.8,54Z"/><g class="cls-52"><path class="cls-5" d="M380,46.1l-1.17-5.49s-10.25,5.9-11.47,6.83c-3.26,2.46-7.82,5.81-8.15,6.48s4.49,2.32,4.49,2.32,7-6.15,10.48-7.81A42.33,42.33,0,0,1,380,46.1Z"/><path class="cls-5" d="M360.91,54.91a37.91,37.91,0,0,1-5.65.84s-3.89,12.15-4.06,14S365.8,54,365.8,54Z"/></g><rect class="cls-53" x="296.17" y="176.97" width="4.9" height="2.94" rx="0.38" ry="0.38" transform="translate(158.49 -139.96) rotate(35.38)"/><rect class="cls-54" x="296.48" y="175.99" width="1.51" height="2.94" rx="0.38" ry="0.38" transform="translate(157.66 -139.34) rotate(35.38)"/><path class="cls-55" d="M298.42,182.62l.6-.83.59-.84-1.84-1.31-1.85-1.31-.59.84-.59.83a2,2,0,0,1-.89.67c-.35.15-.73.25-1.11.37a17.83,17.83,0,0,0-3.43,1.55l-.16.09a7.54,7.54,0,0,0-2.89,3.49l-.69,1.65A9.85,9.85,0,0,1,284,190.4l-9.56,11.82a1.26,1.26,0,0,0-.21,1,1.5,1.5,0,0,0,.6.9l3.69,2.62,3.69,2.62a1.51,1.51,0,0,0,1.05.27,1.32,1.32,0,0,0,.89-.53l8-12.91a9.83,9.83,0,0,1,1.92-2.34l1.32-1.19a7.43,7.43,0,0,0,2.34-3.89.94.94,0,0,1,0-.16,18.31,18.31,0,0,0,.33-3.77,11.49,11.49,0,0,1,0-1.17A2,2,0,0,1,298.42,182.62Z"/><rect class="cls-55" x="295" y="179.33" width="5.62" height="0.44" rx="0.2" ry="0.2" transform="translate(158.98 -139.29) rotate(35.38)"/><path class="cls-56" d="M287.09,185.3a24.14,24.14,0,0,0-1,2.55,10.16,10.16,0,0,1-1.61,2.66L275,202.16a1.31,1.31,0,0,0-.22,1,1.35,1.35,0,0,0,.55.86l3.4,2.42,3.41,2.42a1.36,1.36,0,0,0,1,.23,1.34,1.34,0,0,0,.85-.53l7.89-12.75a9.86,9.86,0,0,1,2-2.39,23.9,23.9,0,0,0,2.05-1.78,7.23,7.23,0,0,0,1.12-1.92,12.34,12.34,0,0,0,.51-1.95l-3.69-2.62-3.68-2.61a12.15,12.15,0,0,0-1.67,1.12A7.18,7.18,0,0,0,287.09,185.3Z"/><polygon class="cls-57" points="284.56 189.66 278.8 196.85 287.77 203.23 292.67 195.41 284.56 189.66"/><path class="cls-58" d="M292.94,187.06c-.7,1.57-.4,3.25.66,3.75s2.48-.36,3.18-1.93.39-3.25-.67-3.75S293.63,185.49,292.94,187.06Z"/><path class="cls-53" d="M291.23,173.16a7.21,7.21,0,0,1,2.12,7c-.9,5.21-6.78,9.38-10.37,9.18-3-.17-8.44-4.34-9.18-9.58-.47-3.26.66-6,3-7.36,1.68-1,4.55-.22,6.54.58C284.62,173.45,289.4,171.25,291.23,173.16Z"/><path class="cls-53" d="M291.23,173.16a7.21,7.21,0,0,1,2.12,7c-.9,5.21-6.78,9.38-10.37,9.18-3-.17-8.44-4.34-9.18-9.58-.47-3.26.66-6,3-7.36,1.68-1,4.55-.22,6.54.58C284.62,173.45,289.4,171.25,291.23,173.16Z"/><path class="cls-53" d="M289.72,172.44a12.09,12.09,0,0,0-4,.34l.26.09C286.58,173.13,288.11,172.69,289.72,172.44Z"/><path class="cls-54" d="M276.37,179.66c-.47-3.27.66-6,3-7.37a3,3,0,0,1,.67-.27,5.14,5.14,0,0,0-3.24.35c-2.37,1.33-3.5,4.1-3,7.36.74,5.24,6.19,9.41,9.18,9.58a6,6,0,0,0,1.77-.21C281.68,188.35,277.06,184.45,276.37,179.66Z"/><path class="cls-53" d="M285.69,172.78c-1.73-.67-4-1.23-5.62-.76a15.08,15.08,0,0,1,3.3.93A5.54,5.54,0,0,0,285.69,172.78Z"/><path class="cls-59" d="M285.45,174.32c0-1.87,2.66-12,4.52-12h1.86Z"/><path class="cls-43" d="M286.9,167.76c-.8-1.87-4.53-6.92-7.72-6.92C278.38,164.83,286.9,167.76,286.9,167.76Z"/><path class="cls-56" d="M263.65,195.51c5.29-14.27-6.34-21.13-17.43-20.08s-21.13,5.28-26.95,20.08c-.52,4.75,3.18,3.69,3.18,3.69l7.39-6.86s-6.87,9-7.92,11.62,5.28,2.11,5.28,2.11l2.64-3.7s-2.64,4.76-2.64,6.35,4.23,1.58,4.23,1.58Z"/><path class="cls-57" d="M260.31,179.66c-10.75,1.06-29.41,10.3-35.22,19.28,1.58-5.81,20.51-19,29.23-19.28S260.31,179.66,260.31,179.66Z"/><path class="cls-57" d="M264.71,187.06c-3,0-24.65,1.4-35.57,16.19.35.18,18-15.32,35.39-15.32C265.94,188.11,264.71,187.06,264.71,187.06Z"/><path class="cls-44" d="M262.23,186.81c-1.57,1.65-3.69,4.12-2.81,9.23,1.2,6.9,9,12.41,13.74,12.15,4-.23,11.16-5.75,12.15-12.68.62-4.33-.87-8-4-9.76-2.22-1.25-6-.28-8.66.78C271,187.18,264.65,184.28,262.23,186.81Z"/><path class="cls-60" d="M262.48,195.8c-.88-5.1,1.23-7.57,2.81-9.22a3,3,0,0,1,1.23-.76c-1.69-.16-3.31,0-4.29,1-1.57,1.65-3.69,4.12-2.81,9.23,1.2,6.9,9,12.41,13.74,12.15a6.55,6.55,0,0,0,1.63-.33C270,207.14,263.56,202.05,262.48,195.8Z"/><path class="cls-44" d="M275.69,186.29a21.75,21.75,0,0,1,3.63-1.1,14.71,14.71,0,0,0-5.85,1A5,5,0,0,0,275.69,186.29Z"/><path class="cls-44" d="M272.63,186.53c.27-.11.55-.21.84-.31-2.09-.37-5-1.1-7-.4C269,186.05,271.65,186.92,272.63,186.53Z"/><path class="cls-59" d="M272.81,188.46c0-2.46-3.52-15.84-6-15.84h-2.46Z"/><path class="cls-43" d="M269.64,179.66c1.05-2.47,6-9.16,10.21-9.16C280.91,175.78,269.64,179.66,269.64,179.66Z"/><polygon class="cls-61" points="298.04 156.02 304.16 131.88 310.51 127.15 312.41 129.69 306.96 133.75 301.11 156.81 298.04 156.02 298.04 156.02"/><path class="cls-5" d="M310.13,133.23l9.12-5.71a2.14,2.14,0,0,0,.68-2.93l-.85-1.35a2.13,2.13,0,0,0-2.93-.68L307,128.28Z"/><path class="cls-61" d="M275.48,277.86a10.21,10.21,0,1,0,9.82-10.58A10.21,10.21,0,0,0,275.48,277.86Z"/><path class="cls-5" d="M279.67,277.71a6,6,0,1,0,5.78-6.23A6,6,0,0,0,279.67,277.71Z"/><polygon class="cls-61" points="287.56 276.97 280.89 264.8 272.12 265.83 283.47 277.25 287.56 276.97"/><path class="cls-5" d="M269.35,263.65a2.65,2.65,0,0,0,2.74,2.54l9-.34a2.63,2.63,0,0,0,2.54-2.74h0a2.65,2.65,0,0,0-2.74-2.54l-9,.34a2.63,2.63,0,0,0-2.54,2.74Z"/><path class="cls-61" d="M231.93,277.86a10.21,10.21,0,1,0,9.82-10.58A10.21,10.21,0,0,0,231.93,277.86Z"/><path class="cls-5" d="M236.13,277.71a6,6,0,1,0,5.77-6.23A6,6,0,0,0,236.13,277.71Z"/><polygon class="cls-61" points="244 276.97 237.34 264.8 228.56 265.83 239.92 277.25 244 276.97"/><path class="cls-5" d="M225.8,263.65a2.64,2.64,0,0,0,2.73,2.54l9-.34a2.64,2.64,0,0,0,2.54-2.74h0a2.65,2.65,0,0,0-2.74-2.54l-9,.34a2.63,2.63,0,0,0-2.54,2.74Z"/><path class="cls-5" d="M307.32,158.35a2.05,2.05,0,0,1-1.55-2.43h0l4.18-19a2.1,2.1,0,0,1,.9-1.29h0L323.06,128h0a2,2,0,0,1,2.8.64h0a2,2,0,0,1-.64,2.8h0l-11.48,7.23-4,18.15a2,2,0,0,1-2,1.59h0a2.18,2.18,0,0,1-.44,0Z"/><path class="cls-5" d="M318.79,136.55l9.45-5.16a2.12,2.12,0,0,0,.85-2.88l-.76-1.4a2.13,2.13,0,0,0-2.89-.85L316,131.41Z"/><path class="cls-31" d="M337.54,116.85c-1.7,1.42-7,4.93-7,4.93l-8.62-.38s-6.81,7.66-7.95,9.93c0,0-1.7,3.13,2.84,2s6.32-4.76,8.24-5.11,6.05,2.77,7.57,2.65c7.38-.56,13.44-9.65,13.44-9.65Z"/><path class="cls-59" d="M284.67,259.69l-61.28-.52a2,2,0,0,1-2-2.05h0a2,2,0,0,1,2-2h0l59.6.51,8.92-44.83a2,2,0,0,1,2.4-1.6h0a2,2,0,0,1,1.59,2.39h0l-9.25,46.49a2,2,0,0,1-2,1.63h0Z"/><path class="cls-62" d="M263,191.64c-1.41-3.19.79-3.61.62-8.63s-2.37-7.14-3.36-9.19a13.14,13.14,0,0,1-.87-5.15H253.8a13,13,0,0,1-.88,5.15c-1,2.05-3.19,4.16-3.35,9.19s2,5.44.62,8.63-1.86,5.51-1.13,10.85,3.37,6.3,5.43,6.69a12.07,12.07,0,0,0,2.42.13,9.38,9.38,0,0,0,1.79-.13c2.07-.39,4.69-1.33,5.44-6.69S264.43,194.82,263,191.64Z"/><path class="cls-63" d="M250.19,191.64a15.33,15.33,0,0,0-1.39,4.91h15.61a15.59,15.59,0,0,0-1.39-4.91c-1.41-3.19.79-3.61.62-8.63v-.07H249.57V183C249.41,188,251.6,188.45,250.19,191.64Z"/><path class="cls-64" d="M253.21,167.49v2.12l0,0c0,.6,1.53,1.07,3.42,1.07s3.43-.47,3.43-1.07v-2.16Z"/><path class="cls-65" d="M260,167.49c0,.6-1.53,1.07-3.43,1.07s-3.42-.47-3.42-1.07,1.53-1,3.42-1S260,166.92,260,167.49Z"/><path class="cls-59" d="M216.25,212.3l-3.05-46a2,2,0,0,1,1.81-2.15h0l92.53-9.84a2,2,0,0,1,1.75.69h0a2.07,2.07,0,0,1,.45,1.82h0l-13.56,55.59a2,2,0,0,1-2,1.54h0l-75.93.23h0a2,2,0,0,1-2-1.9Zm1.14-44.3,2.79,42.13,72.42-.22,12.49-51.22L217.39,168Z"/><path class="cls-5" d="M283.59,212.27a.68.68,0,0,1-.57-.77h0l8.14-53.56a.67.67,0,0,1,.77-.56h0a.67.67,0,0,1,.57.77h0l-8.14,53.55a.67.67,0,0,1-.66.58h-.11Z"/><path class="cls-5" d="M270.4,212.28a.69.69,0,0,1-.6-.76h0l6.1-52.19a.69.69,0,0,1,.76-.6h0a.7.7,0,0,1,.59.76h0l-6.1,52.19a.68.68,0,0,1-.68.6h-.07Z"/><path class="cls-5" d="M257.57,211.94a.68.68,0,0,1-.65-.71h0l2-49.48a.69.69,0,0,1,.71-.65h0a.69.69,0,0,1,.65.71h0l-2,49.48a.67.67,0,0,1-.67.65h0Z"/><path class="cls-5" d="M244.71,213a.67.67,0,0,1-.67-.68h0l.33-49.15a.68.68,0,0,1,.69-.67h0a.67.67,0,0,1,.67.68h0l-.34,49.15a.67.67,0,0,1-.67.67h0Z"/><path class="cls-5" d="M230.82,211l-2.37-45.42a.67.67,0,0,1,.64-.71h0a.68.68,0,0,1,.71.64h0l2.37,45.42a.67.67,0,0,1-.64.71h0a.68.68,0,0,1-.67-.64Z"/><path class="cls-5" d="M215.9,175.68a.68.68,0,0,1-.67-.68h0a.67.67,0,0,1,.67-.68h87.46a.68.68,0,0,1,.67.68h0a.69.69,0,0,1-.67.68H215.9Z"/><path class="cls-5" d="M216.58,187.88a.67.67,0,0,1-.67-.68h0a.68.68,0,0,1,.67-.68H300a.68.68,0,0,1,.68.68h0a.67.67,0,0,1-.68.68H216.58Z"/><path class="cls-5" d="M216.93,201.1a.68.68,0,0,1-.68-.68h0a.67.67,0,0,1,.68-.68h79.65a.67.67,0,0,1,.67.68h0a.68.68,0,0,1-.67.68H216.93Z"/><path class="cls-5" d="M222.25,259.84a2,2,0,0,1-2-2h0a2,2,0,0,1,2-2h62.44a2,2,0,0,1,2,2h0a2,2,0,0,1-2,2H222.25Z"/><polygon class="cls-66" points="378.44 94.42 361.68 145.53 348.28 144.03 347.57 114.01 379 66.69 378.44 94.42"/><path class="cls-49" d="M371.81,61c8.23-7.09,12.87-1.08,12.87,5.68s-6.25,33-13.06,40.22c0,0-25,30.09-28.4,28.4a24.46,24.46,0,0,0-9.37-15.9l21.3-24.71Z"/><path class="cls-44" d="M70.67,216.16s3.54,4.63-1.63,11.61-9.43,12.9-7.71,17.24c0,0,7.8-13,14.15-13.15S77.66,224,70.67,216.16Z"/><path class="cls-56" d="M77.26,222.06c0,1.62-.19,2.94-.41,2.94s-.41-1.32-.41-2.94.23-.87.45-.87S77.26,220.42,77.26,222.06Z"/><path class="cls-56" d="M79.51,224c-1.43.78-2.68,1.25-2.78,1.05s1-1,2.39-1.77.87-.21,1,0S80.94,223.24,79.51,224Z"/><path class="cls-44" d="M52,216.16s-3.54,4.63,1.63,11.61S63,240.67,61.33,245c0,0-7.81-13-14.16-13.15S45,224,52,216.16Z"/><path class="cls-56" d="M45.4,222.06c0,1.62.18,2.94.41,2.94s.41-1.32.41-2.94-.23-.87-.46-.87S45.4,220.42,45.4,222.06Z"/><path class="cls-56" d="M43.14,224c1.43.78,2.68,1.25,2.79,1.05s-1-1-2.4-1.77-.87-.21-1,0S41.71,223.24,43.14,224Z"/><path class="cls-5" d="M80.38,238.78l-.18,1.44L80,242.27l-.1.84-.25,2-.11.85-.25,2-2.83,23.22c-.26,2.07-3.64,3.68-7.73,3.68H54c-4.09,0-7.44-1.61-7.72-3.68L43.41,248l-.25-2-.1-.85-.25-2.05-.11-.84-.24-2-.18-1.44c-.14-1.15,1.71-2.14,4-2.14h30.1C78.68,236.63,80.52,237.62,80.38,238.78Z"/><polygon class="cls-67" points="80.2 240.22 79.95 242.26 42.7 242.26 42.45 240.22 80.2 240.22"/><polygon class="cls-67" points="79.84 243.12 79.6 245.16 43.06 245.16 42.81 243.12 79.84 243.12"/><polygon class="cls-67" points="79.49 246.01 79.24 248.05 43.41 248.05 43.16 246.01 79.49 246.01"/><path class="cls-4" d="M253.92,179.76a.87.87,0,0,1-1.73,0,.87.87,0,1,1,1.73,0Z"/><path class="cls-4" d="M254.16,177.65a.52.52,0,0,1-.52.52.51.51,0,0,1-.51-.52.51.51,0,0,1,.51-.52A.52.52,0,0,1,254.16,177.65Z"/></g></g></g></svg>