<svg id="Mobile_Store" data-name="Mobile Store" xmlns="http://www.w3.org/2000/svg" width="100" height="100" viewBox="0 0 100 100">
  <g id="Layer_2" data-name="Layer 2">
    <g id="Mobile_Store-2" data-name="Mobile Store">
      <rect id="Rectangle_1889" data-name="Rectangle 1889" width="100" height="100" fill="none"/>
      <path id="Path_2361" data-name="Path 2361" d="M66.13,6H33.87a7.35,7.35,0,0,0-7.34,7.33V86.67A7.35,7.35,0,0,0,33.87,94H66.13a7.35,7.35,0,0,0,7.34-7.33V13.33A7.35,7.35,0,0,0,66.13,6ZM54.4,86.67a4.4,4.4,0,1,1-4.4-4.4,4.4,4.4,0,0,1,4.4,4.4ZM29.47,79.33V22.13H70.53v57.2Zm0,7.34v-4.4h14.7a7.2,7.2,0,0,0,0,8.8H33.87A4.4,4.4,0,0,1,29.47,86.67Zm41.06,0a4.4,4.4,0,0,1-4.4,4.4H55.83a7.2,7.2,0,0,0,0-8.8h14.7ZM29.47,19.2V13.33a4.4,4.4,0,0,1,4.4-4.4H66.13a4.4,4.4,0,0,1,4.4,4.4V19.2Z" fill="#0054ad"/>
      <rect id="Rectangle_1890" data-name="Rectangle 1890" width="14.67" height="2.93" transform="translate(39.73 13.33)" fill="#0054ad"/>
      <path id="Path_2362" data-name="Path 2362" d="M44.13,35.33H38.27a4.4,4.4,0,0,0-4.4,4.4V45.6a4.4,4.4,0,0,0,4.4,4.4h5.86a4.4,4.4,0,0,0,4.4-4.4h0V39.73a4.4,4.4,0,0,0-4.4-4.4ZM45.6,45.6a1.47,1.47,0,0,1-1.47,1.47H38.27A1.47,1.47,0,0,1,36.8,45.6V39.73a1.46,1.46,0,0,1,1.47-1.46h5.86a1.46,1.46,0,0,1,1.47,1.46Z" fill="#029abe"/>
      <path id="Path_2363" data-name="Path 2363" d="M61.73,35.33H55.87a4.4,4.4,0,0,0-4.4,4.4V45.6a4.4,4.4,0,0,0,4.4,4.4h5.86a4.4,4.4,0,0,0,4.4-4.4h0V39.73a4.4,4.4,0,0,0-4.4-4.4ZM63.2,45.6a1.47,1.47,0,0,1-1.47,1.47H55.87A1.47,1.47,0,0,1,54.4,45.6V39.73a1.46,1.46,0,0,1,1.47-1.46h5.86a1.46,1.46,0,0,1,1.47,1.46Z" fill="#029abe"/>
      <path id="Path_2364" data-name="Path 2364" d="M44.13,52.93H38.27a4.4,4.4,0,0,0-4.4,4.4V63.2a4.4,4.4,0,0,0,4.4,4.4h5.86a4.4,4.4,0,0,0,4.4-4.4V57.33a4.4,4.4,0,0,0-4.4-4.4ZM45.6,63.2a1.47,1.47,0,0,1-1.47,1.47H38.27A1.47,1.47,0,0,1,36.8,63.2V57.33a1.46,1.46,0,0,1,1.47-1.46h5.86a1.46,1.46,0,0,1,1.47,1.46Z" fill="#029abe"/>
      <path id="Path_2365" data-name="Path 2365" d="M61.73,52.93H55.87a4.4,4.4,0,0,0-4.4,4.4V63.2a4.4,4.4,0,0,0,4.4,4.4h5.86a4.4,4.4,0,0,0,4.4-4.4V57.33a4.4,4.4,0,0,0-4.4-4.4ZM63.2,63.2a1.47,1.47,0,0,1-1.47,1.47H55.87A1.47,1.47,0,0,1,54.4,63.2V57.33a1.46,1.46,0,0,1,1.47-1.46h5.86a1.46,1.46,0,0,1,1.47,1.46Z" fill="#029abe"/>
      <path id="Path_2366" data-name="Path 2366" d="M35.33,30.93V28h2.94a1.47,1.47,0,0,0,0-2.93h-4.4a1.46,1.46,0,0,0-1.47,1.46v4.4a1.47,1.47,0,1,0,2.93,0Z" fill="#029abe"/>
      <path id="Path_2367" data-name="Path 2367" d="M47.07,25.07H44.13a1.47,1.47,0,0,0,0,2.93h2.94a1.47,1.47,0,0,0,0-2.93Z" fill="#029abe"/>
      <rect id="Rectangle_1891" data-name="Rectangle 1891" width="2.93" height="2.93" transform="translate(57.33 13.33)" fill="#0054ad"/>
    </g>
  </g>
</svg>
