<svg xmlns="http://www.w3.org/2000/svg" viewBox="0 0 92 40.75"><defs><style>.cls-1{fill:#fff;}.cls-2{fill:none;stroke:#fff;stroke-miterlimit:10;}</style></defs><title>paykun qr white_1</title><g id="Layer_2" data-name="Layer 2"><g id="new"><g id="_Group_2" data-name=" Group 2"><polygon id="_Path_" data-name=" Path " class="cls-1" points="45.87 13.88 43.1 26.87 46.4 26.87 47.16 23.29 48.68 21.77 50.97 26.87 54.61 26.87 51.42 19.9 57.36 13.88 53.56 13.88 48.05 19.43 47.99 19.43 49.17 13.88 45.87 13.88"/><polygon id="_Path_2" data-name=" Path 2" class="cls-1" points="78.15 13.88 76.48 21.82 76.42 21.82 72.58 13.88 69.99 13.88 67.22 26.87 70.39 26.87 72.07 18.93 72.14 18.93 75.98 26.87 78.57 26.87 81.33 13.88 78.15 13.88"/><path id="_Path_3" data-name=" Path 3" class="cls-1" d="M66.6,14.07C63.58,5.57,53.14,1.51,43.28,5A21.1,21.1,0,0,0,34,11.45a21.48,21.48,0,0,1,7.74-4.74c9.39-3.32,19.16.1,21.84,7.67a12.11,12.11,0,0,1,.53,6L63.73,22a2.48,2.48,0,0,1-2.5,2.25,1.89,1.89,0,0,1-2.15-1.87,3.91,3.91,0,0,1,.09-.83l1.64-7.73H57.49l-1.66,7.78a5.33,5.33,0,0,0-.12,1.12c0,2.52,2,4.32,5.3,4.32,3,0,5.29-1.61,5.86-4.34l.45-2.39A14.37,14.37,0,0,0,66.6,14.07Z"/></g><g id="_Group_3" data-name=" Group 3"><path id="_Compound_Path_" data-name=" Compound Path " class="cls-1" d="M22.8,17.79c0-2.36-1.7-3.91-4.54-3.91H13.43l-2.76,13H14l.8-3.81h2.16C20.48,23.06,22.8,21,22.8,17.79Zm-5.86,2.77H15.31l.88-4.15h1.38c1.21,0,1.9.56,1.9,1.68a2.37,2.37,0,0,1-2.53,2.48Z"/><polygon id="_Path_4" data-name=" Path 4" class="cls-1" points="38.29 19.3 38.22 19.3 36.74 13.88 33.32 13.88 35.99 22.39 35.34 25.44 35.04 26.87 36.13 26.87 38.35 26.87 39.28 22.44 45.58 13.88 41.98 13.88 38.29 19.3"/><path id="_Compound_Path_2" data-name=" Compound Path 2" class="cls-1" d="M33.85,26.37A11.85,11.85,0,0,1,33.28,24L31.14,13.88H27.09l-7.24,13h3.5L24.81,24H30a13.59,13.59,0,0,0,.65,2.66c3,8.5,13.45,12.57,23.31,9.07a21.06,21.06,0,0,0,9.41-6.26A21.48,21.48,0,0,1,55.51,34C46.13,37.37,36.54,33.94,33.85,26.37ZM26,21.64l2.44-4.86,1,4.86Z"/></g><polyline class="cls-2" points="0.5 9.5 0.5 0.5 9.5 0.5"/><polyline class="cls-2" points="91.5 9.5 91.5 0.5 82.5 0.5"/><polyline class="cls-2" points="0.5 31.25 0.5 40.25 9.5 40.25"/><polyline class="cls-2" points="91.5 31.25 91.5 40.25 82.5 40.25"/></g></g></svg>