<svg xmlns="http://www.w3.org/2000/svg" viewBox="0 0 24.39 26.2"><defs><style>.cls-1{fill:none;stroke:#0d7bff;stroke-linecap:round;stroke-miterlimit:10;stroke-width:1.2px;}</style></defs><title>payment link</title><g id="Layer_2" data-name="Layer 2"><g id="New_test" data-name="New test"><path class="cls-1" d="M14.47,18.37,8,24.94a2.21,2.21,0,0,1-3.13,0L1.26,21.42a2.22,2.22,0,0,1,0-3.14l7.35-7.45a2.24,2.24,0,0,1,3.14,0l1,1"/><path class="cls-1" d="M9.92,7.83l6.49-6.57a2.21,2.21,0,0,1,3.13,0l3.6,3.54a2.24,2.24,0,0,1,0,3.14L15.8,15.37a2.23,2.23,0,0,1-3.13,0l-1-1"/></g></g></svg>