<svg xmlns="http://www.w3.org/2000/svg" viewBox="0 0 19.2 21"><defs><style>.cls-1{fill:#fff;}</style></defs><title>PLAY STORE 1</title><g id="Layer_2" data-name="Layer 2"><g id="new"><path class="cls-1" d="M3.18.33A2,2,0,0,0,1.59.06l9.47,9.47,3.07-3.07Z"/><path class="cls-1" d="M.42.83A2,2,0,0,0,0,2.06V18.94a2,2,0,0,0,.42,1.23l9.67-9.67Z"/><path class="cls-1" d="M18.14,8.7,15.38,7.16,12,10.5l3.34,3.34,2.76-1.54a2.06,2.06,0,0,0,0-3.6Z"/><path class="cls-1" d="M11.06,11.47,1.59,20.94a2,2,0,0,0,.47.06,2.06,2.06,0,0,0,1.12-.33l11-6.13Z"/></g></g></svg>