<svg xmlns="http://www.w3.org/2000/svg" xmlns:xlink="http://www.w3.org/1999/xlink" viewBox="0 0 528.88 394.97"><defs><style>.cls-1{mask:url(#mask);filter:url(#luminosity-noclip-2);}.cls-2,.cls-47,.cls-54,.cls-62,.cls-73,.cls-88{mix-blend-mode:multiply;}.cls-2{fill:url(#linear-gradient);}.cls-3,.cls-52,.cls-9{fill:none;}.cls-4,.cls-5{isolation:isolate;}.cls-39,.cls-44,.cls-46,.cls-5,.cls-89{fill:#262262;}.cls-5{opacity:0.17;}.cls-6{fill:#87b9f4;}.cls-23,.cls-63,.cls-7{fill:#fff;}.cls-8{fill:#3e7ecc;}.cls-9{stroke:#00b1f7;stroke-width:0.51px;}.cls-52,.cls-9{stroke-miterlimit:10;}.cls-10{fill:#4caf50;}.cls-11{fill:#fafafa;}.cls-12{fill:#673ab7;}.cls-13{fill:#5b22b1;}.cls-14{fill:#602eb3;}.cls-15{fill:#683ab7;}.cls-16{fill:#048a3e;}.cls-17{fill:#fc7a0a;}.cls-18{fill:#01baf1;}.cls-19{fill:#063070;}.cls-20{fill:#073070;}.cls-21{fill:#052f6f;}.cls-22{fill:#01b9f1;}.cls-23{stroke:#f2f2f2;stroke-width:0.1px;}.cls-24{fill:#fbbb00;}.cls-25{fill:#518ef8;}.cls-26{fill:#28b446;}.cls-27{fill:#f14336;}.cls-28{fill:#5792f1;}.cls-29{fill:#4c8cec;}.cls-30{fill:#e89487;}.cls-31{fill:#f7af9f;}.cls-32{fill:#f9ddc5;}.cls-33{fill:#27547c;}.cls-34{fill:#0a0a35;}.cls-35{fill:#f7d4bc;}.cls-36{fill:#171049;}.cls-37{fill:#05053a;}.cls-38{fill:#ce847c;}.cls-40{fill:#13133f;}.cls-41{fill:#002d56;}.cls-42{fill:#2c50c4;}.cls-43{fill:#dadeea;}.cls-44{opacity:0.19;}.cls-45{fill:#36367f;}.cls-46{opacity:0.33;}.cls-47{opacity:0.13;fill:url(#linear-gradient-2);}.cls-48{fill:#1a1a59;}.cls-49{fill:#75d1b7;}.cls-50{fill:#098c5d;}.cls-51{fill:#edcc66;}.cls-52{stroke:#fff;stroke-width:1.14px;opacity:0.6;}.cls-53{fill:#7dd38d;}.cls-54,.cls-73,.cls-88{opacity:0.47;}.cls-54{fill:url(#linear-gradient-3);}.cls-55{fill:#0f0a49;}.cls-56{fill:#0a0933;}.cls-57{fill:#3357bc;}.cls-58{fill:#4d87db;}.cls-59{clip-path:url(#clip-path);}.cls-60{fill:#d8d8d8;}.cls-61{fill:#f6f4f4;}.cls-62{fill:#231f20;opacity:0.88;}.cls-63{opacity:0.14;}.cls-64{fill:#262828;}.cls-65{mask:url(#mask-2);}.cls-66{fill:url(#linear-gradient-4);}.cls-67{fill:url(#linear-gradient-5);}.cls-68{fill:url(#linear-gradient-6);}.cls-69{fill:url(#linear-gradient-7);}.cls-70{fill:url(#linear-gradient-8);}.cls-71{fill:#f3f3f3;}.cls-72{fill:#9be0aa;}.cls-73{fill:url(#linear-gradient-9);}.cls-74{fill:#72af7e;}.cls-75{opacity:0.2;}.cls-76{fill:#ed927a;}.cls-77{fill:#eb1300;opacity:0.28;}.cls-78,.cls-80{fill:#e2eeec;}.cls-79{fill:#f7941d;opacity:0.34;}.cls-80{mix-blend-mode:soft-light;}.cls-81{fill:#131316;}.cls-82{fill:#0b469b;opacity:0.56;}.cls-83{fill:#2b3990;}.cls-84{fill:#090947;}.cls-85{fill:#cedee0;}.cls-86{fill:#1945b2;}.cls-87{fill:#e1e1f4;}.cls-88{fill:url(#linear-gradient-10);}.cls-89{opacity:0.23;}.cls-90{fill:#ffd348;}.cls-91{fill:#662d91;opacity:0.35;}.cls-92{filter:url(#luminosity-noclip);}</style><filter id="luminosity-noclip" x="482.7" y="-9771.45" width="1.96" height="32766" filterUnits="userSpaceOnUse" color-interpolation-filters="sRGB"><feFlood flood-color="#fff" result="bg"/><feBlend in="SourceGraphic" in2="bg"/></filter><mask id="mask" x="482.7" y="-9771.45" width="1.96" height="32766" maskUnits="userSpaceOnUse"><g class="cls-92"/></mask><linearGradient id="linear-gradient" x1="448.9" y1="199.92" x2="450.55" y2="199.92" gradientTransform="matrix(1.19, 0.3, -0.25, 0.97, -2.32, -128.13)" gradientUnits="userSpaceOnUse"><stop offset="0.26" stop-color="#fff"/><stop offset="0.29" stop-color="#fdfdfd"/><stop offset="0.31" stop-color="#f5f5f5"/><stop offset="0.32" stop-color="#e7e7e7"/><stop offset="0.33" stop-color="#d4d4d4"/><stop offset="0.35" stop-color="#bababa"/><stop offset="0.36" stop-color="#9c9c9c"/><stop offset="0.36" stop-color="#8a8a8a"/><stop offset="0.37" stop-color="#949494"/><stop offset="0.39" stop-color="#b5b5b5"/><stop offset="0.41" stop-color="#d0d0d0"/><stop offset="0.44" stop-color="#e5e5e5"/><stop offset="0.47" stop-color="#f4f4f4"/><stop offset="0.5" stop-color="#fcfcfc"/><stop offset="0.56" stop-color="#fff"/><stop offset="0.64" stop-color="#fcfcfc"/><stop offset="0.69" stop-color="#f4f4f4"/><stop offset="0.73" stop-color="#e6e6e6"/><stop offset="0.77" stop-color="#d2d2d2"/><stop offset="0.81" stop-color="#b7b7b7"/><stop offset="0.84" stop-color="#989898"/><stop offset="0.86" stop-color="gray"/><stop offset="0.87" stop-color="#9e9e9e"/><stop offset="0.9" stop-color="#c1c1c1"/><stop offset="0.92" stop-color="#dcdcdc"/><stop offset="0.95" stop-color="#efefef"/><stop offset="0.97" stop-color="#fbfbfb"/><stop offset="1" stop-color="#fff"/></linearGradient><linearGradient id="linear-gradient-2" x1="105.53" y1="337.15" x2="263.73" y2="203.09" gradientUnits="userSpaceOnUse"><stop offset="0" stop-color="#fff"/><stop offset="1" stop-color="#030000"/></linearGradient><linearGradient id="linear-gradient-3" x1="403.45" y1="142.23" x2="467.35" y2="109.12" gradientUnits="userSpaceOnUse"><stop offset="0.11" stop-color="#fff"/><stop offset="1" stop-color="#10a"/></linearGradient><clipPath id="clip-path"><circle class="cls-3" cx="487.83" cy="198.32" r="21"/></clipPath><filter id="luminosity-noclip-2" x="482.7" y="201.95" width="1.96" height="0.64" filterUnits="userSpaceOnUse" color-interpolation-filters="sRGB"><feFlood flood-color="#fff" result="bg"/><feBlend in="SourceGraphic" in2="bg"/></filter><mask id="mask-2" x="482.7" y="201.95" width="1.96" height="0.64" maskUnits="userSpaceOnUse"><g class="cls-1"><path class="cls-2" d="M484.52,202.58l-1.72-.44c-.07,0-.11-.07-.1-.12a.12.12,0,0,1,.14-.07l1.73.44c.06,0,.11.07.09.13S484.59,202.6,484.52,202.58Zm-1.68-.63a.13.13,0,0,0-.14.07s0,.1.1.12l1.72.44c.07,0,.13,0,.14-.06a.12.12,0,0,0-.09-.13Z"/></g></mask><linearGradient id="linear-gradient-4" x1="448.9" y1="199.92" x2="450.55" y2="199.92" gradientTransform="matrix(1.19, 0.3, -0.25, 0.97, -2.32, -128.13)" gradientUnits="userSpaceOnUse"><stop offset="0.26" stop-color="#272525"/><stop offset="0.28" stop-color="#292727"/><stop offset="0.3" stop-color="#312f2f"/><stop offset="0.31" stop-color="#3f3d3d"/><stop offset="0.32" stop-color="#525050"/><stop offset="0.33" stop-color="#6b6a6a"/><stop offset="0.34" stop-color="#8a8989"/><stop offset="0.35" stop-color="#aeaeae"/><stop offset="0.36" stop-color="#d7d7d7"/><stop offset="0.36" stop-color="#ececec"/><stop offset="0.36" stop-color="#e5e5e5"/><stop offset="0.38" stop-color="#b9b9b9"/><stop offset="0.4" stop-color="#929191"/><stop offset="0.42" stop-color="#716f6f"/><stop offset="0.44" stop-color="#565454"/><stop offset="0.46" stop-color="#413f3f"/><stop offset="0.48" stop-color="#323030"/><stop offset="0.51" stop-color="#2a2828"/><stop offset="0.56" stop-color="#272525"/><stop offset="0.63" stop-color="#292828"/><stop offset="0.67" stop-color="#323030"/><stop offset="0.71" stop-color="#403e3e"/><stop offset="0.74" stop-color="#545252"/><stop offset="0.77" stop-color="#6e6d6d"/><stop offset="0.8" stop-color="#8e8d8d"/><stop offset="0.82" stop-color="#b4b3b3"/><stop offset="0.84" stop-color="#dfdfdf"/><stop offset="0.86" stop-color="#f8f8f8"/><stop offset="0.86" stop-color="#e5e4e4"/><stop offset="0.88" stop-color="#b3b2b2"/><stop offset="0.9" stop-color="#888787"/><stop offset="0.92" stop-color="#656363"/><stop offset="0.94" stop-color="#4a4848"/><stop offset="0.96" stop-color="#363535"/><stop offset="0.98" stop-color="#2b2929"/><stop offset="1" stop-color="#272525"/></linearGradient><linearGradient id="linear-gradient-5" x1="448.82" y1="221.87" x2="450.48" y2="221.87" gradientTransform="matrix(1.19, 0.3, -0.25, 0.97, -2.32, -128.13)" gradientUnits="userSpaceOnUse"><stop offset="0" stop-color="#ea826e"/><stop offset="0.45" stop-color="#fa948b"/><stop offset="1" stop-color="#f18e9e"/></linearGradient><linearGradient id="linear-gradient-6" x1="448.82" y1="221.87" x2="450.48" y2="221.87" gradientTransform="matrix(1.19, 0.3, -0.25, 0.97, -2.32, -128.13)" gradientUnits="userSpaceOnUse"><stop offset="0" stop-color="#9a5a54"/><stop offset="0.16" stop-color="#c07169"/><stop offset="0.34" stop-color="#eebdb9"/><stop offset="0.39" stop-color="#fad2cf"/><stop offset="0.44" stop-color="#faccc9"/><stop offset="0.5" stop-color="#fabdb8"/><stop offset="0.58" stop-color="#faa39b"/><stop offset="0.62" stop-color="#fa948b"/><stop offset="0.66" stop-color="#f18f86"/><stop offset="0.73" stop-color="#d88078"/><stop offset="0.81" stop-color="#b16861"/><stop offset="0.82" stop-color="#ac655e"/><stop offset="1" stop-color="#8e534d"/></linearGradient><linearGradient id="linear-gradient-7" x1="449.65" y1="220.63" x2="449.65" y2="222.29" xlink:href="#linear-gradient-5"/><linearGradient id="linear-gradient-8" x1="448.82" y1="221.05" x2="450.48" y2="221.05" gradientTransform="matrix(1.19, 0.3, -0.25, 0.97, -2.32, -128.13)" gradientUnits="userSpaceOnUse"><stop offset="0" stop-color="#9a5a54"/><stop offset="0.05" stop-color="#a36560"/><stop offset="0.13" stop-color="#bc847f"/><stop offset="0.24" stop-color="#e3b5b1"/><stop offset="0.3" stop-color="#fad2cf"/><stop offset="0.4" stop-color="#fab2ab"/><stop offset="0.5" stop-color="#fa9c94"/><stop offset="0.55" stop-color="#fa948b"/><stop offset="0.63" stop-color="#fa978e"/><stop offset="0.69" stop-color="#faa099"/><stop offset="0.75" stop-color="#fab0aa"/><stop offset="0.81" stop-color="#fac6c2"/><stop offset="0.83" stop-color="#fad1ce"/><stop offset="0.86" stop-color="#dcaeaa"/><stop offset="0.9" stop-color="#ba8782"/><stop offset="0.93" stop-color="#a26a65"/><stop offset="0.96" stop-color="#935953"/><stop offset="0.98" stop-color="#8e534d"/></linearGradient><linearGradient id="linear-gradient-9" x1="-4842.68" y1="1079.82" x2="-5289.71" y2="962.18" gradientTransform="matrix(-0.37, 0.35, 0.3, 0.32, -1710.43, 1498.81)" gradientUnits="userSpaceOnUse"><stop offset="0.21" stop-color="#fff"/><stop offset="0.64" stop-color="#10a"/></linearGradient><linearGradient id="linear-gradient-10" x1="448.98" y1="220.82" x2="466.28" y2="128.59" gradientTransform="matrix(1, 0, 0, 1, 0, 0)" xlink:href="#linear-gradient-9"/></defs><title>QR Graphics</title><g class="cls-4"><g id="Layer_2" data-name="Layer 2"><g id="Header"><g id="Main_Graphics" data-name="Main Graphics"><path class="cls-5" d="M351.57,85.94c-20,15.14-45.91,14.16-68.63,6.28s-43.59-21.91-65.72-31.88a200.57,200.57,0,0,0-57.74-16.29C126.49,40,89.1,48.42,73,80.46,59.15,108,61.84,147.8,83.58,170.78c12,12.73,27.81,19,41.57,28.92s26.47,26.45,25.3,45.64c-1.08,17.76-13.68,31.39-26.73,39.94-10.08,6.61-22.5,13.83-23.72,27.52-1.17,13.25,9.27,23.63,19.24,29.53a102,102,0,0,0,105-.49c11.56-7,22.19-16.25,34.31-21.69,31.83-14.28,66.9.1,100.6,5.35a186.56,186.56,0,0,0,85.58-6.74c28-8.93,44.91-25.3,57.63-51.65a304.15,304.15,0,0,0,23.41-68.28c5.29-24.61,4.51-45.06-7.68-67.69-18.63-34.54-50-58.83-83.93-65S364.29,72,338,98.39"/><rect class="cls-6" x="64.48" y="151.56" width="50.76" height="66.47" rx="0.33" ry="0.33"/><rect class="cls-7" x="66.61" y="153.7" width="46.5" height="62.2"/><rect class="cls-8" x="59.51" y="214.1" width="60.97" height="7.46"/><rect class="cls-7" x="101.79" y="195.8" width="1.15" height="1.16"/><rect class="cls-7" x="101.79" y="194.65" width="1.15" height="1.15"/><rect class="cls-7" x="101.79" y="193.49" width="1.15" height="1.16"/><rect class="cls-7" x="101.79" y="192.33" width="1.15" height="1.15"/><rect class="cls-7" x="101.79" y="191.18" width="1.15" height="1.15"/><rect class="cls-7" x="101.79" y="190.02" width="1.15" height="1.16"/><rect class="cls-7" x="101.79" y="188.87" width="1.15" height="1.15"/><rect class="cls-7" x="101.79" y="187.71" width="1.15" height="1.15"/><rect class="cls-7" x="101.79" y="186.56" width="1.15" height="1.16"/><rect class="cls-7" x="101.79" y="185.4" width="1.15" height="1.15"/><rect class="cls-7" x="101.79" y="184.25" width="1.15" height="1.15"/><rect class="cls-7" x="101.79" y="183.09" width="1.15" height="1.16"/><rect class="cls-7" x="101.79" y="181.94" width="1.15" height="1.15"/><rect class="cls-7" x="101.79" y="180.78" width="1.15" height="1.16"/><rect class="cls-7" x="101.79" y="179.62" width="1.15" height="1.15"/><rect class="cls-7" x="101.79" y="178.47" width="1.15" height="1.15"/><rect class="cls-7" x="101.79" y="177.31" width="1.15" height="1.16"/><rect class="cls-7" x="101.79" y="176.16" width="1.15" height="1.15"/><rect class="cls-7" x="101.79" y="175.01" width="1.15" height="1.15"/><rect class="cls-7" x="101.79" y="173.85" width="1.15" height="1.16"/><rect class="cls-7" x="101.79" y="172.69" width="1.15" height="1.15"/><rect class="cls-7" x="101.79" y="171.54" width="1.15" height="1.15"/><rect class="cls-7" x="100.64" y="195.8" width="1.15" height="1.16"/><rect x="100.64" y="194.65" width="1.15" height="1.15"/><rect x="100.64" y="193.49" width="1.15" height="1.16"/><rect x="100.64" y="192.33" width="1.15" height="1.15"/><rect class="cls-7" x="100.64" y="191.18" width="1.15" height="1.15"/><rect x="100.64" y="190.02" width="1.15" height="1.16"/><rect x="100.64" y="188.87" width="1.15" height="1.15"/><rect x="100.64" y="187.71" width="1.15" height="1.15"/><rect x="100.64" y="186.56" width="1.15" height="1.16"/><rect class="cls-7" x="100.64" y="185.4" width="1.15" height="1.15"/><rect x="100.64" y="184.25" width="1.15" height="1.15"/><rect x="100.64" y="183.09" width="1.15" height="1.16"/><rect class="cls-7" x="100.64" y="181.94" width="1.15" height="1.15"/><rect x="100.64" y="180.78" width="1.15" height="1.16"/><rect x="100.64" y="179.62" width="1.15" height="1.15"/><rect class="cls-7" x="100.64" y="178.47" width="1.15" height="1.15"/><rect x="100.64" y="177.31" width="1.15" height="1.16"/><rect x="100.64" y="176.16" width="1.15" height="1.15"/><rect x="100.64" y="175.01" width="1.15" height="1.15"/><rect x="100.64" y="173.85" width="1.15" height="1.16"/><rect x="100.64" y="172.69" width="1.15" height="1.15"/><rect class="cls-7" x="100.64" y="171.54" width="1.15" height="1.15"/><rect class="cls-7" x="99.48" y="195.8" width="1.16" height="1.16"/><rect class="cls-7" x="99.48" y="194.65" width="1.16" height="1.15"/><rect class="cls-7" x="99.48" y="193.49" width="1.16" height="1.16"/><rect class="cls-7" x="99.48" y="192.33" width="1.16" height="1.15"/><rect x="99.48" y="191.18" width="1.16" height="1.15"/><rect class="cls-7" x="99.48" y="190.02" width="1.16" height="1.16"/><rect class="cls-7" x="99.48" y="188.87" width="1.16" height="1.15"/><rect class="cls-7" x="99.48" y="187.71" width="1.16" height="1.15"/><rect x="99.48" y="186.56" width="1.16" height="1.16"/><rect class="cls-7" x="99.48" y="185.4" width="1.16" height="1.15"/><rect class="cls-7" x="99.48" y="184.25" width="1.16" height="1.15"/><rect x="99.48" y="183.09" width="1.16" height="1.16"/><rect class="cls-7" x="99.48" y="181.94" width="1.16" height="1.15"/><rect x="99.48" y="180.78" width="1.16" height="1.16"/><rect class="cls-7" x="99.48" y="179.62" width="1.16" height="1.15"/><rect class="cls-7" x="99.48" y="178.47" width="1.16" height="1.15"/><rect x="99.48" y="177.31" width="1.16" height="1.16"/><rect class="cls-7" x="99.48" y="176.16" width="1.16" height="1.15"/><rect class="cls-7" x="99.48" y="175.01" width="1.16" height="1.15"/><rect class="cls-7" x="99.48" y="173.85" width="1.16" height="1.16"/><rect x="99.48" y="172.69" width="1.16" height="1.15"/><rect class="cls-7" x="99.48" y="171.54" width="1.16" height="1.15"/><rect class="cls-7" x="98.32" y="195.8" width="1.15" height="1.16"/><rect x="98.32" y="194.65" width="1.15" height="1.15"/><rect class="cls-7" x="98.32" y="193.49" width="1.15" height="1.16"/><rect x="98.32" y="192.33" width="1.15" height="1.15"/><rect class="cls-7" x="98.32" y="191.18" width="1.15" height="1.15"/><rect x="98.32" y="190.02" width="1.15" height="1.16"/><rect class="cls-7" x="98.32" y="188.87" width="1.15" height="1.15"/><rect class="cls-7" x="98.32" y="187.71" width="1.15" height="1.15"/><rect x="98.32" y="186.56" width="1.15" height="1.16"/><rect x="98.32" y="185.4" width="1.15" height="1.15"/><rect x="98.32" y="184.25" width="1.15" height="1.15"/><rect x="98.32" y="183.09" width="1.15" height="1.16"/><rect x="98.32" y="181.94" width="1.15" height="1.15"/><rect x="98.32" y="180.78" width="1.15" height="1.16"/><rect class="cls-7" x="98.32" y="179.62" width="1.15" height="1.15"/><rect class="cls-7" x="98.32" y="178.47" width="1.15" height="1.15"/><rect x="98.32" y="177.31" width="1.15" height="1.16"/><rect class="cls-7" x="98.32" y="176.16" width="1.15" height="1.15"/><rect x="98.32" y="175.01" width="1.15" height="1.15"/><rect class="cls-7" x="98.32" y="173.85" width="1.15" height="1.16"/><rect x="98.32" y="172.69" width="1.15" height="1.15"/><rect class="cls-7" x="98.32" y="171.54" width="1.15" height="1.15"/><rect class="cls-7" x="97.17" y="195.8" width="1.15" height="1.16"/><rect x="97.17" y="194.65" width="1.15" height="1.15"/><rect class="cls-7" x="97.17" y="193.49" width="1.15" height="1.16"/><rect class="cls-7" x="97.17" y="192.33" width="1.15" height="1.15"/><rect class="cls-7" x="97.17" y="191.18" width="1.15" height="1.15"/><rect class="cls-7" x="97.17" y="190.02" width="1.15" height="1.16"/><rect class="cls-7" x="97.17" y="188.87" width="1.15" height="1.15"/><rect class="cls-7" x="97.17" y="187.71" width="1.15" height="1.15"/><rect class="cls-7" x="97.17" y="186.56" width="1.15" height="1.16"/><rect class="cls-7" x="97.17" y="185.4" width="1.15" height="1.15"/><rect class="cls-7" x="97.17" y="184.25" width="1.15" height="1.15"/><rect class="cls-7" x="97.17" y="183.09" width="1.15" height="1.16"/><rect class="cls-7" x="97.17" y="181.94" width="1.15" height="1.15"/><rect x="97.17" y="180.78" width="1.15" height="1.16"/><rect class="cls-7" x="97.17" y="179.62" width="1.15" height="1.15"/><rect class="cls-7" x="97.17" y="178.47" width="1.15" height="1.15"/><rect x="97.17" y="177.31" width="1.15" height="1.16"/><rect class="cls-7" x="97.17" y="176.16" width="1.15" height="1.15"/><rect class="cls-7" x="97.17" y="175.01" width="1.15" height="1.15"/><rect class="cls-7" x="97.17" y="173.85" width="1.15" height="1.16"/><rect x="97.17" y="172.69" width="1.15" height="1.15"/><rect class="cls-7" x="97.17" y="171.54" width="1.15" height="1.15"/><rect class="cls-7" x="96.01" y="195.8" width="1.15" height="1.16"/><rect x="96.01" y="194.65" width="1.15" height="1.15"/><rect class="cls-7" x="96.01" y="193.49" width="1.15" height="1.16"/><rect x="96.01" y="192.33" width="1.15" height="1.15"/><rect class="cls-7" x="96.01" y="191.18" width="1.15" height="1.15"/><rect class="cls-7" x="96.01" y="190.02" width="1.15" height="1.16"/><rect class="cls-7" x="96.01" y="188.87" width="1.15" height="1.15"/><rect class="cls-7" x="96.01" y="187.71" width="1.15" height="1.15"/><rect class="cls-7" x="96.01" y="186.56" width="1.15" height="1.16"/><rect class="cls-7" x="96.01" y="185.4" width="1.15" height="1.15"/><rect x="96.01" y="184.25" width="1.15" height="1.15"/><rect x="96.01" y="183.09" width="1.15" height="1.16"/><rect class="cls-7" x="96.01" y="181.94" width="1.15" height="1.15"/><rect x="96.01" y="180.78" width="1.15" height="1.16"/><rect x="96.01" y="179.62" width="1.15" height="1.15"/><rect class="cls-7" x="96.01" y="178.47" width="1.15" height="1.15"/><rect x="96.01" y="177.31" width="1.15" height="1.16"/><rect x="96.01" y="176.16" width="1.15" height="1.15"/><rect x="96.01" y="175.01" width="1.15" height="1.15"/><rect x="96.01" y="173.85" width="1.15" height="1.16"/><rect x="96.01" y="172.69" width="1.15" height="1.15"/><rect class="cls-7" x="96.01" y="171.54" width="1.15" height="1.15"/><rect class="cls-7" x="94.86" y="195.8" width="1.15" height="1.16"/><rect x="94.86" y="194.65" width="1.15" height="1.15"/><rect class="cls-7" x="94.86" y="193.49" width="1.15" height="1.16"/><rect x="94.86" y="192.33" width="1.15" height="1.15"/><rect class="cls-7" x="94.86" y="191.18" width="1.15" height="1.15"/><rect class="cls-7" x="94.86" y="190.02" width="1.15" height="1.16"/><rect x="94.86" y="188.87" width="1.15" height="1.15"/><rect x="94.86" y="187.71" width="1.15" height="1.15"/><rect class="cls-7" x="94.86" y="186.56" width="1.15" height="1.16"/><rect class="cls-7" x="94.86" y="185.4" width="1.15" height="1.15"/><rect x="94.86" y="184.25" width="1.15" height="1.15"/><rect class="cls-7" x="94.86" y="183.09" width="1.15" height="1.16"/><rect class="cls-7" x="94.86" y="181.94" width="1.15" height="1.15"/><rect class="cls-7" x="94.86" y="180.78" width="1.15" height="1.16"/><rect class="cls-7" x="94.86" y="179.62" width="1.15" height="1.15"/><rect class="cls-7" x="94.86" y="178.47" width="1.15" height="1.15"/><rect class="cls-7" x="94.86" y="177.31" width="1.15" height="1.16"/><rect class="cls-7" x="94.86" y="176.16" width="1.15" height="1.15"/><rect class="cls-7" x="94.86" y="175.01" width="1.15" height="1.15"/><rect class="cls-7" x="94.86" y="173.85" width="1.15" height="1.16"/><rect class="cls-7" x="94.86" y="172.69" width="1.15" height="1.15"/><rect class="cls-7" x="94.86" y="171.54" width="1.15" height="1.15"/><rect class="cls-7" x="93.71" y="195.8" width="1.15" height="1.16"/><rect x="93.71" y="194.65" width="1.15" height="1.15"/><rect class="cls-7" x="93.71" y="193.49" width="1.15" height="1.16"/><rect x="93.71" y="192.33" width="1.15" height="1.15"/><rect class="cls-7" x="93.71" y="191.18" width="1.15" height="1.15"/><rect x="93.71" y="190.02" width="1.15" height="1.16"/><rect x="93.71" y="188.87" width="1.15" height="1.15"/><rect x="93.71" y="187.71" width="1.15" height="1.15"/><rect x="93.71" y="186.56" width="1.15" height="1.16"/><rect class="cls-7" x="93.71" y="185.4" width="1.15" height="1.15"/><rect x="93.71" y="184.25" width="1.15" height="1.15"/><rect x="93.71" y="183.09" width="1.15" height="1.16"/><rect class="cls-7" x="93.71" y="181.94" width="1.15" height="1.15"/><rect class="cls-7" x="93.71" y="180.78" width="1.15" height="1.16"/><rect x="93.71" y="179.62" width="1.15" height="1.15"/><rect class="cls-7" x="93.71" y="178.47" width="1.15" height="1.15"/><rect class="cls-7" x="93.71" y="177.31" width="1.15" height="1.16"/><rect x="93.71" y="176.16" width="1.15" height="1.15"/><rect class="cls-7" x="93.71" y="175.01" width="1.15" height="1.15"/><rect class="cls-7" x="93.71" y="173.85" width="1.15" height="1.16"/><rect x="93.71" y="172.69" width="1.15" height="1.15"/><rect class="cls-7" x="93.71" y="171.54" width="1.15" height="1.15"/><rect class="cls-7" x="92.54" y="195.8" width="1.16" height="1.16"/><rect class="cls-7" x="92.54" y="194.65" width="1.16" height="1.15"/><rect class="cls-7" x="92.54" y="193.49" width="1.16" height="1.16"/><rect x="92.54" y="192.33" width="1.16" height="1.15"/><rect class="cls-7" x="92.54" y="191.18" width="1.16" height="1.15"/><rect x="92.54" y="190.02" width="1.16" height="1.16"/><rect class="cls-7" x="92.54" y="188.87" width="1.16" height="1.15"/><rect class="cls-7" x="92.54" y="187.71" width="1.16" height="1.15"/><rect x="92.54" y="186.56" width="1.16" height="1.16"/><rect class="cls-7" x="92.54" y="185.4" width="1.16" height="1.15"/><rect class="cls-7" x="92.54" y="184.25" width="1.16" height="1.15"/><rect class="cls-7" x="92.54" y="183.09" width="1.16" height="1.16"/><rect class="cls-7" x="92.54" y="181.94" width="1.16" height="1.15"/><rect class="cls-7" x="92.54" y="180.78" width="1.16" height="1.16"/><rect x="92.54" y="179.62" width="1.16" height="1.15"/><rect x="92.54" y="178.47" width="1.16" height="1.15"/><rect class="cls-7" x="92.54" y="177.31" width="1.16" height="1.16"/><rect class="cls-7" x="92.54" y="176.16" width="1.16" height="1.15"/><rect x="92.54" y="175.01" width="1.16" height="1.15"/><rect x="92.54" y="173.85" width="1.16" height="1.16"/><rect x="92.54" y="172.69" width="1.16" height="1.15"/><rect class="cls-7" x="92.54" y="171.54" width="1.16" height="1.15"/><rect class="cls-7" x="91.39" y="195.8" width="1.15" height="1.16"/><rect x="91.39" y="194.65" width="1.15" height="1.15"/><rect class="cls-7" x="91.39" y="193.49" width="1.15" height="1.16"/><rect class="cls-7" x="91.39" y="192.33" width="1.15" height="1.15"/><rect class="cls-7" x="91.39" y="191.18" width="1.15" height="1.15"/><rect class="cls-7" x="91.39" y="190.02" width="1.15" height="1.16"/><rect x="91.39" y="188.87" width="1.15" height="1.15"/><rect class="cls-7" x="91.39" y="187.71" width="1.15" height="1.15"/><rect class="cls-7" x="91.39" y="186.56" width="1.15" height="1.16"/><rect x="91.39" y="185.4" width="1.15" height="1.15"/><rect x="91.39" y="184.25" width="1.15" height="1.15"/><rect x="91.39" y="183.09" width="1.15" height="1.16"/><rect x="91.39" y="181.94" width="1.15" height="1.15"/><rect class="cls-7" x="91.39" y="180.78" width="1.15" height="1.16"/><rect x="91.39" y="179.62" width="1.15" height="1.15"/><rect class="cls-7" x="91.39" y="178.47" width="1.15" height="1.15"/><rect x="91.39" y="177.31" width="1.15" height="1.16"/><rect class="cls-7" x="91.39" y="176.16" width="1.15" height="1.15"/><rect x="91.39" y="175.01" width="1.15" height="1.15"/><rect class="cls-7" x="91.39" y="173.85" width="1.15" height="1.16"/><rect x="91.39" y="172.69" width="1.15" height="1.15"/><rect class="cls-7" x="91.39" y="171.54" width="1.15" height="1.15"/><rect class="cls-7" x="90.24" y="195.8" width="1.15" height="1.16"/><rect class="cls-7" x="90.24" y="194.65" width="1.15" height="1.15"/><rect x="90.24" y="193.49" width="1.15" height="1.16"/><rect x="90.24" y="192.33" width="1.15" height="1.15"/><rect x="90.24" y="191.18" width="1.15" height="1.15"/><rect x="90.24" y="190.02" width="1.15" height="1.16"/><rect x="90.24" y="188.87" width="1.15" height="1.15"/><rect class="cls-7" x="90.24" y="187.71" width="1.15" height="1.15"/><rect class="cls-7" x="90.24" y="186.56" width="1.15" height="1.16"/><rect class="cls-7" x="90.24" y="185.4" width="1.15" height="1.15"/><rect class="cls-7" x="90.24" y="184.25" width="1.15" height="1.15"/><rect class="cls-7" x="90.24" y="183.09" width="1.15" height="1.16"/><rect class="cls-7" x="90.24" y="181.94" width="1.15" height="1.15"/><rect class="cls-7" x="90.24" y="180.78" width="1.15" height="1.16"/><rect class="cls-7" x="90.24" y="179.62" width="1.15" height="1.15"/><rect class="cls-7" x="90.24" y="178.47" width="1.15" height="1.15"/><rect class="cls-7" x="90.24" y="177.31" width="1.15" height="1.16"/><rect class="cls-7" x="90.24" y="176.16" width="1.15" height="1.15"/><rect class="cls-7" x="90.24" y="175.01" width="1.15" height="1.15"/><rect class="cls-7" x="90.24" y="173.85" width="1.15" height="1.16"/><rect x="90.24" y="172.69" width="1.15" height="1.15"/><rect class="cls-7" x="90.24" y="171.54" width="1.15" height="1.15"/><rect class="cls-7" x="89.08" y="195.8" width="1.15" height="1.16"/><rect x="89.08" y="194.65" width="1.15" height="1.15"/><rect class="cls-7" x="89.08" y="193.49" width="1.15" height="1.16"/><rect class="cls-7" x="89.08" y="192.33" width="1.15" height="1.15"/><rect class="cls-7" x="89.08" y="191.18" width="1.15" height="1.15"/><rect class="cls-7" x="89.08" y="190.02" width="1.15" height="1.16"/><rect class="cls-7" x="89.08" y="188.87" width="1.15" height="1.15"/><rect class="cls-7" x="89.08" y="187.71" width="1.15" height="1.15"/><rect class="cls-7" x="89.08" y="186.56" width="1.15" height="1.16"/><rect class="cls-7" x="89.08" y="185.4" width="1.15" height="1.15"/><rect class="cls-7" x="89.08" y="184.25" width="1.15" height="1.15"/><rect class="cls-7" x="89.08" y="183.09" width="1.15" height="1.16"/><rect x="89.08" y="181.94" width="1.15" height="1.15"/><rect class="cls-7" x="89.08" y="180.78" width="1.15" height="1.16"/><rect class="cls-7" x="89.08" y="179.62" width="1.15" height="1.15"/><rect x="89.08" y="178.47" width="1.15" height="1.15"/><rect x="89.08" y="177.31" width="1.15" height="1.16"/><rect class="cls-7" x="89.08" y="176.16" width="1.15" height="1.15"/><rect class="cls-7" x="89.08" y="175.01" width="1.15" height="1.15"/><rect x="89.08" y="173.85" width="1.15" height="1.16"/><rect class="cls-7" x="89.08" y="172.69" width="1.15" height="1.15"/><rect class="cls-7" x="89.08" y="171.54" width="1.15" height="1.15"/><rect class="cls-7" x="87.93" y="195.8" width="1.15" height="1.16"/><rect x="87.93" y="194.65" width="1.15" height="1.15"/><rect class="cls-7" x="87.93" y="193.49" width="1.15" height="1.16"/><rect class="cls-7" x="87.93" y="192.33" width="1.15" height="1.15"/><rect class="cls-7" x="87.93" y="191.18" width="1.15" height="1.15"/><rect x="87.93" y="190.02" width="1.15" height="1.16"/><rect class="cls-7" x="87.93" y="188.87" width="1.15" height="1.15"/><rect class="cls-7" x="87.93" y="187.71" width="1.15" height="1.15"/><rect class="cls-7" x="87.93" y="186.56" width="1.15" height="1.16"/><rect x="87.93" y="185.4" width="1.15" height="1.15"/><rect class="cls-7" x="87.93" y="184.25" width="1.15" height="1.15"/><rect x="87.93" y="183.09" width="1.15" height="1.16"/><rect class="cls-7" x="87.93" y="181.94" width="1.15" height="1.15"/><rect class="cls-7" x="87.93" y="180.78" width="1.15" height="1.16"/><rect x="87.93" y="179.62" width="1.15" height="1.15"/><rect x="87.93" y="178.47" width="1.15" height="1.15"/><rect x="87.93" y="177.31" width="1.15" height="1.16"/><rect x="87.93" y="176.16" width="1.15" height="1.15"/><rect x="87.93" y="175.01" width="1.15" height="1.15"/><rect x="87.93" y="173.85" width="1.15" height="1.16"/><rect x="87.93" y="172.69" width="1.15" height="1.15"/><rect class="cls-7" x="87.93" y="171.54" width="1.15" height="1.15"/><rect class="cls-7" x="86.77" y="195.8" width="1.16" height="1.16"/><rect class="cls-7" x="86.77" y="194.65" width="1.16" height="1.15"/><rect class="cls-7" x="86.77" y="193.49" width="1.16" height="1.16"/><rect class="cls-7" x="86.77" y="192.33" width="1.16" height="1.15"/><rect class="cls-7" x="86.77" y="191.18" width="1.16" height="1.15"/><rect x="86.77" y="190.02" width="1.16" height="1.16"/><rect x="86.77" y="188.87" width="1.16" height="1.15"/><rect x="86.77" y="187.71" width="1.16" height="1.15"/><rect x="86.77" y="186.56" width="1.16" height="1.16"/><rect class="cls-7" x="86.77" y="185.4" width="1.16" height="1.15"/><rect x="86.77" y="184.25" width="1.16" height="1.15"/><rect x="86.77" y="183.09" width="1.16" height="1.16"/><rect x="86.77" y="181.94" width="1.16" height="1.15"/><rect class="cls-7" x="86.77" y="180.78" width="1.16" height="1.16"/><rect x="86.77" y="179.62" width="1.16" height="1.15"/><rect class="cls-7" x="86.77" y="178.47" width="1.16" height="1.15"/><rect x="86.77" y="177.31" width="1.16" height="1.16"/><rect class="cls-7" x="86.77" y="176.16" width="1.16" height="1.15"/><rect class="cls-7" x="86.77" y="175.01" width="1.16" height="1.15"/><rect x="86.77" y="173.85" width="1.16" height="1.16"/><rect class="cls-7" x="86.77" y="172.69" width="1.16" height="1.15"/><rect class="cls-7" x="86.77" y="171.54" width="1.16" height="1.15"/><rect class="cls-7" x="85.61" y="195.8" width="1.15" height="1.16"/><rect x="85.61" y="194.65" width="1.15" height="1.15"/><rect x="85.61" y="193.49" width="1.15" height="1.16"/><rect x="85.61" y="192.33" width="1.15" height="1.15"/><rect x="85.61" y="191.18" width="1.15" height="1.15"/><rect x="85.61" y="190.02" width="1.15" height="1.16"/><rect class="cls-7" x="85.61" y="188.87" width="1.15" height="1.15"/><rect class="cls-7" x="85.61" y="187.71" width="1.15" height="1.15"/><rect class="cls-7" x="85.61" y="186.56" width="1.15" height="1.16"/><rect class="cls-7" x="85.61" y="185.4" width="1.15" height="1.15"/><rect class="cls-7" x="85.61" y="184.25" width="1.15" height="1.15"/><rect class="cls-7" x="85.61" y="183.09" width="1.15" height="1.16"/><rect class="cls-7" x="85.61" y="181.94" width="1.15" height="1.15"/><rect class="cls-7" x="85.61" y="180.78" width="1.15" height="1.16"/><rect x="85.61" y="179.62" width="1.15" height="1.15"/><rect class="cls-7" x="85.61" y="178.47" width="1.15" height="1.15"/><rect class="cls-7" x="85.61" y="177.31" width="1.15" height="1.16"/><rect x="85.61" y="176.16" width="1.15" height="1.15"/><rect class="cls-7" x="85.61" y="175.01" width="1.15" height="1.15"/><rect x="85.61" y="173.85" width="1.15" height="1.16"/><rect class="cls-7" x="85.61" y="172.69" width="1.15" height="1.15"/><rect class="cls-7" x="85.61" y="171.54" width="1.15" height="1.15"/><rect class="cls-7" x="84.46" y="195.8" width="1.15" height="1.16"/><rect class="cls-7" x="84.46" y="194.65" width="1.15" height="1.15"/><rect class="cls-7" x="84.46" y="193.49" width="1.15" height="1.16"/><rect class="cls-7" x="84.46" y="192.33" width="1.15" height="1.15"/><rect class="cls-7" x="84.46" y="191.18" width="1.15" height="1.15"/><rect class="cls-7" x="84.46" y="190.02" width="1.15" height="1.16"/><rect class="cls-7" x="84.46" y="188.87" width="1.15" height="1.15"/><rect x="84.46" y="187.71" width="1.15" height="1.15"/><rect x="84.46" y="186.56" width="1.15" height="1.16"/><rect x="84.46" y="185.4" width="1.15" height="1.15"/><rect class="cls-7" x="84.46" y="184.25" width="1.15" height="1.15"/><rect class="cls-7" x="84.46" y="183.09" width="1.15" height="1.16"/><rect x="84.46" y="181.94" width="1.15" height="1.15"/><rect x="84.46" y="180.78" width="1.15" height="1.16"/><rect x="84.46" y="179.62" width="1.15" height="1.15"/><rect class="cls-7" x="84.46" y="178.47" width="1.15" height="1.15"/><rect class="cls-7" x="84.46" y="177.31" width="1.15" height="1.16"/><rect class="cls-7" x="84.46" y="176.16" width="1.15" height="1.15"/><rect class="cls-7" x="84.46" y="175.01" width="1.15" height="1.15"/><rect class="cls-7" x="84.46" y="173.85" width="1.15" height="1.16"/><rect class="cls-7" x="84.46" y="172.69" width="1.15" height="1.15"/><rect class="cls-7" x="84.46" y="171.54" width="1.15" height="1.15"/><rect class="cls-7" x="83.3" y="195.8" width="1.15" height="1.16"/><rect x="83.3" y="194.65" width="1.15" height="1.15"/><rect x="83.3" y="193.49" width="1.15" height="1.16"/><rect x="83.3" y="192.33" width="1.15" height="1.15"/><rect x="83.3" y="191.18" width="1.15" height="1.15"/><rect x="83.3" y="190.02" width="1.15" height="1.16"/><rect class="cls-7" x="83.3" y="188.87" width="1.15" height="1.15"/><rect class="cls-7" x="83.3" y="187.71" width="1.15" height="1.15"/><rect class="cls-7" x="83.3" y="186.56" width="1.15" height="1.16"/><rect x="83.3" y="185.4" width="1.15" height="1.15"/><rect class="cls-7" x="83.3" y="184.25" width="1.15" height="1.15"/><rect class="cls-7" x="83.3" y="183.09" width="1.15" height="1.16"/><rect class="cls-7" x="83.3" y="181.94" width="1.15" height="1.15"/><rect class="cls-7" x="83.3" y="180.78" width="1.15" height="1.16"/><rect x="83.3" y="179.62" width="1.15" height="1.15"/><rect class="cls-7" x="83.3" y="178.47" width="1.15" height="1.15"/><rect x="83.3" y="177.31" width="1.15" height="1.16"/><rect x="83.3" y="176.16" width="1.15" height="1.15"/><rect x="83.3" y="175.01" width="1.15" height="1.15"/><rect x="83.3" y="173.85" width="1.15" height="1.16"/><rect x="83.3" y="172.69" width="1.15" height="1.15"/><rect class="cls-7" x="83.3" y="171.54" width="1.15" height="1.15"/><rect class="cls-7" x="82.15" y="195.8" width="1.15" height="1.16"/><rect x="82.15" y="194.65" width="1.15" height="1.15"/><rect class="cls-7" x="82.15" y="193.49" width="1.15" height="1.16"/><rect class="cls-7" x="82.15" y="192.33" width="1.15" height="1.15"/><rect class="cls-7" x="82.15" y="191.18" width="1.15" height="1.15"/><rect x="82.15" y="190.02" width="1.15" height="1.16"/><rect class="cls-7" x="82.15" y="188.87" width="1.15" height="1.15"/><rect class="cls-7" x="82.15" y="187.71" width="1.15" height="1.15"/><rect class="cls-7" x="82.15" y="186.56" width="1.15" height="1.16"/><rect x="82.15" y="185.4" width="1.15" height="1.15"/><rect class="cls-7" x="82.15" y="184.25" width="1.15" height="1.15"/><rect x="82.15" y="183.09" width="1.15" height="1.16"/><rect class="cls-7" x="82.15" y="181.94" width="1.15" height="1.15"/><rect class="cls-7" x="82.15" y="180.78" width="1.15" height="1.16"/><rect x="82.15" y="179.62" width="1.15" height="1.15"/><rect class="cls-7" x="82.15" y="178.47" width="1.15" height="1.15"/><rect x="82.15" y="177.31" width="1.15" height="1.16"/><rect class="cls-7" x="82.15" y="176.16" width="1.15" height="1.15"/><rect class="cls-7" x="82.15" y="175.01" width="1.15" height="1.15"/><rect class="cls-7" x="82.15" y="173.85" width="1.15" height="1.16"/><rect x="82.15" y="172.69" width="1.15" height="1.15"/><rect class="cls-7" x="82.15" y="171.54" width="1.15" height="1.15"/><rect class="cls-7" x="81" y="195.8" width="1.15" height="1.16"/><rect x="81" y="194.65" width="1.15" height="1.15"/><rect class="cls-7" x="81" y="193.49" width="1.15" height="1.16"/><rect x="81" y="192.33" width="1.15" height="1.15"/><rect class="cls-7" x="81" y="191.18" width="1.15" height="1.15"/><rect x="81" y="190.02" width="1.15" height="1.16"/><rect class="cls-7" x="81" y="188.87" width="1.15" height="1.15"/><rect x="81" y="187.71" width="1.15" height="1.15"/><rect class="cls-7" x="81" y="186.56" width="1.15" height="1.16"/><rect x="81" y="185.4" width="1.15" height="1.15"/><rect class="cls-7" x="81" y="184.25" width="1.15" height="1.15"/><rect x="81" y="183.09" width="1.15" height="1.16"/><rect class="cls-7" x="81" y="181.94" width="1.15" height="1.15"/><rect class="cls-7" x="81" y="180.78" width="1.15" height="1.16"/><rect class="cls-7" x="81" y="179.62" width="1.15" height="1.15"/><rect class="cls-7" x="81" y="178.47" width="1.15" height="1.15"/><rect x="81" y="177.31" width="1.15" height="1.16"/><rect class="cls-7" x="81" y="176.16" width="1.15" height="1.15"/><rect x="81" y="175.01" width="1.15" height="1.15"/><rect class="cls-7" x="81" y="173.85" width="1.15" height="1.16"/><rect x="81" y="172.69" width="1.15" height="1.15"/><rect class="cls-7" x="81" y="171.54" width="1.15" height="1.15"/><rect class="cls-7" x="79.84" y="195.8" width="1.16" height="1.16"/><rect x="79.84" y="194.65" width="1.16" height="1.15"/><rect class="cls-7" x="79.84" y="193.49" width="1.16" height="1.16"/><rect class="cls-7" x="79.84" y="192.33" width="1.16" height="1.15"/><rect class="cls-7" x="79.84" y="191.18" width="1.16" height="1.15"/><rect x="79.84" y="190.02" width="1.16" height="1.16"/><rect class="cls-7" x="79.84" y="188.87" width="1.16" height="1.15"/><rect class="cls-7" x="79.84" y="187.71" width="1.16" height="1.15"/><rect x="79.84" y="186.56" width="1.16" height="1.16"/><rect x="79.84" y="185.4" width="1.16" height="1.15"/><rect class="cls-7" x="79.84" y="184.25" width="1.16" height="1.15"/><rect x="79.84" y="183.09" width="1.16" height="1.16"/><rect class="cls-7" x="79.84" y="181.94" width="1.16" height="1.15"/><rect x="79.84" y="180.78" width="1.16" height="1.16"/><rect x="79.84" y="179.62" width="1.16" height="1.15"/><rect class="cls-7" x="79.84" y="178.47" width="1.16" height="1.15"/><rect x="79.84" y="177.31" width="1.16" height="1.16"/><rect class="cls-7" x="79.84" y="176.16" width="1.16" height="1.15"/><rect class="cls-7" x="79.84" y="175.01" width="1.16" height="1.15"/><rect class="cls-7" x="79.84" y="173.85" width="1.16" height="1.16"/><rect x="79.84" y="172.69" width="1.16" height="1.15"/><rect class="cls-7" x="79.84" y="171.54" width="1.16" height="1.15"/><rect class="cls-7" x="78.68" y="195.8" width="1.15" height="1.16"/><rect x="78.68" y="194.65" width="1.15" height="1.15"/><rect x="78.68" y="193.49" width="1.15" height="1.16"/><rect x="78.68" y="192.33" width="1.15" height="1.15"/><rect x="78.68" y="191.18" width="1.15" height="1.15"/><rect x="78.68" y="190.02" width="1.15" height="1.16"/><rect class="cls-7" x="78.68" y="188.87" width="1.15" height="1.15"/><rect x="78.68" y="187.71" width="1.15" height="1.15"/><rect class="cls-7" x="78.68" y="186.56" width="1.15" height="1.16"/><rect class="cls-7" x="78.68" y="185.4" width="1.15" height="1.15"/><rect x="78.68" y="184.25" width="1.15" height="1.15"/><rect x="78.68" y="183.09" width="1.15" height="1.16"/><rect class="cls-7" x="78.68" y="181.94" width="1.15" height="1.15"/><rect x="78.68" y="180.78" width="1.15" height="1.16"/><rect x="78.68" y="179.62" width="1.15" height="1.15"/><rect class="cls-7" x="78.68" y="178.47" width="1.15" height="1.15"/><rect x="78.68" y="177.31" width="1.15" height="1.16"/><rect x="78.68" y="176.16" width="1.15" height="1.15"/><rect x="78.68" y="175.01" width="1.15" height="1.15"/><rect x="78.68" y="173.85" width="1.15" height="1.16"/><rect x="78.68" y="172.69" width="1.15" height="1.15"/><rect class="cls-7" x="78.68" y="171.54" width="1.15" height="1.15"/><rect class="cls-7" x="77.53" y="195.8" width="1.15" height="1.16"/><rect class="cls-7" x="77.53" y="194.65" width="1.15" height="1.15"/><rect class="cls-7" x="77.53" y="193.49" width="1.15" height="1.16"/><rect class="cls-7" x="77.53" y="192.33" width="1.15" height="1.15"/><rect class="cls-7" x="77.53" y="191.18" width="1.15" height="1.15"/><rect class="cls-7" x="77.53" y="190.02" width="1.15" height="1.16"/><rect class="cls-7" x="77.53" y="188.87" width="1.15" height="1.15"/><rect class="cls-7" x="77.53" y="187.71" width="1.15" height="1.15"/><rect class="cls-7" x="77.53" y="186.56" width="1.15" height="1.16"/><rect class="cls-7" x="77.53" y="185.4" width="1.15" height="1.15"/><rect class="cls-7" x="77.53" y="184.25" width="1.15" height="1.15"/><rect class="cls-7" x="77.53" y="183.09" width="1.15" height="1.16"/><rect class="cls-7" x="77.53" y="181.94" width="1.15" height="1.15"/><rect class="cls-7" x="77.53" y="180.78" width="1.15" height="1.16"/><rect class="cls-7" x="77.53" y="179.62" width="1.15" height="1.15"/><rect class="cls-7" x="77.53" y="178.47" width="1.15" height="1.15"/><rect class="cls-7" x="77.53" y="177.31" width="1.15" height="1.16"/><rect class="cls-7" x="77.53" y="176.16" width="1.15" height="1.15"/><rect class="cls-7" x="77.53" y="175.01" width="1.15" height="1.15"/><rect class="cls-7" x="77.53" y="173.85" width="1.15" height="1.16"/><rect class="cls-7" x="77.53" y="172.69" width="1.15" height="1.15"/><rect class="cls-7" x="77.53" y="171.54" width="1.15" height="1.15"/><polyline class="cls-9" points="74.98 174.29 74.98 169 80.22 169"/><polyline class="cls-9" points="105.49 174.18 105.49 168.89 100.25 168.89"/><polyline class="cls-9" points="74.98 194.26 74.98 199.55 80.22 199.55"/><polyline class="cls-9" points="105.49 194.36 105.49 199.65 100.25 199.65"/><path d="M78.09,163.59V165H77v-4.08h1.69a1.62,1.62,0,0,1,1.13.37,1.35,1.35,0,0,1,.38,1,1.31,1.31,0,0,1-.17.69,1.19,1.19,0,0,1-.51.48,1.78,1.78,0,0,1-.83.18Zm.93-1.35c0-.3-.17-.45-.5-.45h-.43v.9h.43C78.85,162.69,79,162.54,79,162.24Z"/><path d="M82.39,161.83a.87.87,0,0,1,.38.4v-.51h1.12V165H82.77v-.51a.92.92,0,0,1-.38.4,1.1,1.1,0,0,1-.59.15,1.29,1.29,0,0,1-.69-.2,1.31,1.31,0,0,1-.49-.57,2.08,2.08,0,0,1-.18-.89,2,2,0,0,1,.18-.88,1.31,1.31,0,0,1,.49-.57,1.29,1.29,0,0,1,.69-.2A1.1,1.1,0,0,1,82.39,161.83Zm-.64,1a.65.65,0,0,0-.16.48.67.67,0,0,0,.16.49.55.55,0,0,0,.43.18.54.54,0,0,0,.42-.18.69.69,0,0,0,.17-.49.69.69,0,0,0-.17-.48.54.54,0,0,0-.42-.18A.55.55,0,0,0,81.75,162.85Z"/><path d="M85.43,161.72l.69,1.81.64-1.81H88l-2,4.77H84.73l.79-1.68-1.35-3.09Z"/><path d="M93.12,165H92l-1.49-2.27V165H89.35v-4.07h1.14l1.49,2.3v-2.3h1.14Z"/><path d="M96.14,161.88a1.49,1.49,0,0,1,.6.57,1.82,1.82,0,0,1,.22.88,1.77,1.77,0,0,1-.22.88,1.59,1.59,0,0,1-.6.58,2,2,0,0,1-1.74,0,1.46,1.46,0,0,1-.6-.58,1.87,1.87,0,0,1,0-1.76,1.38,1.38,0,0,1,.6-.57,2,2,0,0,1,1.74,0Zm-1.26,1a.75.75,0,0,0-.16.5.78.78,0,0,0,.16.51.51.51,0,0,0,.39.17.54.54,0,0,0,.39-.17.78.78,0,0,0,.15-.51.75.75,0,0,0-.15-.5.54.54,0,0,0-.39-.17A.51.51,0,0,0,94.88,162.83Z"/><path d="M102.23,161.72l-.8,3.23h-1.27l-.49-2-.5,2H97.9l-.79-3.23h1.12l.36,2.16.5-2.16h1.2l.53,2.18.36-2.18Z"/><g id="Group_321" data-name="Group 321"><g id="whatsapp"><path id="Path_2173" data-name="Path 2173" class="cls-10" d="M97.72,205.48h0a1.41,1.41,0,0,0-1.41,1.41,1.37,1.37,0,0,0,.27.82l-.18.52.54-.17a1.4,1.4,0,1,0,1.55-2.34A1.35,1.35,0,0,0,97.72,205.48Z"/><path id="Path_2174" data-name="Path 2174" class="cls-11" d="M98.34,207.42a.32.32,0,0,1-.21.18s-.12,0-.37-.1a1.58,1.58,0,0,1-.53-.56.89.89,0,0,1-.12-.39.41.41,0,0,1,.11-.31.12.12,0,0,1,.11,0h0s0,0,.07.06.09.26.09.28a.08.08,0,0,1,0,.07.21.21,0,0,1,0,.06s0,0,0,.06a.08.08,0,0,0,0,.08,1.14,1.14,0,0,0,.18.25.72.72,0,0,0,.24.19.08.08,0,0,0,.08,0,1,1,0,0,0,.08-.14.06.06,0,0,1,.07,0h0l.21.12a.09.09,0,0,1,.06,0A.37.37,0,0,1,98.34,207.42Z"/></g><g id="Ponepe"><g id="Layer_1-2" data-name="Layer 1"><path id="Path_2152" data-name="Path 2152" class="cls-12" d="M104.12,205.22a1.57,1.57,0,1,1-1.57,1.56v-.05A1.57,1.57,0,0,1,104.12,205.22Zm.48,1.26h.1c.15,0,.13,0,.13-.13s0-.07-.06-.07h-.31s0,0-.06-.06c-.12-.18-.23-.36-.34-.54a.18.18,0,0,0-.07,0h-.15s0,0,0,.06l0,0,.39.54h-.69s-.06,0-.06,0,0,.11,0,.16h.13s.06,0,.06.06v.53a.32.32,0,0,0,.27.34.39.39,0,0,0,.42-.09v.41c0,.11,0,.12.12.11h0c.07,0,.07,0,.07-.09v-1.18s0,0,0-.06Z"/><path id="Path_2153" data-name="Path 2153" class="cls-13" d="M104.22,206.25h0Z"/><path id="Path_2154" data-name="Path 2154" class="cls-13" d="M104.47,206.26Z"/><path id="Path_2155" data-name="Path 2155" class="cls-14" d="M104.6,206.48h0Z"/><path id="Path_2156" data-name="Path 2156" class="cls-15" d="M103.9,206.77v-.27s0-.05,0-.05h.37s.06,0,.06.05,0,.35,0,.52a.17.17,0,0,1-.17.19h-.13a.16.16,0,0,1-.17-.16h0v-.27Z"/></g></g><g id="Bhim"><g id="Layer_1-2-2" data-name="Layer 1-2"><path id="Path_2171" data-name="Path 2171" class="cls-16" d="M77.2,205.42,78,207l-1.58,1.56Z"/><path id="Path_2172" data-name="Path 2172" class="cls-17" d="M76.68,205.34l.76,1.55-1.58,1.56Z"/></g></g><g id="Paytm"><g id="Layer_1-3" data-name="Layer 1-3"><path id="Path_2146" data-name="Path 2146" class="cls-18" d="M85.27,206.4a.34.34,0,0,1,.45,0,.4.4,0,0,1,.23-.1.32.32,0,0,1,.34.31h0v.93c0,.05,0,.07-.06.07h-.18c-.06,0-.08,0-.08-.08v-.82c0-.07,0-.09-.09-.09s-.1,0-.1.09v.83c0,.05,0,.07-.07.07h-.19s-.06,0-.06-.07v-.83c0-.06,0-.09-.1-.09s-.09,0-.09.09v.82c0,.06,0,.08-.07.08H85c-.05,0-.06,0-.06-.07v-1.18s0-.06.06-.06h.19S85.26,206.34,85.27,206.4Z"/><path id="Path_2147" data-name="Path 2147" class="cls-19" d="M83.08,207.08v.41a.12.12,0,0,1-.11.14h-.43a.27.27,0,0,1-.3-.26v0a1.31,1.31,0,0,1,0-.28.28.28,0,0,1,.26-.29h.18c.06,0,.07,0,.07-.06s0-.06-.07-.06h-.25c-.05,0-.07,0-.07-.07v-.18s0,0,0,0h.39a.29.29,0,0,1,.29.29v.45Zm-.52.12v0c0,.14,0,.13.14.13a.05.05,0,0,0,.06-.06v-.1c0-.14,0-.13-.14-.13h0a0,0,0,0,0,0,.05h0v.08Z"/><path id="Path_2148" data-name="Path 2148" class="cls-20" d="M84,206.86v.44a.32.32,0,0,1-.29.34h-.38c-.06,0-.07,0-.07-.07v-.19s0-.06.06-.06h.28c.06,0,.08,0,.08-.06s0,0-.08,0h-.18a.31.31,0,0,1-.26-.32v-.49c0-.05,0-.06.07-.06h.18c.06,0,.08,0,.08.07v.41c0,.06,0,.07.08.07s.11,0,.11-.11v-.38c0-.05,0-.06.07-.06H84s.06,0,.06.06Z"/><path id="Path_2149" data-name="Path 2149" class="cls-21" d="M81.65,207.25v.31c0,.06,0,.08-.07.08h-.2a.05.05,0,0,1-.06-.06v-1.19a.05.05,0,0,1,.06-.06h.49a.26.26,0,0,1,.28.26h0a2.67,2.67,0,0,1,0,.4.26.26,0,0,1-.28.25Zm0-.59v.27h.13a.06.06,0,0,0,.06-.05h0v-.16a0,0,0,0,0,0-.05h-.14Z"/><path id="Path_2150" data-name="Path 2150" class="cls-22" d="M84.65,206.33h.11s.07,0,.07.07v.2a.05.05,0,0,1-.06.06h-.12v.91c0,.07,0,.07-.07.07h-.17c-.06,0-.07,0-.07-.07v-.91h-.12s-.06,0-.06-.06v-.21s0-.06,0-.06a.3.3,0,0,0,.27-.14l.1-.1s.07,0,.07,0Z"/></g></g><g id="google_pay_2" data-name="google pay 2"><g id="Layer_1-4" data-name="Layer 1-4"><path id="Path_2184" data-name="Path 2184" class="cls-23" d="M91.28,205.33a1.52,1.52,0,1,1-1.53,1.52A1.52,1.52,0,0,1,91.28,205.33Z"/><path id="Path_2175" data-name="Path 2175" class="cls-24" d="M90.25,206.93l0,.09h-.09a.38.38,0,0,1,0-.33h.08l0,.08a.26.26,0,0,0,0,.15Z"/><path id="Path_2176" data-name="Path 2176" class="cls-25" d="M90.79,206.79a.13.13,0,0,1,0,.06s0,.05,0,.08a.34.34,0,0,1-.13.2h-.1V207a.22.22,0,0,0,.09-.1h-.19v-.14Z"/><path id="Path_2177" data-name="Path 2177" class="cls-26" d="M90.66,207.13h0a.34.34,0,0,1-.49-.06.1.1,0,0,1,0,0l.12-.09a.21.21,0,0,0,.27.12l0,0Z"/><path id="Path_2178" data-name="Path 2178" class="cls-27" d="M90.67,206.58l-.12.09a.21.21,0,0,0-.29.07.08.08,0,0,1,0,0l-.11-.09h0a.36.36,0,0,1,.48-.15l.06,0Z"/><path id="Path_2179" data-name="Path 2179" class="cls-28" d="M90.6,208.22A1.53,1.53,0,0,0,92,205.48a1.87,1.87,0,0,0-.4-.13Z"/><path id="Path_2180" data-name="Path 2180" class="cls-7" d="M91.35,206.55h.15a.22.22,0,0,1,.17.05.13.13,0,0,1,0,.13.17.17,0,0,1,0,.13.26.26,0,0,1-.19.07h-.06v.25h-.08Zm.07.29h.07c.1,0,.16,0,.16-.13s-.06-.12-.15-.12h-.08Z"/><path id="Path_2181" data-name="Path 2181" class="cls-7" d="M92.05,207.16v-.06h0a.17.17,0,0,1-.13.07.14.14,0,0,1-.14-.12h0c0-.11.1-.17.27-.16h0a.11.11,0,0,0-.08-.11h0a.21.21,0,0,0-.12,0l0-.06a.27.27,0,0,1,.15,0,.16.16,0,0,1,.17.18v.16a.41.41,0,0,0,0,.11Zm0-.23c-.09,0-.19,0-.19.1a.08.08,0,0,0,.07.08h0A.1.1,0,0,0,92,207s0,0,0,0Z"/><path id="Path_2182" data-name="Path 2182" class="cls-7" d="M92.27,206.71l.09.27a.32.32,0,0,1,0,.09h0l0-.1.09-.26h.09l-.12.32a.66.66,0,0,1-.16.28.23.23,0,0,1-.1.05l0-.07.07,0a.16.16,0,0,0,.07-.09s0,0,0,0v0l-.16-.41Z"/><path id="Path_2183" data-name="Path 2183" class="cls-29" d="M90.58,208.2a.31.31,0,0,0,.1.05l.94-2.88-.11,0Z"/></g></g></g><rect class="cls-30" x="168.48" y="80.32" width="49.41" height="87.78"/><path class="cls-31" d="M174,64.61C169.14,63,160.5,76.85,155.45,93c-8.79,28.11-17.45,32.74-7.89,37.87,11.85,6.36,12.14-6.17,22.85-29.09C178.79,83.88,184.09,68,174,64.61Z"/><path class="cls-32" d="M157.85,126.3c1.35,4.91-4.83,11.15-19.79,15-17.23,4.39-41.83,11.12-42.83,6.68-1.37-6.06,19.43-13.39,35.28-21.94C146.57,117.34,155.05,116.11,157.85,126.3Z"/><path class="cls-32" d="M169,175.32c-3.58,6.51-3.41,18.25-1.63,33.51,2.42,20.81,9.25,53.95,10.09,56.9,3.86,13.48,17.14,12.92,19.17,2.21.56-3,5.1-62.75,4.36-69.4s-4.37-18.84-9.17-26.22C188.23,166.82,174.32,165.6,169,175.32Z"/><path class="cls-32" d="M199.93,280.89c-.55-20.68-6.28-24.75-13.67-24.74-11.82,0-9.85,22.08-9.67,28.8.18,6.56,9.13,59.85,11.43,68.33h10.36C199.74,338.82,200.38,297.82,199.93,280.89Z"/><path class="cls-32" d="M261.26,354.23c-.45-6.81-11.64-59.82-13.89-66.16s-7.49-30.53-23.44-24.34c-6.88,2.67-8,7.62-1,27.13,5.63,15.88,21.52,53.05,28.34,66.18C254.58,356.48,261.29,354.66,261.26,354.23Z"/><path class="cls-32" d="M229.77,175.79c4.79,5.69,6.93,17.23,8.2,32.54,1.71,20.88.9,52.28.65,55.34-1.13,14-16.81,16.32-20.91,6.22-1.13-2.79-15.15-60.38-15.73-67s-2.26-18.75,1-26.94C205.39,169.81,222.64,167.32,229.77,175.79Z"/><path class="cls-33" d="M171.09,165.67c-2.41,6.28-4.25,12.12-3.41,15.37,2.44,9.47,30.4,17.5,30.4,17.5h1.85v-30.7C189.16,167.84,181.86,165.67,171.09,165.67Z"/><path class="cls-34" d="M213.17,169.15s44.3-25.24,62.32,3.53-1,88.68-1,88.68l-62.59,19.56Z"/><path class="cls-31" d="M234.51,72c-1.91-4.3-11.78-6.2-16.3-7.55s-18.28-1.84-18.28-1.84-21.61,2.16-26.29,2c-2-.07-3.44,7.06-4.2,9.09-4.28,11.41-9.37,24.68,1.35,33.94,2.45,2.11,4.58,26.19,4.58,37.34a59.75,59.75,0,0,1-4.28,20.68c10.77,0,18.07,2.17,28.84,2.17h32.32c-3.33-8.69-6.93-18.28-7.76-22.85C218.21,110.68,237.39,78.53,234.51,72Z"/><path class="cls-33" d="M199.93,167.84v30.7h1.85s31.44-5.86,33.88-15.33c.84-3.25-1-9.09-3.41-15.37Z"/><path class="cls-32" d="M209.81,55.62c-1.39-3.6-1.25-17.17-1.25-17.17H191.3s.14,13.57-1.25,17.17-6.88,8-6.88,8l12.7,5.89,18.33-6.82A27.47,27.47,0,0,1,209.81,55.62Z"/><path class="cls-31" d="M231.09,70.39c4.79-1.84,14,11.66,19.72,27.61,9.95,27.73,17.25,35.28,9.05,39.31-7.43,3.66-12-7.46-23.63-29.91C227.11,89.84,221.15,74.2,231.09,70.39Z"/><path class="cls-32" d="M252.26,135.43c-3.11-3.39,1.17-14.17,11.35-23.44,11.73-10.68,28.28-26.3,30.91-23.15,3.6,4.3-9.71,18.83-18.62,32.29C266.87,134.76,258.7,142.46,252.26,135.43Z"/><path class="cls-35" d="M208.65,45.16c-.12-3.62-.09-6.71-.09-6.71H191.3s.14,13.57-1.25,17.17-8.4,8.86-8.4,8.86l27-19.31Z"/><path class="cls-30" d="M209.07,110.67c-2.86-1.34-9.14-.77-23.92-1.53s-16.83-8.23-19-11.48-.13-13.78,0-14.37c-2.55,8.73-3.14,17.61,4.67,24.36,2.45,2.11,4.58,26.19,4.58,37.34a59.75,59.75,0,0,1-4.28,20.68c6.83,0,12.26.87,18.07,1.51,0,0-.95-8.11-1.9-12.27s0-16.31,3.53-23.2,19.42-12.24,21.14-14.54S211.93,112,209.07,110.67Z"/><path class="cls-32" d="M187.41,32.15c3.09,13.21,16.92,21.27,23.66,19.69,6.56-1.53,12.93-14.41,11.07-28C220.3,10.36,210.33,3.66,200.35,6S184.32,19,187.41,32.15Z"/><path class="cls-35" d="M211.07,51.84a6.75,6.75,0,0,0,1.36-.49C197.82,41.51,198.72,21,202,5.7a15.84,15.84,0,0,0-1.65.29c-10,2.34-16,13-12.94,26.16S204.33,53.42,211.07,51.84Z"/><path class="cls-36" d="M207.57,11.65s.39,5.6,5.24,6.38,9.74,4.43,9.74,4.43,0-13.35-9.62-15.48S207.57,11.65,207.57,11.65Z"/><path class="cls-37" d="M194,11.41S191.47.54,183,3,170.53,16.4,172.33,21.07s1.14,21.73,0,21.54-.8,2.88,1.72,3.42,10.27.33,10.9-8a25.45,25.45,0,0,1,4.82-13.4Z"/><path class="cls-36" d="M211.12,14.53c-1.2,3.84-4.74,6.38-12.82,7.62-5.79.89-9,9.23-8.67,12.42.11,1.23,1.93,7,1.93,7S178.2,30.44,188.3,14.24,212.74,5.79,212.93,7,211.69,12.68,211.12,14.53Z"/><polygon class="cls-38" points="194.34 64.94 195.87 69.46 187.76 66.08 194.34 64.94"/><polygon class="cls-38" points="195.87 69.46 197.53 64.94 202.32 67.2 195.87 69.46"/><path class="cls-39" d="M171.09,165.67s-6.7,7.9-7.65,22.27,11.29,80.37,11.29,80.37l28.51,1.61L241,267s-.88-60.36-2.61-78.39-6.84-22.48-6.84-22.48l-34.29,1.38Z"/><path class="cls-40" d="M195.72,226.86c-2,2.3-1.11,20.32-4.21,23.82-3.29,3.73-8.13,3.16-10.94-3.16s-10.17-51-4.21-66.7c4.21-11.07,12.8-13.64,12.8-13.64l-1.08-.33-17-1.18s-6.7,7.9-7.65,22.27,11.29,80.37,11.29,80.37l28.51,1.61,6.09-.34s-6.72-1.4-7.77-7.61C199.47,249.51,197.45,224.89,195.72,226.86Z"/><path class="cls-32" d="M100.23,141s-12.58-1.81-13.08-2.31-20.33,10.67-19.22,11.37,3.82.6,6.94-.8,17.07,2.87,22.82.73S100.23,141,100.23,141Z"/><path class="cls-32" d="M286.87,92.92s-.13-7.69,4.5-9.47,10.15.76,11.55,1c5.79,1,11.53-3.79,15.09-3.79s4,2.19,2.72,2.62c-7,2.36-10.5,6-13.71,6.62s-14.24,6.34-14.24,6.34Z"/><path class="cls-32" d="M287.7,87.82s2.39-5,5.26-6.5,6.79.22,9.36-.72,2.11.72,2,1.17-3.32,1.57-4.68,2.3S293.77,90.7,287.7,87.82Z"/><path class="cls-41" d="M185.35,62.11,181,64.7s-.57,21.66,0,28.85c.83,10.27,6.57,40.69,6.57,40.69h1.93s-5.36-30.27-5.82-40.48C183.31,85.85,185.35,62.11,185.35,62.11Z"/><polygon class="cls-41" points="187.55 134.24 209.91 61.82 213.68 64.35 189.48 134.24 187.55 134.24"/><path class="cls-42" d="M195.34,144.46l-17.15-2.85a.89.89,0,0,1-.73-1l1.29-9.19a.89.89,0,0,1,1-.75l17.14,2.86a.89.89,0,0,1,.74,1l-1.29,9.19A.89.89,0,0,1,195.34,144.46Z"/><path class="cls-43" d="M212.12,63.41s-6.67,16.16-7,31.3,9,94.86,9,94.86H241s-9.63-49.33-9.63-60.08-.64-22.76-.64-22.76-7.89-3.87-10.74-14.9,5.91-25.15,5.91-25.15Z"/><path class="cls-43" d="M173.64,64.62s-7.26,11.49-9.58,19.84,1.61,21.49,2.07,27.15-6.5,76.7-6.5,76.7l10.54,1.26s3.37-80.52,2.32-84.53S170.38,93.88,171,88.6s10.64-24.12,10.64-24.12Z"/><path class="cls-44" d="M224.49,145c-9.72-39.91-8.59-64.48-3.92-79.58l-8.45-2s-6.67,16.16-7,31.3,9,94.86,9,94.86h15.64C230.45,178.12,229,163.55,224.49,145Z"/><polygon class="cls-30" points="197.53 64.94 202.75 72.76 218.21 64.48 212.62 57.12 197.53 64.94"/><polygon class="cls-30" points="179.37 64.48 186.25 58.26 194.34 64.94 188.52 72.08 179.37 64.48"/><path class="cls-45" d="M403.69,366.84H43.8a6.47,6.47,0,0,1-6.47-6.47V235.62H410.16V360.37A6.47,6.47,0,0,1,403.69,366.84Z"/><rect class="cls-46" x="37.33" y="298.09" width="372.59" height="4.67"/><rect class="cls-46" x="37.33" y="272.17" width="372.59" height="20.38"/><polygon class="cls-47" points="411.91 236.59 260.34 255.93 36.7 255.93 36.7 236.41 411.91 236.59"/><path class="cls-48" d="M431.2,236.86H8.09C3.62,236.86,0,235.4,0,233.6v-8.48c0-1.8,3.62-3.26,8.09-3.26H431.2c4.46,0,8.09,1.46,8.09,3.26v8.48C439.29,235.4,435.66,236.86,431.2,236.86Z"/><path class="cls-49" d="M347.48,176.48c0-1.21-6.88-16.3-6.88-16.3l6.11,4.29-2.17-13.55,3.7,12.16L346.8,146l8.28.2-2.16,18.44,3.36-11.91,4.08,2.17-4,25.67Z"/><path class="cls-50" d="M341.68,173.72c-1.47-9.84-11.91-9.24-19.25-12.8-.92-.45,7.46,12,15.07,16.26S341.68,173.72,341.68,173.72Z"/><path class="cls-50" d="M335.46,166.05c-1-3.59-5.51-12.85.53-18.65,5.68,5,6.23,13.81,3.91,19.33S335.46,166.05,335.46,166.05Z"/><polygon class="cls-51" points="313.36 222.26 318.15 172.13 372.43 172.19 377.36 222.89 313.36 222.26"/><path class="cls-52" d="M329,180.58c-1.61,12,15.86,19.43,18,0"/><circle cx="347.02" cy="180.52" r="1.25"/><circle cx="329.01" cy="180.58" r="1.25"/><path class="cls-35" d="M390.79,132c2.75,2.05,14.78,7.67,17,9s9.14-.48,9.14-.48l2.21,13.83-10.76-.38s-13.19,1.16-22.93-5C382.79,147.28,390.79,132,390.79,132Z"/><path class="cls-31" d="M392.19,147.7c-.65,5.37-5.66,13-11.31,17-4.77,3.37-11.33,20.33,4.66,23.33s35.87.08,29-16c-4.49-10.5-12-7.5-15.94-27.84-.78-4,20.21-37.79,20.21-37.79L392,104.05Z"/><path class="cls-30" d="M391.86,147.53c-.66,5.37-5.61,13.11-11.32,17-6.37,4.37-11.33,20.32,4.66,23.32a59.24,59.24,0,0,0,10,1,5.08,5.08,0,0,0-1-1c-16.41-9.82-1.76-25.2.09-27.82,3.87-5.5,2-9.75,2-16.25,0-5.74,4-24.58,8.8-38.57L389,102.86Z"/><path class="cls-35" d="M388.16,132.14c4.5,1.27,8.61,4.23,7,5.82s-8,0-9.29-2.08S388.16,132.14,388.16,132.14Z"/><path class="cls-35" d="M387.4,136.32a1.86,1.86,0,0,0-1.32,2.71c.51,1.26,4.13,4.55,5.24,5.07s7.69,2.88,8.48,2.08,1.29-2.12-1.2-4.08a35.06,35.06,0,0,0-5.52-3.81C392.42,138.05,387.4,136.32,387.4,136.32Z"/><path class="cls-35" d="M386.08,139c-1.13,1.07-1.09,3.65-.81,4.78-1.12,1.07-1.75,2.62-.66,3.75a32.94,32.94,0,0,0,3.05,2.63s4,1.79,4.87,1.18l.85-.61s2.77-.09,3.32-.23,2.5-2,.15-3.42-6.51-3.76-7-4.23S386.08,139,386.08,139Z"/><path class="cls-53" d="M454.84,83.64c-6.32,6.67-16.65,41.81-20,44.15s-24.6,11.91-24.6,11.91,7.49,22.58,6.15,26.9c4.34-.33,34.33-17.65,37.67-20s-1.74-32-1.74-32Z"/><path class="cls-54" d="M454.84,83.64c-6.32,6.67-16.65,41.81-20,44.15s-24.6,11.91-24.6,11.91,7.49,22.58,6.15,26.9c4.34-.33,34.33-17.65,37.67-20s-1.74-32-1.74-32Z"/><path class="cls-32" d="M487.33,46.07c-1.32,4.57-4,9.91-2.23,17l1.72,7-24.36.25s3.21-10.29.92-15.24S487.33,46.07,487.33,46.07Z"/><path class="cls-32" d="M457.28,10.14c8.87-10,40.09-6.88,37.25,13.28-5.14,36.73-28.48,35-28.48,35-7.35-2.34-9.46-2.06-14.21-5.75-2.31-1.78-3.57-21.1-2.53-22.55C450.56,21.88,453.07,14.82,457.28,10.14Z"/><path class="cls-35" d="M464.06,58.05c-5.81-1.71-7.95-1.81-12.24-5.14-2.31-1.78-3.57-21.1-2.53-22.56,1.25-8.21,3.76-15.28,8-20A11.69,11.69,0,0,1,458.75,9l3.61,2c-4.56,13.46-11,33.56,6.74,42.88l3.21,16.58-9.87.1S464.7,63.3,464.06,58.05Z"/><path class="cls-55" d="M495,12.54c-1.65-4.14-6.91-10-16.42-11.79C469.39-1,465.81.25,458.54,5.36c-3.72,2.59-4.94,9.49-4.94,9.49s3.69,0,5.77,1,5.34.36,7.44,5.05a21.2,21.2,0,0,1,1.68,8.11s8.73,5.33,8.29,8.43S485,51.25,485,51.25s9.62-10.5,12.66-17.14C504.8,18.6,495.41,13.54,495,12.54Z"/><path class="cls-56" d="M466.62,20.87c-2.1-4.69-5.35-4-7.43-5.05s-8.26.41-8.26.41-2.24-6.92,1.51-9.53c7.27-5.1,16.76-7.79,26-6a25.49,25.49,0,0,1,9.26,3.65c-4.75.72-14.21,3.9-17.8,25.57-2.22-1.83-1.61-.93-1.61-.93A20.73,20.73,0,0,0,466.62,20.87Z"/><path class="cls-32" d="M471.42,32.27c1.93-.81,5.83-3.66,7-1.29s.15,11.7-4.3,13.06S471.42,32.27,471.42,32.27Z"/><path class="cls-57" d="M490.52,353.06c-1.82,5.49-.29,11.3.63,18.62s2.74,12.82-4.6,14.65-43.63,1.83-43.63,1.83-6.72-8.55,9.77-11c12.8-1.89,19.22-13.43,18.61-24.11C471.16,350.32,490.52,353.06,490.52,353.06Z"/><path class="cls-34" d="M445.68,189.6c1.14,25,7,93.78,8.67,97,7.94,15.3,10,81,10,81l22.43.49s6.81-57.89-1.14-81.71c-2.4-7.23,6.81-78.88,6.81-78.88Z"/><path class="cls-58" d="M502,359.88c-1.84,5.49-.3,11.29.62,18.61s2.73,12.82-4.58,14.65S454.43,395,454.43,395s-6.71-8.54,9.77-11c12.8-1.89,19.22-13.42,18.62-24.1C482.65,357.13,502,359.88,502,359.88Z"/><path class="cls-39" d="M455.34,191.1c1.15,25,9.33,97.28,11,100.46,7.93,15.32,8,84.47,8,84.47l29-.5s5-63.14-3-87c-1.51-4.53,1.79-44.77,3.5-77a90,90,0,0,0-5.49-35Z"/><path class="cls-34" d="M494.35,217.69c-28.53,6.74-23.25-18-23.25-18s-.34,5.74,7.82,11.59C488.83,218.35,494.35,217.69,494.35,217.69Z"/><g class="cls-59"><g id="_Group_" data-name="&lt;Group&gt;"><g id="_Group_2" data-name="&lt;Group&gt;"><rect id="_Rectangle_" data-name="&lt;Rectangle&gt;" class="cls-60" x="473.63" y="200.5" width="14.73" height="24.47" rx="1.52" ry="1.52" transform="translate(67.57 -112.36) rotate(14.32)"/><rect id="_Rectangle_2" data-name="&lt;Rectangle&gt;" class="cls-61" x="473.81" y="200.63" width="14.4" height="24.18" rx="1.5" ry="1.5" transform="translate(67.56 -112.37) rotate(14.32)"/><rect id="_Rectangle_3" data-name="&lt;Rectangle&gt;" class="cls-62" x="474.48" y="203.27" width="13.08" height="18.89" transform="translate(67.56 -112.37) rotate(14.32)"/><polyline class="cls-63" points="485.64 221.03 489.69 205.18 477.02 201.95 476.5 204.01"/><g id="_Group_3" data-name="&lt;Group&gt;"><path class="cls-64" d="M484.52,202.58l-1.72-.44c-.07,0-.11-.07-.1-.12h0a.12.12,0,0,1,.14-.07l1.73.44a.12.12,0,0,1,.09.13h0S484.59,202.6,484.52,202.58Z"/><g class="cls-65"><path class="cls-66" d="M484.52,202.58l-1.72-.44c-.07,0-.11-.07-.1-.12a.12.12,0,0,1,.14-.07l1.73.44c.06,0,.11.07.09.13S484.59,202.6,484.52,202.58Zm-1.68-.63a.13.13,0,0,0-.14.07s0,.1.1.12l1.72.44c.07,0,.13,0,.14-.06a.12.12,0,0,0-.09-.13Z"/></g></g></g><g id="_Group_4" data-name="&lt;Group&gt;"><g id="_Group_5" data-name="&lt;Group&gt;"><g id="_Group_6" data-name="&lt;Group&gt;"><path class="cls-67" d="M477.28,222.85l-.15.58a.28.28,0,0,0,.23.32l1.38.35a.29.29,0,0,0,.37-.17l.14-.58Z"/><path class="cls-68" d="M478.74,224.1l-1.38-.35a.28.28,0,0,1-.23-.32l.14-.58,2,.5-.15.58A.29.29,0,0,1,478.74,224.1Zm-1.46-1.25-.15.58c0,.13.07.27.23.32l1.38.35a.28.28,0,0,0,.36-.17l.15-.58Z"/></g><g id="_Group_7" data-name="&lt;Group&gt;"><path class="cls-69" d="M479.25,223.37l.14-.56a.28.28,0,0,0-.23-.32l-1.38-.35a.3.3,0,0,0-.37.16l-.14.56Z"/><path class="cls-70" d="M479.25,223.37l-2-.51.14-.56a.29.29,0,0,1,.37-.16l1.38.35a.28.28,0,0,1,.23.32Zm-2-.51,2,.5.14-.55a.28.28,0,0,0-.23-.32l-1.39-.35a.27.27,0,0,0-.35.17Z"/></g></g><rect id="_Rectangle_4" data-name="&lt;Rectangle&gt;" class="cls-71" x="477.28" y="222.32" width="1.96" height="1.6" rx="0.27" ry="0.27" transform="translate(70.05 -111.36) rotate(14.32)"/></g></g></g><path class="cls-72" d="M501,167.61c0-6,4.08-13,2.67-30-.85-10.22-2.21-13.54-2.21-39.64s-7.17-27.32-16.11-35.83c0,0-15.38,5.18-21,10.86-1.58,1.56-5.16,3.78-6.81,6-4.32,5.64-9.88,13.5-12.34,29.9-3.41,22.7-1.13,86.06-1.13,86.06,40,5.33,24.93,1.54,55.31-1.33C509.35,192.66,501,167.61,501,167.61Z"/><polygon class="cls-73" points="445.3 106.36 442.85 160.37 492.89 90.31 488.43 78.96 474.42 64.96 451.3 84.94 445.3 106.36"/><path class="cls-74" d="M487,62.4,485.42,55s-13.89,8-15.54,9.24c-4.4,3.33-10.57,7.87-11,8.77s6.08,3.15,6.08,3.15,9.46-8.32,14.19-10.58A56.93,56.93,0,0,1,487,62.4Z"/><path class="cls-74" d="M461.11,74.32a50.87,50.87,0,0,1-7.65,1.13S448.19,91.89,448,94.37,467.72,73,467.72,73Z"/><g class="cls-75"><path class="cls-39" d="M487,62.4,485.42,55s-13.89,8-15.54,9.24c-4.4,3.33-10.57,7.87-11,8.77s6.08,3.15,6.08,3.15,9.46-8.32,14.19-10.58A56.93,56.93,0,0,1,487,62.4Z"/><path class="cls-39" d="M461.11,74.32a50.87,50.87,0,0,1-7.65,1.13S448.19,91.89,448,94.37,467.72,73,467.72,73Z"/></g><rect class="cls-76" x="373.48" y="239.52" width="6.63" height="3.98" rx="0.52" ry="0.52" transform="translate(209.45 -173.58) rotate(35.38)"/><rect class="cls-77" x="373.9" y="238.19" width="2.05" height="3.98" rx="0.52" ry="0.52" transform="translate(208.33 -172.74) rotate(35.38)"/><path class="cls-78" d="M376.53,247.16l.81-1.13.8-1.13-2.5-1.77-2.49-1.77-.8,1.13-.81,1.13a2.72,2.72,0,0,1-1.19.9c-.47.2-1,.34-1.51.51a23.73,23.73,0,0,0-4.63,2.08l-.22.14a10,10,0,0,0-3.91,4.71l-.94,2.24a13.56,13.56,0,0,1-2.13,3.49l-12.94,16a1.77,1.77,0,0,0-.28,1.37,2,2,0,0,0,.82,1.22l5,3.55,5,3.54a2,2,0,0,0,1.42.36,1.73,1.73,0,0,0,1.2-.7l10.84-17.49a13.33,13.33,0,0,1,2.59-3.16l1.79-1.61a10,10,0,0,0,3.17-5.26c0-.07,0-.15,0-.23a23.88,23.88,0,0,0,.45-5.09c0-.54,0-1.08,0-1.59A2.78,2.78,0,0,1,376.53,247.16Z"/><path class="cls-78" d="M372.18,242.7h7.05a.28.28,0,0,1,.28.28v0a.27.27,0,0,1-.27.27h-7.05a.27.27,0,0,1-.27-.27v0A.28.28,0,0,1,372.18,242.7Z" transform="translate(210.11 -172.67) rotate(35.38)"/><path class="cls-51" d="M361.2,250.78a32.07,32.07,0,0,0-1.37,3.46,13.58,13.58,0,0,1-2.18,3.59L344.88,273.6a1.71,1.71,0,0,0-.3,1.32,1.82,1.82,0,0,0,.73,1.16l4.62,3.27,4.61,3.28a1.83,1.83,0,0,0,1.33.31,1.73,1.73,0,0,0,1.15-.72L367.7,265a13.66,13.66,0,0,1,2.68-3.24,32.38,32.38,0,0,0,2.78-2.41,9.82,9.82,0,0,0,1.52-2.59,17,17,0,0,0,.68-2.64l-5-3.54-5-3.55a18.21,18.21,0,0,0-2.26,1.53A9.59,9.59,0,0,0,361.2,250.78Z"/><polygon class="cls-79" points="357.78 256.68 349.97 266.43 362.12 275.05 368.74 264.47 357.78 256.68"/><path class="cls-80" d="M369.11,253.17c-.94,2.12-.54,4.4.9,5.08s3.36-.49,4.29-2.62.54-4.4-.9-5.08S370.05,251,369.11,253.17Z"/><path class="cls-76" d="M366.8,234.36c1.61,1.69,3.77,4.21,2.87,9.43-1.22,7.06-9.18,12.69-14,12.42-4.05-.22-11.41-5.87-12.43-13-.63-4.42.9-8.17,4.11-10,2.28-1.29,6.16-.29,8.86.79C357.85,234.74,364.33,231.77,366.8,234.36Z"/><path class="cls-76" d="M366.8,234.36c1.61,1.69,3.77,4.21,2.87,9.43-1.22,7.06-9.18,12.69-14,12.42-4.05-.22-11.41-5.87-12.43-13-.63-4.42.9-8.17,4.11-10,2.28-1.29,6.16-.29,8.86.79C357.85,234.74,364.33,231.77,366.8,234.36Z"/><path class="cls-76" d="M364.75,233.38a16.76,16.76,0,0,0-5.46.46,3.82,3.82,0,0,1,.36.13C360.5,234.31,362.58,233.72,364.75,233.38Z"/><path class="cls-77" d="M346.69,243.15c-.63-4.42.89-8.17,4.1-10a4,4,0,0,1,.9-.37,7,7,0,0,0-4.38.47c-3.21,1.8-4.74,5.55-4.11,10,1,7.09,8.38,12.74,12.43,13a8.23,8.23,0,0,0,2.39-.28C353.87,254.92,347.62,249.64,346.69,243.15Z"/><path class="cls-76" d="M359.29,233.84c-2.33-.9-5.4-1.67-7.6-1a20.46,20.46,0,0,1,4.48,1.26A7.37,7.37,0,0,0,359.29,233.84Z"/><path class="cls-81" d="M359,235.92c0-2.52,3.6-16.2,6.13-16.2h2.51Z"/><path class="cls-49" d="M360.94,227.05c-1.08-2.53-6.13-9.36-10.45-9.36C349.41,223.09,360.94,227.05,360.94,227.05Z"/><path class="cls-51" d="M329.47,264.61c7.16-19.31-8.58-28.6-23.59-27.18s-28.6,7.15-36.47,27.18c-.71,6.42,4.3,5,4.3,5l10-9.29S274.42,272.46,273,276s7.15,2.86,7.15,2.86l3.58-5s-3.58,6.44-3.58,8.59,5.72,2.14,5.72,2.14Z"/><path class="cls-79" d="M325,243.15c-14.55,1.43-39.8,13.94-47.67,26.1,2.14-7.86,27.77-25.74,39.56-26.1S325,243.15,325,243.15Z"/><path class="cls-79" d="M330.91,253.17c-4.06,0-33.37,1.9-48.14,21.92.47.24,24.3-20.74,47.9-20.74C332.57,254.59,330.91,253.17,330.91,253.17Z"/><path class="cls-72" d="M327.56,252.83c-2.14,2.24-5,5.58-3.81,12.49,1.62,9.33,12.16,16.8,18.59,16.44,5.36-.3,15.11-7.78,16.45-17.15.83-5.87-1.18-10.82-5.44-13.21-3-1.7-8.15-.38-11.72,1C339.41,253.34,330.83,249.4,327.56,252.83Z"/><path class="cls-82" d="M327.89,265c-1.19-6.91,1.67-10.25,3.8-12.49a4.27,4.27,0,0,1,1.66-1c-2.28-.21-4.47,0-5.79,1.35-2.14,2.24-5,5.58-3.81,12.49,1.62,9.33,12.16,16.8,18.59,16.44a9,9,0,0,0,2.2-.44C338.12,280.35,329.35,273.45,327.89,265Z"/><path class="cls-81" d="M341.87,255.07c0-3.34-4.77-21.45-8.11-21.45h-3.33Z"/><path class="cls-49" d="M337.58,243.15c1.43-3.34,8.1-12.39,13.82-12.39C352.83,237.91,337.58,243.15,337.58,243.15Z"/><polygon class="cls-39" points="376.01 211.16 384.3 178.49 392.89 172.08 395.46 175.52 388.08 181.01 380.17 212.22 376.01 211.16 376.01 211.16"/><path class="cls-39" d="M392.38,180.31l12.34-7.73a2.88,2.88,0,0,0,.92-4l-1.15-1.83a2.87,2.87,0,0,0-4-.91l-12.34,7.73Z"/><path class="cls-83" d="M345.48,376.06a13.82,13.82,0,1,0,13.29-14.33A13.82,13.82,0,0,0,345.48,376.06Z"/><path class="cls-84" d="M351.16,375.85a8.13,8.13,0,1,0,7.82-8.43A8.13,8.13,0,0,0,351.16,375.85Z"/><polygon class="cls-83" points="361.82 374.85 352.8 358.38 340.93 359.78 356.29 375.24 361.82 374.85"/><path class="cls-84" d="M337.18,356.82a3.58,3.58,0,0,0,3.71,3.44L353,359.8a3.57,3.57,0,0,0,3.44-3.7h0a3.57,3.57,0,0,0-3.7-3.44l-12.15.45a3.59,3.59,0,0,0-3.44,3.71Z"/><path class="cls-83" d="M286.54,376.06a13.82,13.82,0,1,0,13.29-14.33A13.82,13.82,0,0,0,286.54,376.06Z"/><path class="cls-84" d="M292.22,375.85a8.13,8.13,0,1,0,7.82-8.43A8.13,8.13,0,0,0,292.22,375.85Z"/><polygon class="cls-83" points="302.88 374.85 293.86 358.38 281.99 359.78 297.35 375.24 302.88 374.85"/><path class="cls-84" d="M278.24,356.82a3.59,3.59,0,0,0,3.71,3.44l12.14-.46a3.57,3.57,0,0,0,3.44-3.7h0a3.56,3.56,0,0,0-3.7-3.44l-12.15.45a3.58,3.58,0,0,0-3.44,3.71Z"/><path class="cls-39" d="M388.58,214.31a2.76,2.76,0,0,1-2.1-3.29h0l5.66-25.69a2.74,2.74,0,0,1,1.22-1.73h0l16.52-10.4h0a2.73,2.73,0,0,1,3.79.86h0a2.75,2.75,0,0,1-.87,3.8h0l-15.53,9.78-5.41,24.56a2.76,2.76,0,0,1-2.7,2.16h0a2.86,2.86,0,0,1-.58-.06Z"/><path class="cls-39" d="M404.1,184.81l12.79-7a2.87,2.87,0,0,0,1.15-3.9l-1-1.9a2.87,2.87,0,0,0-3.91-1.14l-12.78,7Z"/><path class="cls-35" d="M429.48,158.15c-2.31,1.92-9.48,6.66-9.48,6.66l-11.66-.51s-9.22,10.37-10.76,13.45c0,0-2.31,4.23,3.84,2.69s8.55-6.45,11.15-6.91,8.18,3.74,10.25,3.58C432.81,176.34,441,164,441,164Z"/><path class="cls-84" d="M357.92,351.47,275,350.76a2.75,2.75,0,0,1-2.73-2.78h0a2.76,2.76,0,0,1,2.78-2.73h0l80.66.7,12.08-60.68a2.74,2.74,0,0,1,3.23-2.16h0a2.75,2.75,0,0,1,2.16,3.24h0l-12.52,62.91a2.73,2.73,0,0,1-2.69,2.21h0Z"/><path class="cls-85" d="M328.61,259.36c-1.9-4.31,1.07-4.88.84-11.68s-3.19-9.66-4.54-12.43a17.83,17.83,0,0,1-1.18-7h-7.59a17.72,17.72,0,0,1-1.19,7c-1.34,2.77-4.32,5.64-4.54,12.43s2.75,7.37.84,11.68-2.52,7.46-1.52,14.69,4.56,8.53,7.35,9.05a15.52,15.52,0,0,0,3.26.18,12.44,12.44,0,0,0,2.43-.18c2.81-.52,6.35-1.79,7.36-9.05S330.52,263.67,328.61,259.36Z"/><path class="cls-42" d="M311.25,259.36a20.79,20.79,0,0,0-1.88,6.65h21.12a20.29,20.29,0,0,0-1.88-6.65c-1.9-4.31,1.07-4.88.84-11.68v-.09h-19v.09C310.2,254.48,313.16,255.05,311.25,259.36Z"/><path class="cls-42" d="M315.34,226.69v2.86a.19.19,0,0,1,0,.06c0,.81,2.07,1.45,4.63,1.45s4.64-.64,4.64-1.45v-2.92Z"/><path class="cls-86" d="M324.57,226.69c0,.81-2.07,1.44-4.64,1.44s-4.63-.63-4.63-1.44,2.07-1.42,4.63-1.42S324.57,225.91,324.57,226.69Z"/><path class="cls-87" d="M265.31,287.33l-4.12-62.23a2.75,2.75,0,0,1,2.45-2.92h0l125.23-13.3a2.76,2.76,0,0,1,2.37.92h0a2.8,2.8,0,0,1,.61,2.47h0L373.49,287.5a2.74,2.74,0,0,1-2.66,2.09h0l-102.76.31h0a2.76,2.76,0,0,1-2.75-2.57Zm1.55-59.95,3.78,57,98-.3,16.9-69.32-118.7,12.61Z"/><path class="cls-87" d="M356.46,287.29a.92.92,0,0,1-.77-1h0l11-72.49a.91.91,0,0,1,1.05-.76h0a.9.9,0,0,1,.76,1h0l-11,72.48a.91.91,0,0,1-.9.78h-.15Z"/><path class="cls-87" d="M338.6,287.3a.92.92,0,0,1-.8-1h0l8.26-70.64a.91.91,0,0,1,1-.81h0a.92.92,0,0,1,.8,1h0l-8.25,70.64a.91.91,0,0,1-.92.81h-.1Z"/><path class="cls-87" d="M321.24,286.84a.92.92,0,0,1-.88-.95h0l2.75-67a.92.92,0,0,1,1-.87h0a.91.91,0,0,1,.88,1h0l-2.75,67a.92.92,0,0,1-.92.88h0Z"/><path class="cls-87" d="M303.83,288.22a.9.9,0,0,1-.9-.92h0l.45-66.52a.92.92,0,0,1,.93-.91h0a.91.91,0,0,1,.91.92h0l-.46,66.52a.91.91,0,0,1-.91.91h0Z"/><path class="cls-87" d="M285,285.52l-3.21-61.47a.92.92,0,0,1,.87-1h0a.92.92,0,0,1,1,.87h0l3.21,61.47a.92.92,0,0,1-.87,1H286a.92.92,0,0,1-.91-.87Z"/><path class="cls-87" d="M264.85,237.76a.91.91,0,0,1-.91-.92h0a.92.92,0,0,1,.91-.92H383.21a.92.92,0,0,1,.91.92h0a.92.92,0,0,1-.91.92H264.85Z"/><path class="cls-87" d="M265.77,254.28a.92.92,0,0,1-.92-.92h0a.92.92,0,0,1,.92-.92H378.61a.93.93,0,0,1,.93.92h0a.93.93,0,0,1-.93.92H265.77Z"/><path class="cls-87" d="M266.23,272.17a.93.93,0,0,1-.92-.92h0a.92.92,0,0,1,.92-.92H374a.92.92,0,0,1,.92.92h0a.92.92,0,0,1-.92.92H266.23Z"/><path class="cls-84" d="M273.44,351.67a2.76,2.76,0,0,1-2.76-2.75h0a2.75,2.75,0,0,1,2.76-2.76h84.5a2.75,2.75,0,0,1,2.76,2.76h0a2.76,2.76,0,0,1-2.76,2.75h-84.5Z"/><polygon class="cls-88" points="484.82 127.78 462.15 196.97 444.01 194.93 443.06 154.3 485.59 90.25 484.82 127.78"/><path class="cls-72" d="M475.85,82.57C487,73,493.28,81.11,493.28,90.25S484.82,135,475.6,144.7c0,0-33.86,40.72-38.44,38.43a33.07,33.07,0,0,0-12.68-21.52l28.83-33.44Z"/><path class="cls-50" d="M21.78,346.16s-27.3-29-15.48-32S21.78,346.16,21.78,346.16Z"/><path class="cls-89" d="M10.3,322.33s.44,10.6,17.92,33.47"/><path class="cls-49" d="M16.75,349.53s7.58-66.72,24.33-54.77S16.75,349.53,16.75,349.53Z"/><path class="cls-90" d="M40.62,294.93s-2.48.05-1.86-.86-1.13-3.27-.06-2.85,1.56,2.21,2.29.63,1.21-2.36,2-.91-1.21,1.8-.11,2.83,2.57,1.37,1.47,2.19-3.13-.27-3.57.18S40.62,294.93,40.62,294.93Z"/><path class="cls-90" d="M7.17,314.87s-.23,1.4-.68,1-2,.3-1.62-.26,1.41-.65.6-1.23-1.22-.93-.31-1.22.89.86,1.59.35,1-1.31,1.39-.6-.48,1.74-.27,2S7.17,314.87,7.17,314.87Z"/><path class="cls-50" d="M37.11,303.91s-8.7,7.17-16.87,36.64"/><path class="cls-30" d="M34.69,342l-.14,1.08-.18,1.54-.08.64-.19,1.53-.08.64L33.84,349l-2.13,17.44c-.19,1.56-2.73,2.77-5.8,2.77h-11c-3.07,0-5.59-1.21-5.8-2.77L6.93,349l-.19-1.54-.08-.64-.19-1.53-.08-.64-.18-1.53L6.07,342c-.1-.86,1.29-1.6,3-1.6H31.69C33.42,340.38,34.8,341.12,34.69,342Z"/><polygon class="cls-91" points="34.55 343.07 34.37 344.61 6.39 344.61 6.21 343.07 34.55 343.07"/><polygon class="cls-91" points="34.02 347.42 33.84 348.95 6.93 348.95 6.74 347.42 34.02 347.42"/><path class="cls-7" d="M316.3,243.29a1.17,1.17,0,0,1-2.34,0,1.17,1.17,0,1,1,2.34,0Z"/><path class="cls-7" d="M316.63,240.43a.7.7,0,1,1-1.4,0,.7.7,0,1,1,1.4,0Z"/></g></g></g></g></svg>