<svg xmlns="http://www.w3.org/2000/svg" xmlns:xlink="http://www.w3.org/1999/xlink" viewBox="0 0 166.06 188.53"><defs><style>.cls-1{fill:#0d7bff;opacity:0.04;}.cls-1,.cls-13,.cls-14,.cls-23,.cls-24,.cls-29,.cls-32{isolation:isolate;}.cls-2{fill:#262262;}.cls-3{fill:url(#linear-gradient);}.cls-4{fill:url(#linear-gradient-2);}.cls-5{fill:url(#linear-gradient-3);}.cls-6{fill:#1934bf;}.cls-7{fill:#1c2a72;}.cls-8{fill:#424143;}.cls-9{fill:#f37922;}.cls-10{fill:#048e47;}.cls-11{fill:#434244;}.cls-12,.cls-22{fill:none;}.cls-12{stroke:#00a79d;stroke-width:0.31px;}.cls-14{font-size:5.36px;fill:#070e4f;}.cls-14,.cls-24,.cls-29,.cls-32{font-family:Muli-SemiBold, Muli;font-weight:700;}.cls-15{letter-spacing:0em;}.cls-16{letter-spacing:-0.01em;}.cls-17{letter-spacing:-0.01em;}.cls-18{letter-spacing:-0.01em;}.cls-19{letter-spacing:0em;}.cls-20{fill:#027bce;}.cls-21{fill:#9db3c2;}.cls-22{stroke:#027bce;stroke-miterlimit:10;stroke-width:0.23px;}.cls-23{opacity:0.46;}.cls-24{font-size:3.78px;}.cls-24,.cls-29,.cls-46,.cls-52{fill:#fff;}.cls-25{letter-spacing:-0.02em;}.cls-26{letter-spacing:-0.01em;}.cls-27{letter-spacing:0em;}.cls-28{letter-spacing:-0.01em;}.cls-29{font-size:6.3px;}.cls-30{letter-spacing:-0.02em;}.cls-31{letter-spacing:-0.01em;}.cls-32{font-size:5.04px;fill:#86a0bc;letter-spacing:-0.08em;}.cls-33{letter-spacing:0em;}.cls-34{letter-spacing:-0.01em;}.cls-35{fill:#673ab7;}.cls-36{fill:#5b22b1;}.cls-37{fill:#602eb3;}.cls-38{fill:#683ab7;}.cls-39{fill:#048a3e;}.cls-40{fill:#fc7a0a;}.cls-41{fill:#01baf1;}.cls-42{fill:#063070;}.cls-43{fill:#073070;}.cls-44{fill:#052f6f;}.cls-45{fill:#01b9f1;}.cls-46{stroke:#f2f2f2;stroke-width:0.06px;}.cls-47{fill:#fbbb00;}.cls-48{fill:#518ef8;}.cls-49{fill:#28b446;}.cls-50{fill:#f14336;}.cls-51{fill:#5792f1;}.cls-53{fill:#4c8cec;}.cls-54{fill:#e0714d;}</style><linearGradient id="linear-gradient" x1="14.15" y1="183.87" x2="146.61" y2="183.87" gradientUnits="userSpaceOnUse"><stop offset="0" stop-color="#e6e7e8"/><stop offset="0.47" stop-color="#fff"/><stop offset="0.55" stop-color="#fff"/><stop offset="1" stop-color="#e6e7e8"/></linearGradient><linearGradient id="linear-gradient-2" x1="66.93" y1="-23.35" x2="93.21" y2="235.55" gradientUnits="userSpaceOnUse"><stop offset="0.11" stop-color="#5d5a8a"/><stop offset="1" stop-color="#262262"/></linearGradient><linearGradient id="linear-gradient-3" x1="-23.81" y1="-49.33" x2="181.71" y2="234.06" gradientUnits="userSpaceOnUse"><stop offset="0" stop-color="#e8f7ff"/><stop offset="0.25" stop-color="#fff"/><stop offset="0.75" stop-color="#fff"/><stop offset="1" stop-color="#d1d3d4"/></linearGradient></defs><title>Qr sticker</title><g id="Layer_2" data-name="Layer 2"><g id="New_test" data-name="New test"><path class="cls-1" d="M21.48,118.09c-4.3-26.8-55.54-63.57,17.43-102.91S101.43,40,113.65,57.67c9.08,13.14,38,15.33,50.16,39.59S137.24,163,95.35,174.47C56.29,185.19,29,165.17,21.48,118.09Z"/><g id="iPhone_X_XS_1" data-name="iPhone X XS 1"><polygon class="cls-2" points="32.45 188.42 14.15 181.4 14.15 179.94 137.3 180.67 145.15 188.53 32.45 188.42"/><polygon class="cls-3" points="33.91 187.69 14.15 179.94 138.76 179.94 146.61 187.8 33.91 187.69"/><path class="cls-4" d="M12.69,2.23,13.87,0,125.5.41l19.76,188H33.38a1,1,0,0,1-1-.92Z"/><path class="cls-5" d="M15.93.41H125.52a1.6,1.6,0,0,1,1.59,1.43l19.42,184.81a1.6,1.6,0,0,1-1.59,1.77H35.35A1.61,1.61,0,0,1,33.76,187L14.34,2.18A1.6,1.6,0,0,1,15.93.41Z"/><path id="Rectangle_1" data-name="Rectangle 1" class="cls-6" d="M14.15.41H126.2a.85.85,0,0,1,.84.76l.18,1.75H14.42Z"/><path id="Rectangle_2" data-name="Rectangle 2" class="cls-7" d="M32.27,172.75h112.8l1.48,14.06a1.46,1.46,0,0,1-1.45,1.61H35.23a1.45,1.45,0,0,1-1.45-1.31Z"/><g id="Bhim2"><g id="Layer_1-2" data-name="Layer 1"><g id="Bhim"><path id="Path_1" data-name="Path 1" class="cls-8" d="M29.93,10.07c.36.13.38.38.33.66-.09.5-.17,1-.27,1.49a.65.65,0,0,1-.68.59h-6l.37-2.12c.18-1.08.37-2.13.56-3.21a.25.25,0,0,1,.2-.17h5.79c.42,0,.6.19.53.6s-.17,1-.26,1.55A.71.71,0,0,1,29.93,10.07Zm-5.35,1.65.08,0h3.81a.63.63,0,0,0,.62-.73h0a.41.41,0,0,0-.36-.39H24.91a.13.13,0,0,0-.13.08C24.69,11,24.64,11.38,24.58,11.72ZM25,9.5l.09,0h3.81a.64.64,0,0,0,.59-.76v0a.35.35,0,0,0-.33-.33H25.27a.14.14,0,0,0-.13.09C25.08,8.82,25,9.16,25,9.5Z"/><path id="Path_2" data-name="Path 2" class="cls-8" d="M39.76,12.8c.31-1.83.62-3.63.93-5.49l2.74,3.86,4.1-3.82c0,.16,0,.25,0,.34-.28,1.65-.57,3.29-.86,4.94a.25.25,0,0,1-.19.17h-.91c.14-.85.28-1.69.42-2.51l-.05,0-2.52,2.56-2-3c-.08.48-.16.92-.24,1.37s-.16,1-.25,1.45a.19.19,0,0,1-.12.14Z"/><path id="Path_3" data-name="Path 3" class="cls-8" d="M36.1,12.8l.38-2.19H32.26a.2.2,0,0,0-.17.14c-.11.62-.21,1.25-.33,1.88a.34.34,0,0,1-.2.17h-.91c.13-.78.26-1.54.38-2.3.18-1,.35-2,.54-3a.19.19,0,0,1,.17-.16h.94L32.3,9.5h4.18a.25.25,0,0,0,.2-.17c.12-.62.22-1.25.34-1.88a.19.19,0,0,1,.17-.14h.93c-.11.62-.21,1.21-.31,1.82l-.57,3.49c0,.13-.07.19-.22.18C36.71,12.79,36.42,12.8,36.1,12.8Z"/><path id="Path_4" data-name="Path 4" class="cls-8" d="M40,7.34c-.27,1.56-.53,3.1-.8,4.64,0,.21-.08.42-.1.63s-.09.22-.26.21-.56,0-.87,0c.08-.47.15-.92.23-1.37.21-1.3.45-2.6.67-3.9a.23.23,0,0,1,.23-.23h0C39.37,7.35,39.64,7.34,40,7.34Z"/><path id="Path_5" data-name="Path 5" class="cls-9" d="M48.58,11.83l-.9.94,0,0c.31-1.78.61-3.55.92-5.37l.63,1,.91,1.51c.13.21.13.23,0,.4Z"/><path id="Path_6" data-name="Path 6" class="cls-10" d="M48.58,11.83l1.48-1.57c.16-.17.16-.18,0-.4-.31-.5-.61-1-.91-1.5,0-.32.11-.65.17-1l.85,1.39.71,1.15a.25.25,0,0,1,0,.34l-2.33,2.43-.14.12Z"/></g></g></g><g id="QER"><g id="Layer_1-2-2" data-name="Layer 1-2"><polygon id="Rectangle_4" data-name="Rectangle 4" points="44.84 60.22 47.05 60.22 47.28 62.43 45.08 62.43 44.84 60.22"/><polygon id="Rectangle_5" data-name="Rectangle 5" points="47.05 60.22 49.26 60.22 49.49 62.43 47.28 62.43 47.05 60.22"/><polygon id="Rectangle_6" data-name="Rectangle 6" points="49.26 60.22 51.47 60.22 51.7 62.43 49.49 62.43 49.26 60.22"/><polygon id="Rectangle_7" data-name="Rectangle 7" points="51.47 60.22 53.68 60.22 53.91 62.43 51.7 62.43 51.47 60.22"/><polygon id="Rectangle_8" data-name="Rectangle 8" points="53.68 60.22 55.89 60.22 56.12 62.43 53.91 62.43 53.68 60.22"/><polygon id="Rectangle_9" data-name="Rectangle 9" points="55.89 60.22 58.1 60.22 58.33 62.43 56.12 62.43 55.89 60.22"/><polygon id="Rectangle_10" data-name="Rectangle 10" points="58.1 60.22 60.31 60.22 60.54 62.43 58.33 62.43 58.1 60.22"/><polygon id="Rectangle_11" data-name="Rectangle 11" points="66.94 60.22 69.14 60.22 69.38 62.43 67.17 62.43 66.94 60.22"/><polygon id="Rectangle_12" data-name="Rectangle 12" points="71.35 60.22 73.56 60.22 73.79 62.43 71.58 62.43 71.35 60.22"/><polygon id="Rectangle_13" data-name="Rectangle 13" points="75.77 60.22 77.98 60.22 78.21 62.43 76 62.43 75.77 60.22"/><polygon id="Rectangle_14" data-name="Rectangle 14" points="77.98 60.22 80.19 60.22 80.42 62.43 78.21 62.43 77.98 60.22"/><polygon id="Rectangle_15" data-name="Rectangle 15" points="80.19 60.22 82.4 60.22 82.63 62.43 80.42 62.43 80.19 60.22"/><polygon id="Rectangle_16" data-name="Rectangle 16" points="84.61 60.22 86.82 60.22 87.05 62.43 84.84 62.43 84.61 60.22"/><polygon id="Rectangle_17" data-name="Rectangle 17" points="86.82 60.22 89.03 60.22 89.26 62.43 87.05 62.43 86.82 60.22"/><polygon id="Rectangle_18" data-name="Rectangle 18" points="89.03 60.22 91.23 60.22 91.47 62.43 89.26 62.43 89.03 60.22"/><polygon id="Rectangle_19" data-name="Rectangle 19" points="93.44 60.22 95.65 60.22 95.89 62.43 93.68 62.43 93.44 60.22"/><polygon id="Rectangle_20" data-name="Rectangle 20" points="95.65 60.22 97.86 60.22 98.09 62.43 95.89 62.43 95.65 60.22"/><polygon id="Rectangle_21" data-name="Rectangle 21" points="97.86 60.22 100.07 60.22 100.3 62.43 98.09 62.43 97.86 60.22"/><polygon id="Rectangle_22" data-name="Rectangle 22" points="100.07 60.22 102.28 60.22 102.51 62.43 100.3 62.43 100.07 60.22"/><polygon id="Rectangle_23" data-name="Rectangle 23" points="102.28 60.22 104.49 60.22 104.72 62.43 102.51 62.43 102.28 60.22"/><polygon id="Rectangle_24" data-name="Rectangle 24" points="104.49 60.22 106.7 60.22 106.93 62.43 104.72 62.43 104.49 60.22"/><polygon id="Rectangle_25" data-name="Rectangle 25" points="106.7 60.22 108.91 60.22 109.14 62.43 106.93 62.43 106.7 60.22"/><polygon id="Rectangle_26" data-name="Rectangle 26" points="45.08 62.43 47.28 62.43 47.52 64.64 45.31 64.64 45.08 62.43"/><polygon id="Rectangle_27" data-name="Rectangle 27" points="58.33 62.43 60.54 62.43 60.77 64.64 58.56 64.64 58.33 62.43"/><polygon id="Rectangle_28" data-name="Rectangle 28" points="62.75 62.43 64.96 62.43 65.19 64.64 62.98 64.64 62.75 62.43"/><polygon id="Rectangle_29" data-name="Rectangle 29" points="67.17 62.43 69.38 62.43 69.61 64.64 67.4 64.64 67.17 62.43"/><polygon id="Rectangle_30" data-name="Rectangle 30" points="73.79 62.43 76 62.43 76.24 64.64 74.03 64.64 73.79 62.43"/><polygon id="Rectangle_31" data-name="Rectangle 31" points="78.21 62.43 80.42 62.43 80.65 64.64 78.44 64.64 78.21 62.43"/><polygon id="Rectangle_32" data-name="Rectangle 32" points="80.42 62.43 82.63 62.43 82.86 64.64 80.65 64.64 80.42 62.43"/><polygon id="Rectangle_33" data-name="Rectangle 33" points="82.63 62.43 84.84 62.43 85.07 64.64 82.86 64.64 82.63 62.43"/><polygon id="Rectangle_34" data-name="Rectangle 34" points="93.68 62.43 95.89 62.43 96.12 64.64 93.91 64.64 93.68 62.43"/><polygon id="Rectangle_35" data-name="Rectangle 35" points="106.93 62.43 109.14 62.43 109.37 64.64 107.16 64.64 106.93 62.43"/><polygon id="Rectangle_36" data-name="Rectangle 36" points="45.31 64.64 47.52 64.64 47.75 66.85 45.54 66.85 45.31 64.64"/><polygon id="Rectangle_37" data-name="Rectangle 37" points="49.73 64.64 51.94 64.64 52.17 66.85 49.96 66.85 49.73 64.64"/><polygon id="Rectangle_38" data-name="Rectangle 38" points="51.94 64.64 54.15 64.64 54.38 66.85 52.17 66.85 51.94 64.64"/><polygon id="Rectangle_39" data-name="Rectangle 39" points="54.15 64.64 56.35 64.64 56.59 66.85 54.38 66.85 54.15 64.64"/><polygon id="Rectangle_40" data-name="Rectangle 40" points="58.56 64.64 60.77 64.64 61 66.85 58.8 66.85 58.56 64.64"/><polygon id="Rectangle_41" data-name="Rectangle 41" points="71.82 64.64 74.03 64.64 74.26 66.85 72.05 66.85 71.82 64.64"/><polygon id="Rectangle_42" data-name="Rectangle 42" points="78.44 64.64 80.65 64.64 80.89 66.85 78.68 66.85 78.44 64.64"/><polygon id="Rectangle_43" data-name="Rectangle 43" points="87.28 64.64 89.49 64.64 89.72 66.85 87.51 66.85 87.28 64.64"/><polygon id="Rectangle_44" data-name="Rectangle 44" points="89.49 64.64 91.7 64.64 91.93 66.85 89.72 66.85 89.49 64.64"/><polygon id="Rectangle_45" data-name="Rectangle 45" points="93.91 64.64 96.12 64.64 96.35 66.85 94.14 66.85 93.91 64.64"/><polygon id="Rectangle_46" data-name="Rectangle 46" points="98.33 64.64 100.54 64.64 100.77 66.85 98.56 66.85 98.33 64.64"/><polygon id="Rectangle_47" data-name="Rectangle 47" points="100.54 64.64 102.75 64.64 102.98 66.85 100.77 66.85 100.54 64.64"/><polygon id="Rectangle_48" data-name="Rectangle 48" points="102.75 64.64 104.95 64.64 105.19 66.85 102.98 66.85 102.75 64.64"/><polygon id="Rectangle_49" data-name="Rectangle 49" points="107.16 64.64 109.37 64.64 109.6 66.85 107.39 66.85 107.16 64.64"/><polygon id="Rectangle_50" data-name="Rectangle 50" points="45.54 66.85 47.75 66.85 47.98 69.06 45.77 69.06 45.54 66.85"/><polygon id="Rectangle_51" data-name="Rectangle 51" points="49.96 66.85 52.17 66.85 52.4 69.06 50.19 69.06 49.96 66.85"/><polygon id="Rectangle_52" data-name="Rectangle 52" points="52.17 66.85 54.38 66.85 54.61 69.06 52.4 69.06 52.17 66.85"/><polygon id="Rectangle_53" data-name="Rectangle 53" points="54.38 66.85 56.59 66.85 56.82 69.06 54.61 69.06 54.38 66.85"/><polygon id="Rectangle_54" data-name="Rectangle 54" points="58.8 66.85 61 66.85 61.24 69.06 59.03 69.06 58.8 66.85"/><polygon id="Rectangle_55" data-name="Rectangle 55" points="63.21 66.85 65.42 66.85 65.65 69.06 63.45 69.06 63.21 66.85"/><polygon id="Rectangle_56" data-name="Rectangle 56" points="65.42 66.85 67.63 66.85 67.86 69.06 65.65 69.06 65.42 66.85"/><polygon id="Rectangle_57" data-name="Rectangle 57" points="67.63 66.85 69.84 66.85 70.07 69.06 67.86 69.06 67.63 66.85"/><polygon id="Rectangle_58" data-name="Rectangle 58" points="72.05 66.85 74.26 66.85 74.49 69.06 72.28 69.06 72.05 66.85"/><polygon id="Rectangle_59" data-name="Rectangle 59" points="74.26 66.85 76.47 66.85 76.7 69.06 74.49 69.06 74.26 66.85"/><polygon id="Rectangle_60" data-name="Rectangle 60" points="78.68 66.85 80.89 66.85 81.12 69.06 78.91 69.06 78.68 66.85"/><polygon id="Rectangle_61" data-name="Rectangle 61" points="80.89 66.85 83.09 66.85 83.33 69.06 81.12 69.06 80.89 66.85"/><polygon id="Rectangle_62" data-name="Rectangle 62" points="83.09 66.85 85.3 66.85 85.54 69.06 83.33 69.06 83.09 66.85"/><polygon id="Rectangle_63" data-name="Rectangle 63" points="85.3 66.85 87.51 66.85 87.75 69.06 85.54 69.06 85.3 66.85"/><polygon id="Rectangle_64" data-name="Rectangle 64" points="87.51 66.85 89.72 66.85 89.95 69.06 87.75 69.06 87.51 66.85"/><polygon id="Rectangle_65" data-name="Rectangle 65" points="94.14 66.85 96.35 66.85 96.58 69.06 94.37 69.06 94.14 66.85"/><polygon id="Rectangle_66" data-name="Rectangle 66" points="98.56 66.85 100.77 66.85 101 69.06 98.79 69.06 98.56 66.85"/><polygon id="Rectangle_67" data-name="Rectangle 67" points="100.77 66.85 102.98 66.85 103.21 69.06 101 69.06 100.77 66.85"/><polygon id="Rectangle_68" data-name="Rectangle 68" points="102.98 66.85 105.19 66.85 105.42 69.06 103.21 69.06 102.98 66.85"/><polygon id="Rectangle_69" data-name="Rectangle 69" points="107.39 66.85 109.6 66.85 109.84 69.06 107.63 69.06 107.39 66.85"/><polygon id="Rectangle_70" data-name="Rectangle 70" points="45.77 69.06 47.98 69.06 48.21 71.27 46.01 71.27 45.77 69.06"/><polygon id="Rectangle_71" data-name="Rectangle 71" points="50.19 69.06 52.4 69.06 52.63 71.27 50.42 71.27 50.19 69.06"/><polygon id="Rectangle_72" data-name="Rectangle 72" points="52.4 69.06 54.61 69.06 54.84 71.27 52.63 71.27 52.4 69.06"/><polygon id="Rectangle_73" data-name="Rectangle 73" points="54.61 69.06 56.82 69.06 57.05 71.27 54.84 71.27 54.61 69.06"/><polygon id="Rectangle_74" data-name="Rectangle 74" points="59.03 69.06 61.24 69.06 61.47 71.27 59.26 71.27 59.03 69.06"/><polygon id="Rectangle_75" data-name="Rectangle 75" points="65.65 69.06 67.86 69.06 68.1 71.27 65.89 71.27 65.65 69.06"/><polygon id="Rectangle_76" data-name="Rectangle 76" points="78.91 69.06 81.12 69.06 81.35 71.27 79.14 71.27 78.91 69.06"/><polygon id="Rectangle_77" data-name="Rectangle 77" points="81.12 69.06 83.33 69.06 83.56 71.27 81.35 71.27 81.12 69.06"/><polygon id="Rectangle_78" data-name="Rectangle 78" points="85.54 69.06 87.75 69.06 87.98 71.27 85.77 71.27 85.54 69.06"/><polygon id="Rectangle_79" data-name="Rectangle 79" points="87.75 69.06 89.95 69.06 90.19 71.27 87.98 71.27 87.75 69.06"/><polygon id="Rectangle_80" data-name="Rectangle 80" points="89.95 69.06 92.16 69.06 92.4 71.27 90.19 71.27 89.95 69.06"/><polygon id="Rectangle_81" data-name="Rectangle 81" points="94.37 69.06 96.58 69.06 96.81 71.27 94.61 71.27 94.37 69.06"/><polygon id="Rectangle_82" data-name="Rectangle 82" points="98.79 69.06 101 69.06 101.23 71.27 99.02 71.27 98.79 69.06"/><polygon id="Rectangle_83" data-name="Rectangle 83" points="101 69.06 103.21 69.06 103.44 71.27 101.23 71.27 101 69.06"/><polygon id="Rectangle_84" data-name="Rectangle 84" points="103.21 69.06 105.42 69.06 105.65 71.27 103.44 71.27 103.21 69.06"/><polygon id="Rectangle_85" data-name="Rectangle 85" points="107.63 69.06 109.84 69.06 110.07 71.27 107.86 71.27 107.63 69.06"/><polygon id="Rectangle_86" data-name="Rectangle 86" points="46.01 71.27 48.21 71.27 48.45 73.48 46.24 73.48 46.01 71.27"/><polygon id="Rectangle_87" data-name="Rectangle 87" points="59.26 71.27 61.47 71.27 61.7 73.48 59.49 73.48 59.26 71.27"/><polygon id="Rectangle_88" data-name="Rectangle 88" points="63.68 71.27 65.89 71.27 66.12 73.48 63.91 73.48 63.68 71.27"/><polygon id="Rectangle_89" data-name="Rectangle 89" points="65.89 71.27 68.1 71.27 68.33 73.48 66.12 73.48 65.89 71.27"/><polygon id="Rectangle_90" data-name="Rectangle 90" points="70.31 71.27 72.51 71.27 72.75 73.48 70.54 73.48 70.31 71.27"/><polygon id="Rectangle_91" data-name="Rectangle 91" points="72.51 71.27 74.72 71.27 74.95 73.48 72.75 73.48 72.51 71.27"/><polygon id="Rectangle_92" data-name="Rectangle 92" points="79.14 71.27 81.35 71.27 81.58 73.48 79.37 73.48 79.14 71.27"/><polygon id="Rectangle_93" data-name="Rectangle 93" points="85.77 71.27 87.98 71.27 88.21 73.48 86 73.48 85.77 71.27"/><polygon id="Rectangle_94" data-name="Rectangle 94" points="90.19 71.27 92.4 71.27 92.63 73.48 90.42 73.48 90.19 71.27"/><polygon id="Rectangle_95" data-name="Rectangle 95" points="94.61 71.27 96.81 71.27 97.05 73.48 94.84 73.48 94.61 71.27"/><polygon id="Rectangle_96" data-name="Rectangle 96" points="107.86 71.27 110.07 71.27 110.3 73.48 108.09 73.48 107.86 71.27"/><polygon id="Rectangle_97" data-name="Rectangle 97" points="46.24 73.48 48.45 73.48 48.68 75.69 46.47 75.69 46.24 73.48"/><polygon id="Rectangle_98" data-name="Rectangle 98" points="48.45 73.48 50.66 73.48 50.89 75.69 48.68 75.69 48.45 73.48"/><polygon id="Rectangle_99" data-name="Rectangle 99" points="50.66 73.48 52.86 73.48 53.1 75.69 50.89 75.69 50.66 73.48"/><polygon id="Rectangle_100" data-name="Rectangle 100" points="52.86 73.48 55.07 73.48 55.3 75.69 53.1 75.69 52.86 73.48"/><polygon id="Rectangle_101" data-name="Rectangle 101" points="55.07 73.48 57.28 73.48 57.52 75.69 55.3 75.69 55.07 73.48"/><polygon id="Rectangle_102" data-name="Rectangle 102" points="57.28 73.48 59.49 73.48 59.72 75.69 57.52 75.69 57.28 73.48"/><polygon id="Rectangle_103" data-name="Rectangle 103" points="59.49 73.48 61.7 73.48 61.93 75.69 59.72 75.69 59.49 73.48"/><polygon id="Rectangle_104" data-name="Rectangle 104" points="63.91 73.48 66.12 73.48 66.35 75.69 64.14 75.69 63.91 73.48"/><polygon id="Rectangle_105" data-name="Rectangle 105" points="68.33 73.48 70.54 73.48 70.77 75.69 68.56 75.69 68.33 73.48"/><polygon id="Rectangle_106" data-name="Rectangle 106" points="72.75 73.48 74.95 73.48 75.19 75.69 72.98 75.69 72.75 73.48"/><polygon id="Rectangle_107" data-name="Rectangle 107" points="77.16 73.48 79.37 73.48 79.61 75.69 77.4 75.69 77.16 73.48"/><polygon id="Rectangle_108" data-name="Rectangle 108" points="81.58 73.48 83.79 73.48 84.02 75.69 81.81 75.69 81.58 73.48"/><polygon id="Rectangle_109" data-name="Rectangle 109" points="86 73.48 88.21 73.48 88.44 75.69 86.23 75.69 86 73.48"/><polygon id="Rectangle_110" data-name="Rectangle 110" points="90.42 73.48 92.63 73.48 92.86 75.69 90.65 75.69 90.42 73.48"/><polygon id="Rectangle_111" data-name="Rectangle 111" points="94.84 73.48 97.05 73.48 97.28 75.69 95.07 75.69 94.84 73.48"/><polygon id="Rectangle_112" data-name="Rectangle 112" points="97.05 73.48 99.25 73.48 99.49 75.69 97.28 75.69 97.05 73.48"/><polygon id="Rectangle_113" data-name="Rectangle 113" points="99.25 73.48 101.46 73.48 101.7 75.69 99.49 75.69 99.25 73.48"/><polygon id="Rectangle_114" data-name="Rectangle 114" points="101.46 73.48 103.67 73.48 103.91 75.69 101.7 75.69 101.46 73.48"/><polygon id="Rectangle_115" data-name="Rectangle 115" points="103.67 73.48 105.88 73.48 106.11 75.69 103.91 75.69 103.67 73.48"/><polygon id="Rectangle_116" data-name="Rectangle 116" points="105.88 73.48 108.09 73.48 108.32 75.69 106.11 75.69 105.88 73.48"/><polygon id="Rectangle_117" data-name="Rectangle 117" points="108.09 73.48 110.3 73.48 110.53 75.69 108.32 75.69 108.09 73.48"/><polygon id="Rectangle_118" data-name="Rectangle 118" points="66.35 75.69 68.56 75.69 68.79 77.9 66.58 77.9 66.35 75.69"/><polygon id="Rectangle_119" data-name="Rectangle 119" points="68.56 75.69 70.77 75.69 71 77.9 68.79 77.9 68.56 75.69"/><polygon id="Rectangle_120" data-name="Rectangle 120" points="70.77 75.69 72.98 75.69 73.21 77.9 71 77.9 70.77 75.69"/><polygon id="Rectangle_121" data-name="Rectangle 121" points="79.61 75.69 81.81 75.69 82.05 77.9 79.84 77.9 79.61 75.69"/><polygon id="Rectangle_122" data-name="Rectangle 122" points="86.23 75.69 88.44 75.69 88.67 77.9 86.47 77.9 86.23 75.69"/><polygon id="Rectangle_123" data-name="Rectangle 123" points="46.7 77.9 48.91 77.9 49.14 80.11 46.93 80.11 46.7 77.9"/><polygon id="Rectangle_124" data-name="Rectangle 124" points="48.91 77.9 51.12 77.9 51.35 80.11 49.14 80.11 48.91 77.9"/><polygon id="Rectangle_125" data-name="Rectangle 125" points="51.12 77.9 53.33 77.9 53.56 80.11 51.35 80.11 51.12 77.9"/><polygon id="Rectangle_126" data-name="Rectangle 126" points="53.33 77.9 55.54 77.9 55.77 80.11 53.56 80.11 53.33 77.9"/><polygon id="Rectangle_127" data-name="Rectangle 127" points="55.54 77.9 57.75 77.9 57.98 80.11 55.77 80.11 55.54 77.9"/><polygon id="Rectangle_128" data-name="Rectangle 128" points="59.96 77.9 62.16 77.9 62.4 80.11 60.19 80.11 59.96 77.9"/><polygon id="Rectangle_129" data-name="Rectangle 129" points="62.16 77.9 64.37 77.9 64.61 80.11 62.4 80.11 62.16 77.9"/><polygon id="Rectangle_130" data-name="Rectangle 130" points="64.37 77.9 66.58 77.9 66.81 80.11 64.61 80.11 64.37 77.9"/><polygon id="Rectangle_131" data-name="Rectangle 131" points="66.58 77.9 68.79 77.9 69.02 80.11 66.81 80.11 66.58 77.9"/><polygon id="Rectangle_132" data-name="Rectangle 132" points="71 77.9 73.21 77.9 73.44 80.11 71.23 80.11 71 77.9"/><polygon id="Rectangle_133" data-name="Rectangle 133" points="75.42 77.9 77.63 77.9 77.86 80.11 75.65 80.11 75.42 77.9"/><polygon id="Rectangle_134" data-name="Rectangle 134" points="77.63 77.9 79.84 77.9 80.07 80.11 77.86 80.11 77.63 77.9"/><polygon id="Rectangle_135" data-name="Rectangle 135" points="79.84 77.9 82.05 77.9 82.28 80.11 80.07 80.11 79.84 77.9"/><polygon id="Rectangle_136" data-name="Rectangle 136" points="84.26 77.9 86.47 77.9 86.7 80.11 84.49 80.11 84.26 77.9"/><polygon id="Rectangle_137" data-name="Rectangle 137" points="88.67 77.9 90.88 77.9 91.11 80.11 88.91 80.11 88.67 77.9"/><polygon id="Rectangle_138" data-name="Rectangle 138" points="93.09 77.9 95.3 77.9 95.53 80.11 93.33 80.11 93.09 77.9"/><polygon id="Rectangle_139" data-name="Rectangle 139" points="97.51 77.9 99.72 77.9 99.95 80.11 97.74 80.11 97.51 77.9"/><polygon id="Rectangle_140" data-name="Rectangle 140" points="101.93 77.9 104.14 77.9 104.37 80.11 102.16 80.11 101.93 77.9"/><polygon id="Rectangle_141" data-name="Rectangle 141" points="106.35 77.9 108.56 77.9 108.79 80.11 106.58 80.11 106.35 77.9"/><polygon id="Rectangle_142" data-name="Rectangle 142" points="46.93 80.11 49.14 80.11 49.38 82.31 47.17 82.31 46.93 80.11"/><polygon id="Rectangle_143" data-name="Rectangle 143" points="51.35 80.11 53.56 80.11 53.79 82.31 51.58 82.31 51.35 80.11"/><polygon id="Rectangle_144" data-name="Rectangle 144" points="62.4 80.11 64.61 80.11 64.84 82.31 62.63 82.31 62.4 80.11"/><polygon id="Rectangle_145" data-name="Rectangle 145" points="69.02 80.11 71.23 80.11 71.47 82.31 69.26 82.31 69.02 80.11"/><polygon id="Rectangle_146" data-name="Rectangle 146" points="73.44 80.11 75.65 80.11 75.88 82.31 73.67 82.31 73.44 80.11"/><polygon id="Rectangle_147" data-name="Rectangle 147" points="77.86 80.11 80.07 80.11 80.3 82.31 78.09 82.31 77.86 80.11"/><polygon id="Rectangle_148" data-name="Rectangle 148" points="86.7 80.11 88.91 80.11 89.14 82.31 86.93 82.31 86.7 80.11"/><polygon id="Rectangle_149" data-name="Rectangle 149" points="88.91 80.11 91.11 80.11 91.35 82.31 89.14 82.31 88.91 80.11"/><polygon id="Rectangle_150" data-name="Rectangle 150" points="91.11 80.11 93.33 80.11 93.56 82.31 91.35 82.31 91.11 80.11"/><polygon id="Rectangle_151" data-name="Rectangle 151" points="93.33 80.11 95.53 80.11 95.77 82.31 93.56 82.31 93.33 80.11"/><polygon id="Rectangle_152" data-name="Rectangle 152" points="95.53 80.11 97.74 80.11 97.97 82.31 95.77 82.31 95.53 80.11"/><polygon id="Rectangle_153" data-name="Rectangle 153" points="97.74 80.11 99.95 80.11 100.18 82.31 97.97 82.31 97.74 80.11"/><polygon id="Rectangle_154" data-name="Rectangle 154" points="99.95 80.11 102.16 80.11 102.39 82.31 100.18 82.31 99.95 80.11"/><polygon id="Rectangle_155" data-name="Rectangle 155" points="108.79 80.11 111 80.11 111.23 82.31 109.02 82.31 108.79 80.11"/><polygon id="Rectangle_156" data-name="Rectangle 156" points="47.17 82.31 49.38 82.31 49.61 84.52 47.4 84.52 47.17 82.31"/><polygon id="Rectangle_157" data-name="Rectangle 157" points="51.58 82.31 53.79 82.31 54.02 84.52 51.82 84.52 51.58 82.31"/><polygon id="Rectangle_158" data-name="Rectangle 158" points="53.79 82.31 56 82.31 56.23 84.52 54.02 84.52 53.79 82.31"/><polygon id="Rectangle_159" data-name="Rectangle 159" points="60.42 82.31 62.63 82.31 62.86 84.52 60.65 84.52 60.42 82.31"/><polygon id="Rectangle_160" data-name="Rectangle 160" points="69.26 82.31 71.47 82.31 71.7 84.52 69.49 84.52 69.26 82.31"/><polygon id="Rectangle_161" data-name="Rectangle 161" points="75.88 82.31 78.09 82.31 78.33 84.52 76.12 84.52 75.88 82.31"/><polygon id="Rectangle_162" data-name="Rectangle 162" points="80.3 82.31 82.51 82.31 82.74 84.52 80.53 84.52 80.3 82.31"/><polygon id="Rectangle_163" data-name="Rectangle 163" points="84.72 82.31 86.93 82.31 87.16 84.52 84.95 84.52 84.72 82.31"/><polygon id="Rectangle_164" data-name="Rectangle 164" points="95.77 82.31 97.97 82.31 98.21 84.52 96 84.52 95.77 82.31"/><polygon id="Rectangle_165" data-name="Rectangle 165" points="97.97 82.31 100.18 82.31 100.42 84.52 98.21 84.52 97.97 82.31"/><polygon id="Rectangle_166" data-name="Rectangle 166" points="102.39 82.31 104.6 82.31 104.83 84.52 102.63 84.52 102.39 82.31"/><polygon id="Rectangle_167" data-name="Rectangle 167" points="104.6 82.31 106.81 82.31 107.04 84.52 104.83 84.52 104.6 82.31"/><polygon id="Rectangle_168" data-name="Rectangle 168" points="49.61 84.52 51.82 84.52 52.05 86.73 49.84 86.73 49.61 84.52"/><polygon id="Rectangle_169" data-name="Rectangle 169" points="54.02 84.52 56.23 84.52 56.47 86.73 54.26 86.73 54.02 84.52"/><polygon id="Rectangle_170" data-name="Rectangle 170" points="58.44 84.52 60.65 84.52 60.88 86.73 58.67 86.73 58.44 84.52"/><polygon id="Rectangle_171" data-name="Rectangle 171" points="65.07 84.52 67.28 84.52 67.51 86.73 65.3 86.73 65.07 84.52"/><polygon id="Rectangle_172" data-name="Rectangle 172" points="73.91 84.52 76.12 84.52 76.35 86.73 74.14 86.73 73.91 84.52"/><polygon id="Rectangle_173" data-name="Rectangle 173" points="78.33 84.52 80.53 84.52 80.77 86.73 78.56 86.73 78.33 84.52"/><polygon id="Rectangle_174" data-name="Rectangle 174" points="82.74 84.52 84.95 84.52 85.19 86.73 82.98 86.73 82.74 84.52"/><polygon id="Rectangle_175" data-name="Rectangle 175" points="87.16 84.52 89.37 84.52 89.6 86.73 87.39 86.73 87.16 84.52"/><polygon id="Rectangle_176" data-name="Rectangle 176" points="91.58 84.52 93.79 84.52 94.02 86.73 91.81 86.73 91.58 84.52"/><polygon id="Rectangle_177" data-name="Rectangle 177" points="96 84.52 98.21 84.52 98.44 86.73 96.23 86.73 96 84.52"/><polygon id="Rectangle_178" data-name="Rectangle 178" points="100.42 84.52 102.63 84.52 102.86 86.73 100.65 86.73 100.42 84.52"/><polygon id="Rectangle_179" data-name="Rectangle 179" points="47.63 86.73 49.84 86.73 50.07 88.94 47.86 88.94 47.63 86.73"/><polygon id="Rectangle_180" data-name="Rectangle 180" points="49.84 86.73 52.05 86.73 52.28 88.94 50.07 88.94 49.84 86.73"/><polygon id="Rectangle_181" data-name="Rectangle 181" points="52.05 86.73 54.26 86.73 54.49 88.94 52.28 88.94 52.05 86.73"/><polygon id="Rectangle_182" data-name="Rectangle 182" points="56.47 86.73 58.67 86.73 58.91 88.94 56.7 88.94 56.47 86.73"/><polygon id="Rectangle_183" data-name="Rectangle 183" points="60.88 86.73 63.09 86.73 63.33 88.94 61.12 88.94 60.88 86.73"/><polygon id="Rectangle_184" data-name="Rectangle 184" points="67.51 86.73 69.72 86.73 69.95 88.94 67.74 88.94 67.51 86.73"/><polygon id="Rectangle_185" data-name="Rectangle 185" points="69.72 86.73 71.93 86.73 72.16 88.94 69.95 88.94 69.72 86.73"/><polygon id="Rectangle_186" data-name="Rectangle 186" points="74.14 86.73 76.35 86.73 76.58 88.94 74.37 88.94 74.14 86.73"/><polygon id="Rectangle_187" data-name="Rectangle 187" points="76.35 86.73 78.56 86.73 78.79 88.94 76.58 88.94 76.35 86.73"/><polygon id="Rectangle_188" data-name="Rectangle 188" points="78.56 86.73 80.77 86.73 81 88.94 78.79 88.94 78.56 86.73"/><polygon id="Rectangle_189" data-name="Rectangle 189" points="85.19 86.73 87.39 86.73 87.63 88.94 85.42 88.94 85.19 86.73"/><polygon id="Rectangle_190" data-name="Rectangle 190" points="91.81 86.73 94.02 86.73 94.25 88.94 92.04 88.94 91.81 86.73"/><polygon id="Rectangle_191" data-name="Rectangle 191" points="105.07 86.73 107.28 86.73 107.51 88.94 105.3 88.94 105.07 86.73"/><polygon id="Rectangle_192" data-name="Rectangle 192" points="107.28 86.73 109.48 86.73 109.72 88.94 107.51 88.94 107.28 86.73"/><polygon id="Rectangle_193" data-name="Rectangle 193" points="109.48 86.73 111.69 86.73 111.93 88.94 109.72 88.94 109.48 86.73"/><polygon id="Rectangle_194" data-name="Rectangle 194" points="50.07 88.94 52.28 88.94 52.51 91.15 50.3 91.15 50.07 88.94"/><polygon id="Rectangle_195" data-name="Rectangle 195" points="58.91 88.94 61.12 88.94 61.35 91.15 59.14 91.15 58.91 88.94"/><polygon id="Rectangle_196" data-name="Rectangle 196" points="63.33 88.94 65.53 88.94 65.77 91.15 63.56 91.15 63.33 88.94"/><polygon id="Rectangle_197" data-name="Rectangle 197" points="65.53 88.94 67.74 88.94 67.98 91.15 65.77 91.15 65.53 88.94"/><polygon id="Rectangle_198" data-name="Rectangle 198" points="67.74 88.94 69.95 88.94 70.19 91.15 67.98 91.15 67.74 88.94"/><polygon id="Rectangle_199" data-name="Rectangle 199" points="83.21 88.94 85.42 88.94 85.65 91.15 83.44 91.15 83.21 88.94"/><polygon id="Rectangle_200" data-name="Rectangle 200" points="85.42 88.94 87.63 88.94 87.86 91.15 85.65 91.15 85.42 88.94"/><polygon id="Rectangle_201" data-name="Rectangle 201" points="87.63 88.94 89.83 88.94 90.07 91.15 87.86 91.15 87.63 88.94"/><polygon id="Rectangle_202" data-name="Rectangle 202" points="89.83 88.94 92.04 88.94 92.28 91.15 90.07 91.15 89.83 88.94"/><polygon id="Rectangle_203" data-name="Rectangle 203" points="92.04 88.94 94.25 88.94 94.49 91.15 92.28 91.15 92.04 88.94"/><polygon id="Rectangle_204" data-name="Rectangle 204" points="94.25 88.94 96.46 88.94 96.69 91.15 94.49 91.15 94.25 88.94"/><polygon id="Rectangle_205" data-name="Rectangle 205" points="96.46 88.94 98.67 88.94 98.9 91.15 96.69 91.15 96.46 88.94"/><polygon id="Rectangle_206" data-name="Rectangle 206" points="98.67 88.94 100.88 88.94 101.11 91.15 98.9 91.15 98.67 88.94"/><polygon id="Rectangle_207" data-name="Rectangle 207" points="100.88 88.94 103.09 88.94 103.32 91.15 101.11 91.15 100.88 88.94"/><polygon id="Rectangle_208" data-name="Rectangle 208" points="107.51 88.94 109.72 88.94 109.95 91.15 107.74 91.15 107.51 88.94"/><polygon id="Rectangle_209" data-name="Rectangle 209" points="109.72 88.94 111.93 88.94 112.16 91.15 109.95 91.15 109.72 88.94"/><polygon id="Rectangle_210" data-name="Rectangle 210" points="48.09 91.15 50.3 91.15 50.54 93.36 48.33 93.36 48.09 91.15"/><polygon id="Rectangle_211" data-name="Rectangle 211" points="50.3 91.15 52.51 91.15 52.74 93.36 50.54 93.36 50.3 91.15"/><polygon id="Rectangle_212" data-name="Rectangle 212" points="59.14 91.15 61.35 91.15 61.58 93.36 59.37 93.36 59.14 91.15"/><polygon id="Rectangle_213" data-name="Rectangle 213" points="61.35 91.15 63.56 91.15 63.79 93.36 61.58 93.36 61.35 91.15"/><polygon id="Rectangle_214" data-name="Rectangle 214" points="63.56 91.15 65.77 91.15 66 93.36 63.79 93.36 63.56 91.15"/><polygon id="Rectangle_215" data-name="Rectangle 215" points="65.77 91.15 67.98 91.15 68.21 93.36 66 93.36 65.77 91.15"/><polygon id="Rectangle_216" data-name="Rectangle 216" points="70.19 91.15 72.39 91.15 72.63 93.36 70.42 93.36 70.19 91.15"/><polygon id="Rectangle_217" data-name="Rectangle 217" points="72.39 91.15 74.6 91.15 74.84 93.36 72.63 93.36 72.39 91.15"/><polygon id="Rectangle_218" data-name="Rectangle 218" points="74.6 91.15 76.81 91.15 77.05 93.36 74.84 93.36 74.6 91.15"/><polygon id="Rectangle_219" data-name="Rectangle 219" points="79.02 91.15 81.23 91.15 81.46 93.36 79.25 93.36 79.02 91.15"/><polygon id="Rectangle_220" data-name="Rectangle 220" points="81.23 91.15 83.44 91.15 83.67 93.36 81.46 93.36 81.23 91.15"/><polygon id="Rectangle_221" data-name="Rectangle 221" points="83.44 91.15 85.65 91.15 85.88 93.36 83.67 93.36 83.44 91.15"/><polygon id="Rectangle_222" data-name="Rectangle 222" points="85.65 91.15 87.86 91.15 88.09 93.36 85.88 93.36 85.65 91.15"/><polygon id="Rectangle_223" data-name="Rectangle 223" points="92.28 91.15 94.49 91.15 94.72 93.36 92.51 93.36 92.28 91.15"/><polygon id="Rectangle_224" data-name="Rectangle 224" points="101.11 91.15 103.32 91.15 103.55 93.36 101.34 93.36 101.11 91.15"/><polygon id="Rectangle_225" data-name="Rectangle 225" points="52.74 93.36 54.95 93.36 55.19 95.57 52.98 95.57 52.74 93.36"/><polygon id="Rectangle_226" data-name="Rectangle 226" points="54.95 93.36 57.16 93.36 57.4 95.57 55.19 95.57 54.95 93.36"/><polygon id="Rectangle_227" data-name="Rectangle 227" points="63.79 93.36 66 93.36 66.23 95.57 64.02 95.57 63.79 93.36"/><polygon id="Rectangle_228" data-name="Rectangle 228" points="68.21 93.36 70.42 93.36 70.65 95.57 68.44 95.57 68.21 93.36"/><polygon id="Rectangle_229" data-name="Rectangle 229" points="70.42 93.36 72.63 93.36 72.86 95.57 70.65 95.57 70.42 93.36"/><polygon id="Rectangle_230" data-name="Rectangle 230" points="72.63 93.36 74.84 93.36 75.07 95.57 72.86 95.57 72.63 93.36"/><polygon id="Rectangle_231" data-name="Rectangle 231" points="79.25 93.36 81.46 93.36 81.69 95.57 79.49 95.57 79.25 93.36"/><polygon id="Rectangle_232" data-name="Rectangle 232" points="81.46 93.36 83.67 93.36 83.9 95.57 81.69 95.57 81.46 93.36"/><polygon id="Rectangle_233" data-name="Rectangle 233" points="83.67 93.36 85.88 93.36 86.11 95.57 83.9 95.57 83.67 93.36"/><polygon id="Rectangle_234" data-name="Rectangle 234" points="90.3 93.36 92.51 93.36 92.74 95.57 90.53 95.57 90.3 93.36"/><polygon id="Rectangle_235" data-name="Rectangle 235" points="94.72 93.36 96.93 93.36 97.16 95.57 94.95 95.57 94.72 93.36"/><polygon id="Rectangle_236" data-name="Rectangle 236" points="101.34 93.36 103.55 93.36 103.79 95.57 101.58 95.57 101.34 93.36"/><polygon id="Rectangle_237" data-name="Rectangle 237" points="103.55 93.36 105.76 93.36 106 95.57 103.79 95.57 103.55 93.36"/><polygon id="Rectangle_238" data-name="Rectangle 238" points="107.97 93.36 110.18 93.36 110.41 95.57 108.2 95.57 107.97 93.36"/><polygon id="Rectangle_239" data-name="Rectangle 239" points="50.77 95.57 52.98 95.57 53.21 97.78 51 97.78 50.77 95.57"/><polygon id="Rectangle_240" data-name="Rectangle 240" points="52.98 95.57 55.19 95.57 55.42 97.78 53.21 97.78 52.98 95.57"/><polygon id="Rectangle_241" data-name="Rectangle 241" points="57.4 95.57 59.6 95.57 59.84 97.78 57.63 97.78 57.4 95.57"/><polygon id="Rectangle_242" data-name="Rectangle 242" points="61.81 95.57 64.02 95.57 64.25 97.78 62.05 97.78 61.81 95.57"/><polygon id="Rectangle_243" data-name="Rectangle 243" points="66.23 95.57 68.44 95.57 68.67 97.78 66.46 97.78 66.23 95.57"/><polygon id="Rectangle_244" data-name="Rectangle 244" points="70.65 95.57 72.86 95.57 73.09 97.78 70.88 97.78 70.65 95.57"/><polygon id="Rectangle_245" data-name="Rectangle 245" points="72.86 95.57 75.07 95.57 75.3 97.78 73.09 97.78 72.86 95.57"/><polygon id="Rectangle_246" data-name="Rectangle 246" points="75.07 95.57 77.28 95.57 77.51 97.78 75.3 97.78 75.07 95.57"/><polygon id="Rectangle_247" data-name="Rectangle 247" points="77.28 95.57 79.49 95.57 79.72 97.78 77.51 97.78 77.28 95.57"/><polygon id="Rectangle_248" data-name="Rectangle 248" points="79.49 95.57 81.69 95.57 81.93 97.78 79.72 97.78 79.49 95.57"/><polygon id="Rectangle_249" data-name="Rectangle 249" points="81.69 95.57 83.9 95.57 84.14 97.78 81.93 97.78 81.69 95.57"/><polygon id="Rectangle_250" data-name="Rectangle 250" points="83.9 95.57 86.11 95.57 86.35 97.78 84.14 97.78 83.9 95.57"/><polygon id="Rectangle_251" data-name="Rectangle 251" points="86.11 95.57 88.32 95.57 88.56 97.78 86.35 97.78 86.11 95.57"/><polygon id="Rectangle_252" data-name="Rectangle 252" points="92.74 95.57 94.95 95.57 95.18 97.78 92.97 97.78 92.74 95.57"/><polygon id="Rectangle_253" data-name="Rectangle 253" points="106 95.57 108.2 95.57 108.44 97.78 106.23 97.78 106 95.57"/><polygon id="Rectangle_254" data-name="Rectangle 254" points="108.2 95.57 110.41 95.57 110.65 97.78 108.44 97.78 108.2 95.57"/><polygon id="Rectangle_255" data-name="Rectangle 255" points="110.41 95.57 112.62 95.57 112.86 97.78 110.65 97.78 110.41 95.57"/><polygon id="Rectangle_256" data-name="Rectangle 256" points="48.79 97.78 51 97.78 51.23 99.99 49.02 99.99 48.79 97.78"/><polygon id="Rectangle_257" data-name="Rectangle 257" points="53.21 97.78 55.42 97.78 55.65 99.99 53.44 99.99 53.21 97.78"/><polygon id="Rectangle_258" data-name="Rectangle 258" points="57.63 97.78 59.84 97.78 60.07 99.99 57.86 99.99 57.63 97.78"/><polygon id="Rectangle_259" data-name="Rectangle 259" points="59.84 97.78 62.05 97.78 62.28 99.99 60.07 99.99 59.84 97.78"/><polygon id="Rectangle_260" data-name="Rectangle 260" points="64.25 97.78 66.46 97.78 66.7 99.99 64.49 99.99 64.25 97.78"/><polygon id="Rectangle_261" data-name="Rectangle 261" points="68.67 97.78 70.88 97.78 71.11 99.99 68.91 99.99 68.67 97.78"/><polygon id="Rectangle_262" data-name="Rectangle 262" points="70.88 97.78 73.09 97.78 73.32 99.99 71.11 99.99 70.88 97.78"/><polygon id="Rectangle_263" data-name="Rectangle 263" points="75.3 97.78 77.51 97.78 77.74 99.99 75.53 99.99 75.3 97.78"/><polygon id="Rectangle_264" data-name="Rectangle 264" points="79.72 97.78 81.93 97.78 82.16 99.99 79.95 99.99 79.72 97.78"/><polygon id="Rectangle_265" data-name="Rectangle 265" points="84.14 97.78 86.35 97.78 86.58 99.99 84.37 99.99 84.14 97.78"/><polygon id="Rectangle_266" data-name="Rectangle 266" points="90.76 97.78 92.97 97.78 93.2 99.99 91 99.99 90.76 97.78"/><polygon id="Rectangle_267" data-name="Rectangle 267" points="92.97 97.78 95.18 97.78 95.41 99.99 93.2 99.99 92.97 97.78"/><polygon id="Rectangle_268" data-name="Rectangle 268" points="95.18 97.78 97.39 97.78 97.62 99.99 95.41 99.99 95.18 97.78"/><polygon id="Rectangle_269" data-name="Rectangle 269" points="97.39 97.78 99.6 97.78 99.83 99.99 97.62 99.99 97.39 97.78"/><polygon id="Rectangle_270" data-name="Rectangle 270" points="101.81 97.78 104.02 97.78 104.25 99.99 102.04 99.99 101.81 97.78"/><polygon id="Rectangle_271" data-name="Rectangle 271" points="106.23 97.78 108.44 97.78 108.67 99.99 106.46 99.99 106.23 97.78"/><polygon id="Rectangle_272" data-name="Rectangle 272" points="108.44 97.78 110.65 97.78 110.88 99.99 108.67 99.99 108.44 97.78"/><polygon id="Rectangle_273" data-name="Rectangle 273" points="110.65 97.78 112.86 97.78 113.09 99.99 110.88 99.99 110.65 97.78"/><polygon id="Rectangle_274" data-name="Rectangle 274" points="49.02 99.99 51.23 99.99 51.46 102.2 49.26 102.2 49.02 99.99"/><polygon id="Rectangle_275" data-name="Rectangle 275" points="55.65 99.99 57.86 99.99 58.09 102.2 55.88 102.2 55.65 99.99"/><polygon id="Rectangle_276" data-name="Rectangle 276" points="57.86 99.99 60.07 99.99 60.3 102.2 58.09 102.2 57.86 99.99"/><polygon id="Rectangle_277" data-name="Rectangle 277" points="60.07 99.99 62.28 99.99 62.51 102.2 60.3 102.2 60.07 99.99"/><polygon id="Rectangle_278" data-name="Rectangle 278" points="62.28 99.99 64.49 99.99 64.72 102.2 62.51 102.2 62.28 99.99"/><polygon id="Rectangle_279" data-name="Rectangle 279" points="64.49 99.99 66.7 99.99 66.93 102.2 64.72 102.2 64.49 99.99"/><polygon id="Rectangle_280" data-name="Rectangle 280" points="66.7 99.99 68.91 99.99 69.14 102.2 66.93 102.2 66.7 99.99"/><polygon id="Rectangle_281" data-name="Rectangle 281" points="68.91 99.99 71.11 99.99 71.35 102.2 69.14 102.2 68.91 99.99"/><polygon id="Rectangle_282" data-name="Rectangle 282" points="71.11 99.99 73.32 99.99 73.56 102.2 71.35 102.2 71.11 99.99"/><polygon id="Rectangle_283" data-name="Rectangle 283" points="75.53 99.99 77.74 99.99 77.97 102.2 75.77 102.2 75.53 99.99"/><polygon id="Rectangle_284" data-name="Rectangle 284" points="77.74 99.99 79.95 99.99 80.18 102.2 77.97 102.2 77.74 99.99"/><polygon id="Rectangle_285" data-name="Rectangle 285" points="82.16 99.99 84.37 99.99 84.6 102.2 82.39 102.2 82.16 99.99"/><polygon id="Rectangle_286" data-name="Rectangle 286" points="84.37 99.99 86.58 99.99 86.81 102.2 84.6 102.2 84.37 99.99"/><polygon id="Rectangle_287" data-name="Rectangle 287" points="86.58 99.99 88.79 99.99 89.02 102.2 86.81 102.2 86.58 99.99"/><polygon id="Rectangle_288" data-name="Rectangle 288" points="88.79 99.99 91 99.99 91.23 102.2 89.02 102.2 88.79 99.99"/><polygon id="Rectangle_289" data-name="Rectangle 289" points="93.2 99.99 95.41 99.99 95.65 102.2 93.44 102.2 93.2 99.99"/><polygon id="Rectangle_290" data-name="Rectangle 290" points="104.25 99.99 106.46 99.99 106.69 102.2 104.48 102.2 104.25 99.99"/><polygon id="Rectangle_291" data-name="Rectangle 291" points="49.26 102.2 51.46 102.2 51.7 104.41 49.49 104.41 49.26 102.2"/><polygon id="Rectangle_292" data-name="Rectangle 292" points="53.67 102.2 55.88 102.2 56.12 104.41 53.91 104.41 53.67 102.2"/><polygon id="Rectangle_293" data-name="Rectangle 293" points="60.3 102.2 62.51 102.2 62.74 104.41 60.53 104.41 60.3 102.2"/><polygon id="Rectangle_294" data-name="Rectangle 294" points="64.72 102.2 66.93 102.2 67.16 104.41 64.95 104.41 64.72 102.2"/><polygon id="Rectangle_295" data-name="Rectangle 295" points="69.14 102.2 71.35 102.2 71.58 104.41 69.37 104.41 69.14 102.2"/><polygon id="Rectangle_296" data-name="Rectangle 296" points="71.35 102.2 73.56 102.2 73.79 104.41 71.58 104.41 71.35 102.2"/><polygon id="Rectangle_297" data-name="Rectangle 297" points="73.56 102.2 75.77 102.2 76 104.41 73.79 104.41 73.56 102.2"/><polygon id="Rectangle_298" data-name="Rectangle 298" points="89.02 102.2 91.23 102.2 91.46 104.41 89.25 104.41 89.02 102.2"/><polygon id="Rectangle_299" data-name="Rectangle 299" points="93.44 102.2 95.65 102.2 95.88 104.41 93.67 104.41 93.44 102.2"/><polygon id="Rectangle_300" data-name="Rectangle 300" points="102.27 102.2 104.48 102.2 104.72 104.41 102.51 104.41 102.27 102.2"/><polygon id="Rectangle_301" data-name="Rectangle 301" points="104.48 102.2 106.69 102.2 106.92 104.41 104.72 104.41 104.48 102.2"/><polygon id="Rectangle_302" data-name="Rectangle 302" points="108.9 102.2 111.11 102.2 111.34 104.41 109.13 104.41 108.9 102.2"/><polygon id="Rectangle_303" data-name="Rectangle 303" points="49.49 104.41 51.7 104.41 51.93 106.61 49.72 106.61 49.49 104.41"/><polygon id="Rectangle_304" data-name="Rectangle 304" points="53.91 104.41 56.12 104.41 56.35 106.61 54.14 106.61 53.91 104.41"/><polygon id="Rectangle_305" data-name="Rectangle 305" points="56.12 104.41 58.32 104.41 58.56 106.61 56.35 106.61 56.12 104.41"/><polygon id="Rectangle_306" data-name="Rectangle 306" points="60.53 104.41 62.74 104.41 62.97 106.61 60.77 106.61 60.53 104.41"/><polygon id="Rectangle_307" data-name="Rectangle 307" points="62.74 104.41 64.95 104.41 65.18 106.61 62.97 106.61 62.74 104.41"/><polygon id="Rectangle_308" data-name="Rectangle 308" points="67.16 104.41 69.37 104.41 69.6 106.61 67.39 106.61 67.16 104.41"/><polygon id="Rectangle_309" data-name="Rectangle 309" points="69.37 104.41 71.58 104.41 71.81 106.61 69.6 106.61 69.37 104.41"/><polygon id="Rectangle_310" data-name="Rectangle 310" points="73.79 104.41 76 104.41 76.23 106.61 74.02 106.61 73.79 104.41"/><polygon id="Rectangle_311" data-name="Rectangle 311" points="76 104.41 78.21 104.41 78.44 106.61 76.23 106.61 76 104.41"/><polygon id="Rectangle_312" data-name="Rectangle 312" points="78.21 104.41 80.42 104.41 80.65 106.61 78.44 106.61 78.21 104.41"/><polygon id="Rectangle_313" data-name="Rectangle 313" points="80.42 104.41 82.62 104.41 82.86 106.61 80.65 106.61 80.42 104.41"/><polygon id="Rectangle_314" data-name="Rectangle 314" points="87.04 104.41 89.25 104.41 89.48 106.61 87.27 106.61 87.04 104.41"/><polygon id="Rectangle_315" data-name="Rectangle 315" points="89.25 104.41 91.46 104.41 91.69 106.61 89.48 106.61 89.25 104.41"/><polygon id="Rectangle_316" data-name="Rectangle 316" points="93.67 104.41 95.88 104.41 96.11 106.61 93.9 106.61 93.67 104.41"/><polygon id="Rectangle_317" data-name="Rectangle 317" points="95.88 104.41 98.09 104.41 98.32 106.61 96.11 106.61 95.88 104.41"/><polygon id="Rectangle_318" data-name="Rectangle 318" points="98.09 104.41 100.3 104.41 100.53 106.61 98.32 106.61 98.09 104.41"/><polygon id="Rectangle_319" data-name="Rectangle 319" points="100.3 104.41 102.51 104.41 102.74 106.61 100.53 106.61 100.3 104.41"/><polygon id="Rectangle_320" data-name="Rectangle 320" points="102.51 104.41 104.72 104.41 104.95 106.61 102.74 106.61 102.51 104.41"/><polygon id="Rectangle_321" data-name="Rectangle 321" points="104.72 104.41 106.92 104.41 107.16 106.61 104.95 106.61 104.72 104.41"/><polygon id="Rectangle_322" data-name="Rectangle 322" points="106.92 104.41 109.13 104.41 109.36 106.61 107.16 106.61 106.92 104.41"/><polygon id="Rectangle_323" data-name="Rectangle 323" points="67.39 106.61 69.6 106.61 69.83 108.82 67.63 108.82 67.39 106.61"/><polygon id="Rectangle_324" data-name="Rectangle 324" points="71.81 106.61 74.02 106.61 74.25 108.82 72.04 108.82 71.81 106.61"/><polygon id="Rectangle_325" data-name="Rectangle 325" points="74.02 106.61 76.23 106.61 76.46 108.82 74.25 108.82 74.02 106.61"/><polygon id="Rectangle_326" data-name="Rectangle 326" points="76.23 106.61 78.44 106.61 78.67 108.82 76.46 108.82 76.23 106.61"/><polygon id="Rectangle_327" data-name="Rectangle 327" points="80.65 106.61 82.86 106.61 83.09 108.82 80.88 108.82 80.65 106.61"/><polygon id="Rectangle_328" data-name="Rectangle 328" points="82.86 106.61 85.06 106.61 85.3 108.82 83.09 108.82 82.86 106.61"/><polygon id="Rectangle_329" data-name="Rectangle 329" points="85.06 106.61 87.27 106.61 87.51 108.82 85.3 108.82 85.06 106.61"/><polygon id="Rectangle_330" data-name="Rectangle 330" points="89.48 106.61 91.69 106.61 91.92 108.82 89.72 108.82 89.48 106.61"/><polygon id="Rectangle_331" data-name="Rectangle 331" points="93.9 106.61 96.11 106.61 96.34 108.82 94.13 108.82 93.9 106.61"/><polygon id="Rectangle_332" data-name="Rectangle 332" points="102.74 106.61 104.95 106.61 105.18 108.82 102.97 108.82 102.74 106.61"/><polygon id="Rectangle_333" data-name="Rectangle 333" points="49.95 108.82 52.16 108.82 52.39 111.03 50.18 111.03 49.95 108.82"/><polygon id="Rectangle_334" data-name="Rectangle 334" points="52.16 108.82 54.37 108.82 54.6 111.03 52.39 111.03 52.16 108.82"/><polygon id="Rectangle_335" data-name="Rectangle 335" points="54.37 108.82 56.58 108.82 56.81 111.03 54.6 111.03 54.37 108.82"/><polygon id="Rectangle_336" data-name="Rectangle 336" points="56.58 108.82 58.79 108.82 59.02 111.03 56.81 111.03 56.58 108.82"/><polygon id="Rectangle_337" data-name="Rectangle 337" points="58.79 108.82 61 108.82 61.23 111.03 59.02 111.03 58.79 108.82"/><polygon id="Rectangle_338" data-name="Rectangle 338" points="61 108.82 63.21 108.82 63.44 111.03 61.23 111.03 61 108.82"/><polygon id="Rectangle_339" data-name="Rectangle 339" points="63.21 108.82 65.42 108.82 65.65 111.03 63.44 111.03 63.21 108.82"/><polygon id="Rectangle_340" data-name="Rectangle 340" points="67.63 108.82 69.83 108.82 70.07 111.03 67.86 111.03 67.63 108.82"/><polygon id="Rectangle_341" data-name="Rectangle 341" points="69.83 108.82 72.04 108.82 72.28 111.03 70.07 111.03 69.83 108.82"/><polygon id="Rectangle_342" data-name="Rectangle 342" points="72.04 108.82 74.25 108.82 74.48 111.03 72.28 111.03 72.04 108.82"/><polygon id="Rectangle_343" data-name="Rectangle 343" points="78.67 108.82 80.88 108.82 81.11 111.03 78.9 111.03 78.67 108.82"/><polygon id="Rectangle_344" data-name="Rectangle 344" points="80.88 108.82 83.09 108.82 83.32 111.03 81.11 111.03 80.88 108.82"/><polygon id="Rectangle_345" data-name="Rectangle 345" points="83.09 108.82 85.3 108.82 85.53 111.03 83.32 111.03 83.09 108.82"/><polygon id="Rectangle_346" data-name="Rectangle 346" points="85.3 108.82 87.51 108.82 87.74 111.03 85.53 111.03 85.3 108.82"/><polygon id="Rectangle_347" data-name="Rectangle 347" points="89.72 108.82 91.92 108.82 92.16 111.03 89.95 111.03 89.72 108.82"/><polygon id="Rectangle_348" data-name="Rectangle 348" points="91.92 108.82 94.13 108.82 94.37 111.03 92.16 111.03 91.92 108.82"/><polygon id="Rectangle_349" data-name="Rectangle 349" points="94.13 108.82 96.34 108.82 96.58 111.03 94.37 111.03 94.13 108.82"/><polygon id="Rectangle_350" data-name="Rectangle 350" points="98.55 108.82 100.76 108.82 100.99 111.03 98.78 111.03 98.55 108.82"/><polygon id="Rectangle_351" data-name="Rectangle 351" points="102.97 108.82 105.18 108.82 105.41 111.03 103.2 111.03 102.97 108.82"/><polygon id="Rectangle_352" data-name="Rectangle 352" points="105.18 108.82 107.39 108.82 107.62 111.03 105.41 111.03 105.18 108.82"/><polygon id="Rectangle_353" data-name="Rectangle 353" points="107.39 108.82 109.6 108.82 109.83 111.03 107.62 111.03 107.39 108.82"/><polygon id="Rectangle_354" data-name="Rectangle 354" points="50.18 111.03 52.39 111.03 52.63 113.24 50.42 113.24 50.18 111.03"/><polygon id="Rectangle_355" data-name="Rectangle 355" points="63.44 111.03 65.65 111.03 65.88 113.24 63.67 113.24 63.44 111.03"/><polygon id="Rectangle_356" data-name="Rectangle 356" points="83.32 111.03 85.53 111.03 85.76 113.24 83.55 113.24 83.32 111.03"/><polygon id="Rectangle_357" data-name="Rectangle 357" points="89.95 111.03 92.16 111.03 92.39 113.24 90.18 113.24 89.95 111.03"/><polygon id="Rectangle_358" data-name="Rectangle 358" points="92.16 111.03 94.37 111.03 94.6 113.24 92.39 113.24 92.16 111.03"/><polygon id="Rectangle_359" data-name="Rectangle 359" points="94.37 111.03 96.58 111.03 96.81 113.24 94.6 113.24 94.37 111.03"/><polygon id="Rectangle_360" data-name="Rectangle 360" points="103.2 111.03 105.41 111.03 105.64 113.24 103.44 113.24 103.2 111.03"/><polygon id="Rectangle_361" data-name="Rectangle 361" points="109.83 111.03 112.04 111.03 112.27 113.24 110.06 113.24 109.83 111.03"/><polygon id="Rectangle_362" data-name="Rectangle 362" points="112.04 111.03 114.25 111.03 114.48 113.24 112.27 113.24 112.04 111.03"/><polygon id="Rectangle_363" data-name="Rectangle 363" points="50.42 113.24 52.63 113.24 52.86 115.45 50.65 115.45 50.42 113.24"/><polygon id="Rectangle_364" data-name="Rectangle 364" points="54.83 113.24 57.04 113.24 57.28 115.45 55.07 115.45 54.83 113.24"/><polygon id="Rectangle_365" data-name="Rectangle 365" points="57.04 113.24 59.25 113.24 59.48 115.45 57.28 115.45 57.04 113.24"/><polygon id="Rectangle_366" data-name="Rectangle 366" points="59.25 113.24 61.46 113.24 61.69 115.45 59.48 115.45 59.25 113.24"/><polygon id="Rectangle_367" data-name="Rectangle 367" points="63.67 113.24 65.88 113.24 66.11 115.45 63.9 115.45 63.67 113.24"/><polygon id="Rectangle_368" data-name="Rectangle 368" points="68.09 113.24 70.3 113.24 70.53 115.45 68.32 115.45 68.09 113.24"/><polygon id="Rectangle_369" data-name="Rectangle 369" points="76.92 113.24 79.14 113.24 79.37 115.45 77.16 115.45 76.92 113.24"/><polygon id="Rectangle_370" data-name="Rectangle 370" points="79.14 113.24 81.34 113.24 81.58 115.45 79.37 115.45 79.14 113.24"/><polygon id="Rectangle_371" data-name="Rectangle 371" points="81.34 113.24 83.55 113.24 83.78 115.45 81.58 115.45 81.34 113.24"/><polygon id="Rectangle_372" data-name="Rectangle 372" points="85.76 113.24 87.97 113.24 88.2 115.45 85.99 115.45 85.76 113.24"/><polygon id="Rectangle_373" data-name="Rectangle 373" points="94.6 113.24 96.81 113.24 97.04 115.45 94.83 115.45 94.6 113.24"/><polygon id="Rectangle_374" data-name="Rectangle 374" points="96.81 113.24 99.02 113.24 99.25 115.45 97.04 115.45 96.81 113.24"/><polygon id="Rectangle_375" data-name="Rectangle 375" points="99.02 113.24 101.23 113.24 101.46 115.45 99.25 115.45 99.02 113.24"/><polygon id="Rectangle_376" data-name="Rectangle 376" points="101.23 113.24 103.44 113.24 103.67 115.45 101.46 115.45 101.23 113.24"/><polygon id="Rectangle_377" data-name="Rectangle 377" points="103.44 113.24 105.64 113.24 105.88 115.45 103.67 115.45 103.44 113.24"/><polygon id="Rectangle_378" data-name="Rectangle 378" points="107.85 113.24 110.06 113.24 110.29 115.45 108.08 115.45 107.85 113.24"/><polygon id="Rectangle_379" data-name="Rectangle 379" points="112.27 113.24 114.48 113.24 114.71 115.45 112.5 115.45 112.27 113.24"/><polygon id="Rectangle_380" data-name="Rectangle 380" points="50.65 115.45 52.86 115.45 53.09 117.66 50.88 117.66 50.65 115.45"/><polygon id="Rectangle_381" data-name="Rectangle 381" points="55.07 115.45 57.28 115.45 57.51 117.66 55.3 117.66 55.07 115.45"/><polygon id="Rectangle_382" data-name="Rectangle 382" points="57.28 115.45 59.48 115.45 59.72 117.66 57.51 117.66 57.28 115.45"/><polygon id="Rectangle_383" data-name="Rectangle 383" points="59.48 115.45 61.69 115.45 61.93 117.66 59.72 117.66 59.48 115.45"/><polygon id="Rectangle_384" data-name="Rectangle 384" points="63.9 115.45 66.11 115.45 66.34 117.66 64.14 117.66 63.9 115.45"/><polygon id="Rectangle_385" data-name="Rectangle 385" points="68.32 115.45 70.53 115.45 70.76 117.66 68.55 117.66 68.32 115.45"/><polygon id="Rectangle_386" data-name="Rectangle 386" points="72.74 115.45 74.95 115.45 75.18 117.66 72.97 117.66 72.74 115.45"/><polygon id="Rectangle_387" data-name="Rectangle 387" points="74.95 115.45 77.16 115.45 77.39 117.66 75.18 117.66 74.95 115.45"/><polygon id="Rectangle_388" data-name="Rectangle 388" points="79.37 115.45 81.58 115.45 81.81 117.66 79.6 117.66 79.37 115.45"/><polygon id="Rectangle_389" data-name="Rectangle 389" points="85.99 115.45 88.2 115.45 88.44 117.66 86.23 117.66 85.99 115.45"/><polygon id="Rectangle_390" data-name="Rectangle 390" points="97.04 115.45 99.25 115.45 99.48 117.66 97.27 117.66 97.04 115.45"/><polygon id="Rectangle_391" data-name="Rectangle 391" points="101.46 115.45 103.67 115.45 103.9 117.66 101.69 117.66 101.46 115.45"/><polygon id="Rectangle_392" data-name="Rectangle 392" points="103.67 115.45 105.88 115.45 106.11 117.66 103.9 117.66 103.67 115.45"/><polygon id="Rectangle_393" data-name="Rectangle 393" points="110.29 115.45 112.5 115.45 112.73 117.66 110.53 117.66 110.29 115.45"/><polygon id="Rectangle_394" data-name="Rectangle 394" points="112.5 115.45 114.71 115.45 114.94 117.66 112.73 117.66 112.5 115.45"/><polygon id="Rectangle_395" data-name="Rectangle 395" points="50.88 117.66 53.09 117.66 53.32 119.87 51.11 119.87 50.88 117.66"/><polygon id="Rectangle_396" data-name="Rectangle 396" points="55.3 117.66 57.51 117.66 57.74 119.87 55.53 119.87 55.3 117.66"/><polygon id="Rectangle_397" data-name="Rectangle 397" points="57.51 117.66 59.72 117.66 59.95 119.87 57.74 119.87 57.51 117.66"/><polygon id="Rectangle_398" data-name="Rectangle 398" points="59.72 117.66 61.93 117.66 62.16 119.87 59.95 119.87 59.72 117.66"/><polygon id="Rectangle_399" data-name="Rectangle 399" points="64.14 117.66 66.34 117.66 66.58 119.87 64.37 119.87 64.14 117.66"/><polygon id="Rectangle_400" data-name="Rectangle 400" points="68.55 117.66 70.76 117.66 71 119.87 68.79 119.87 68.55 117.66"/><polygon id="Rectangle_401" data-name="Rectangle 401" points="70.76 117.66 72.97 117.66 73.2 119.87 71 119.87 70.76 117.66"/><polygon id="Rectangle_402" data-name="Rectangle 402" points="72.97 117.66 75.18 117.66 75.41 119.87 73.2 119.87 72.97 117.66"/><polygon id="Rectangle_403" data-name="Rectangle 403" points="84.02 117.66 86.23 117.66 86.46 119.87 84.25 119.87 84.02 117.66"/><polygon id="Rectangle_404" data-name="Rectangle 404" points="86.23 117.66 88.44 117.66 88.67 119.87 86.46 119.87 86.23 117.66"/><polygon id="Rectangle_405" data-name="Rectangle 405" points="90.64 117.66 92.85 117.66 93.09 119.87 90.88 119.87 90.64 117.66"/><polygon id="Rectangle_406" data-name="Rectangle 406" points="92.85 117.66 95.06 117.66 95.3 119.87 93.09 119.87 92.85 117.66"/><polygon id="Rectangle_407" data-name="Rectangle 407" points="97.27 117.66 99.48 117.66 99.71 119.87 97.5 119.87 97.27 117.66"/><polygon id="Rectangle_408" data-name="Rectangle 408" points="99.48 117.66 101.69 117.66 101.92 119.87 99.71 119.87 99.48 117.66"/><polygon id="Rectangle_409" data-name="Rectangle 409" points="101.69 117.66 103.9 117.66 104.13 119.87 101.92 119.87 101.69 117.66"/><polygon id="Rectangle_410" data-name="Rectangle 410" points="103.9 117.66 106.11 117.66 106.34 119.87 104.13 119.87 103.9 117.66"/><polygon id="Rectangle_411" data-name="Rectangle 411" points="110.53 117.66 112.73 117.66 112.97 119.87 110.76 119.87 110.53 117.66"/><polygon id="Rectangle_412" data-name="Rectangle 412" points="51.11 119.87 53.32 119.87 53.55 122.08 51.34 122.08 51.11 119.87"/><polygon id="Rectangle_413" data-name="Rectangle 413" points="64.37 119.87 66.58 119.87 66.81 122.08 64.6 122.08 64.37 119.87"/><polygon id="Rectangle_414" data-name="Rectangle 414" points="68.79 119.87 71 119.87 71.23 122.08 69.02 122.08 68.79 119.87"/><polygon id="Rectangle_415" data-name="Rectangle 415" points="71 119.87 73.2 119.87 73.44 122.08 71.23 122.08 71 119.87"/><polygon id="Rectangle_416" data-name="Rectangle 416" points="75.41 119.87 77.62 119.87 77.85 122.08 75.64 122.08 75.41 119.87"/><polygon id="Rectangle_417" data-name="Rectangle 417" points="77.62 119.87 79.83 119.87 80.06 122.08 77.85 122.08 77.62 119.87"/><polygon id="Rectangle_418" data-name="Rectangle 418" points="82.04 119.87 84.25 119.87 84.48 122.08 82.27 122.08 82.04 119.87"/><polygon id="Rectangle_419" data-name="Rectangle 419" points="84.25 119.87 86.46 119.87 86.69 122.08 84.48 122.08 84.25 119.87"/><polygon id="Rectangle_420" data-name="Rectangle 420" points="90.88 119.87 93.09 119.87 93.32 122.08 91.11 122.08 90.88 119.87"/><polygon id="Rectangle_421" data-name="Rectangle 421" points="93.09 119.87 95.3 119.87 95.53 122.08 93.32 122.08 93.09 119.87"/><polygon id="Rectangle_422" data-name="Rectangle 422" points="95.3 119.87 97.5 119.87 97.74 122.08 95.53 122.08 95.3 119.87"/><polygon id="Rectangle_423" data-name="Rectangle 423" points="97.5 119.87 99.71 119.87 99.94 122.08 97.74 122.08 97.5 119.87"/><polygon id="Rectangle_424" data-name="Rectangle 424" points="101.92 119.87 104.13 119.87 104.36 122.08 102.15 122.08 101.92 119.87"/><polygon id="Rectangle_425" data-name="Rectangle 425" points="104.13 119.87 106.34 119.87 106.57 122.08 104.36 122.08 104.13 119.87"/><polygon id="Rectangle_426" data-name="Rectangle 426" points="106.34 119.87 108.55 119.87 108.78 122.08 106.57 122.08 106.34 119.87"/><polygon id="Rectangle_427" data-name="Rectangle 427" points="110.76 119.87 112.97 119.87 113.2 122.08 110.99 122.08 110.76 119.87"/><polygon id="Rectangle_428" data-name="Rectangle 428" points="51.34 122.08 53.55 122.08 53.79 124.29 51.58 124.29 51.34 122.08"/><polygon id="Rectangle_429" data-name="Rectangle 429" points="53.55 122.08 55.76 122.08 55.99 124.29 53.79 124.29 53.55 122.08"/><polygon id="Rectangle_430" data-name="Rectangle 430" points="55.76 122.08 57.97 122.08 58.2 124.29 55.99 124.29 55.76 122.08"/><polygon id="Rectangle_431" data-name="Rectangle 431" points="57.97 122.08 60.18 122.08 60.41 124.29 58.2 124.29 57.97 122.08"/><polygon id="Rectangle_432" data-name="Rectangle 432" points="60.18 122.08 62.39 122.08 62.62 124.29 60.41 124.29 60.18 122.08"/><polygon id="Rectangle_433" data-name="Rectangle 433" points="62.39 122.08 64.6 122.08 64.83 124.29 62.62 124.29 62.39 122.08"/><polygon id="Rectangle_434" data-name="Rectangle 434" points="64.6 122.08 66.81 122.08 67.04 124.29 64.83 124.29 64.6 122.08"/><polygon id="Rectangle_435" data-name="Rectangle 435" points="69.02 122.08 71.23 122.08 71.46 124.29 69.25 124.29 69.02 122.08"/><polygon id="Rectangle_436" data-name="Rectangle 436" points="71.23 122.08 73.44 122.08 73.67 124.29 71.46 124.29 71.23 122.08"/><polygon id="Rectangle_437" data-name="Rectangle 437" points="73.44 122.08 75.64 122.08 75.88 124.29 73.67 124.29 73.44 122.08"/><polygon id="Rectangle_438" data-name="Rectangle 438" points="77.85 122.08 80.06 122.08 80.3 124.29 78.09 124.29 77.85 122.08"/><polygon id="Rectangle_439" data-name="Rectangle 439" points="80.06 122.08 82.27 122.08 82.5 124.29 80.3 124.29 80.06 122.08"/><polygon id="Rectangle_440" data-name="Rectangle 440" points="82.27 122.08 84.48 122.08 84.71 124.29 82.5 124.29 82.27 122.08"/><polygon id="Rectangle_441" data-name="Rectangle 441" points="84.48 122.08 86.69 122.08 86.92 124.29 84.71 124.29 84.48 122.08"/><polygon id="Rectangle_442" data-name="Rectangle 442" points="88.9 122.08 91.11 122.08 91.34 124.29 89.13 124.29 88.9 122.08"/><polygon id="Rectangle_443" data-name="Rectangle 443" points="93.32 122.08 95.53 122.08 95.76 124.29 93.55 124.29 93.32 122.08"/><polygon id="Rectangle_444" data-name="Rectangle 444" points="97.74 122.08 99.94 122.08 100.18 124.29 97.97 124.29 97.74 122.08"/><polygon id="Rectangle_445" data-name="Rectangle 445" points="104.36 122.08 106.57 122.08 106.81 124.29 104.6 124.29 104.36 122.08"/><polygon id="Rectangle_446" data-name="Rectangle 446" points="106.57 122.08 108.78 122.08 109.01 124.29 106.81 124.29 106.57 122.08"/></g></g><g id="UPI_2" data-name="UPI 2"><g id="Layer_1-3" data-name="Layer 1-3"><g id="UPI"><path id="Path_7" data-name="Path 7" class="cls-8" d="M107.48,12.78c.12-.69.23-1.34.34-2,.06-.34.12-.68.17-1a.23.23,0,0,1,.27-.22h3.21c.59,0,1.19,0,1.78,0a.24.24,0,0,0,.29-.24h0c0-.32.1-.61.16-.94h-5.43c0-.34.1-.67.16-1,0,0,0-.06.08-.07a.24.24,0,0,1,.12,0h5.75a.43.43,0,0,1,.48.31.45.45,0,0,1,0,.23c-.09.54-.19,1.07-.28,1.61l-.09.52a.65.65,0,0,1-.72.58h-4.51c-.29,0-.32,0-.37.32-.1.58-.19,1.15-.3,1.73a.15.15,0,0,1-.17.16h-.94Z"/><path id="Path_8" data-name="Path 8" class="cls-8" d="M107.68,7.34l-.52,3.05-.33,2c-.06.35-.18.46-.55.46h-5.42c-.43,0-.59-.19-.51-.65L101,8.5c.05-.31.11-.63.16-.94,0-.14.08-.22.23-.21h.84l-.75,4.38.25,0h3.89a.24.24,0,0,0,.29-.22h0c.21-1.3.43-2.6.66-3.91,0-.28.06-.29.35-.29Z"/><path id="Path_9" data-name="Path 9" class="cls-9" d="M118,11.8l-.91.94-.05,0c.31-1.78.61-3.56.92-5.37l.63,1c.3.51.61,1,.91,1.51.13.22.13.24,0,.41Z"/><path id="Path_10" data-name="Path 10" class="cls-11" d="M116.8,7.31c-.08.48-.17,1-.25,1.42-.21,1.27-.43,2.54-.65,3.81a.22.22,0,0,1-.24.22h-.88c.06-.36.11-.69.17-1l.74-4.15c0-.25.09-.28.34-.28Z"/><path id="Path_11" data-name="Path 11" class="cls-10" d="M118,11.8l1.47-1.57c.16-.17.16-.19,0-.41-.31-.5-.61-1-.91-1.5.06-.32.11-.65.18-1l.85,1.39c.23.39.47.79.71,1.16a.24.24,0,0,1,0,.33l-2.33,2.44-.14.11Z"/></g></g></g><line id="Line_1" data-name="Line 1" class="cls-12" x1="39.02" y1="50.7" x2="112.66" y2="50.7"/><g id="Hariom_Kariyana_Store" data-name="Hariom Kariyana Store" class="cls-13"><text class="cls-14" transform="matrix(0.99, 0, 0.1, 0.99, 46.27, 46.46)">Hariom <tspan class="cls-15" x="20.03" y="0">K</tspan><tspan x="23.47" y="0">ari</tspan><tspan class="cls-16" x="30.07" y="0">y</tspan><tspan x="32.91" y="0">ana </tspan><tspan class="cls-17" x="44.04" y="0">S</tspan><tspan x="47.4" y="0">to</tspan><tspan class="cls-18" x="52.46" y="0">r</tspan><tspan class="cls-19" x="54.42" y="0">e</tspan></text></g><g id="Paykun_LOGO_" data-name="Paykun LOGO "><g id="Layer_1-4" data-name="Layer 1-4"><g id="_Group_2" data-name=" Group 2"><path id="_Path_" data-name=" Path " class="cls-20" d="M127.79,178.92l-.31,2.94h.75l.08-.81.31-.34.64,1.15h.83l-.89-1.58,1.2-1.36h-.86l-1.12,1.25h0l.13-1.25Z"/><path id="_Path_2" data-name=" Path 2" class="cls-20" d="M135.11,178.92l-.19,1.8h0l-1.05-1.8h-.59l-.32,2.94h.72l.19-1.8h0l1.06,1.8h.58l.32-2.94Z"/><path id="_Path_3" data-name=" Path 3" class="cls-20" d="M132.5,179a4.4,4.4,0,0,0-5.5-2.05,4.07,4.07,0,0,0-2,1.46,4.23,4.23,0,0,1,1.64-1.08,4.09,4.09,0,0,1,5.14,1.74,2.83,2.83,0,0,1,.26,1.36l0,.38a.54.54,0,0,1-1.05.15s0,0,0-.07a.61.61,0,0,1,0-.19l.2-1.75h-.76l-.19,1.76a1.13,1.13,0,0,0,0,.26,1.16,1.16,0,0,0,1.3,1,1.11,1.11,0,0,0,1.22-1l.05-.54A3.56,3.56,0,0,0,132.5,179Z"/></g><g id="_Group_3" data-name=" Group 3"><path id="_Compound_Path_" data-name=" Compound Path " class="cls-21" d="M122.66,179.8a1,1,0,0,0-1.12-.88h-1.09l-.32,2.94h.75L121,181h.49C122.27,181,122.74,180.54,122.66,179.8Zm-1.26.63H121l.1-.94h.32a.42.42,0,0,1,.47.38.48.48,0,0,1-.45.56Z"/><path id="_Path_4" data-name=" Path 4" class="cls-21" d="M126.21,180.14h0l-.46-1.22H125l.8,1.92-.07.7,0,.32h.75l.11-1,1.22-1.94h-.82Z"/><path id="_Compound_Path_2" data-name=" Compound Path 2" class="cls-21" d="M125.37,181.75a2.85,2.85,0,0,1-.18-.54l-.73-2.3h-.92l-1.33,2.94H123l.27-.65h1.17a3.39,3.39,0,0,0,.21.61,4.41,4.41,0,0,0,5.5,2.05,4.12,4.12,0,0,0,2-1.42,4.25,4.25,0,0,1-1.67,1A4,4,0,0,1,125.37,181.75Zm-1.89-1.08.44-1.1.35,1.1Z"/></g><path id="Path_2185" data-name="Path 2185" class="cls-22" d="M117.42,177.93l-.22-2h2"/><path id="Path_2186" data-name="Path 2186" class="cls-22" d="M138,177.93l-.22-2h-2"/><path id="Path_2187" data-name="Path 2187" class="cls-22" d="M117.93,182.85l.22,2h2"/><path id="Path_2188" data-name="Path 2188" class="cls-22" d="M138.55,182.85l.21,2h-2"/></g></g><g id="Powered_by" data-name="Powered by" class="cls-23"><text class="cls-24" transform="matrix(0.99, 0, 0.1, 0.99, 41.07, 181.82)"><tspan class="cls-25">P</tspan><tspan class="cls-26" x="2.42" y="0">ow</tspan><tspan class="cls-27" x="7.88" y="0">e</tspan><tspan class="cls-28" x="9.94" y="0">r</tspan><tspan class="cls-27" x="11.33" y="0">ed </tspan><tspan class="cls-26" x="16.7" y="0">b</tspan><tspan x="18.98" y="0">y</tspan></text></g><g id="PayKun_QR" data-name="PayKun QR" class="cls-13"><text class="cls-29" transform="matrix(0.99, 0, 0.1, 0.99, 64.36, 182.76)"><tspan class="cls-30">P</tspan><tspan x="4.04" y="0">ay</tspan><tspan class="cls-31" x="11.25" y="0">K</tspan><tspan x="15.27" y="0">un QR</tspan></text></g><g id="You_can_pay_using_any_UPI_app_like" data-name="You can pay using any UPI app like" class="cls-13"><text class="cls-32" transform="matrix(0.99, 0, 0.1, 0.99, 44.17, 139.83)">Y<tspan class="cls-33" x="2.72" y="0">ou can pay using any UPI app li</tspan><tspan class="cls-34" x="77.08" y="0">k</tspan><tspan class="cls-33" x="79.72" y="0">e</tspan></text></g><g id="Group_1" data-name="Group 1"><g id="Ponepe"><g id="Layer_1-5" data-name="Layer 1-5"><path id="Path_2152" data-name="Path 2152" class="cls-35" d="M105.47,146.75a4.86,4.86,0,0,1,4.72,4.28,3.78,3.78,0,0,1-3.83,4.28,4.89,4.89,0,0,1-4.73-4.29c0-.05,0-.1,0-.15A3.77,3.77,0,0,1,105.47,146.75Zm1.68,3.44,0,0,.23,0c.41,0,.37,0,.33-.37,0-.13-.07-.18-.2-.18h-.83a1.56,1.56,0,0,1-.2-.16L105.44,148a.45.45,0,0,0-.22-.13,1.77,1.77,0,0,0-.4,0c-.1,0-.12.07-.09.16l.08.12,1.24,1.46v0h-1.91s-.14.06-.14.1,0,.3.11.43h.35c.12,0,.17,0,.18.15,0,.49.09,1,.15,1.45a1,1,0,0,0,.83.95c.41.08.83.14,1.13-.24l.12,1.11c0,.3.07.33.36.31l.09,0c.19,0,.19-.1.17-.25-.11-1.07-.23-2.15-.34-3.22v-.17Z"/><path id="Path_2153" data-name="Path 2153" class="cls-36" d="M106.05,149.55l0,0,0,0Z"/><path id="Path_2154" data-name="Path 2154" class="cls-36" d="M106.74,149.59h0Z"/><path id="Path_2155" data-name="Path 2155" class="cls-37" d="M107.15,150.19l0,0Z"/><path id="Path_2156" data-name="Path 2156" class="cls-38" d="M105.31,151c0-.24,0-.48-.07-.72s0-.14.13-.14h1c.1,0,.14,0,.15.14,0,.47.11.94.15,1.42a.44.44,0,0,1-.41.53h-.07c-.1,0-.2,0-.3,0a.51.51,0,0,1-.51-.44v0l-.08-.75Z"/></g></g><g id="Bhim-2"><g id="Layer_1-6" data-name="Layer 1-6"><path id="Path_2171" data-name="Path 2171" class="cls-39" d="M48.9,147l2.54,4.27-3.89,4.28Z"/><path id="Path_2172" data-name="Path 2172" class="cls-40" d="M47.45,146.75,50,151l-3.89,4.28Z"/></g></g><g id="Paytm"><g id="Layer_1-7" data-name="Layer 1-7"><path id="Path_2146" data-name="Path 2146" class="cls-41" d="M71.33,149.8a1,1,0,0,1,1.26.06.93.93,0,0,1,.57-.27,1,1,0,0,1,1,.85v0l.27,2.55c0,.15,0,.18-.16.18h-.5c-.17,0-.21,0-.23-.2l-.23-2.25a.26.26,0,0,0-.29-.26c-.18,0-.26.08-.24.27l.24,2.26c0,.15,0,.18-.17.19h-.51c-.14,0-.18,0-.2-.18-.06-.53-.12-1.06-.17-1.6l-.08-.69c0-.17-.1-.24-.28-.24s-.25.07-.24.24l.24,2.26c0,.17,0,.2-.17.2H71c-.12,0-.17,0-.19-.16l-.34-3.24c0-.12,0-.16.15-.17h.52C71.26,149.62,71.29,149.64,71.33,149.8Z"/><path id="Path_2147" data-name="Path 2147" class="cls-42" d="M65.52,151.67l.12,1.12a.32.32,0,0,1-.27.4H64.21a.89.89,0,0,1-.92-.73s0-.05,0-.08c0-.26-.06-.52-.08-.77a.71.71,0,0,1,.65-.8,4,4,0,0,1,.49,0c.16,0,.18,0,.17-.16s-.06-.16-.22-.16h-.67c-.14,0-.19-.05-.21-.19l0-.5a.12.12,0,0,1,.1-.15h0c.34,0,.68,0,1,0a.9.9,0,0,1,.89.78v.1Zm-1.39.34v0c0,.4.06.36.41.36.11,0,.15-.06.15-.17l0-.27c0-.36,0-.35-.42-.35h0a.13.13,0,0,0-.13.15h0c0,.08,0,.16,0,.24Z"/><path id="Path_2148" data-name="Path 2148" class="cls-43" d="M68.07,151.08l.13,1.2a.78.78,0,0,1-.71.93h-1c-.15,0-.19,0-.21-.19l0-.52c0-.13,0-.17.15-.17h.75c.17,0,.23-.05.22-.15s-.08-.14-.25-.14a2.47,2.47,0,0,1-.47,0,1,1,0,0,1-.81-.88c-.06-.44-.1-.89-.14-1.33,0-.14,0-.18.17-.18h.5c.15,0,.2,0,.22.2l.11,1.11c0,.19.06.22.25.22s.31,0,.28-.3l-.11-1.05c0-.14,0-.18.16-.18h.52c.13,0,.18.05.2.18C68,150.23,68,150.65,68.07,151.08Z"/><path id="Path_2149" data-name="Path 2149" class="cls-44" d="M61.64,152.14l.09.86c0,.16,0,.2-.17.2H61c-.12,0-.17,0-.18-.16l-.34-3.25c0-.12,0-.16.14-.16H62a.84.84,0,0,1,.85.71h0a7,7,0,0,1,.12,1.11.66.66,0,0,1-.71.69C62.05,152.15,61.85,152.14,61.64,152.14Zm-.16-1.63.07.75h.37a.13.13,0,0,0,.14-.13v0c0-.15,0-.3,0-.44a.18.18,0,0,0-.15-.16h-.38Z"/><path id="Path_2150" data-name="Path 2150" class="cls-45" d="M69.62,149.63h.31c.12,0,.18,0,.19.17l.06.54c0,.12,0,.17-.16.17h-.3L70,153c0,.18,0,.21-.2.21h-.44c-.18,0-.21,0-.23-.2l-.26-2.51h-.32c-.13,0-.18,0-.2-.17l0-.55c0-.11,0-.16.14-.16a.77.77,0,0,0,.68-.39.9.9,0,0,1,.24-.27c.11-.07.21,0,.23.13S69.6,149.44,69.62,149.63Z"/></g></g><g id="google_pay_2" data-name="google pay 2"><g id="Layer_1-8" data-name="Layer 1-8"><path id="Path_2184" data-name="Path 2184" class="cls-46" d="M87.48,146.75a4.75,4.75,0,0,1,4.62,4.17,3.69,3.69,0,0,1-3.74,4.17,4.75,4.75,0,0,1-4.61-4.17h0A3.68,3.68,0,0,1,87.48,146.75Z"/><path id="Path_2175" data-name="Path 2175" class="cls-47" d="M85.12,151.13l0,.25h-.25a1,1,0,0,1-.1-.9h0l.22,0,.12.22a.6.6,0,0,0,.05.39Z"/><path id="Path_2176" data-name="Path 2176" class="cls-48" d="M86.57,150.74a1.29,1.29,0,0,1,0,.19.67.67,0,0,1,0,.2.82.82,0,0,1-.28.55h-.28l-.07-.25a.46.46,0,0,0,.22-.29h-.52l0-.39Z"/><path id="Path_2177" data-name="Path 2177" class="cls-49" d="M86.33,151.68h0a1,1,0,0,1-1.38-.15.81.81,0,0,1-.12-.14l.29-.26a.64.64,0,0,0,.78.34l.08-.05Z"/><path id="Path_2178" data-name="Path 2178" class="cls-50" d="M86.18,150.18l-.29.26a.54.54,0,0,0-.77.18.56.56,0,0,0,0,.12l-.35-.26h0a.9.9,0,0,1,1.27-.41l.18.11Z"/><path id="Path_2179" data-name="Path 2179" class="cls-51" d="M86.47,154.67a3.87,3.87,0,0,0,5.39-1.91,4.56,4.56,0,0,0-2.49-5.59,4.64,4.64,0,0,0-1.13-.36Z"/><path id="Path_2180" data-name="Path 2180" class="cls-52" d="M88,150.09a2.73,2.73,0,0,1,.41,0,.8.8,0,0,1,.49.14.51.51,0,0,1,.19.35.48.48,0,0,1-.1.37.65.65,0,0,1-.49.18h-.18l.07.67H88.2Zm.3.82a.55.55,0,0,0,.18,0c.27,0,.41-.12.39-.36s-.19-.33-.43-.33l-.21,0Z"/><path id="Path_2181" data-name="Path 2181" class="cls-52" d="M90.13,151.76l0-.15h0a.41.41,0,0,1-.35.18.39.39,0,0,1-.4-.32v0c0-.29.22-.45.69-.45v0a.28.28,0,0,0-.24-.28h-.06a.56.56,0,0,0-.31.09l-.06-.14a.63.63,0,0,1,.38-.11.49.49,0,0,1,.52.5l.05.45a1,1,0,0,0,0,.29Zm-.09-.62c-.24,0-.51,0-.49.27a.25.25,0,0,0,.2.22h0a.27.27,0,0,0,.28-.21v-.07Z"/><path id="Path_2182" data-name="Path 2182" class="cls-52" d="M90.6,150.55l.34.72.11.24h0c0-.07,0-.16,0-.25l.17-.71h.23l-.24.86a1.54,1.54,0,0,1-.33.76.61.61,0,0,1-.26.15l-.07-.19a.42.42,0,0,0,.18-.11.56.56,0,0,0,.16-.24.13.13,0,0,0,0-.06.08.08,0,0,0,0-.05l-.57-1.12Z"/><path id="Path_2183" data-name="Path 2183" class="cls-53" d="M86.4,154.63l.29.13,1.75-7.91-.3,0Z"/></g></g><g id="freecharge"><g id="Layer_1-9" data-name="Layer 1-9"><ellipse id="Ellipse_321" data-name="Ellipse 321" class="cls-54" cx="122.77" cy="151.02" rx="4.36" ry="4.84" transform="translate(-71.29 136.13) rotate(-46.5)"/><path id="Path_184" data-name="Path 184" class="cls-52" d="M122.14,149.55c-.09.51-.09.51-.61.62,0,.2,0,.41,0,.64h.63c-.22.58-.43,1.12-.66,1.69l.6,0-.43,1.09,1.61-1.7,0-.07h-.66c.35-.38.63-.7.93-1a.82.82,0,0,0,.21-.72h-.8c.07-.29.07-.59.22-.71a2.3,2.3,0,0,1,.82-.25c0-.15,0-.36.06-.58A1.32,1.32,0,0,0,122.14,149.55Z"/></g></g></g></g></g></g></svg>