<svg xmlns="http://www.w3.org/2000/svg" viewBox="0 0 177.48 183.92"><defs><style>.cls-1{fill:#0d7bff;opacity:0.04;isolation:isolate;}.cls-2{fill:#718cff;}.cls-3{fill:#36367f;}.cls-4{fill:#9be0aa;}.cls-5{fill:#f7af9f;}.cls-6{fill:#fff;}</style></defs><title>Refer and Earn</title><g id="Layer_2" data-name="Layer 2"><g id="New_test" data-name="New test"><path class="cls-1" d="M21.48,124.72c-4.3-26.8-55.54-63.57,17.43-102.91s62.52,24.81,74.74,42.49c9.08,13.14,38,15.33,50.16,39.59s-26.57,65.72-68.46,77.21C56.29,191.82,29,171.8,21.48,124.72Z"/><path class="cls-2" d="M41.61,150.36c-1.85,1.25-3.65,2.59-5.4,4L17.08,135.23l-.37-.31a84.9,84.9,0,0,0,5.46-7.6,84,84,0,0,0,8.08-16.39L42.68,76.74l51.67,51.67L60.16,140.85a83,83,0,0,0-18.55,9.51Z"/><path class="cls-3" d="M77.67,93.42A13.29,13.29,0,0,1,77.91,112L59.12,93.18a13.28,13.28,0,0,1,18.55.24Z"/><path class="cls-3" d="M36.21,154.35c1.75-1.4,3.55-2.74,5.4-4l10.46,10.46a13.28,13.28,0,0,1,0,18.79L31.2,158.74q2.42-2.31,5-4.39Z"/><path class="cls-4" d="M31.2,158.74q-.86.8-1.68,1.62a6.65,6.65,0,0,1-9.39,0L10.74,151a6.63,6.63,0,0,1,0-9.39,85.54,85.54,0,0,0,6-6.65l.37.31,19.13,19.12c-1.72,1.39-3.4,2.85-5,4.39Z"/><path class="cls-4" d="M94,110.36a2.07,2.07,0,0,1-1.93-2.86,18.46,18.46,0,0,0-24-24A2.09,2.09,0,0,1,66,83.19a2.08,2.08,0,0,1,.52-3.58,22.63,22.63,0,0,1,29.44,29.45,2.08,2.08,0,0,1-1.93,1.3Z"/><path class="cls-4" d="M104.14,114.23a2.08,2.08,0,0,1-1.93-2.86,29.22,29.22,0,0,0-38-38,2.09,2.09,0,1,1-1.56-3.87,33.39,33.39,0,0,1,43.45,43.45,2.07,2.07,0,0,1-1.93,1.3Z"/><path class="cls-5" d="M39.9,0A24,24,0,1,0,64,24.05,24,24,0,0,0,39.9,0Z"/><path class="cls-6" d="M38.91,21.17c3.23,0,5.85-3.18,5.85-7.1S43.9,7,38.91,7s-5.85,3.18-5.85,7.1,2.62,7.1,5.85,7.1Z"/><path class="cls-6" d="M41.07,31.73a7.43,7.43,0,0,1,7.22-7.42c-1.12-1.3-3-2-6.18-2.59a4.1,4.1,0,0,1-3.2,1.22,4.1,4.1,0,0,1-3.2-1.22C29,22.94,28,24.85,27.88,31.51c0,.54,0,.57,0,.5v.72S29.49,36,38.91,36a31.29,31.29,0,0,0,3.41-.17A7.43,7.43,0,0,1,41.07,31.73Z"/><path class="cls-6" d="M48.5,25.54a6.19,6.19,0,1,0,6.19,6.19A6.19,6.19,0,0,0,48.5,25.54Zm2.9,6.77H49.05v2.35H48V32.31H45.61V31.22H48V28.86h1.09v2.36H51.4Z"/><path class="cls-5" d="M145.52,21a24,24,0,1,1-24,24.05,24,24,0,0,1,24-24Z"/><path class="cls-6" d="M144.05,42.71c3.23,0,5.85-3.18,5.85-7.1s-.86-7.1-5.85-7.1-5.84,3.18-5.84,7.1,2.61,7.1,5.84,7.1Z"/><path class="cls-6" d="M146.22,53.27a7.43,7.43,0,0,1,7.22-7.42c-1.13-1.3-3-2-6.19-2.6a4.78,4.78,0,0,1-6.4,0c-6.75,1.22-7.7,3.14-7.82,9.79,0,.55,0,.57,0,.51v.72s1.63,3.28,11,3.28c1.28,0,2.41-.07,3.42-.17A7.36,7.36,0,0,1,146.22,53.27Z"/><path class="cls-6" d="M153.65,47.08a6.19,6.19,0,1,0,6.18,6.19A6.19,6.19,0,0,0,153.65,47.08Zm2.9,6.76h-2.36V56.2H153.1V53.84h-2.35V52.76h2.35V50.4h1.09v2.36h2.36Z"/><path class="cls-5" d="M153.44,117.38a24,24,0,1,0,24,24A24,24,0,0,0,153.44,117.38Z"/><path class="cls-6" d="M152.39,139.09c3.23,0,5.85-3.18,5.85-7.1s-.86-7.1-5.85-7.1-5.85,3.18-5.85,7.1,2.62,7.1,5.85,7.1Z"/><path class="cls-6" d="M154.56,149.65a7.43,7.43,0,0,1,7.21-7.42c-1.12-1.29-3-2-6.18-2.59a4.81,4.81,0,0,1-6.4,0c-6.75,1.22-7.7,3.14-7.83,9.79,0,.54,0,.57,0,.51v.71s1.62,3.28,11,3.28c1.28,0,2.41-.06,3.41-.16A7.46,7.46,0,0,1,154.56,149.65Z"/><path class="cls-6" d="M162,143.46a6.19,6.19,0,1,0,6.18,6.19A6.19,6.19,0,0,0,162,143.46Zm2.9,6.77h-2.36v2.35h-1.09v-2.35h-2.35v-1.09h2.35v-2.35h1.09v2.35h2.36Z"/></g></g></svg>