<svg id="Restaurant" xmlns="http://www.w3.org/2000/svg" width="100" height="100" viewBox="0 0 100 100">
  <g id="Layer_2" data-name="Layer 2">
    <g id="Restaurant-2" data-name="Restaurant">
      <rect id="Rectangle_1892" data-name="Rectangle 1892" width="100" height="100" fill="none"/>
      <path id="Path_2368" data-name="Path 2368" d="M6.5,94.17H93.35a1.49,1.49,0,0,0,1.49-1.49v-6a1.5,1.5,0,0,0-1.49-1.5H84.21L82,64.12l2.45,3.68.61,3a5.025,5.025,0,1,0,9.41-3.23L93.19,65h0l-9-16.47a1.52,1.52,0,0,0-.76-.68l-4.06-1.62A13.37,13.37,0,0,0,82.68,29.3l-.77-7.73a5.93,5.93,0,0,0,4-5.27c0-3.23-3.2-5.86-7.19-6a9,9,0,0,0-15.57,0c-4,.13-7.19,2.76-7.19,6a5.93,5.93,0,0,0,4,5.27l-.77,7.73A13.37,13.37,0,0,0,62.5,46.23l-4.06,1.62a1.46,1.46,0,0,0-.61.46l-5.06,6.31-6.1-4.88L45,47a5.91,5.91,0,0,0-1-1.21V41.76a4.48,4.48,0,0,0-3-4.21V31.28h1.5a4.5,4.5,0,0,0,4.49-4.49v-9a4.5,4.5,0,0,0-4.49-4.5h-6A4.5,4.5,0,0,0,32,17.81v9a4.49,4.49,0,0,0,4.49,4.49H38v6.27a4.48,4.48,0,0,0-3,4.21v6h0a5.57,5.57,0,0,0,2.27,7l2.83,1.7,10,8.71a4.47,4.47,0,0,0,5.83.07L60,61.75,57.56,85.19H31.38l1.76-3.51a7.49,7.49,0,0,0,4.8-7V71.44a4.48,4.48,0,0,0-1.49-8.71h-27A4.48,4.48,0,0,0,8,71.44v3.27a7.5,7.5,0,0,0,4.809,7l1.761,3.51H6.5A1.5,1.5,0,0,0,5,86.69v6a1.5,1.5,0,0,0,1.5,1.48ZM43.93,17.81v9a1.5,1.5,0,0,1-1.49,1.5h-1.5v-12h1.5A1.5,1.5,0,0,1,43.93,17.81ZM36.45,28.29a1.5,1.5,0,0,1-1.5-1.5v-9a1.5,1.5,0,0,1,1.5-1.5h1.49v12Zm29.6,20.06.18.06c.3.11.61.21.92.3l.35.09q.44.12.87.21l.44.06a8.112,8.112,0,0,1,.82.12h2.52l.81-.12L73.4,49c.3-.06.58-.13.87-.21a3.578,3.578,0,0,0,.35-.09c.31-.09.62-.19.92-.3l.18-.06,2.21,8.39H63.85ZM91.87,70.58A2.015,2.015,0,0,1,88,70.26l-.39-1.93,3.44-.86L91.79,69A2,2,0,0,1,91.87,70.58Zm-2.26-5.84-3.09.77-5.26-7.9-2.18-8.26,2.73,1.09ZM58.91,16.31c0-1.62,2.05-3,4.49-3h.49a1.53,1.53,0,0,0,1.49-.91,6,6,0,0,1,11,0,1.53,1.53,0,0,0,1.49.91h.49c2.44,0,4.5,1.38,4.5,3,0,1.19-1.21,2.34-3,2.78a1.5,1.5,0,0,0-1.12,1.6l.91,9.1H62.06l.91-9.1a1.52,1.52,0,0,0-1.12-1.6C60.12,18.65,58.91,17.5,58.91,16.31ZM60.4,35.77a10.47,10.47,0,0,1,.45-3H80.92a10.13,10.13,0,0,1,.45,3,10.48,10.48,0,0,1-6,9.44,9.53,9.53,0,0,1-1,.44h-.05a10.41,10.41,0,0,1-6.88,0h0a9.529,9.529,0,0,1-1-.44,10.48,10.48,0,0,1-6.04-9.44Zm-22.46,6a1.5,1.5,0,0,1,3,0v2.61h-.1a2.08,2.08,0,0,0-.25,0,4.07,4.07,0,0,0-.78,0,2.361,2.361,0,0,0-.38,0,5.69,5.69,0,0,0-.91.2l-.37.13h-.18v-3Zm-.44,8.49a2.56,2.56,0,0,1,.28-1.5h0s.13-.22.2-.32a4.08,4.08,0,0,1,.25-.33,2.58,2.58,0,0,1,.71-.49h.07a2.78,2.78,0,0,1,.8-.21h.07a2.47,2.47,0,0,1,.81.07h.08a2.57,2.57,0,0,1,.81.37h0a2.77,2.77,0,0,1,.76.8l1.17,2-2.84,2.84-2-1.17a2.63,2.63,0,0,1-1.17-2.07ZM53.92,62.93a1.48,1.48,0,0,1-1.94,0l-8.85-7.74,2.41-2.41L52,57.91a1.49,1.49,0,0,0,2.1-.24l5.75-7.17,2.86-1.15-2.12,8Zm9.33-3.2H78.52L81.2,85.19H60.57ZM29.53,82.19l-1.5,3H24.47v-3Zm-20-16.47h27a1.5,1.5,0,0,1,0,3h-27a1.5,1.5,0,0,1,0-3Zm1.5,9v-3H35v3a4.5,4.5,0,0,1-4.49,4.49h-15A4.5,4.5,0,0,1,11,74.71Zm5.42,7.48h5.06v3H17.9ZM8,88.18H91.85v3H8Z" fill="#0054ad"/>
      <path id="Path_2369" data-name="Path 2369" d="M75.38,65.72h-9a1.5,1.5,0,0,0-1.49,1.5v4.49a6,6,0,0,0,12,0V67.22a1.5,1.5,0,0,0-1.51-1.5Zm-1.5,6a3,3,0,1,1-6,0v-3h6Z" fill="#029abe"/>
      <rect id="Rectangle_1893" data-name="Rectangle 1893" width="2.99" height="7.49" transform="translate(21.47 50.75)" fill="#029abe"/>
      <rect id="Rectangle_1894" data-name="Rectangle 1894" width="2.99" height="5.99" transform="translate(28.96 53.74)" fill="#029abe"/>
      <rect id="Rectangle_1895" data-name="Rectangle 1895" width="2.99" height="5.99" transform="translate(13.98 53.74)" fill="#029abe"/>
      <rect id="Rectangle_1896" data-name="Rectangle 1896" width="2.99" height="2.99" transform="translate(21.47 44.76)" fill="#029abe"/>
      <rect id="Rectangle_1897" data-name="Rectangle 1897" width="2.99" height="2.99" transform="translate(13.98 47.75)" fill="#029abe"/>
      <rect id="Rectangle_1898" data-name="Rectangle 1898" width="2.99" height="2.99" transform="translate(28.96 47.75)" fill="#029abe"/>
    </g>
  </g>
</svg>
