<svg id="Salon" xmlns="http://www.w3.org/2000/svg" width="100" height="100" viewBox="0 0 100 100">
  <g id="Layer_2" data-name="Layer 2">
    <g id="Salon-2" data-name="Salon">
      <rect id="Rectangle_1899" data-name="Rectangle 1899" width="100" height="100" fill="none"/>
      <path id="Path_2370" data-name="Path 2370" d="M91.7,64.69a13.7,13.7,0,0,0-20.4-1.61L59.74,46.63,65,16.74a24.51,24.51,0,0,1,3,16.61l-3,17A1.45,1.45,0,0,0,66.17,52a1.15,1.15,0,0,0,.26,0,1.46,1.46,0,0,0,1.43-1.21l3-17a27.49,27.49,0,0,0-5.54-21.8,1.47,1.47,0,0,0-1.5-.5,1.45,1.45,0,0,0-1.08,1.16L57.37,43.26l-8.14-11.6a1.46,1.46,0,1,0-2.39,1.67L65.21,59.49l-3.58,5L44.16,39.62A24.49,24.49,0,0,1,39.8,23.31l4.19,6a1.461,1.461,0,0,0,2.39-1.68l-6.25-8.89a1.48,1.48,0,0,0-1.47-.6,1.46,1.46,0,0,0-1.14,1.1A27.49,27.49,0,0,0,41.77,41.3L54.54,59.47l-1.16,6.66a13.92,13.92,0,0,0-2-.52,13.71,13.71,0,0,0-4.72,27A13.663,13.663,0,0,0,62.51,81.48L64,72.94l5.45,7.76a13.93,13.93,0,0,0,9.07,5.75,13.669,13.669,0,0,0,2.38.21,13.46,13.46,0,0,0,7.8-2.48,13.7,13.7,0,0,0,3-19.49ZM59.63,81a10.77,10.77,0,1,1-5.79-11.51,1.46,1.46,0,0,0,2.09-1l1-5.57,4.72,6.72Zm31.82-6.35a10.71,10.71,0,0,1-12.43,9A11,11,0,0,1,71.83,79L64.36,68.39h0l-1-1.35L67,62l3,4.23a1.46,1.46,0,0,0,2.34.06,10.79,10.79,0,0,1,19.15,8.32Z" fill="#0054ad"/>
      <path id="Path_2371" data-name="Path 2371" d="M35.92,64.09a4.08,4.08,0,0,0,.9-3.37v-.06a4.12,4.12,0,0,0-4.06-3.39H25.34A4.69,4.69,0,0,1,22,56h9.52a1.46,1.46,0,1,0,0-2.91H20.92c-.18-.83-.34-1.67-.49-2.5H30.7a1.46,1.46,0,0,0,0-2.92H20c-.12-.83-.23-1.66-.32-2.49H30.37a1.46,1.46,0,1,0,0-2.92h-11c-.07-.83-.12-1.67-.17-2.5H30.37a1.46,1.46,0,0,0,0-2.91H19.1v-2.5H30.47a1.46,1.46,0,1,0,0-2.92H19.19c0-.83.1-1.66.17-2.5H30.7a1.46,1.46,0,0,0,0-2.91H19.64c.09-.84.2-1.67.32-2.5H31a1.46,1.46,0,1,0,0-2.92H20.43c.15-.83.31-1.67.49-2.5h10.6a1.46,1.46,0,1,0,0-2.91H22a4.69,4.69,0,0,1,3.34-1.3h7.41a4.11,4.11,0,0,0,4.06-3.39v-.05A4.12,4.12,0,0,0,32.75,5.6H18.87a7.5,7.5,0,0,0-7.21,5.53C10,17.2,8.45,31.4,10.43,64.4a1.46,1.46,0,1,0,2.91-.18c-1.55-25.8-1.16-43.91,1.14-52.36a4.57,4.57,0,0,1,4.39-3.38H32.76a1.22,1.22,0,0,1,.93.43,1.24,1.24,0,0,1,.26,1h0a1.2,1.2,0,0,1-1.19,1H25.34c-3.36,0-6.26,2-6.9,4.83a87.59,87.59,0,0,0,0,39.58c.64,2.79,3.54,4.82,6.9,4.82h7.41a1.2,1.2,0,0,1,1.19,1h0a1.19,1.19,0,0,1-.26,1,1.21,1.21,0,0,1-.92.43H27.89a5.4,5.4,0,0,0-5.37,5L21,88.85a2.87,2.87,0,0,1-5.73.06c-.41-4.37-1-11.28-1.57-19.4a1.453,1.453,0,0,0-2.9.2c.55,8.15,1.15,15.09,1.56,19.47a5.8,5.8,0,0,0,11.55-.12l1.54-21.2a2.48,2.48,0,0,1,2.47-2.29H32.8a4.08,4.08,0,0,0,3.12-1.48Z" fill="#0054ad"/>
      <path id="Path_2372" data-name="Path 2372" d="M48.35,84.31a5.66,5.66,0,1,0-4.009-1.654A5.67,5.67,0,0,0,48.35,84.31Zm0-8.5a2.83,2.83,0,1,1-2,.832,2.84,2.84,0,0,1,2-.832Z" fill="#029abe"/>
      <path id="Path_2373" data-name="Path 2373" d="M80.18,78.65A5.67,5.67,0,1,0,74.51,73,5.67,5.67,0,0,0,80.18,78.65Zm0-8.5a2.83,2.83,0,1,1-2.015.832A2.83,2.83,0,0,1,80.18,70.15Z" fill="#029abe"/>
    </g>
  </g>
</svg>
