<svg xmlns="http://www.w3.org/2000/svg" viewBox="0 0 23.7 26.2"><defs><style>.cls-1{fill:none;stroke:#0d7bff;stroke-linecap:round;stroke-miterlimit:10;stroke-width:1.2px;}</style></defs><title>support</title><g id="Layer_2" data-name="Layer 2"><g id="New_test" data-name="New test"><path class="cls-1" d="M15,17.36c-1-.53-3.23,2-4.31,1.61S5.44,9,5.91,7.89s3.82-.9,4.14-2c.4-1.42-1.78-4.45-3.16-5C5.29.26,1.41,2.34.72,3.91-.48,6.65,7.48,24.54,10,25.46c1.61.59,5.8-.78,6.45-2.36C17,21.73,16.33,18.05,15,17.36Z"/><path class="cls-1" d="M15.32,4.47a5.67,5.67,0,0,1,3.24,7.35"/><path class="cls-1" d="M16.82.6a9.83,9.83,0,0,1,5.62,12.72"/></g></g></svg>