<svg id="Traveling" xmlns="http://www.w3.org/2000/svg" width="100" height="100" viewBox="0 0 100 100">
  <g id="Layer_2" data-name="Layer 2">
    <g id="Traveling-2" data-name="Traveling">
      <rect id="Rectangle_1900" data-name="Rectangle 1900" width="100" height="100" fill="none"/>
      <path id="Path_2374" data-name="Path 2374" d="M83.08,11H41.61a6.24,6.24,0,0,0-5.91,6.5V70.8h0a1,1,0,0,0,.09.43h0l3.07,7.07a2.47,2.47,0,0,0,2.23,1.51H42.2v5.2a3.65,3.65,0,0,0,.24,1.3H26.6V63a3.91,3.91,0,0,0-3.9-3.9V36.91a10.4,10.4,0,1,0-2.6,0V59.1A3.91,3.91,0,0,0,16.2,63V86.4H12.3a1.3,1.3,0,1,0,0,2.6H87.69a1.3,1.3,0,0,0,0-2.6H82.25a3.65,3.65,0,0,0,.24-1.3V79.9h1.09a2.47,2.47,0,0,0,2.23-1.51l3.08-7.07h0a1.26,1.26,0,0,0,.08-.43h0V17.5A6.23,6.23,0,0,0,83.08,11ZM13.6,26.6a7.8,7.8,0,1,1,7.8,7.8,7.8,7.8,0,0,1-7.8-7.8Zm24.7-9.1a3.64,3.64,0,0,1,3.31-3.9H83.08a3.64,3.64,0,0,1,3.31,3.9v52H70.8V66.9A3.91,3.91,0,0,0,66.9,63H57.8a3.9,3.9,0,0,0-3.9,3.9v2.6H38.3Zm29.9,52H56.5V66.9a1.3,1.3,0,0,1,1.3-1.3h9.1a1.31,1.31,0,0,1,1.3,1.3ZM18.8,86.4V63a1.3,1.3,0,0,1,1.3-1.3h2.6A1.3,1.3,0,0,1,24,63V86.4Zm27.3,0a1.3,1.3,0,0,1-1.3-1.3V79.9H50v5.2a1.31,1.31,0,0,1-1.3,1.3Zm26-6.5v5.2a3.87,3.87,0,0,0,.23,1.3h-20a4.15,4.15,0,0,0,.24-1.3V79.9Zm7.79,5.2a1.3,1.3,0,0,1-1.3,1.3H76a1.3,1.3,0,0,1-1.29-1.3V79.9H79.9Zm3.56-7.8H41.24L39,72.1H85.71Z" fill="#0054ad"/>
      <path id="Path_2375" data-name="Path 2375" d="M44.8,25.3H79.89a3.89,3.89,0,0,0,3.9-3.9V20.1a3.91,3.91,0,0,0-3.9-3.9H44.8a3.91,3.91,0,0,0-3.9,3.9v1.3a3.89,3.89,0,0,0,3.9,3.9Zm-1.3-5.2a1.3,1.3,0,0,1,1.3-1.3H79.89a1.3,1.3,0,0,1,1.3,1.3v1.3a1.3,1.3,0,0,1-1.3,1.3H44.8a1.3,1.3,0,0,1-1.3-1.3Z" fill="#029abe"/>
      <path id="Path_2376" data-name="Path 2376" d="M46.1,66.9a5.2,5.2,0,1,0-5.2-5.2,5.2,5.2,0,0,0,5.2,5.2Zm0-7.8a2.6,2.6,0,1,1-2.6,2.6A2.6,2.6,0,0,1,46.1,59.1Z" fill="#029abe"/>
      <path id="Path_2377" data-name="Path 2377" d="M78.59,56.5a5.19,5.19,0,1,0,3.68,1.52A5.2,5.2,0,0,0,78.59,56.5Zm0,7.8a2.6,2.6,0,1,1,2.6-2.6A2.6,2.6,0,0,1,78.59,64.3Z" fill="#029abe"/>
      <path id="Path_2378" data-name="Path 2378" d="M44.8,53.9H79.89a3.9,3.9,0,0,0,3.9-3.9V31.8a3.9,3.9,0,0,0-3.9-3.9H44.8a3.9,3.9,0,0,0-3.9,3.9V50a3.9,3.9,0,0,0,3.9,3.9ZM43.5,31.8a1.3,1.3,0,0,1,1.3-1.3H79.89a1.3,1.3,0,0,1,1.3,1.3V50a1.3,1.3,0,0,1-1.3,1.3H44.8A1.3,1.3,0,0,1,43.5,50Z" fill="#0054ad"/>
    </g>
  </g>
</svg>
