<svg xmlns="http://www.w3.org/2000/svg" xmlns:xlink="http://www.w3.org/1999/xlink" viewBox="0 0 338.56 461.35"><defs><style>.cls-1{fill:#0d7bff;opacity:0.08;}.cls-1,.cls-43{isolation:isolate;}.cls-2{fill:url(#linear-gradient);}.cls-3{fill:#1b1b28;}.cls-4{fill:#1d1b2b;}.cls-5{fill:#e89487;}.cls-6{fill:#f7af9f;}.cls-7{fill:#f7e3da;}.cls-8{fill:#eacdb7;}.cls-9{fill:#464353;}.cls-10{fill:#33323f;}.cls-11{fill:#e4e9f4;}.cls-12{fill:#0a0a35;}.cls-13{fill:#191942;}.cls-14,.cls-31{fill:#fff;}.cls-15{fill:#6593ef;}.cls-16{fill:#3357bc;}.cls-17{fill:none;stroke:#00b1f7;stroke-miterlimit:10;stroke-width:1.03px;}.cls-18{fill:#4caf50;}.cls-19{fill:#fafafa;}.cls-20{fill:#673ab7;}.cls-21{fill:#5b22b1;}.cls-22{fill:#602eb3;}.cls-23{fill:#683ab7;}.cls-24{fill:#048a3e;}.cls-25{fill:#fc7a0a;}.cls-26{fill:#01baf1;}.cls-27{fill:#063070;}.cls-28{fill:#073070;}.cls-29{fill:#052f6f;}.cls-30{fill:#01b9f1;}.cls-31{stroke:#f2f2f2;stroke-width:0.21px;}.cls-32{fill:#fbbb00;}.cls-33{fill:#518ef8;}.cls-34{fill:#28b446;}.cls-35{fill:#f14336;}.cls-36{fill:#5792f1;}.cls-37{fill:#4c8cec;}.cls-38{opacity:0.65;}.cls-39{fill:#098c5d;}.cls-40{fill:#0a603f;}.cls-41{fill:#75d1b7;}.cls-42{fill:#2fa877;}.cls-43{fill:#a8b7c6;}.cls-44{opacity:0.34;}</style><linearGradient id="linear-gradient" x1="60.57" y1="404.76" x2="201.57" y2="470.76" gradientUnits="userSpaceOnUse"><stop offset="0" stop-color="#fff" stop-opacity="0"/><stop offset="0.12" stop-color="#f8f9fa" stop-opacity="0.08"/><stop offset="0.36" stop-color="#e5eaee" stop-opacity="0.3"/><stop offset="0.69" stop-color="#c7d1da" stop-opacity="0.64"/><stop offset="1" stop-color="#a8b7c6"/></linearGradient></defs><title>why paykun</title><g id="Layer_2" data-name="Layer 2"><g id="Why_paykun_Section" data-name="Why paykun Section"><path class="cls-1" d="M1,129.58a96.27,96.27,0,0,1-.85-19.79,128.73,128.73,0,0,1,13.1-48.25C27.16,33.26,52.17,7.76,84,1.51c62.74-12.32,106.79,53.43,129.89,101.62,16.34,34.08,3.17,100.42,18.34,135C248.57,275.36,350,286.47,337.5,377c-12.24,89-144.41,91.34-195.72,79-34.13-8.18-77.87-45.45-92.19-105.83-7.64-32.25.46-67-3.44-99.82C43.86,231,30.49,212.66,22.9,194.72,14.16,174.05,4.2,152.1,1,129.58Z"/><g id="Graphics"><path class="cls-2" d="M196.35,436.65c0,9.76-30.67,17.67-68.5,17.67s-68.51-7.91-68.51-17.67S90,416,127.85,416,196.35,426.89,196.35,436.65Z"/><path class="cls-3" d="M156.14,412.21s2.46,7.56,2.6,11.15.87,9.67,6.36,13.43,15.62,2,16.77-2,.15-16.91-2.6-18.5-6.36-9.83-6.36-9.83H153Z"/><path class="cls-4" d="M155,418s-2.32,8.24-5.21,10.12,5.78,23.85-12.43,26-12.14-16.77-12.14-16.77l7.51-20.81L153,414Z"/><path class="cls-5" d="M201.05,237.74s-5.3,3.76-5.88,6.21-8.09,9.11-10.7,7.23S179.81,206,179.81,206l12.18-3.4Z"/><path class="cls-6" d="M144.43,97.67s17.93-5.35,23.57-3.76S220.9,242.8,220.9,242.8l-1.44,10.69s-30.5-25.05-33.54-31.22-23.13-65.63-23.13-65.63l-8.09-40.47Z"/><g id="Face"><path class="cls-7" d="M99.48,82.63H97.57s.25,10.27,9.71,11.86S99.48,82.63,99.48,82.63Z"/><path class="cls-7" d="M137.5,70.69s3.54-4.55,4.33,0-.82,12.51-2.17,13.09-4.24,0-4.24,0Z"/><path class="cls-8" d="M111.52,98c0,.43,2.7,10.4,2.7,10.4l18.29,15.47,11.92-9.54,2.08-12.88L136.05,88.63Z"/><path class="cls-7" d="M99.48,82.63s5.42,15,16.62,20.1,20.46-4,21.68-8c.82-2.59.37-17.78.73-20.24s-3.11-19.8-6-21.11-21-15.28-34.19,5.3C98.32,58.73,93.84,64.85,99.48,82.63Z"/><path class="cls-9" d="M129.11,52.13c.51,0,8.89,10.52,8.39,18.56l0,5.21,1-1.36s1-4.65,1.59-6.84-4.56-17.4-6.51-18.62S129.11,52.13,129.11,52.13Z"/><path class="cls-9" d="M99.62,61s-.8,4,0,6.5.36,10.66,1.74,13.26,0,3,0,3L96.63,80s-5.86-15.57-2.34-20.54S99.62,61,99.62,61Z"/><path class="cls-10" d="M96,60.54s28.69,4.68,36.5-7.11-2.1-17.56-6.29-16.62S110.39,45,106.13,44.76,93.48,47,92.68,51.12,93.48,60.21,96,60.54Z"/></g><polygon class="cls-11" points="118.23 114.93 147.39 110.97 149.78 105.47 175.22 199.43 164.82 233.84 129.54 224.29 113.64 148.84 118.23 114.93"/><path class="cls-12" d="M144.43,233.83s.57,56.67,2,66.79,3.54,90.78,6,98.29,3.76,13.3,3.76,13.3,15.61-.29,16.77-5.78,0-17.35,0-17.35,10.84-78.92,11-82.68,0-96.56,0-96.56l-43.2-4.34Z"/><path class="cls-13" d="M109,263c-.22,1.81,4,52.67,8.82,91.07s10.4,64.47,12.28,67.36C133.88,427.25,155,418,155,418l1.15-5.78s-5.52-75-6.36-76.32-4.91-87.58-4.91-87.58l-39.9,3.2Z"/><polygon class="cls-10" points="126.22 120.17 132.72 126.87 137.35 125.76 141.98 112.99 123.76 117.33 126.22 120.17"/><path class="cls-14" d="M111.52,100.85s10.22,9,21.2,12.45c0,0-10.23,9.25-8.73,12.17s-12.47-17.11-12.47-17.11Z"/><path class="cls-14" d="M138.51,92.46s2.17,4.24-5.79,20.84c0,0,15.62,2.15,15.62,5.18s1.44-13,1.44-13Z"/><path class="cls-10" d="M132.72,126.87l-.74,15,20.32,83.86,9,8.65,4.33-9.25S150.77,140,147.39,137s-10-11.23-10-11.23Z"/><path class="cls-5" d="M138.51,92.46s19.66,20,26.31,91.07l-1.74-74-6.94-1.73,1.16-4.34Z"/><rect class="cls-15" x="162.51" y="67.05" width="103.35" height="135.31"/><rect class="cls-14" x="166.86" y="71.39" width="94.66" height="126.62"/><rect class="cls-16" x="152.39" y="196.37" width="124.12" height="13.18"/><rect class="cls-14" x="238.47" y="157.1" width="2.35" height="2.35"/><rect class="cls-14" x="238.47" y="154.75" width="2.35" height="2.35"/><rect class="cls-14" x="238.47" y="152.39" width="2.35" height="2.36"/><rect class="cls-14" x="238.47" y="150.04" width="2.35" height="2.35"/><rect class="cls-14" x="238.47" y="147.69" width="2.35" height="2.35"/><rect class="cls-14" x="238.47" y="145.34" width="2.35" height="2.35"/><rect class="cls-14" x="238.47" y="142.99" width="2.35" height="2.35"/><rect class="cls-14" x="238.47" y="140.64" width="2.35" height="2.35"/><rect class="cls-14" x="238.47" y="138.28" width="2.35" height="2.36"/><rect class="cls-14" x="238.47" y="135.93" width="2.35" height="2.35"/><rect class="cls-14" x="238.47" y="133.58" width="2.35" height="2.35"/><rect class="cls-14" x="238.47" y="131.23" width="2.35" height="2.35"/><rect class="cls-14" x="238.47" y="128.88" width="2.35" height="2.35"/><rect class="cls-14" x="238.47" y="126.52" width="2.35" height="2.36"/><rect class="cls-14" x="238.47" y="124.17" width="2.35" height="2.35"/><rect class="cls-14" x="238.47" y="121.82" width="2.35" height="2.35"/><rect class="cls-14" x="238.47" y="119.47" width="2.35" height="2.35"/><rect class="cls-14" x="238.47" y="117.12" width="2.35" height="2.35"/><rect class="cls-14" x="238.47" y="114.77" width="2.35" height="2.35"/><rect class="cls-14" x="238.47" y="112.41" width="2.35" height="2.36"/><rect class="cls-14" x="238.47" y="110.06" width="2.35" height="2.35"/><rect class="cls-14" x="238.47" y="107.71" width="2.35" height="2.35"/><rect class="cls-14" x="236.12" y="157.1" width="2.35" height="2.35"/><rect x="236.12" y="154.75" width="2.35" height="2.35"/><rect x="236.12" y="152.39" width="2.35" height="2.36"/><rect x="236.12" y="150.04" width="2.35" height="2.35"/><rect class="cls-14" x="236.12" y="147.69" width="2.35" height="2.35"/><rect x="236.12" y="145.34" width="2.35" height="2.35"/><rect x="236.12" y="142.99" width="2.35" height="2.35"/><rect x="236.12" y="140.64" width="2.35" height="2.35"/><rect x="236.12" y="138.28" width="2.35" height="2.36"/><rect class="cls-14" x="236.12" y="135.93" width="2.35" height="2.35"/><rect x="236.12" y="133.58" width="2.35" height="2.35"/><rect x="236.12" y="131.23" width="2.35" height="2.35"/><rect class="cls-14" x="236.12" y="128.88" width="2.35" height="2.35"/><rect x="236.12" y="126.52" width="2.35" height="2.36"/><rect x="236.12" y="124.17" width="2.35" height="2.35"/><rect class="cls-14" x="236.12" y="121.82" width="2.35" height="2.35"/><rect x="236.12" y="119.47" width="2.35" height="2.35"/><rect x="236.12" y="117.12" width="2.35" height="2.35"/><rect x="236.12" y="114.77" width="2.35" height="2.35"/><rect x="236.12" y="112.41" width="2.35" height="2.36"/><rect x="236.12" y="110.06" width="2.35" height="2.35"/><rect class="cls-14" x="236.12" y="107.71" width="2.35" height="2.35"/><rect class="cls-14" x="233.75" y="157.1" width="2.36" height="2.35"/><rect class="cls-14" x="233.75" y="154.75" width="2.36" height="2.35"/><rect class="cls-14" x="233.75" y="152.39" width="2.36" height="2.36"/><rect class="cls-14" x="233.75" y="150.04" width="2.36" height="2.35"/><rect x="233.75" y="147.69" width="2.36" height="2.35"/><rect class="cls-14" x="233.75" y="145.34" width="2.36" height="2.35"/><rect class="cls-14" x="233.75" y="142.99" width="2.36" height="2.35"/><rect class="cls-14" x="233.75" y="140.64" width="2.36" height="2.35"/><rect x="233.75" y="138.28" width="2.36" height="2.36"/><rect class="cls-14" x="233.75" y="135.93" width="2.36" height="2.35"/><rect class="cls-14" x="233.75" y="133.58" width="2.36" height="2.35"/><rect x="233.75" y="131.23" width="2.36" height="2.35"/><rect class="cls-14" x="233.75" y="128.88" width="2.36" height="2.35"/><rect x="233.75" y="126.52" width="2.36" height="2.36"/><rect class="cls-14" x="233.75" y="124.17" width="2.36" height="2.35"/><rect class="cls-14" x="233.75" y="121.82" width="2.36" height="2.35"/><rect x="233.75" y="119.47" width="2.36" height="2.35"/><rect class="cls-14" x="233.75" y="117.12" width="2.36" height="2.35"/><rect class="cls-14" x="233.75" y="114.77" width="2.36" height="2.35"/><rect class="cls-14" x="233.75" y="112.41" width="2.36" height="2.36"/><rect x="233.75" y="110.06" width="2.36" height="2.35"/><rect class="cls-14" x="233.75" y="107.71" width="2.36" height="2.35"/><rect class="cls-14" x="231.4" y="157.1" width="2.35" height="2.35"/><rect x="231.4" y="154.75" width="2.35" height="2.35"/><rect class="cls-14" x="231.4" y="152.39" width="2.35" height="2.36"/><rect x="231.4" y="150.04" width="2.35" height="2.35"/><rect class="cls-14" x="231.4" y="147.69" width="2.35" height="2.35"/><rect x="231.4" y="145.34" width="2.35" height="2.35"/><rect class="cls-14" x="231.4" y="142.99" width="2.35" height="2.35"/><rect class="cls-14" x="231.4" y="140.64" width="2.35" height="2.35"/><rect x="231.4" y="138.28" width="2.35" height="2.36"/><rect x="231.4" y="135.93" width="2.35" height="2.35"/><rect x="231.4" y="133.58" width="2.35" height="2.35"/><rect x="231.4" y="131.23" width="2.35" height="2.35"/><rect x="231.4" y="128.88" width="2.35" height="2.35"/><rect x="231.4" y="126.52" width="2.35" height="2.36"/><rect class="cls-14" x="231.4" y="124.17" width="2.35" height="2.35"/><rect class="cls-14" x="231.4" y="121.82" width="2.35" height="2.35"/><rect x="231.4" y="119.47" width="2.35" height="2.35"/><rect class="cls-14" x="231.4" y="117.12" width="2.35" height="2.35"/><rect x="231.4" y="114.77" width="2.35" height="2.35"/><rect class="cls-14" x="231.4" y="112.41" width="2.35" height="2.36"/><rect x="231.4" y="110.06" width="2.35" height="2.35"/><rect class="cls-14" x="231.4" y="107.71" width="2.35" height="2.35"/><rect class="cls-14" x="229.05" y="157.1" width="2.35" height="2.35"/><rect x="229.05" y="154.75" width="2.35" height="2.35"/><rect class="cls-14" x="229.05" y="152.39" width="2.35" height="2.36"/><rect class="cls-14" x="229.05" y="150.04" width="2.35" height="2.35"/><rect class="cls-14" x="229.05" y="147.69" width="2.35" height="2.35"/><rect class="cls-14" x="229.05" y="145.34" width="2.35" height="2.35"/><rect class="cls-14" x="229.05" y="142.99" width="2.35" height="2.35"/><rect class="cls-14" x="229.05" y="140.64" width="2.35" height="2.35"/><rect class="cls-14" x="229.05" y="138.28" width="2.35" height="2.36"/><rect class="cls-14" x="229.05" y="135.93" width="2.35" height="2.35"/><rect class="cls-14" x="229.05" y="133.58" width="2.35" height="2.35"/><rect class="cls-14" x="229.05" y="131.23" width="2.35" height="2.35"/><rect class="cls-14" x="229.05" y="128.88" width="2.35" height="2.35"/><rect x="229.05" y="126.52" width="2.35" height="2.36"/><rect class="cls-14" x="229.05" y="124.17" width="2.35" height="2.35"/><rect class="cls-14" x="229.05" y="121.82" width="2.35" height="2.35"/><rect x="229.05" y="119.47" width="2.35" height="2.35"/><rect class="cls-14" x="229.05" y="117.12" width="2.35" height="2.35"/><rect class="cls-14" x="229.05" y="114.77" width="2.35" height="2.35"/><rect class="cls-14" x="229.05" y="112.41" width="2.35" height="2.36"/><rect x="229.05" y="110.06" width="2.35" height="2.35"/><rect class="cls-14" x="229.05" y="107.71" width="2.35" height="2.35"/><rect class="cls-14" x="226.71" y="157.1" width="2.35" height="2.35"/><rect x="226.71" y="154.75" width="2.35" height="2.35"/><rect class="cls-14" x="226.71" y="152.39" width="2.35" height="2.36"/><rect x="226.71" y="150.04" width="2.35" height="2.35"/><rect class="cls-14" x="226.71" y="147.69" width="2.35" height="2.35"/><rect class="cls-14" x="226.71" y="145.34" width="2.35" height="2.35"/><rect class="cls-14" x="226.71" y="142.99" width="2.35" height="2.35"/><rect class="cls-14" x="226.71" y="140.64" width="2.35" height="2.35"/><rect class="cls-14" x="226.71" y="138.28" width="2.35" height="2.36"/><rect class="cls-14" x="226.71" y="135.93" width="2.35" height="2.35"/><rect x="226.71" y="133.58" width="2.35" height="2.35"/><rect x="226.71" y="131.23" width="2.35" height="2.35"/><rect class="cls-14" x="226.71" y="128.88" width="2.35" height="2.35"/><rect x="226.71" y="126.52" width="2.35" height="2.36"/><rect x="226.71" y="124.17" width="2.35" height="2.35"/><rect class="cls-14" x="226.71" y="121.82" width="2.35" height="2.35"/><rect x="226.71" y="119.47" width="2.35" height="2.35"/><rect x="226.71" y="117.12" width="2.35" height="2.35"/><rect x="226.71" y="114.77" width="2.35" height="2.35"/><rect x="226.71" y="112.41" width="2.35" height="2.36"/><rect x="226.71" y="110.06" width="2.35" height="2.35"/><rect class="cls-14" x="226.71" y="107.71" width="2.35" height="2.35"/><rect class="cls-14" x="224.36" y="157.1" width="2.35" height="2.35"/><rect x="224.36" y="154.75" width="2.35" height="2.35"/><rect class="cls-14" x="224.36" y="152.39" width="2.35" height="2.36"/><rect x="224.36" y="150.04" width="2.35" height="2.35"/><rect class="cls-14" x="224.36" y="147.69" width="2.35" height="2.35"/><rect class="cls-14" x="224.36" y="145.34" width="2.35" height="2.35"/><rect x="224.36" y="142.99" width="2.35" height="2.35"/><rect x="224.36" y="140.64" width="2.35" height="2.35"/><rect class="cls-14" x="224.36" y="138.28" width="2.35" height="2.36"/><rect class="cls-14" x="224.36" y="135.93" width="2.35" height="2.35"/><rect x="224.36" y="133.58" width="2.35" height="2.35"/><rect class="cls-14" x="224.36" y="131.23" width="2.35" height="2.35"/><rect class="cls-14" x="224.36" y="128.88" width="2.35" height="2.35"/><rect class="cls-14" x="224.36" y="126.52" width="2.35" height="2.36"/><rect class="cls-14" x="224.36" y="124.17" width="2.35" height="2.35"/><rect class="cls-14" x="224.36" y="121.82" width="2.35" height="2.35"/><rect class="cls-14" x="224.36" y="119.47" width="2.35" height="2.35"/><rect class="cls-14" x="224.36" y="117.12" width="2.35" height="2.35"/><rect class="cls-14" x="224.36" y="114.77" width="2.35" height="2.35"/><rect class="cls-14" x="224.36" y="112.41" width="2.35" height="2.36"/><rect class="cls-14" x="224.36" y="110.06" width="2.35" height="2.35"/><rect class="cls-14" x="224.36" y="107.71" width="2.35" height="2.35"/><rect class="cls-14" x="222.01" y="157.1" width="2.35" height="2.35"/><rect x="222.01" y="154.75" width="2.35" height="2.35"/><rect class="cls-14" x="222.01" y="152.39" width="2.35" height="2.36"/><rect x="222.01" y="150.04" width="2.35" height="2.35"/><rect class="cls-14" x="222.01" y="147.69" width="2.35" height="2.35"/><rect x="222.01" y="145.34" width="2.35" height="2.35"/><rect x="222.01" y="142.99" width="2.35" height="2.35"/><rect x="222.01" y="140.64" width="2.35" height="2.35"/><rect x="222.01" y="138.28" width="2.35" height="2.36"/><rect class="cls-14" x="222.01" y="135.93" width="2.35" height="2.35"/><rect x="222.01" y="133.58" width="2.35" height="2.35"/><rect x="222.01" y="131.23" width="2.35" height="2.35"/><rect class="cls-14" x="222.01" y="128.88" width="2.35" height="2.35"/><rect class="cls-14" x="222.01" y="126.52" width="2.35" height="2.36"/><rect x="222.01" y="124.17" width="2.35" height="2.35"/><rect class="cls-14" x="222.01" y="121.82" width="2.35" height="2.35"/><rect class="cls-14" x="222.01" y="119.47" width="2.35" height="2.35"/><rect x="222.01" y="117.12" width="2.35" height="2.35"/><rect class="cls-14" x="222.01" y="114.77" width="2.35" height="2.35"/><rect class="cls-14" x="222.01" y="112.41" width="2.35" height="2.36"/><rect x="222.01" y="110.06" width="2.35" height="2.35"/><rect class="cls-14" x="222.01" y="107.71" width="2.35" height="2.35"/><rect class="cls-14" x="219.64" y="157.1" width="2.36" height="2.35"/><rect class="cls-14" x="219.64" y="154.75" width="2.36" height="2.35"/><rect class="cls-14" x="219.64" y="152.39" width="2.36" height="2.36"/><rect x="219.64" y="150.04" width="2.36" height="2.35"/><rect class="cls-14" x="219.64" y="147.69" width="2.36" height="2.35"/><rect x="219.64" y="145.34" width="2.36" height="2.35"/><rect class="cls-14" x="219.64" y="142.99" width="2.36" height="2.35"/><rect class="cls-14" x="219.64" y="140.64" width="2.36" height="2.35"/><rect x="219.64" y="138.28" width="2.36" height="2.36"/><rect class="cls-14" x="219.64" y="135.93" width="2.36" height="2.35"/><rect class="cls-14" x="219.64" y="133.58" width="2.36" height="2.35"/><rect class="cls-14" x="219.64" y="131.23" width="2.36" height="2.35"/><rect class="cls-14" x="219.64" y="128.88" width="2.36" height="2.35"/><rect class="cls-14" x="219.64" y="126.52" width="2.36" height="2.36"/><rect x="219.64" y="124.17" width="2.36" height="2.35"/><rect x="219.64" y="121.82" width="2.36" height="2.35"/><rect class="cls-14" x="219.64" y="119.47" width="2.36" height="2.35"/><rect class="cls-14" x="219.64" y="117.12" width="2.36" height="2.35"/><rect x="219.64" y="114.77" width="2.36" height="2.35"/><rect x="219.64" y="112.41" width="2.36" height="2.36"/><rect x="219.64" y="110.06" width="2.36" height="2.35"/><rect class="cls-14" x="219.64" y="107.71" width="2.36" height="2.35"/><rect class="cls-14" x="217.29" y="157.1" width="2.35" height="2.35"/><rect x="217.29" y="154.75" width="2.35" height="2.35"/><rect class="cls-14" x="217.29" y="152.39" width="2.35" height="2.36"/><rect class="cls-14" x="217.29" y="150.04" width="2.35" height="2.35"/><rect class="cls-14" x="217.29" y="147.69" width="2.35" height="2.35"/><rect class="cls-14" x="217.29" y="145.34" width="2.35" height="2.35"/><rect x="217.29" y="142.99" width="2.35" height="2.35"/><rect class="cls-14" x="217.29" y="140.64" width="2.35" height="2.35"/><rect class="cls-14" x="217.29" y="138.28" width="2.35" height="2.36"/><rect x="217.29" y="135.93" width="2.35" height="2.35"/><rect x="217.29" y="133.58" width="2.35" height="2.35"/><rect x="217.29" y="131.23" width="2.35" height="2.35"/><rect x="217.29" y="128.88" width="2.35" height="2.35"/><rect class="cls-14" x="217.29" y="126.52" width="2.35" height="2.36"/><rect x="217.29" y="124.17" width="2.35" height="2.35"/><rect class="cls-14" x="217.29" y="121.82" width="2.35" height="2.35"/><rect x="217.29" y="119.47" width="2.35" height="2.35"/><rect class="cls-14" x="217.29" y="117.12" width="2.35" height="2.35"/><rect x="217.29" y="114.77" width="2.35" height="2.35"/><rect class="cls-14" x="217.29" y="112.41" width="2.35" height="2.36"/><rect x="217.29" y="110.06" width="2.35" height="2.35"/><rect class="cls-14" x="217.29" y="107.71" width="2.35" height="2.35"/><rect class="cls-14" x="214.94" y="157.1" width="2.35" height="2.35"/><rect class="cls-14" x="214.94" y="154.75" width="2.35" height="2.35"/><rect x="214.94" y="152.39" width="2.35" height="2.36"/><rect x="214.94" y="150.04" width="2.35" height="2.35"/><rect x="214.94" y="147.69" width="2.35" height="2.35"/><rect x="214.94" y="145.34" width="2.35" height="2.35"/><rect x="214.94" y="142.99" width="2.35" height="2.35"/><rect class="cls-14" x="214.94" y="140.64" width="2.35" height="2.35"/><rect class="cls-14" x="214.94" y="138.28" width="2.35" height="2.36"/><rect class="cls-14" x="214.94" y="135.93" width="2.35" height="2.35"/><rect class="cls-14" x="214.94" y="133.58" width="2.35" height="2.35"/><rect class="cls-14" x="214.94" y="131.23" width="2.35" height="2.35"/><rect class="cls-14" x="214.94" y="128.88" width="2.35" height="2.35"/><rect class="cls-14" x="214.94" y="126.52" width="2.35" height="2.36"/><rect class="cls-14" x="214.94" y="124.17" width="2.35" height="2.35"/><rect class="cls-14" x="214.94" y="121.82" width="2.35" height="2.35"/><rect class="cls-14" x="214.94" y="119.47" width="2.35" height="2.35"/><rect class="cls-14" x="214.94" y="117.12" width="2.35" height="2.35"/><rect class="cls-14" x="214.94" y="114.77" width="2.35" height="2.35"/><rect class="cls-14" x="214.94" y="112.41" width="2.35" height="2.36"/><rect x="214.94" y="110.06" width="2.35" height="2.35"/><rect class="cls-14" x="214.94" y="107.71" width="2.35" height="2.35"/><rect class="cls-14" x="212.59" y="157.1" width="2.35" height="2.35"/><rect x="212.59" y="154.75" width="2.35" height="2.35"/><rect class="cls-14" x="212.59" y="152.39" width="2.35" height="2.36"/><rect class="cls-14" x="212.59" y="150.04" width="2.35" height="2.35"/><rect class="cls-14" x="212.59" y="147.69" width="2.35" height="2.35"/><rect class="cls-14" x="212.59" y="145.34" width="2.35" height="2.35"/><rect class="cls-14" x="212.59" y="142.99" width="2.35" height="2.35"/><rect class="cls-14" x="212.59" y="140.64" width="2.35" height="2.35"/><rect class="cls-14" x="212.59" y="138.28" width="2.35" height="2.36"/><rect class="cls-14" x="212.59" y="135.93" width="2.35" height="2.35"/><rect class="cls-14" x="212.59" y="133.58" width="2.35" height="2.35"/><rect class="cls-14" x="212.59" y="131.23" width="2.35" height="2.35"/><rect x="212.59" y="128.88" width="2.35" height="2.35"/><rect class="cls-14" x="212.59" y="126.52" width="2.35" height="2.36"/><rect class="cls-14" x="212.59" y="124.17" width="2.35" height="2.35"/><rect x="212.59" y="121.82" width="2.35" height="2.35"/><rect x="212.59" y="119.47" width="2.35" height="2.35"/><rect class="cls-14" x="212.59" y="117.12" width="2.35" height="2.35"/><rect class="cls-14" x="212.59" y="114.77" width="2.35" height="2.35"/><rect x="212.59" y="112.41" width="2.35" height="2.36"/><rect class="cls-14" x="212.59" y="110.06" width="2.35" height="2.35"/><rect class="cls-14" x="212.59" y="107.71" width="2.35" height="2.35"/><rect class="cls-14" x="210.24" y="157.1" width="2.35" height="2.35"/><rect x="210.24" y="154.75" width="2.35" height="2.35"/><rect class="cls-14" x="210.24" y="152.39" width="2.35" height="2.36"/><rect class="cls-14" x="210.24" y="150.04" width="2.35" height="2.35"/><rect class="cls-14" x="210.24" y="147.69" width="2.35" height="2.35"/><rect x="210.24" y="145.34" width="2.35" height="2.35"/><rect class="cls-14" x="210.24" y="142.99" width="2.35" height="2.35"/><rect class="cls-14" x="210.24" y="140.64" width="2.35" height="2.35"/><rect class="cls-14" x="210.24" y="138.28" width="2.35" height="2.36"/><rect x="210.24" y="135.93" width="2.35" height="2.35"/><rect class="cls-14" x="210.24" y="133.58" width="2.35" height="2.35"/><rect x="210.24" y="131.23" width="2.35" height="2.35"/><rect class="cls-14" x="210.24" y="128.88" width="2.35" height="2.35"/><rect class="cls-14" x="210.24" y="126.52" width="2.35" height="2.36"/><rect x="210.24" y="124.17" width="2.35" height="2.35"/><rect x="210.24" y="121.82" width="2.35" height="2.35"/><rect x="210.24" y="119.47" width="2.35" height="2.35"/><rect x="210.24" y="117.12" width="2.35" height="2.35"/><rect x="210.24" y="114.77" width="2.35" height="2.35"/><rect x="210.24" y="112.41" width="2.35" height="2.36"/><rect x="210.24" y="110.06" width="2.35" height="2.35"/><rect class="cls-14" x="210.24" y="107.71" width="2.35" height="2.35"/><rect class="cls-14" x="207.88" y="157.1" width="2.36" height="2.35"/><rect class="cls-14" x="207.88" y="154.75" width="2.36" height="2.35"/><rect class="cls-14" x="207.88" y="152.39" width="2.36" height="2.36"/><rect class="cls-14" x="207.88" y="150.04" width="2.36" height="2.35"/><rect class="cls-14" x="207.88" y="147.69" width="2.36" height="2.35"/><rect x="207.88" y="145.34" width="2.36" height="2.35"/><rect x="207.88" y="142.99" width="2.36" height="2.35"/><rect x="207.88" y="140.64" width="2.36" height="2.35"/><rect x="207.88" y="138.28" width="2.36" height="2.36"/><rect class="cls-14" x="207.88" y="135.93" width="2.36" height="2.35"/><rect x="207.88" y="133.58" width="2.36" height="2.35"/><rect x="207.88" y="131.23" width="2.36" height="2.35"/><rect x="207.88" y="128.88" width="2.36" height="2.35"/><rect class="cls-14" x="207.88" y="126.52" width="2.36" height="2.36"/><rect x="207.88" y="124.17" width="2.36" height="2.35"/><rect class="cls-14" x="207.88" y="121.82" width="2.36" height="2.35"/><rect x="207.88" y="119.47" width="2.36" height="2.35"/><rect class="cls-14" x="207.88" y="117.12" width="2.36" height="2.35"/><rect class="cls-14" x="207.88" y="114.77" width="2.36" height="2.35"/><rect x="207.88" y="112.41" width="2.36" height="2.36"/><rect class="cls-14" x="207.88" y="110.06" width="2.36" height="2.35"/><rect class="cls-14" x="207.88" y="107.71" width="2.36" height="2.35"/><rect class="cls-14" x="205.53" y="157.1" width="2.35" height="2.35"/><rect x="205.53" y="154.75" width="2.35" height="2.35"/><rect x="205.53" y="152.39" width="2.35" height="2.36"/><rect x="205.53" y="150.04" width="2.35" height="2.35"/><rect x="205.53" y="147.69" width="2.35" height="2.35"/><rect x="205.53" y="145.34" width="2.35" height="2.35"/><rect class="cls-14" x="205.53" y="142.99" width="2.35" height="2.35"/><rect class="cls-14" x="205.53" y="140.64" width="2.35" height="2.35"/><rect class="cls-14" x="205.53" y="138.28" width="2.35" height="2.36"/><rect class="cls-14" x="205.53" y="135.93" width="2.35" height="2.35"/><rect class="cls-14" x="205.53" y="133.58" width="2.35" height="2.35"/><rect class="cls-14" x="205.53" y="131.23" width="2.35" height="2.35"/><rect class="cls-14" x="205.53" y="128.88" width="2.35" height="2.35"/><rect class="cls-14" x="205.53" y="126.52" width="2.35" height="2.36"/><rect x="205.53" y="124.17" width="2.35" height="2.35"/><rect class="cls-14" x="205.53" y="121.82" width="2.35" height="2.35"/><rect class="cls-14" x="205.53" y="119.47" width="2.35" height="2.35"/><rect x="205.53" y="117.12" width="2.35" height="2.35"/><rect class="cls-14" x="205.53" y="114.77" width="2.35" height="2.35"/><rect x="205.53" y="112.41" width="2.35" height="2.36"/><rect class="cls-14" x="205.53" y="110.06" width="2.35" height="2.35"/><rect class="cls-14" x="205.53" y="107.71" width="2.35" height="2.35"/><rect class="cls-14" x="203.18" y="157.1" width="2.35" height="2.35"/><rect class="cls-14" x="203.18" y="154.75" width="2.35" height="2.35"/><rect class="cls-14" x="203.18" y="152.39" width="2.35" height="2.36"/><rect class="cls-14" x="203.18" y="150.04" width="2.35" height="2.35"/><rect class="cls-14" x="203.18" y="147.69" width="2.35" height="2.35"/><rect class="cls-14" x="203.18" y="145.34" width="2.35" height="2.35"/><rect class="cls-14" x="203.18" y="142.99" width="2.35" height="2.35"/><rect x="203.18" y="140.64" width="2.35" height="2.35"/><rect x="203.18" y="138.28" width="2.35" height="2.36"/><rect x="203.18" y="135.93" width="2.35" height="2.35"/><rect class="cls-14" x="203.18" y="133.58" width="2.35" height="2.35"/><rect class="cls-14" x="203.18" y="131.23" width="2.35" height="2.35"/><rect x="203.18" y="128.88" width="2.35" height="2.35"/><rect x="203.18" y="126.52" width="2.35" height="2.36"/><rect x="203.18" y="124.17" width="2.35" height="2.35"/><rect class="cls-14" x="203.18" y="121.82" width="2.35" height="2.35"/><rect class="cls-14" x="203.18" y="119.47" width="2.35" height="2.35"/><rect class="cls-14" x="203.18" y="117.12" width="2.35" height="2.35"/><rect class="cls-14" x="203.18" y="114.77" width="2.35" height="2.35"/><rect class="cls-14" x="203.18" y="112.41" width="2.35" height="2.36"/><rect class="cls-14" x="203.18" y="110.06" width="2.35" height="2.35"/><rect class="cls-14" x="203.18" y="107.71" width="2.35" height="2.35"/><rect class="cls-14" x="200.83" y="157.1" width="2.35" height="2.35"/><rect x="200.83" y="154.75" width="2.35" height="2.35"/><rect x="200.83" y="152.39" width="2.35" height="2.36"/><rect x="200.83" y="150.04" width="2.35" height="2.35"/><rect x="200.83" y="147.69" width="2.35" height="2.35"/><rect x="200.83" y="145.34" width="2.35" height="2.35"/><rect class="cls-14" x="200.83" y="142.99" width="2.35" height="2.35"/><rect class="cls-14" x="200.83" y="140.64" width="2.35" height="2.35"/><rect class="cls-14" x="200.83" y="138.28" width="2.35" height="2.36"/><rect x="200.83" y="135.93" width="2.35" height="2.35"/><rect class="cls-14" x="200.83" y="133.58" width="2.35" height="2.35"/><rect class="cls-14" x="200.83" y="131.23" width="2.35" height="2.35"/><rect class="cls-14" x="200.83" y="128.88" width="2.35" height="2.35"/><rect class="cls-14" x="200.83" y="126.52" width="2.35" height="2.36"/><rect x="200.83" y="124.17" width="2.35" height="2.35"/><rect class="cls-14" x="200.83" y="121.82" width="2.35" height="2.35"/><rect x="200.83" y="119.47" width="2.35" height="2.35"/><rect x="200.83" y="117.12" width="2.35" height="2.35"/><rect x="200.83" y="114.77" width="2.35" height="2.35"/><rect x="200.83" y="112.41" width="2.35" height="2.36"/><rect x="200.83" y="110.06" width="2.35" height="2.35"/><rect class="cls-14" x="200.83" y="107.71" width="2.35" height="2.35"/><rect class="cls-14" x="198.48" y="157.1" width="2.35" height="2.35"/><rect x="198.48" y="154.75" width="2.35" height="2.35"/><rect class="cls-14" x="198.48" y="152.39" width="2.35" height="2.36"/><rect class="cls-14" x="198.48" y="150.04" width="2.35" height="2.35"/><rect class="cls-14" x="198.48" y="147.69" width="2.35" height="2.35"/><rect x="198.48" y="145.34" width="2.35" height="2.35"/><rect class="cls-14" x="198.48" y="142.99" width="2.35" height="2.35"/><rect class="cls-14" x="198.48" y="140.64" width="2.35" height="2.35"/><rect class="cls-14" x="198.48" y="138.28" width="2.35" height="2.36"/><rect x="198.48" y="135.93" width="2.35" height="2.35"/><rect class="cls-14" x="198.48" y="133.58" width="2.35" height="2.35"/><rect x="198.48" y="131.23" width="2.35" height="2.35"/><rect class="cls-14" x="198.48" y="128.88" width="2.35" height="2.35"/><rect class="cls-14" x="198.48" y="126.52" width="2.35" height="2.36"/><rect x="198.48" y="124.17" width="2.35" height="2.35"/><rect class="cls-14" x="198.48" y="121.82" width="2.35" height="2.35"/><rect x="198.48" y="119.47" width="2.35" height="2.35"/><rect class="cls-14" x="198.48" y="117.12" width="2.35" height="2.35"/><rect class="cls-14" x="198.48" y="114.77" width="2.35" height="2.35"/><rect class="cls-14" x="198.48" y="112.41" width="2.35" height="2.36"/><rect x="198.48" y="110.06" width="2.35" height="2.35"/><rect class="cls-14" x="198.48" y="107.71" width="2.35" height="2.35"/><rect class="cls-14" x="196.13" y="157.1" width="2.35" height="2.35"/><rect x="196.13" y="154.75" width="2.35" height="2.35"/><rect class="cls-14" x="196.13" y="152.39" width="2.35" height="2.36"/><rect x="196.13" y="150.04" width="2.35" height="2.35"/><rect class="cls-14" x="196.13" y="147.69" width="2.35" height="2.35"/><rect x="196.13" y="145.34" width="2.35" height="2.35"/><rect class="cls-14" x="196.13" y="142.99" width="2.35" height="2.35"/><rect x="196.13" y="140.64" width="2.35" height="2.35"/><rect class="cls-14" x="196.13" y="138.28" width="2.35" height="2.36"/><rect x="196.13" y="135.93" width="2.35" height="2.35"/><rect class="cls-14" x="196.13" y="133.58" width="2.35" height="2.35"/><rect x="196.13" y="131.23" width="2.35" height="2.35"/><rect class="cls-14" x="196.13" y="128.88" width="2.35" height="2.35"/><rect class="cls-14" x="196.13" y="126.52" width="2.35" height="2.36"/><rect class="cls-14" x="196.13" y="124.17" width="2.35" height="2.35"/><rect class="cls-14" x="196.13" y="121.82" width="2.35" height="2.35"/><rect x="196.13" y="119.47" width="2.35" height="2.35"/><rect class="cls-14" x="196.13" y="117.12" width="2.35" height="2.35"/><rect x="196.13" y="114.77" width="2.35" height="2.35"/><rect class="cls-14" x="196.13" y="112.41" width="2.35" height="2.36"/><rect x="196.13" y="110.06" width="2.35" height="2.35"/><rect class="cls-14" x="196.13" y="107.71" width="2.35" height="2.35"/><rect class="cls-14" x="193.77" y="157.1" width="2.36" height="2.35"/><rect x="193.77" y="154.75" width="2.36" height="2.35"/><rect class="cls-14" x="193.77" y="152.39" width="2.36" height="2.36"/><rect class="cls-14" x="193.77" y="150.04" width="2.36" height="2.35"/><rect class="cls-14" x="193.77" y="147.69" width="2.36" height="2.35"/><rect x="193.77" y="145.34" width="2.36" height="2.35"/><rect class="cls-14" x="193.77" y="142.99" width="2.36" height="2.35"/><rect class="cls-14" x="193.77" y="140.64" width="2.36" height="2.35"/><rect x="193.77" y="138.28" width="2.36" height="2.36"/><rect x="193.77" y="135.93" width="2.36" height="2.35"/><rect class="cls-14" x="193.77" y="133.58" width="2.36" height="2.35"/><rect x="193.77" y="131.23" width="2.36" height="2.35"/><rect class="cls-14" x="193.77" y="128.88" width="2.36" height="2.35"/><rect x="193.77" y="126.52" width="2.36" height="2.36"/><rect x="193.77" y="124.17" width="2.36" height="2.35"/><rect class="cls-14" x="193.77" y="121.82" width="2.36" height="2.35"/><rect x="193.77" y="119.47" width="2.36" height="2.35"/><rect class="cls-14" x="193.77" y="117.12" width="2.36" height="2.35"/><rect class="cls-14" x="193.77" y="114.77" width="2.36" height="2.35"/><rect class="cls-14" x="193.77" y="112.41" width="2.36" height="2.36"/><rect x="193.77" y="110.06" width="2.36" height="2.35"/><rect class="cls-14" x="193.77" y="107.71" width="2.36" height="2.35"/><rect class="cls-14" x="191.42" y="157.1" width="2.35" height="2.35"/><rect x="191.42" y="154.75" width="2.35" height="2.35"/><rect x="191.42" y="152.39" width="2.35" height="2.36"/><rect x="191.42" y="150.04" width="2.35" height="2.35"/><rect x="191.42" y="147.69" width="2.35" height="2.35"/><rect x="191.42" y="145.34" width="2.35" height="2.35"/><rect class="cls-14" x="191.42" y="142.99" width="2.35" height="2.35"/><rect x="191.42" y="140.64" width="2.35" height="2.35"/><rect class="cls-14" x="191.42" y="138.28" width="2.35" height="2.36"/><rect class="cls-14" x="191.42" y="135.93" width="2.35" height="2.35"/><rect x="191.42" y="133.58" width="2.35" height="2.35"/><rect x="191.42" y="131.23" width="2.35" height="2.35"/><rect class="cls-14" x="191.42" y="128.88" width="2.35" height="2.35"/><rect x="191.42" y="126.52" width="2.35" height="2.36"/><rect x="191.42" y="124.17" width="2.35" height="2.35"/><rect class="cls-14" x="191.42" y="121.82" width="2.35" height="2.35"/><rect x="191.42" y="119.47" width="2.35" height="2.35"/><rect x="191.42" y="117.12" width="2.35" height="2.35"/><rect x="191.42" y="114.77" width="2.35" height="2.35"/><rect x="191.42" y="112.41" width="2.35" height="2.36"/><rect x="191.42" y="110.06" width="2.35" height="2.35"/><rect class="cls-14" x="191.42" y="107.71" width="2.35" height="2.35"/><rect class="cls-14" x="189.07" y="157.1" width="2.35" height="2.35"/><rect class="cls-14" x="189.07" y="154.75" width="2.35" height="2.35"/><rect class="cls-14" x="189.07" y="152.39" width="2.35" height="2.36"/><rect class="cls-14" x="189.07" y="150.04" width="2.35" height="2.35"/><rect class="cls-14" x="189.07" y="147.69" width="2.35" height="2.35"/><rect class="cls-14" x="189.07" y="145.34" width="2.35" height="2.35"/><rect class="cls-14" x="189.07" y="142.99" width="2.35" height="2.35"/><rect class="cls-14" x="189.07" y="140.64" width="2.35" height="2.35"/><rect class="cls-14" x="189.07" y="138.28" width="2.35" height="2.36"/><rect class="cls-14" x="189.07" y="135.93" width="2.35" height="2.35"/><rect class="cls-14" x="189.07" y="133.58" width="2.35" height="2.35"/><rect class="cls-14" x="189.07" y="131.23" width="2.35" height="2.35"/><rect class="cls-14" x="189.07" y="128.88" width="2.35" height="2.35"/><rect class="cls-14" x="189.07" y="126.52" width="2.35" height="2.36"/><rect class="cls-14" x="189.07" y="124.17" width="2.35" height="2.35"/><rect class="cls-14" x="189.07" y="121.82" width="2.35" height="2.35"/><rect class="cls-14" x="189.07" y="119.47" width="2.35" height="2.35"/><rect class="cls-14" x="189.07" y="117.12" width="2.35" height="2.35"/><rect class="cls-14" x="189.07" y="114.77" width="2.35" height="2.35"/><rect class="cls-14" x="189.07" y="112.41" width="2.35" height="2.36"/><rect class="cls-14" x="189.07" y="110.06" width="2.35" height="2.35"/><rect class="cls-14" x="189.07" y="107.71" width="2.35" height="2.35"/><polyline class="cls-17" points="183.9 113.3 183.9 102.54 194.55 102.54"/><polyline class="cls-17" points="245.99 113.09 245.99 102.33 235.34 102.33"/><polyline class="cls-17" points="183.9 153.97 183.9 164.74 194.55 164.74"/><polyline class="cls-17" points="245.99 154.18 245.99 164.95 235.34 164.95"/><path d="M190.22,91.52V94.3h-2.31V86h3.45a3.17,3.17,0,0,1,2.29.76,2.64,2.64,0,0,1,.79,2,2.72,2.72,0,0,1-.35,1.4,2.38,2.38,0,0,1-1.05,1,3.6,3.6,0,0,1-1.68.36Zm1.89-2.74c0-.61-.34-.92-1-.92h-.88V89.7h.88C191.77,89.7,192.11,89.4,192.11,88.78Z"/><path d="M199,87.94a1.8,1.8,0,0,1,.76.83v-1H202V94.3h-2.29v-1a1.8,1.8,0,0,1-.76.83,2.32,2.32,0,0,1-1.2.3,2.67,2.67,0,0,1-1.42-.4,2.7,2.7,0,0,1-1-1.18,4.54,4.54,0,0,1,0-3.59,2.73,2.73,0,0,1,1-1.17,2.67,2.67,0,0,1,1.42-.4A2.32,2.32,0,0,1,199,87.94ZM197.67,90a1.41,1.41,0,0,0-.33,1,1.43,1.43,0,0,0,.33,1,1.15,1.15,0,0,0,.87.35,1.13,1.13,0,0,0,.86-.36,1.42,1.42,0,0,0,.34-1,1.41,1.41,0,0,0-.34-1,1.13,1.13,0,0,0-.86-.36A1.12,1.12,0,0,0,197.67,90Z"/><path d="M205.17,87.72l1.4,3.68,1.3-3.68h2.56l-4.16,9.72h-2.53l1.6-3.42-2.74-6.3Z"/><path d="M220.81,94.3H218.5l-3-4.63V94.3h-2.31V86h2.31l3,4.69V86h2.31Z"/><path d="M227,88a3,3,0,0,1,1.22,1.18,3.44,3.44,0,0,1,.45,1.78,3.49,3.49,0,0,1-.45,1.8A2.93,2.93,0,0,1,227,94a4,4,0,0,1-3.53,0,3,3,0,0,1-1.24-1.17,3.88,3.88,0,0,1,0-3.59A3,3,0,0,1,223.43,88,4.09,4.09,0,0,1,227,88ZM224.4,90a1.5,1.5,0,0,0-.32,1,1.52,1.52,0,0,0,.32,1,1,1,0,0,0,.79.35A1,1,0,0,0,226,92a1.8,1.8,0,0,0,0-2,1.07,1.07,0,0,0-1.58,0Z"/><path d="M239.36,87.72l-1.14,6.58h-3.07l-1-4.09-1,4.09h-2.59l-1.61-6.58h2.29l.71,4.4,1-4.4h2.44l1.08,4.43.73-4.43Z"/><g id="Group_321" data-name="Group 321"><g id="whatsapp"><path id="Path_2173" data-name="Path 2173" class="cls-18" d="M230.17,176.82h0a2.86,2.86,0,0,0-2.31,4.54l-.36,1.06,1.1-.35a2.86,2.86,0,1,0,1.57-5.25Z"/><path id="Path_2174" data-name="Path 2174" class="cls-19" d="M231.45,180.75a.62.62,0,0,1-.43.37c-.11,0-.26,0-.75-.19a3,3,0,0,1-1.08-1.15,1.63,1.63,0,0,1-.25-.78.94.94,0,0,1,.22-.64.29.29,0,0,1,.22-.09h.07c.07,0,.1,0,.14.13l.19.56a.17.17,0,0,1,0,.14.35.35,0,0,1-.07.12l-.09.13a.12.12,0,0,0,0,.16,2.32,2.32,0,0,0,.35.53,1.46,1.46,0,0,0,.51.37.11.11,0,0,0,.15,0,1.78,1.78,0,0,0,.17-.27.11.11,0,0,1,.14-.06h0c.06,0,.37.21.43.24s.11.06.12.09A.73.73,0,0,1,231.45,180.75Z"/></g><g id="Ponepe"><g id="Layer_1-2" data-name="Layer 1"><path id="Path_2152" data-name="Path 2152" class="cls-20" d="M243.21,176.29a3.18,3.18,0,1,1-3.19,3.17.45.45,0,0,1,0-.11A3.18,3.18,0,0,1,243.21,176.29Zm1,2.56,0,0h.18c.3,0,.26,0,.27-.28,0-.1,0-.13-.13-.13h-.62l-.14-.12-.68-1.09a.33.33,0,0,0-.15-.11,1.4,1.4,0,0,0-.29,0c-.08,0-.1,0-.08.11a.3.3,0,0,0,0,.1l.81,1.08v0H242a.16.16,0,0,0-.11.08c0,.11-.06.23.05.32h.26c.09,0,.12,0,.11.12V180a.66.66,0,0,0,.55.7.81.81,0,0,0,.86-.18v.83c0,.22,0,.24.24.22H244c.14,0,.15-.08.14-.19V179s0-.08,0-.12Z"/><path id="Path_2153" data-name="Path 2153" class="cls-21" d="M243.42,178.37l0,0h0Z"/><path id="Path_2154" data-name="Path 2154" class="cls-21" d="M243.93,178.4h0Z"/><path id="Path_2155" data-name="Path 2155" class="cls-22" d="M244.18,178.85l0,0Z"/><path id="Path_2156" data-name="Path 2156" class="cls-23" d="M242.76,179.43c0-.18,0-.36,0-.54s0-.11.11-.11h.76c.07,0,.1,0,.1.11v1.05a.37.37,0,0,1-.35.4h-.27a.34.34,0,0,1-.34-.33v-.58Z"/></g></g><g id="Bhim"><g id="Layer_1-2-2" data-name="Layer 1-2"><path id="Path_2171" data-name="Path 2171" class="cls-24" d="M188.4,176.68l1.56,3.17L186.74,183Z"/><path id="Path_2172" data-name="Path 2172" class="cls-25" d="M187.34,176.52l1.56,3.17-3.22,3.17Z"/></g></g><g id="Paytm"><g id="Layer_1-3" data-name="Layer 1-3"><path id="Path_2146" data-name="Path 2146" class="cls-26" d="M204.84,178.68a.7.7,0,0,1,.92,0,.76.76,0,0,1,.45-.19.66.66,0,0,1,.71.62v1.91c0,.11,0,.14-.13.14h-.37c-.12,0-.15,0-.15-.15v-1.67c0-.14-.06-.2-.2-.2s-.19.06-.19.2v1.68c0,.12,0,.14-.15.14h-.38c-.1,0-.13,0-.13-.13v-1.7c0-.13-.06-.18-.19-.18s-.2.05-.2.18v1.68c0,.12,0,.15-.15.15h-.37c-.1,0-.13,0-.13-.13v-2.4c0-.09,0-.12.12-.12h.39C204.8,178.55,204.82,178.56,204.84,178.68Z"/><path id="Path_2147" data-name="Path 2147" class="cls-27" d="M200.38,180.07v.83a.26.26,0,0,1-.24.29h-.85a.57.57,0,0,1-.63-.54v-.06a5.42,5.42,0,0,1,0-.57.59.59,0,0,1,.54-.59c.12,0,.25,0,.37,0s.14,0,.14-.11,0-.13-.15-.13h-.51c-.1,0-.13,0-.13-.13v-.37a.1.1,0,0,1,.08-.12h0a6.26,6.26,0,0,1,.75,0,.58.58,0,0,1,.6.58v.92Zm-1.06.25v0c0,.29,0,.26.28.26a.11.11,0,0,0,.12-.12v-.2c0-.28,0-.27-.29-.26h0a.1.1,0,0,0-.1.1h0v.18Z"/><path id="Path_2148" data-name="Path 2148" class="cls-28" d="M202.32,179.63v.89a.66.66,0,0,1-.6.69H201c-.12,0-.14,0-.14-.14v-.39c0-.1,0-.12.12-.13h.56c.13,0,.17,0,.17-.11s0-.1-.17-.1a2,2,0,0,1-.35,0,.62.62,0,0,1-.53-.66c0-.33,0-.65,0-1,0-.1,0-.14.14-.14h.37c.11,0,.14,0,.14.15v.83c0,.14,0,.16.17.16s.23,0,.23-.23v-.77c0-.1,0-.14.14-.14h.38c.1,0,.13,0,.13.14C202.32,179,202.32,179.31,202.32,179.63Z"/><path id="Path_2149" data-name="Path 2149" class="cls-29" d="M197.46,180.42v.63c0,.12,0,.15-.14.15h-.4c-.09,0-.12,0-.12-.11v-2.42a.11.11,0,0,1,.12-.12c.33,0,.66,0,1,0a.56.56,0,0,1,.58.53h0a5.75,5.75,0,0,1,0,.83.56.56,0,0,1-.58.51Zm0-1.21v.55h.28a.12.12,0,0,0,.11-.1h0v-.33a.1.1,0,0,0-.1-.11h-.29Z"/><path id="Path_2150" data-name="Path 2150" class="cls-30" d="M203.58,178.55h.23c.09,0,.13,0,.13.13v.4c0,.09,0,.13-.13.13h-.23v1.85c0,.14,0,.16-.16.16h-.33c-.13,0-.15,0-.15-.15v-1.86h-.24c-.1,0-.13,0-.13-.13v-.41a.11.11,0,0,1,.12-.12.65.65,0,0,0,.54-.29.64.64,0,0,1,.2-.2c.08-.05.15,0,.15.1Z"/></g></g><g id="google_pay_2" data-name="google pay 2"><g id="Layer_1-4" data-name="Layer 1-4"><path id="Path_2184" data-name="Path 2184" class="cls-31" d="M217.06,176.5a3.1,3.1,0,1,1-3.1,3.1A3.1,3.1,0,0,1,217.06,176.5Z"/><path id="Path_2175" data-name="Path 2175" class="cls-32" d="M215,179.75l-.05.19h-.19a.74.74,0,0,1,0-.68h0l.16,0,.07.17a.39.39,0,0,0,0,.28Z"/><path id="Path_2176" data-name="Path 2176" class="cls-33" d="M216.08,179.47s0,.09,0,.13a.61.61,0,0,1,0,.15.7.7,0,0,1-.25.42h-.21l0-.19a.41.41,0,0,0,.19-.22h-.39v-.28Z"/><path id="Path_2177" data-name="Path 2177" class="cls-34" d="M215.82,180.17h0a.72.72,0,0,1-1-.11,1,1,0,0,0-.08-.11l.24-.2a.43.43,0,0,0,.55.26l.07,0Z"/><path id="Path_2178" data-name="Path 2178" class="cls-35" d="M215.83,179.05l-.24.19a.42.42,0,0,0-.58.14.22.22,0,0,0,0,.08l-.23-.19h0a.71.71,0,0,1,1-.3.57.57,0,0,1,.13.08Z"/><path id="Path_2179" data-name="Path 2179" class="cls-36" d="M215.69,182.38a3.1,3.1,0,0,0,2.74-5.56,2.86,2.86,0,0,0-.81-.27Z"/><path id="Path_2180" data-name="Path 2180" class="cls-14" d="M217.2,179l.32,0a.55.55,0,0,1,.35.1.39.39,0,0,1,.11.27.39.39,0,0,1-.1.27.52.52,0,0,1-.38.13h-.13v.5h-.16Zm.17.61h.13c.2,0,.32-.09.32-.27s-.12-.24-.3-.24h-.15Z"/><path id="Path_2181" data-name="Path 2181" class="cls-14" d="M218.64,180.22v-.11h0a.33.33,0,0,1-.27.14.26.26,0,0,1-.28-.24v0c0-.22.19-.34.54-.34v0a.18.18,0,0,0-.16-.2,0,0,0,0,0,0,0,.48.48,0,0,0-.24.06l0-.11a.64.64,0,0,1,.3-.08c.28,0,.34.19.34.37V180a1.8,1.8,0,0,0,0,.22Zm0-.46c-.18,0-.39,0-.39.21a.15.15,0,0,0,.14.15h0a.21.21,0,0,0,.22-.15.43.43,0,0,0,0-.05Z"/><path id="Path_2182" data-name="Path 2182" class="cls-14" d="M219.08,179.32l.2.54c0,.06,0,.13.06.18h0s0-.12.06-.19l.18-.53h.17l-.24.65a1.47,1.47,0,0,1-.31.56.53.53,0,0,1-.21.11l0-.14a.53.53,0,0,0,.15-.08.46.46,0,0,0,.13-.18s0,0,0,0,0,0,0,0l-.34-.83Z"/><path id="Path_2183" data-name="Path 2183" class="cls-37" d="M215.64,182.35l.21.1,1.92-5.87-.23,0Z"/></g></g></g><path class="cls-7" d="M159.61,209.26s.67-.41,2.72-1.79,6.1-5.29,8.56-4.86,7.8-3,10.12-4.91,3,0,3,0,3.69,5.49-8.74,9c0,0-.43,2.31,12.43,9.25,0,0,3.14,3.18-1.06,4.92a38.39,38.39,0,0,1-3.92-1c.36.93-3.06,3.07-2.86,3.09.88.06-2.57,3.91-3.91,3.46a3.92,3.92,0,0,1-4.15,1.26s-10.64-.53-14.55-2.12-7.42-11.86-7.42-11.86l4.53-2.89Z"/><path class="cls-6" d="M107.78,109.52,80.4,129.76s20.38,15.75,22.26,29.78-1.45,117.08-1.45,117.08,10.55,20.82,29.78,14.17,18.79-98.88,18.79-98.88Z"/><path class="cls-5" d="M111.52,100.85s2,2.17,2,3-.36,3.11.72,4.48,24,38,35.56,83.55c0,0-44.52-62-45.68-62.73s7.23-3.76,7.23-3.76l-8.67-4Z"/><path class="cls-7" d="M232.63,61.29a1.56,1.56,0,0,0-.52,2.33,15.82,15.82,0,0,1,2.74,5.05c.54,2.08,3.88,2.14,6,2a1.54,1.54,0,0,0,1.36-1.93C241.28,65.29,238.61,58.25,232.63,61.29Z"/><path class="cls-5" d="M80.4,129.76S102,144.29,105.55,155.2c1.26,3.85,5.44,31.66,6,34.69S159.32,209,159.32,209c-1.07,8.83-2.18,17.28-3.32,25.2a4,4,0,0,1-5.35,3.19L92,216.1s-4.48-.62-6.07-9.73S77.36,152,80.4,129.76Z"/><path class="cls-7" d="M244.9,62.69V73.86c.64,1.1,1.93,1.24,3.71.63-.35,1.34.93,1.49,2.55,1.4.46.78,1.91.24,3.86-1,.55,1.25,1.72,1.25,3.37.29l7.42-7.42,2.46-.09c.05-2.21.21-5.5-2.56-5.5-.86,0-3.13,1.45-3.13,1.45a2.77,2.77,0,0,0-3.81-1.45c-.53-1.83-1.86-2.84-4.48-2.5a5.47,5.47,0,0,0-5.35-.48C246.77,59.83,245.41,61,244.9,62.69Z"/></g><g class="cls-38"><path class="cls-39" d="M221.53,431.76s-40-14.88-27.71-30.92S221.53,431.76,221.53,431.76Z"/><path class="cls-40" d="M198.92,405.2a45.59,45.59,0,0,1,6.63,4.73,56.21,56.21,0,0,1,5.87,5.68c.91,1,1.76,2.1,2.61,3.17a39.24,39.24,0,0,1,2.25,3.45A18.65,18.65,0,0,1,219,430a32,32,0,0,0-4-6.89,73.57,73.57,0,0,0-5-6.14C206.41,412.94,202.61,409.19,198.92,405.2Z"/><path class="cls-41" d="M218.67,435.92s-23.23-86.32,11.78-87.32S218.67,435.92,218.67,435.92Z"/><path class="cls-42" d="M216.25,434.64S236,380,258.5,397.17,216.25,434.64,216.25,434.64Z"/><path class="cls-39" d="M220.4,432.52a45.22,45.22,0,0,1,4.34-6.9,56,56,0,0,1,5.33-6.19c1-1,2-1.87,3-2.78a37.86,37.86,0,0,1,3.32-2.45,18.73,18.73,0,0,1,7.57-3.13,32.61,32.61,0,0,0-6.65,4.39,74.12,74.12,0,0,0-5.84,5.38C227.69,424.58,224.17,428.6,220.4,432.52Z"/><path class="cls-43" d="M198.08,433.74c5.82-1.8,10.25-3,17.21-2.05a99.44,99.44,0,0,0,45.58-4.36c-11.57,3.18-22.31,10.12-34.32,10.32-5,.09-10-1-15-1.78A125.15,125.15,0,0,0,195,434.71Z"/><g class="cls-44"><path class="cls-39" d="M229.72,361.07c-.44,5.23-1.11,10.4-1.84,15.55s-1.54,10.29-2.33,15.42L223,407.4c-.84,5.13-1.72,10.24-2.47,15.42a90.45,90.45,0,0,1,.15-15.7c.16-2.62.51-5.2.79-7.81s.72-5.17,1.12-7.75.88-5.14,1.37-7.71,1-5.11,1.63-7.65C226.76,371.11,228.06,366.05,229.72,361.07Z"/></g></g></g></g></svg>